<?xml version="1.0" encoding="UTF-8" standalone="no"?><!DOCTYPE svg PUBLIC "-//W3C//DTD SVG 1.1//EN" "http://www.w3.org/Graphics/SVG/1.1/DTD/svg11.dtd"><svg width="100%" height="100%" viewBox="0 0 60 51" version="1.1" xmlns="http://www.w3.org/2000/svg" xmlns:xlink="http://www.w3.org/1999/xlink" xml:space="preserve" style="fill-rule:evenodd;clip-rule:evenodd;stroke-linejoin:round;stroke-miterlimit:1.41421;"><g id="netlify.2e..-callout.2e..-vertical.2e..-color.2e..-accent"><path id="Background" d="M59.95,4c0,-2.208 -0.943,-4 -2.105,-4l-55.791,0c-1.162,0 -2.105,1.792 -2.105,4l0,43c0,2.208 0.943,4 2.105,4l55.791,0c1.162,0 2.105,-1.792 2.105,-4l0,-43Z" style="fill:#131a22;"/><path d="M30.008,6.729c-10.565,0 -19.131,8.567 -19.131,19.134c0,8.453 5.481,15.624 13.084,18.155c0.957,0.175 1.306,-0.416 1.306,-0.923c0,-0.453 -0.016,-1.657 -0.026,-3.254c-5.321,1.156 -6.444,-2.565 -6.444,-2.565c-0.871,-2.21 -2.125,-2.799 -2.125,-2.799c-1.737,-1.186 0.131,-1.163 0.131,-1.163c1.921,0.136 2.931,1.973 2.931,1.973c1.707,2.923 4.479,2.078 5.569,1.589c0.173,-1.236 0.667,-2.079 1.214,-2.557c-4.248,-0.483 -8.715,-2.125 -8.715,-9.457c0,-2.088 0.746,-3.796 1.97,-5.134c-0.198,-0.484 -0.854,-2.429 0.186,-5.063c0,0 1.607,-0.515 5.262,1.961c1.526,-0.425 3.163,-0.636 4.79,-0.643c1.625,0.007 3.262,0.218 4.79,0.643c3.653,-2.476 5.256,-1.961 5.256,-1.961c1.044,2.634 0.388,4.579 0.19,5.063c1.227,1.338 1.968,3.046 1.968,5.134c0,7.351 -4.474,8.968 -8.737,9.441c0.688,0.591 1.299,1.759 1.299,3.544c0,2.557 -0.023,4.621 -0.023,5.248c0,0.512 0.344,1.108 1.316,0.921c7.597,-2.536 13.074,-9.702 13.074,-18.153c0,-10.567 -8.568,-19.134 -19.135,-19.134" style="fill:#fff;"/></g></svg>