<?xml version="1.0" encoding="UTF-8" standalone="no"?><!DOCTYPE svg PUBLIC "-//W3C//DTD SVG 1.1//EN" "http://www.w3.org/Graphics/SVG/1.1/DTD/svg11.dtd"><svg viewBox="0 0 256 256" version="1.1" xmlns="http://www.w3.org/2000/svg" xmlns:xlink="http://www.w3.org/1999/xlink" xml:space="preserve" style="fill-rule:evenodd;clip-rule:evenodd;stroke-linejoin:round;stroke-miterlimit:1.41421;"><g id="_.28.Programa-Museo-Arte-y-Ciu.29."><path d="M20.451,185.373l0,-12.885l3.396,0c1.265,0 2.092,0.062 2.481,0.185c0.622,0.199 1.134,0.624 1.537,1.274c0.404,0.651 0.605,1.489 0.605,2.514c0,0.932 -0.174,1.712 -0.522,2.342c-0.348,0.63 -0.784,1.072 -1.306,1.327c-0.523,0.255 -1.422,0.383 -2.699,0.383l-1.385,0l0,4.86l-2.107,0Zm2.107,-10.705l0,3.656l1.167,0c0.784,0 1.316,-0.055 1.598,-0.167c0.281,-0.111 0.512,-0.312 0.692,-0.602c0.18,-0.29 0.27,-0.646 0.27,-1.068c0,-0.427 -0.093,-0.788 -0.279,-1.081c-0.186,-0.293 -0.415,-0.489 -0.688,-0.589c-0.272,-0.099 -0.85,-0.149 -1.732,-0.149l-1.028,0Z" style="fill-rule:nonzero;"/><path d="M32.119,185.373l-2.012,0l0,-9.334l1.864,0l0,1.327c0.319,-0.621 0.605,-1.033 0.857,-1.235c0.253,-0.202 0.545,-0.303 0.876,-0.303c0.458,0 0.896,0.155 1.314,0.466l-0.627,2.153c-0.33,-0.269 -0.644,-0.404 -0.94,-0.404c-0.279,0 -0.524,0.104 -0.736,0.312c-0.212,0.208 -0.364,0.584 -0.457,1.129c-0.093,0.545 -0.139,1.547 -0.139,3.006l0,2.883Z" style="fill-rule:nonzero;"/><path d="M35.41,180.574c0,-0.914 0.18,-1.746 0.54,-2.496c0.36,-0.75 0.83,-1.312 1.411,-1.687c0.58,-0.375 1.233,-0.563 1.959,-0.563c1.219,0 2.177,0.482 2.873,1.446c0.697,0.964 1.045,2.09 1.045,3.379c0,0.961 -0.181,1.828 -0.544,2.602c-0.363,0.773 -0.839,1.355 -1.428,1.745c-0.589,0.389 -1.235,0.584 -1.938,0.584c-1.126,0 -2.06,-0.434 -2.803,-1.301c-0.743,-0.867 -1.115,-2.103 -1.115,-3.709Zm2.055,0.132c0,0.943 0.183,1.657 0.549,2.14c0.365,0.484 0.807,0.725 1.323,0.725c0.505,0 0.938,-0.243 1.298,-0.729c0.359,-0.487 0.539,-1.204 0.539,-2.154c0,-0.925 -0.182,-1.631 -0.548,-2.118c-0.366,-0.486 -0.804,-0.729 -1.315,-0.729c-0.505,0 -0.939,0.243 -1.302,0.729c-0.363,0.487 -0.544,1.199 -0.544,2.136Z" style="fill-rule:nonzero;"/><path d="M44.623,185.988l2.298,0.343c0.035,0.34 0.141,0.582 0.318,0.725c0.177,0.144 0.457,0.215 0.84,0.215c0.441,0 0.798,-0.073 1.071,-0.219c0.192,-0.106 0.34,-0.281 0.444,-0.528c0.105,-0.246 0.157,-0.679 0.157,-1.3l0,-1.363c-0.302,0.504 -0.641,0.882 -1.019,1.134c-0.377,0.252 -0.795,0.378 -1.253,0.378c-0.842,0 -1.55,-0.384 -2.125,-1.151c-0.662,-0.879 -0.993,-2.069 -0.993,-3.569c0,-1.593 0.312,-2.796 0.936,-3.608c0.624,-0.811 1.38,-1.217 2.269,-1.217c0.47,0 0.898,0.126 1.284,0.378c0.386,0.252 0.73,0.633 1.032,1.143l0,-1.31l1.881,0l0,8.376c0,1.342 -0.122,2.314 -0.366,2.918c-0.244,0.604 -0.62,1.059 -1.128,1.367c-0.508,0.307 -1.212,0.461 -2.111,0.461c-0.83,0 -1.495,-0.111 -1.994,-0.334c-0.5,-0.223 -0.881,-0.555 -1.145,-0.997c-0.264,-0.443 -0.396,-0.954 -0.396,-1.534l0,-0.308Zm1.793,-5.475c0,0.996 0.158,1.722 0.475,2.179c0.316,0.457 0.698,0.686 1.145,0.686c0.482,0 0.894,-0.232 1.236,-0.694c0.343,-0.463 0.514,-1.166 0.514,-2.11c0,-0.972 -0.164,-1.692 -0.492,-2.157c-0.328,-0.466 -0.733,-0.699 -1.215,-0.699c-0.476,0 -0.872,0.228 -1.188,0.685c-0.317,0.457 -0.475,1.16 -0.475,2.11Z" style="fill-rule:nonzero;"/><path d="M55.672,185.373l-2.011,0l0,-9.334l1.863,0l0,1.327c0.319,-0.621 0.605,-1.033 0.858,-1.235c0.252,-0.202 0.544,-0.303 0.875,-0.303c0.458,0 0.897,0.155 1.315,0.466l-0.627,2.153c-0.331,-0.269 -0.645,-0.404 -0.941,-0.404c-0.278,0 -0.524,0.104 -0.735,0.312c-0.212,0.208 -0.365,0.584 -0.458,1.129c-0.092,0.545 -0.139,1.547 -0.139,3.006l0,2.883Z" style="fill-rule:nonzero;"/><path d="M60.931,178.887l-1.819,-0.405c0.22,-0.943 0.584,-1.621 1.092,-2.034c0.508,-0.413 1.238,-0.62 2.19,-0.62c0.848,0 1.495,0.12 1.942,0.36c0.447,0.241 0.766,0.567 0.958,0.98c0.191,0.414 0.287,1.165 0.287,2.255l-0.017,2.883c0,0.808 0.032,1.41 0.095,1.806c0.064,0.395 0.183,0.816 0.357,1.261l-1.985,0l-0.261,-1.019c-0.343,0.41 -0.71,0.717 -1.102,0.922c-0.391,0.205 -0.808,0.308 -1.249,0.308c-0.737,0 -1.341,-0.251 -1.811,-0.751c-0.47,-0.501 -0.705,-1.168 -0.705,-2c0,-0.527 0.095,-0.987 0.287,-1.38c0.191,-0.392 0.461,-0.706 0.81,-0.94c0.348,-0.235 0.905,-0.443 1.671,-0.624c0.929,-0.217 1.576,-0.419 1.942,-0.607c0,-0.515 -0.036,-0.854 -0.109,-1.015c-0.072,-0.161 -0.206,-0.293 -0.4,-0.395c-0.195,-0.103 -0.469,-0.154 -0.823,-0.154c-0.36,0 -0.643,0.082 -0.849,0.246c-0.206,0.164 -0.373,0.472 -0.501,0.923Zm2.682,2.004c-0.255,0.105 -0.653,0.228 -1.193,0.369c-0.621,0.164 -1.027,0.345 -1.219,0.545c-0.191,0.199 -0.287,0.457 -0.287,0.773c0,0.358 0.106,0.658 0.318,0.901c0.212,0.243 0.477,0.365 0.796,0.365c0.285,0 0.566,-0.098 0.845,-0.295c0.279,-0.196 0.472,-0.429 0.579,-0.698c0.108,-0.27 0.161,-0.759 0.161,-1.468l0,-0.492Z" style="fill-rule:nonzero;"/><path d="M67.41,176.039l1.846,0l0,1.274c0.33,-0.498 0.693,-0.87 1.088,-1.116c0.395,-0.246 0.821,-0.369 1.28,-0.369c0.488,0 0.91,0.123 1.267,0.369c0.357,0.246 0.649,0.618 0.875,1.116c0.337,-0.498 0.698,-0.87 1.084,-1.116c0.386,-0.246 0.797,-0.369 1.232,-0.369c0.517,0 0.962,0.125 1.337,0.374c0.374,0.249 0.659,0.605 0.853,1.068c0.194,0.462 0.292,1.174 0.292,2.135l0,5.968l-2.012,0l0,-5.335c0,-0.932 -0.081,-1.551 -0.244,-1.859c-0.162,-0.307 -0.435,-0.461 -0.818,-0.461c-0.447,0 -0.807,0.215 -1.08,0.646c-0.273,0.43 -0.409,1.273 -0.409,2.527l0,4.482l-2.011,0l0,-5.115c0,-1.014 -0.055,-1.667 -0.166,-1.96c-0.145,-0.387 -0.438,-0.58 -0.879,-0.58c-0.296,0 -0.569,0.099 -0.819,0.299c-0.249,0.199 -0.429,0.49 -0.54,0.874c-0.11,0.384 -0.165,1.033 -0.165,1.947l0,4.535l-2.011,0l0,-9.334Z" style="fill-rule:nonzero;"/><path d="M82.064,178.887l-1.82,-0.405c0.221,-0.943 0.585,-1.621 1.093,-2.034c0.508,-0.413 1.238,-0.62 2.19,-0.62c0.847,0 1.495,0.12 1.942,0.36c0.447,0.241 0.766,0.567 0.957,0.98c0.192,0.414 0.288,1.165 0.288,2.255l-0.018,2.883c0,0.808 0.032,1.41 0.096,1.806c0.064,0.395 0.183,0.816 0.357,1.261l-1.985,0l-0.261,-1.019c-0.343,0.41 -0.71,0.717 -1.102,0.922c-0.392,0.205 -0.808,0.308 -1.249,0.308c-0.738,0 -1.341,-0.251 -1.811,-0.751c-0.471,-0.501 -0.706,-1.168 -0.706,-2c0,-0.527 0.096,-0.987 0.288,-1.38c0.191,-0.392 0.461,-0.706 0.809,-0.94c0.349,-0.235 0.906,-0.443 1.672,-0.624c0.929,-0.217 1.576,-0.419 1.942,-0.607c0,-0.515 -0.036,-0.854 -0.109,-1.015c-0.073,-0.161 -0.206,-0.293 -0.4,-0.395c-0.195,-0.103 -0.469,-0.154 -0.823,-0.154c-0.36,0 -0.643,0.082 -0.849,0.246c-0.206,0.164 -0.373,0.472 -0.501,0.923Zm2.682,2.004c-0.256,0.105 -0.653,0.228 -1.193,0.369c-0.621,0.164 -1.027,0.345 -1.219,0.545c-0.192,0.199 -0.287,0.457 -0.287,0.773c0,0.358 0.106,0.658 0.317,0.901c0.212,0.243 0.478,0.365 0.797,0.365c0.285,0 0.566,-0.098 0.845,-0.295c0.278,-0.196 0.471,-0.429 0.579,-0.698c0.107,-0.27 0.161,-0.759 0.161,-1.468l0,-0.492Z" style="fill-rule:nonzero;"/><path d="M92.748,185.373l0,-12.885l3.161,0l1.898,8.789l1.881,-8.789l3.169,0l0,12.885l-1.959,0l0,-10.143l-2.081,10.143l-2.038,0l-2.063,-10.143l0,10.143l-1.968,0Z" style="fill-rule:nonzero;"/><path d="M109.927,185.373l0,-1.397c-0.278,0.503 -0.644,0.898 -1.097,1.182c-0.452,0.284 -0.926,0.426 -1.419,0.426c-0.499,0 -0.946,-0.132 -1.341,-0.396c-0.395,-0.263 -0.689,-0.638 -0.884,-1.125c-0.194,-0.486 -0.291,-1.192 -0.291,-2.118l0,-5.906l2.011,0l0,4.289c0,1.225 0.031,2.003 0.091,2.334c0.061,0.331 0.196,0.587 0.405,0.769c0.209,0.181 0.462,0.272 0.758,0.272c0.337,0 0.647,-0.119 0.932,-0.356c0.284,-0.237 0.471,-0.542 0.561,-0.914c0.09,-0.372 0.135,-1.191 0.135,-2.456l0,-3.938l2.003,0l0,9.334l-1.864,0Z" style="fill-rule:nonzero;"/><path d="M113.175,182.71l2.012,-0.378c0.174,0.979 0.714,1.468 1.619,1.468c0.482,0 0.842,-0.094 1.08,-0.281c0.238,-0.188 0.357,-0.431 0.357,-0.73c0,-0.205 -0.052,-0.366 -0.157,-0.483c-0.11,-0.118 -0.328,-0.22 -0.653,-0.308c-1.648,-0.439 -2.696,-0.858 -3.143,-1.257c-0.557,-0.498 -0.836,-1.18 -0.836,-2.048c0,-0.867 0.273,-1.561 0.818,-2.083c0.546,-0.521 1.338,-0.782 2.378,-0.782c0.992,0 1.747,0.195 2.263,0.585c0.517,0.389 0.88,1.018 1.089,1.885l-1.89,0.431c-0.168,-0.75 -0.644,-1.125 -1.428,-1.125c-0.493,0 -0.844,0.071 -1.053,0.215c-0.209,0.143 -0.314,0.329 -0.314,0.558c0,0.205 0.096,0.375 0.288,0.51c0.191,0.14 0.786,0.351 1.785,0.633c1.12,0.316 1.88,0.7 2.281,1.151c0.395,0.451 0.592,1.052 0.592,1.802c0,0.902 -0.306,1.646 -0.919,2.232c-0.612,0.586 -1.458,0.879 -2.538,0.879c-0.981,0 -1.782,-0.245 -2.403,-0.734c-0.621,-0.489 -1.03,-1.203 -1.228,-2.14Z" style="fill-rule:nonzero;"/><path d="M126.41,182.402l1.994,0.413c-0.267,0.938 -0.682,1.634 -1.245,2.088c-0.563,0.454 -1.248,0.681 -2.055,0.681c-1.12,0 -1.985,-0.378 -2.594,-1.134c-0.72,-0.879 -1.08,-2.109 -1.08,-3.691c0,-1.559 0.363,-2.807 1.088,-3.744c0.616,-0.791 1.411,-1.187 2.386,-1.187c1.086,0 1.936,0.404 2.551,1.213c0.709,0.926 1.063,2.291 1.063,4.096l-0.009,0.281l-5.024,0c0.011,0.738 0.175,1.31 0.492,1.714c0.316,0.404 0.698,0.606 1.145,0.606c0.644,0 1.074,-0.445 1.288,-1.336Zm0.114,-2.496c-0.018,-0.726 -0.172,-1.273 -0.462,-1.639c-0.29,-0.366 -0.635,-0.549 -1.036,-0.549c-0.424,0 -0.781,0.19 -1.071,0.571c-0.296,0.387 -0.441,0.926 -0.435,1.617l3.004,0Z" style="fill-rule:nonzero;"/><path d="M129.676,180.574c0,-0.914 0.18,-1.746 0.54,-2.496c0.359,-0.75 0.83,-1.312 1.41,-1.687c0.581,-0.375 1.234,-0.563 1.959,-0.563c1.219,0 2.177,0.482 2.874,1.446c0.696,0.964 1.045,2.09 1.045,3.379c0,0.961 -0.182,1.828 -0.545,2.602c-0.362,0.773 -0.838,1.355 -1.428,1.745c-0.589,0.389 -1.235,0.584 -1.937,0.584c-1.126,0 -2.061,-0.434 -2.804,-1.301c-0.743,-0.867 -1.114,-2.103 -1.114,-3.709Zm2.055,0.132c0,0.943 0.182,1.657 0.548,2.14c0.366,0.484 0.807,0.725 1.324,0.725c0.505,0 0.937,-0.243 1.297,-0.729c0.36,-0.487 0.54,-1.204 0.54,-2.154c0,-0.925 -0.183,-1.631 -0.549,-2.118c-0.365,-0.486 -0.804,-0.729 -1.314,-0.729c-0.505,0 -0.939,0.243 -1.302,0.729c-0.363,0.487 -0.544,1.199 -0.544,2.136Z" style="fill-rule:nonzero;"/><path d="M152.062,185.373l-2.298,0l-0.915,-2.927l-4.179,0l-0.862,2.927l-2.247,0l4.075,-12.885l2.238,0l4.188,12.885Zm-3.892,-5.098l-1.437,-4.781l-1.419,4.781l2.856,0Z" style="fill-rule:nonzero;"/><path d="M155.092,185.373l-2.011,0l0,-9.334l1.863,0l0,1.327c0.32,-0.621 0.606,-1.033 0.858,-1.235c0.253,-0.202 0.544,-0.303 0.875,-0.303c0.459,0 0.897,0.155 1.315,0.466l-0.627,2.153c-0.331,-0.269 -0.644,-0.404 -0.94,-0.404c-0.279,0 -0.524,0.104 -0.736,0.312c-0.212,0.208 -0.364,0.584 -0.457,1.129c-0.093,0.545 -0.14,1.547 -0.14,3.006l0,2.883Z" style="fill-rule:nonzero;"/><path d="M162.319,176.039l0,1.969l-1.367,0l0,3.762c0,0.814 0.021,1.286 0.061,1.415c0.082,0.234 0.247,0.351 0.497,0.351c0.185,0 0.452,-0.079 0.801,-0.237l0.174,1.916c-0.464,0.246 -0.99,0.369 -1.576,0.369c-0.511,0 -0.92,-0.123 -1.228,-0.369c-0.307,-0.246 -0.514,-0.601 -0.618,-1.064c-0.081,-0.339 -0.122,-1.031 -0.122,-2.074l0,-4.069l-0.923,0l0,-1.969l0.923,0l0,-1.854l2.011,-1.442l0,3.296l1.367,0Z" style="fill-rule:nonzero;"/><path d="M168.119,182.402l1.994,0.413c-0.267,0.938 -0.683,1.634 -1.246,2.088c-0.563,0.454 -1.248,0.681 -2.055,0.681c-1.12,0 -1.985,-0.378 -2.594,-1.134c-0.72,-0.879 -1.08,-2.109 -1.08,-3.691c0,-1.559 0.363,-2.807 1.088,-3.744c0.616,-0.791 1.411,-1.187 2.386,-1.187c1.086,0 1.936,0.404 2.551,1.213c0.709,0.926 1.063,2.291 1.063,4.096l-0.009,0.281l-5.024,0c0.012,0.738 0.176,1.31 0.492,1.714c0.316,0.404 0.698,0.606 1.145,0.606c0.644,0 1.074,-0.445 1.289,-1.336Zm0.113,-2.496c-0.018,-0.726 -0.171,-1.273 -0.462,-1.639c-0.29,-0.366 -0.635,-0.549 -1.036,-0.549c-0.424,0 -0.781,0.19 -1.071,0.571c-0.296,0.387 -0.441,0.926 -0.435,1.617l3.004,0Z" style="fill-rule:nonzero;"/><path d="M174.963,176.039l2.142,0l1.802,6.627l1.776,-6.627l2.073,0l-2.674,8.982l-0.513,1.75c-0.227,0.656 -0.452,1.136 -0.675,1.441c-0.224,0.305 -0.508,0.539 -0.853,0.703c-0.346,0.164 -0.771,0.246 -1.276,0.246c-0.389,0 -0.769,-0.05 -1.141,-0.149l-0.174,-1.934c0.314,0.076 0.595,0.114 0.845,0.114c0.383,0 0.698,-0.129 0.945,-0.386c0.246,-0.258 0.448,-0.727 0.605,-1.407l-2.882,-9.36Z" style="fill-rule:nonzero;"/><path d="M194.833,180.636l2.046,0.8c-0.319,1.441 -0.851,2.494 -1.594,3.159c-0.743,0.665 -1.657,0.998 -2.742,0.998c-1.365,0 -2.47,-0.531 -3.318,-1.591c-0.975,-1.225 -1.463,-2.877 -1.463,-4.957c0,-2.197 0.491,-3.917 1.472,-5.159c0.853,-1.078 2,-1.617 3.439,-1.617c1.173,0 2.154,0.404 2.943,1.212c0.563,0.575 0.976,1.427 1.237,2.558l-2.09,0.615c-0.134,-0.697 -0.399,-1.232 -0.797,-1.604c-0.397,-0.372 -0.866,-0.558 -1.406,-0.558c-0.772,0 -1.402,0.34 -1.889,1.02c-0.488,0.679 -0.732,1.801 -0.732,3.366c0,1.623 0.238,2.777 0.714,3.463c0.476,0.685 1.094,1.028 1.855,1.028c0.557,0 1.039,-0.218 1.445,-0.655c0.407,-0.436 0.7,-1.129 0.88,-2.078Z" style="fill-rule:nonzero;"/><path d="M198.673,174.773l0,-2.285l2.011,0l0,2.285l-2.011,0Zm0,10.6l0,-9.334l2.011,0l0,9.334l-2.011,0Z" style="fill-rule:nonzero;"/><path d="M207.72,185.373l0,-1.397c-0.279,0.503 -0.645,0.898 -1.098,1.182c-0.452,0.284 -0.925,0.426 -1.419,0.426c-0.499,0 -0.946,-0.132 -1.341,-0.396c-0.395,-0.263 -0.689,-0.638 -0.884,-1.125c-0.194,-0.486 -0.291,-1.192 -0.291,-2.118l0,-5.906l2.011,0l0,4.289c0,1.225 0.031,2.003 0.091,2.334c0.061,0.331 0.196,0.587 0.405,0.769c0.209,0.181 0.462,0.272 0.758,0.272c0.337,0 0.647,-0.119 0.932,-0.356c0.284,-0.237 0.471,-0.542 0.561,-0.914c0.09,-0.372 0.135,-1.191 0.135,-2.456l0,-3.938l2.003,0l0,9.334l-1.863,0Z" style="fill-rule:nonzero;"/><path d="M218.63,185.373l-1.872,0l0,-1.371c-0.308,0.527 -0.671,0.923 -1.089,1.186c-0.418,0.264 -0.847,0.396 -1.288,0.396c-0.848,0 -1.587,-0.426 -2.216,-1.279c-0.63,-0.852 -0.945,-2.07 -0.945,-3.652c0,-1.593 0.308,-2.796 0.923,-3.608c0.615,-0.811 1.373,-1.217 2.272,-1.217c0.424,0 0.82,0.109 1.189,0.325c0.369,0.217 0.707,0.542 1.014,0.976l0,-4.641l2.012,0l0,12.885Zm-5.355,-4.869c0,0.844 0.071,1.472 0.213,1.885c0.142,0.413 0.346,0.724 0.61,0.932c0.264,0.208 0.561,0.312 0.892,0.312c0.441,0 0.824,-0.24 1.149,-0.721c0.326,-0.48 0.488,-1.204 0.488,-2.171c0,-1.072 -0.158,-1.844 -0.474,-2.316c-0.317,-0.471 -0.719,-0.707 -1.206,-0.707c-0.465,0 -0.86,0.231 -1.185,0.694c-0.325,0.463 -0.487,1.16 -0.487,2.092Z" style="fill-rule:nonzero;"/><path d="M222.104,178.887l-1.82,-0.405c0.221,-0.943 0.585,-1.621 1.093,-2.034c0.508,-0.413 1.238,-0.62 2.19,-0.62c0.847,0 1.495,0.12 1.942,0.36c0.447,0.241 0.766,0.567 0.957,0.98c0.192,0.414 0.288,1.165 0.288,2.255l-0.018,2.883c0,0.808 0.032,1.41 0.096,1.806c0.064,0.395 0.183,0.816 0.357,1.261l-1.985,0l-0.261,-1.019c-0.343,0.41 -0.71,0.717 -1.102,0.922c-0.392,0.205 -0.808,0.308 -1.249,0.308c-0.738,0 -1.341,-0.251 -1.811,-0.751c-0.471,-0.501 -0.706,-1.168 -0.706,-2c0,-0.527 0.096,-0.987 0.288,-1.38c0.191,-0.392 0.461,-0.706 0.809,-0.94c0.349,-0.235 0.906,-0.443 1.672,-0.624c0.929,-0.217 1.576,-0.419 1.942,-0.607c0,-0.515 -0.036,-0.854 -0.109,-1.015c-0.073,-0.161 -0.206,-0.293 -0.401,-0.395c-0.194,-0.103 -0.468,-0.154 -0.822,-0.154c-0.36,0 -0.643,0.082 -0.849,0.246c-0.206,0.164 -0.373,0.472 -0.501,0.923Zm2.682,2.004c-0.256,0.105 -0.653,0.228 -1.193,0.369c-0.621,0.164 -1.027,0.345 -1.219,0.545c-0.192,0.199 -0.287,0.457 -0.287,0.773c0,0.358 0.106,0.658 0.317,0.901c0.212,0.243 0.478,0.365 0.797,0.365c0.285,0 0.566,-0.098 0.845,-0.295c0.278,-0.196 0.471,-0.429 0.579,-0.698c0.107,-0.27 0.161,-0.759 0.161,-1.468l0,-0.492Z" style="fill-rule:nonzero;"/><path d="M235.696,185.373l-1.872,0l0,-1.371c-0.308,0.527 -0.67,0.923 -1.088,1.186c-0.418,0.264 -0.848,0.396 -1.289,0.396c-0.848,0 -1.586,-0.426 -2.216,-1.279c-0.63,-0.852 -0.945,-2.07 -0.945,-3.652c0,-1.593 0.308,-2.796 0.923,-3.608c0.616,-0.811 1.373,-1.217 2.273,-1.217c0.424,0 0.82,0.109 1.188,0.325c0.369,0.217 0.707,0.542 1.015,0.976l0,-4.641l2.011,0l0,12.885Zm-5.355,-4.869c0,0.844 0.071,1.472 0.213,1.885c0.143,0.413 0.346,0.724 0.61,0.932c0.264,0.208 0.562,0.312 0.892,0.312c0.442,0 0.825,-0.24 1.15,-0.721c0.325,-0.48 0.487,-1.204 0.487,-2.171c0,-1.072 -0.158,-1.844 -0.474,-2.316c-0.316,-0.471 -0.718,-0.707 -1.206,-0.707c-0.464,0 -0.859,0.231 -1.184,0.694c-0.325,0.463 -0.488,1.16 -0.488,2.092Z" style="fill-rule:nonzero;"/></g><g><path d="M195.078,111.426l0,-3.553l8.574,0l0,8.402c-0.834,0.863 -2.041,1.624 -3.622,2.281c-1.581,0.657 -3.183,0.985 -4.804,0.985c-2.061,0 -3.857,-0.463 -5.389,-1.388c-1.532,-0.926 -2.684,-2.25 -3.454,-3.971c-0.771,-1.722 -1.156,-3.595 -1.156,-5.619c0,-2.196 0.43,-4.148 1.29,-5.856c0.86,-1.707 2.119,-3.016 3.777,-3.928c1.263,-0.7 2.835,-1.05 4.717,-1.05c2.445,0 4.356,0.549 5.731,1.648c1.375,1.098 2.26,2.616 2.654,4.553l-3.951,0.792c-0.277,-1.036 -0.799,-1.854 -1.565,-2.453c-0.766,-0.6 -1.723,-0.9 -2.869,-0.9c-1.739,0 -3.12,0.59 -4.146,1.77c-1.026,1.18 -1.539,2.93 -1.539,5.252c0,2.503 0.52,4.381 1.559,5.632c1.039,1.252 2.401,1.878 4.085,1.878c0.833,0 1.669,-0.175 2.507,-0.525c0.837,-0.35 1.556,-0.775 2.157,-1.273l0,-2.677l-4.556,0Z" style="fill:#1a1a1a;fill-rule:nonzero;"/><path d="M205.506,103.902l4.018,0l3.414,10.848l3.333,-10.848l3.91,0l-5.039,14.704l-0.901,2.662c-0.331,0.892 -0.647,1.573 -0.947,2.043c-0.3,0.47 -0.645,0.851 -1.035,1.144c-0.389,0.292 -0.869,0.52 -1.438,0.683c-0.569,0.163 -1.211,0.245 -1.928,0.245c-0.726,0 -1.438,-0.082 -2.137,-0.245l-0.336,-3.165c0.591,0.124 1.124,0.187 1.599,0.187c0.878,0 1.528,-0.276 1.949,-0.828c0.421,-0.551 0.744,-1.254 0.968,-2.107l-5.43,-15.323Z" style="fill:#1a1a1a;fill-rule:nonzero;"/><path d="M230.865,114.318l3.763,0.677c-0.484,1.477 -1.247,2.601 -2.291,3.374c-1.044,0.772 -2.35,1.158 -3.918,1.158c-2.481,0 -4.318,-0.868 -5.51,-2.604c-0.94,-1.391 -1.411,-3.147 -1.411,-5.266c0,-2.533 0.619,-4.516 1.855,-5.95c1.236,-1.434 2.8,-2.151 4.69,-2.151c2.123,0 3.799,0.751 5.026,2.252c1.228,1.501 1.814,3.801 1.761,6.899l-9.461,0c0.027,1.199 0.331,2.132 0.914,2.798c0.582,0.667 1.308,1 2.177,1c0.591,0 1.088,-0.172 1.491,-0.518c0.404,-0.345 0.708,-0.901 0.914,-1.669Zm0.215,-4.086c-0.027,-1.17 -0.309,-2.06 -0.846,-2.669c-0.538,-0.609 -1.192,-0.913 -1.962,-0.913c-0.825,0 -1.506,0.321 -2.043,0.964c-0.538,0.642 -0.802,1.515 -0.793,2.618l5.644,0Z" style="fill:#1a1a1a;fill-rule:nonzero;"/></g><rect x="20.271" y="167.012" width="215.447" height="2.555" style="fill:#1a1a1a;"/><g id="Capa2"><path d="M168.43,82.164c2.476,-4.199 5.389,-7.737 8.738,-10.614c4.63,-3.979 9.77,-6.857 15.42,-8.636c5.649,-1.779 11.206,-2.668 16.671,-2.668c6.02,0 11.09,0.374 15.212,1.123c4.121,0.749 7.525,1.638 10.21,2.668l-4.028,17.414c-2.316,-1.03 -5.025,-1.779 -8.127,-2.247c-3.103,-0.468 -7.016,-0.702 -11.739,-0.702c-4.168,0 -7.942,0.678 -11.322,2.036c-3.381,1.357 -6.275,3.394 -8.683,6.109c-2.408,2.715 -4.284,6.132 -5.626,10.251c-1.343,4.119 -2.015,8.941 -2.015,14.464c0,4.868 0.602,9.315 1.806,13.341c1.204,4.026 3.01,7.49 5.418,10.392c2.408,2.902 5.464,5.149 9.169,6.74c3.705,1.592 8.011,2.388 12.92,2.388c4.538,0 8.358,-0.421 11.461,-1.264c3.103,-0.843 5.858,-1.919 8.266,-3.23l4.029,16.571c-3.057,2.153 -7.085,3.721 -12.087,4.704c-5.001,0.983 -10.141,1.475 -15.42,1.475c-5.577,0 -10.949,-0.757 -16.115,-2.269l0.831,2.683l-23.847,0l-21.436,-75.159l-19.888,75.152l-23.465,0l0.004,-0.013l-3.889,0l0,-77.821l-20.461,77.821l-20.039,0l-20.39,-77.821l0,77.821l-19.336,0l0,-98.861l31.148,0l18.703,67.436l18.493,-67.436l31.218,0l0,45.161l12.984,-45.134l29.601,0l5.611,18.125Z" style="fill:#1a1a1a;"/></g></svg>
