<?xml version="1.0" encoding="UTF-8" standalone="no"?><!DOCTYPE svg PUBLIC "-//W3C//DTD SVG 1.1//EN" "http://www.w3.org/Graphics/SVG/1.1/DTD/svg11.dtd"><svg width="100%" height="100%" viewBox="0 0 256 256" version="1.1" xmlns="http://www.w3.org/2000/svg" xmlns:xlink="http://www.w3.org/1999/xlink" xml:space="preserve" style="fill-rule:evenodd;clip-rule:evenodd;stroke-linejoin:round;stroke-miterlimit:1.41421;"><g id="Capa1"><ellipse cx="91.802" cy="122.431" rx="73.728" ry="69.734" style="fill:#fff;fill-opacity:0.692137;"/><path d="M56.289,151.038l42.095,-4.434l-3.242,-4.686l-7.64,1.353l6.274,-2.682l-1.88,-2.7l-35.607,13.149Z" style="fill:#d6d7dc;fill-rule:nonzero;"/><path d="M119.907,167.501c0,0 129.026,-36.804 129.909,-38.831c0.889,-2.026 2.642,-4.626 -5.604,-2.898c-8.236,1.744 -82.443,9.598 -82.443,9.598l-4.41,4.923l57.336,-6.303l5.084,-0.943l-78.91,23.464l14.43,-15.346l26.511,-28.425c0,0 -7.368,-1.741 -10.607,0.295c-3.249,2.021 -39.458,12.483 -39.458,12.483l-0.298,4.349l30.039,-8.979l-16.494,16.222l-14.137,1.445l-0.29,4.338l8.539,-0.58l-8.539,8.695l0,8.895l-10.658,7.598Z" style="fill:#d6d7dc;fill-rule:nonzero;"/><path id="Capa11" d="M92.151,51.206c41.942,0 75.994,31.923 75.994,71.243c0,39.319 -34.052,71.241 -75.994,71.241c-41.942,0 -75.993,-31.922 -75.993,-71.241c0,-39.32 34.051,-71.243 75.993,-71.243l0,0Zm-39.013,26.008c-1.887,0.078 -4.988,1.52 -4.894,4.543c0.154,4.977 1.55,57.286 2.029,65.43c0.375,6.355 7.185,3.433 7.204,3.433c0.017,0 27.195,-21.102 27.247,-21.208l0.023,0.033c0.9,1.15 27.896,33.929 29.981,36.193c4.263,4.633 6.239,-0.051 6.239,0c0,0.051 2.217,-64.593 2.193,-69.228c-0.023,-4.635 -5.942,-5.524 -5.942,-5.507c0,0.017 -32.478,25.174 -32.494,25.174c-0.017,0 -30.455,-38.665 -30.53,-38.702c-0.231,-0.112 -0.561,-0.169 -0.95,-0.164l-0.106,0.003l0,0Zm38.591,46.973c0.055,0.01 21.782,-17.238 21.885,-17.31c0.106,-0.073 -1.592,44.878 -1.973,44.42c-0.034,-0.041 -20.236,-27.173 -19.912,-27.11l0,0Zm-34.108,13.485c2.066,-2.271 20.568,-16.481 20.551,-16.526c-0.018,-0.049 -20.122,-24.427 -20.698,-24.728c-0.291,-0.153 0.956,37.481 0.147,41.254c-0.178,0.194 -0.234,0.301 -0.147,0.302c0.054,0.002 0.103,-0.103 0.147,-0.302Z" style="fill:#d1cdcd;fill-opacity:0.657475;"/><path d="M122.198,131.491l9.689,-6.274l-1.943,34.534l-8.844,6.549l1.098,-34.809l0,0Z" style="fill:#93857c;fill-rule:nonzero;"/><path d="M91.69,124.207l10.074,-6.091l11.132,14.725l-1.273,18.29l-19.933,-26.924l0,0Z" style="fill:#93857c;fill-rule:nonzero;"/><path d="M57.78,116.278l11.339,-5.97l0,18.189l-11.339,8.928l0,-21.147Z" style="fill:#93857c;fill-rule:nonzero;"/><path d="M86.721,132.073l-2.106,-2.638l-27.704,21.244l13.176,-4.78l16.634,-13.826l0,0Z" style="fill:#93857c;fill-rule:nonzero;"/><path d="M53.534,77.168l13.603,0l26.502,31.924l-9.129,6.806l-30.976,-38.73Z" style="fill:#38140e;fill-rule:nonzero;"/><path d="M117.201,91.031l11.139,-4.874c0,0 4.55,0.437 5.179,4.452l-1.571,34.776l-9.726,6.011l0.795,-36.635c0,0 -2.986,-3.873 -5.816,-3.73" style="fill:#38140e;fill-rule:nonzero;"/><path d="M57.671,116.326l11.523,-5.934l0.643,0.804l-12.166,-15.207l0,20.337Z" style="fill:#38140e;fill-rule:nonzero;"/><path d="M91.35,124.308l9.277,-5.267l13.205,-11.843l-22.482,17.11l0,0Z" style="fill:#93857c;fill-rule:nonzero;"/></g><g><path d="M73.764,207.41l0,11.858l-2.696,0l0,-8.005l-1.076,8.005l-1.912,0l-1.135,-7.822l0,7.822l-2.696,0l0,-11.858l3.992,0c0.117,0.713 0.242,1.553 0.374,2.52l0.424,3.017l0.704,-5.537l4.021,0Z" style="fill:#191e20;fill-rule:nonzero;"/><path d="M83.511,207.41l0,7.925c0,0.898 -0.03,1.529 -0.088,1.893c-0.059,0.364 -0.232,0.737 -0.52,1.121c-0.288,0.383 -0.668,0.674 -1.139,0.871c-0.471,0.198 -1.027,0.297 -1.666,0.297c-0.708,0 -1.333,-0.117 -1.875,-0.352c-0.542,-0.234 -0.948,-0.539 -1.216,-0.915c-0.269,-0.376 -0.427,-0.773 -0.476,-1.19c-0.049,-0.418 -0.074,-1.295 -0.074,-2.633l0,-7.017l3.084,0l0,8.892c0,0.517 0.028,0.848 0.084,0.992c0.056,0.144 0.17,0.216 0.341,0.216c0.195,0 0.321,-0.079 0.377,-0.238c0.056,-0.159 0.084,-0.533 0.084,-1.124l0,-8.738l3.084,0Z" style="fill:#191e20;fill-rule:nonzero;"/><path d="M92.738,210.999l-2.864,0l0,-0.879c0,-0.41 -0.037,-0.671 -0.11,-0.784c-0.073,-0.112 -0.195,-0.168 -0.366,-0.168c-0.186,0 -0.326,0.076 -0.421,0.227c-0.095,0.151 -0.143,0.381 -0.143,0.688c0,0.396 0.054,0.694 0.161,0.894c0.103,0.2 0.393,0.442 0.872,0.725c1.372,0.815 2.236,1.484 2.592,2.007c0.357,0.522 0.535,1.365 0.535,2.527c0,0.844 -0.099,1.467 -0.297,1.867c-0.197,0.401 -0.579,0.737 -1.146,1.007c-0.566,0.271 -1.225,0.407 -1.977,0.407c-0.826,0 -1.53,-0.156 -2.113,-0.469c-0.584,-0.312 -0.966,-0.71 -1.147,-1.194c-0.18,-0.483 -0.271,-1.169 -0.271,-2.058l0,-0.776l2.864,0l0,1.443c0,0.444 0.04,0.73 0.121,0.857c0.081,0.127 0.223,0.19 0.428,0.19c0.206,0 0.358,-0.08 0.458,-0.242c0.1,-0.161 0.15,-0.4 0.15,-0.717c0,-0.699 -0.095,-1.155 -0.285,-1.37c-0.196,-0.215 -0.677,-0.574 -1.443,-1.077c-0.767,-0.507 -1.275,-0.876 -1.524,-1.106c-0.249,-0.229 -0.455,-0.546 -0.618,-0.952c-0.164,-0.405 -0.246,-0.923 -0.246,-1.552c0,-0.909 0.116,-1.573 0.348,-1.993c0.232,-0.42 0.607,-0.748 1.124,-0.985c0.518,-0.237 1.143,-0.355 1.875,-0.355c0.801,0 1.484,0.129 2.047,0.388c0.564,0.259 0.938,0.585 1.121,0.978c0.183,0.393 0.275,1.061 0.275,2.003l0,0.469Z" style="fill:#191e20;fill-rule:nonzero;"/><path d="M95.461,207.41l5.141,0l0,2.373l-2.058,0l0,2.249l1.927,0l0,2.255l-1.927,0l0,2.608l2.264,0l0,2.373l-5.347,0l0,-11.858l0,0Z" style="fill:#191e20;fill-rule:nonzero;"/><path d="M110.24,214.353c0,1.192 -0.028,2.035 -0.085,2.531c-0.056,0.496 -0.231,0.948 -0.527,1.359c-0.295,0.41 -0.694,0.725 -1.197,0.944c-0.503,0.22 -1.089,0.33 -1.758,0.33c-0.635,0 -1.205,-0.104 -1.71,-0.311c-0.506,-0.208 -0.912,-0.519 -1.22,-0.934c-0.308,-0.415 -0.491,-0.867 -0.549,-1.355c-0.059,-0.488 -0.088,-1.343 -0.088,-2.564l0,-2.028c0,-1.192 0.028,-2.035 0.084,-2.531c0.056,-0.496 0.232,-0.948 0.527,-1.359c0.296,-0.41 0.695,-0.725 1.198,-0.944c0.503,-0.22 1.089,-0.33 1.758,-0.33c0.635,0 1.205,0.104 1.71,0.311c0.505,0.208 0.912,0.519 1.219,0.934c0.308,0.415 0.491,0.867 0.55,1.355c0.058,0.488 0.088,1.343 0.088,2.564l0,2.028Zm-3.084,-3.896c0,-0.552 -0.03,-0.905 -0.091,-1.058c-0.061,-0.154 -0.187,-0.231 -0.378,-0.231c-0.161,0 -0.284,0.062 -0.369,0.187c-0.086,0.124 -0.129,0.492 -0.129,1.102l0,5.537c0,0.689 0.028,1.113 0.085,1.274c0.056,0.162 0.186,0.242 0.391,0.242c0.21,0 0.345,-0.093 0.403,-0.278c0.059,-0.186 0.088,-0.628 0.088,-1.326l0,-5.449l0,0Z" style="fill:#191e20;fill-rule:nonzero;"/><path d="M126.548,207.41l0,11.858l-2.696,0l0,-8.005l-1.076,8.005l-1.912,0l-1.135,-7.822l0,7.822l-2.695,0l0,-11.858l3.991,0c0.118,0.713 0.242,1.553 0.374,2.52l0.425,3.017l0.703,-5.537l4.021,0Z" style="fill:#191e20;fill-rule:nonzero;"/><path d="M136.295,207.41l0,7.925c0,0.898 -0.029,1.529 -0.088,1.893c-0.059,0.364 -0.232,0.737 -0.52,1.121c-0.288,0.383 -0.668,0.674 -1.139,0.871c-0.471,0.198 -1.027,0.297 -1.666,0.297c-0.708,0 -1.333,-0.117 -1.875,-0.352c-0.542,-0.234 -0.947,-0.539 -1.216,-0.915c-0.269,-0.376 -0.427,-0.773 -0.476,-1.19c-0.049,-0.418 -0.073,-1.295 -0.073,-2.633l0,-7.017l3.083,0l0,8.892c0,0.517 0.028,0.848 0.084,0.992c0.057,0.144 0.17,0.216 0.341,0.216c0.195,0 0.321,-0.079 0.377,-0.238c0.056,-0.159 0.084,-0.533 0.084,-1.124l0,-8.738l3.084,0Z" style="fill:#191e20;fill-rule:nonzero;"/><path d="M145.873,207.41l0,11.858l-2.702,0l-1.604,-5.391l0,5.391l-2.578,0l0,-11.858l2.578,0l1.728,5.339l0,-5.339l2.578,0Z" style="fill:#191e20;fill-rule:nonzero;"/><rect x="148.611" y="207.41" width="3.083" height="11.858" style="fill:#191e20;"/><path d="M161.632,212.581l-3.083,0l0,-2.065c0,-0.601 -0.033,-0.976 -0.099,-1.125c-0.066,-0.149 -0.211,-0.223 -0.436,-0.223c-0.254,0 -0.415,0.09 -0.483,0.271c-0.069,0.181 -0.103,0.571 -0.103,1.172l0,5.508c0,0.576 0.034,0.952 0.103,1.127c0.068,0.176 0.222,0.264 0.461,0.264c0.23,0 0.38,-0.088 0.451,-0.264c0.07,-0.175 0.106,-0.588 0.106,-1.237l0,-1.487l3.083,0l0,0.461c0,1.226 -0.086,2.095 -0.26,2.608c-0.173,0.512 -0.556,0.962 -1.15,1.347c-0.593,0.386 -1.324,0.579 -2.193,0.579c-0.904,0 -1.648,-0.164 -2.234,-0.491c-0.586,-0.327 -0.974,-0.78 -1.165,-1.358c-0.19,-0.579 -0.285,-1.449 -0.285,-2.611l0,-3.465c0,-0.854 0.029,-1.495 0.088,-1.922c0.058,-0.428 0.233,-0.839 0.523,-1.235c0.291,-0.395 0.694,-0.706 1.209,-0.933c0.515,-0.227 1.107,-0.341 1.776,-0.341c0.908,0 1.658,0.176 2.248,0.527c0.591,0.352 0.979,0.79 1.165,1.315c0.185,0.525 0.278,1.342 0.278,2.45l0,1.128Z" style="fill:#191e20;fill-rule:nonzero;"/><rect x="164.238" y="207.41" width="3.083" height="11.858" style="fill:#191e20;"/><path d="M170.06,207.41l3.105,0c0.84,0 1.486,0.066 1.937,0.198c0.452,0.132 0.791,0.322 1.018,0.571c0.227,0.249 0.381,0.551 0.462,0.905c0.08,0.354 0.121,0.902 0.121,1.644l0,1.033c0,0.756 -0.079,1.308 -0.235,1.655c-0.156,0.347 -0.443,0.613 -0.86,0.798c-0.418,0.186 -0.964,0.279 -1.637,0.279l-0.828,0l0,4.775l-3.083,0l0,-11.858l0,0Zm3.083,2.029l0,3.017c0.088,0.005 0.164,0.008 0.227,0.008c0.283,0 0.48,-0.07 0.59,-0.209c0.11,-0.139 0.164,-0.428 0.164,-0.868l0,-0.974c0,-0.405 -0.063,-0.669 -0.19,-0.791c-0.127,-0.122 -0.391,-0.183 -0.791,-0.183l0,0Z" style="fill:#191e20;fill-rule:nonzero;"/><path d="M184.04,207.41l1.765,11.858l-3.157,0l-0.153,-2.131l-1.106,0l-0.183,2.131l-3.194,0l1.568,-11.858l4.46,0Zm-1.633,7.625c-0.157,-1.343 -0.313,-3.001 -0.469,-4.974c-0.313,2.266 -0.508,3.924 -0.586,4.974l1.055,0Z" style="fill:#191e20;fill-rule:nonzero;"/><path d="M190.916,207.41l0,9.485l1.875,0l0,2.373l-4.959,0l0,-11.858l3.084,0Z" style="fill:#191e20;fill-rule:nonzero;"/><path d="M80.269,227.41l2.307,0c1.489,0 2.496,0.068 3.021,0.205c0.525,0.137 0.924,0.361 1.198,0.674c0.273,0.312 0.444,0.66 0.513,1.044c0.068,0.383 0.102,1.136 0.102,2.259l0,4.153c0,1.064 -0.05,1.776 -0.15,2.135c-0.1,0.359 -0.275,0.64 -0.524,0.842c-0.249,0.203 -0.556,0.345 -0.923,0.425c-0.366,0.081 -0.918,0.121 -1.655,0.121l-3.889,0l0,-11.858l0,0Zm3.083,2.029l0,7.8c0.445,0 0.718,-0.089 0.821,-0.267c0.102,-0.178 0.154,-0.663 0.154,-1.454l0,-4.607c0,-0.537 -0.017,-0.881 -0.052,-1.033c-0.034,-0.151 -0.112,-0.262 -0.234,-0.333c-0.122,-0.071 -0.352,-0.106 -0.689,-0.106l0,0Z" style="fill:#191e20;fill-rule:nonzero;"/><path d="M90.06,227.41l5.142,0l0,2.373l-2.058,0l0,2.249l1.926,0l0,2.255l-1.926,0l0,2.608l2.263,0l0,2.373l-5.347,0l0,-11.858l0,0Z" style="fill:#191e20;fill-rule:nonzero;"/><path d="M109.012,231.775l-3.083,0l0,-1.076c0,-0.679 -0.03,-1.104 -0.088,-1.275c-0.059,-0.171 -0.198,-0.256 -0.418,-0.256c-0.19,0 -0.32,0.073 -0.388,0.22c-0.068,0.146 -0.102,0.522 -0.102,1.128l0,5.69c0,0.533 0.034,0.883 0.102,1.051c0.068,0.169 0.205,0.253 0.41,0.253c0.225,0 0.377,-0.095 0.458,-0.285c0.081,-0.191 0.121,-0.562 0.121,-1.114l0,-1.406l-0.623,0l0,-1.802l3.611,0l0,6.365l-1.941,0l-0.285,-0.85c-0.21,0.367 -0.475,0.641 -0.795,0.824c-0.32,0.183 -0.697,0.275 -1.132,0.275c-0.517,0 -1.002,-0.126 -1.454,-0.377c-0.451,-0.252 -0.794,-0.563 -1.029,-0.934c-0.234,-0.371 -0.38,-0.761 -0.439,-1.168c-0.059,-0.408 -0.088,-1.02 -0.088,-1.835l0,-3.523c0,-1.133 0.061,-1.955 0.183,-2.468c0.122,-0.513 0.473,-0.983 1.051,-1.41c0.579,-0.427 1.327,-0.641 2.245,-0.641c0.903,0 1.653,0.186 2.249,0.557c0.595,0.371 0.983,0.811 1.164,1.322c0.181,0.51 0.271,1.251 0.271,2.223l0,0.512Z" style="fill:#191e20;fill-rule:nonzero;"/><path d="M118.715,227.41l0,7.925c0,0.898 -0.029,1.529 -0.088,1.893c-0.058,0.364 -0.232,0.737 -0.52,1.121c-0.288,0.383 -0.667,0.674 -1.139,0.871c-0.471,0.198 -1.026,0.297 -1.666,0.297c-0.708,0 -1.333,-0.117 -1.875,-0.352c-0.542,-0.234 -0.947,-0.539 -1.216,-0.915c-0.268,-0.376 -0.427,-0.773 -0.476,-1.19c-0.049,-0.418 -0.073,-1.295 -0.073,-2.633l0,-7.017l3.084,0l0,8.892c0,0.517 0.028,0.848 0.084,0.992c0.056,0.144 0.169,0.216 0.34,0.216c0.196,0 0.321,-0.079 0.378,-0.238c0.056,-0.159 0.084,-0.533 0.084,-1.124l0,-8.738l3.083,0Z" style="fill:#191e20;fill-rule:nonzero;"/><path d="M126.734,227.41l1.765,11.858l-3.157,0l-0.154,-2.131l-1.106,0l-0.183,2.131l-3.193,0l1.567,-11.858l4.461,0Zm-1.633,7.625c-0.157,-1.343 -0.313,-3.001 -0.469,-4.974c-0.313,2.266 -0.508,3.924 -0.586,4.974l1.055,0Z" style="fill:#191e20;fill-rule:nonzero;"/><path d="M136.195,227.41l-2.248,7.566l0,4.292l-2.857,0l0,-4.292l-2.168,-7.566l2.835,0c0.444,2.31 0.693,3.865 0.747,4.666c0.171,-1.265 0.456,-2.82 0.857,-4.666l2.834,0Z" style="fill:#191e20;fill-rule:nonzero;"/><path d="M142.8,227.41l1.765,11.858l-3.156,0l-0.154,-2.131l-1.106,0l-0.183,2.131l-3.194,0l1.568,-11.858l4.46,0Zm-1.633,7.625c-0.156,-1.343 -0.313,-3.001 -0.469,-4.974c-0.312,2.266 -0.508,3.924 -0.586,4.974l1.055,0Z" style="fill:#191e20;fill-rule:nonzero;"/><path d="M153.646,239.268l0,1.436l-2.329,0c-0.562,0 -0.957,-0.043 -1.187,-0.129c-0.229,-0.085 -0.384,-0.213 -0.465,-0.384c-0.08,-0.171 -0.121,-0.479 -0.121,-0.923c-0.698,-0.02 -1.298,-0.203 -1.801,-0.549c-0.503,-0.347 -0.835,-0.788 -0.996,-1.322c-0.162,-0.535 -0.242,-1.335 -0.242,-2.399l0,-3.669c0,-0.806 0.047,-1.42 0.143,-1.843c0.095,-0.422 0.291,-0.82 0.589,-1.193c0.298,-0.374 0.681,-0.656 1.15,-0.846c0.469,-0.191 0.989,-0.286 1.56,-0.286c0.689,0 1.303,0.117 1.842,0.352c0.54,0.234 0.943,0.532 1.209,0.893c0.266,0.361 0.439,0.736 0.52,1.124c0.08,0.389 0.121,0.966 0.121,1.733l0,3.852c0,1.055 -0.052,1.77 -0.154,2.146c-0.103,0.376 -0.299,0.675 -0.59,0.897c-0.29,0.223 -0.677,0.392 -1.161,0.509c0.015,0.264 0.07,0.43 0.165,0.498c0.095,0.069 0.321,0.103 0.678,0.103l1.069,0Zm-3.091,-8.811c0,-0.552 -0.03,-0.905 -0.091,-1.058c-0.061,-0.154 -0.187,-0.231 -0.378,-0.231c-0.161,0 -0.284,0.062 -0.369,0.187c-0.086,0.124 -0.129,0.492 -0.129,1.102l0,5.537c0,0.689 0.028,1.113 0.085,1.274c0.056,0.162 0.186,0.242 0.391,0.242c0.21,0 0.345,-0.093 0.403,-0.278c0.059,-0.186 0.088,-0.628 0.088,-1.326l0,-5.449l0,0Z" style="fill:#191e20;fill-rule:nonzero;"/><path d="M163.298,227.41l0,7.925c0,0.898 -0.029,1.529 -0.088,1.893c-0.059,0.364 -0.232,0.737 -0.52,1.121c-0.288,0.383 -0.668,0.674 -1.139,0.871c-0.471,0.198 -1.027,0.297 -1.666,0.297c-0.708,0 -1.333,-0.117 -1.875,-0.352c-0.542,-0.234 -0.948,-0.539 -1.216,-0.915c-0.269,-0.376 -0.427,-0.773 -0.476,-1.19c-0.049,-0.418 -0.073,-1.295 -0.073,-2.633l0,-7.017l3.083,0l0,8.892c0,0.517 0.028,0.848 0.084,0.992c0.056,0.144 0.17,0.216 0.341,0.216c0.195,0 0.321,-0.079 0.377,-0.238c0.056,-0.159 0.084,-0.533 0.084,-1.124l0,-8.738l3.084,0Z" style="fill:#191e20;fill-rule:nonzero;"/><rect x="165.992" y="227.41" width="3.083" height="11.858" style="fill:#191e20;"/><path d="M174.896,227.41l0,9.485l1.875,0l0,2.373l-4.958,0l0,-11.858l3.083,0Z" style="fill:#191e20;fill-rule:nonzero;"/></g></svg>