<?xml version="1.0" encoding="UTF-8" standalone="no"?><!DOCTYPE svg PUBLIC "-//W3C//DTD SVG 1.1//EN" "http://www.w3.org/Graphics/SVG/1.1/DTD/svg11.dtd"><svg viewBox="0 0 6000 3000" version="1.1" xmlns="http://www.w3.org/2000/svg" xmlns:xlink="http://www.w3.org/1999/xlink" xml:space="preserve" style="fill-rule:evenodd;clip-rule:evenodd;stroke-linejoin:round;stroke-miterlimit:1.41421;"><g><g><path d="M2663.53,1247.02l-0.776,0l-19.4,107.863l39.576,0l-19.4,-107.863Zm-16.684,-85.706l32.98,0l61.692,297.67l-39.576,0l-11.64,-63.966l-53.932,0l-11.64,63.966l-39.576,0l61.692,-297.67Z" style="fill:#fff;fill-rule:nonzero;"/><path d="M2760.92,1161.32l39.576,0l0,255.026l78.376,0l0,42.644l-117.952,0l0,-297.67Z" style="fill:#fff;fill-rule:nonzero;"/><path d="M2902.15,1231.55c0,-11.985 1.94,-22.576 5.82,-31.774c3.88,-9.197 8.989,-16.793 15.326,-22.785c6.337,-5.992 13.451,-10.521 21.34,-13.587c7.889,-3.066 15.843,-4.599 23.862,-4.599c8.019,0 15.973,1.533 23.862,4.599c7.889,3.066 15.003,7.595 21.34,13.587c6.337,5.992 11.446,13.588 15.326,22.785c3.88,9.198 5.82,19.789 5.82,31.774l0,157.196c0,12.264 -1.94,22.925 -5.82,31.983c-3.88,9.058 -8.989,16.583 -15.326,22.576c-6.337,5.992 -13.451,10.521 -21.34,13.587c-7.889,3.066 -15.843,4.599 -23.862,4.599c-8.019,0 -15.973,-1.533 -23.862,-4.599c-7.889,-3.066 -15.003,-7.595 -21.34,-13.587c-6.337,-5.993 -11.446,-13.518 -15.326,-22.576c-3.88,-9.058 -5.82,-19.719 -5.82,-31.983l0,-157.196Zm39.576,157.196c0,10.313 2.651,17.908 7.954,22.785c5.303,4.878 11.575,7.316 18.818,7.316c7.243,0 13.515,-2.438 18.818,-7.316c5.303,-4.877 7.954,-12.472 7.954,-22.785l0,-157.196c0,-10.313 -2.651,-17.908 -7.954,-22.785c-5.303,-4.878 -11.575,-7.317 -18.818,-7.317c-7.243,0 -13.515,2.439 -18.818,7.317c-5.303,4.877 -7.954,12.472 -7.954,22.785l0,157.196Zm36.472,-299.76l41.904,0l-51.216,58.949l-25.608,0l34.92,-58.949Z" style="fill:#fff;fill-rule:nonzero;"/><path d="M3068.22,1161.32l38.024,0l59.752,179.354l0.776,0l0,-179.354l39.576,0l0,297.67l-37.248,0l-60.528,-178.936l-0.776,0l0,178.936l-39.576,0l0,-297.67Z" style="fill:#fff;fill-rule:nonzero;"/><path d="M3314.21,1161.32l58.588,0c22.504,0 39.705,6.759 51.604,20.277c11.899,13.518 17.848,32.401 17.848,56.649l0,139.219c0,27.872 -6.273,48.427 -18.818,61.666c-12.545,13.239 -30.587,19.859 -54.126,19.859l-55.096,0l0,-297.67Zm39.576,257.534l18.236,0c11.123,0 19.012,-2.996 23.668,-8.988c4.656,-5.993 6.984,-15.399 6.984,-28.22l0,-143.4c0,-11.706 -2.199,-20.764 -6.596,-27.175c-4.397,-6.41 -12.416,-9.616 -24.056,-9.616l-18.236,0l0,217.399Z" style="fill:#fff;fill-rule:nonzero;"/><path d="M3479.49,1161.32l117.952,0l0,40.135l-78.376,0l0,87.378l68.288,0l0,40.135l-68.288,0l0,87.378l78.376,0l0,42.644l-117.952,0l0,-297.67Z" style="fill:#fff;fill-rule:nonzero;"/></g><path d="M2574.29,1176.32l-52.138,0l0,-12.891c0,-13.077 -2.812,-24.38 -8.434,-33.907c-5.623,-9.528 -15.08,-14.292 -28.37,-14.292c-7.156,0 -13.034,1.494 -17.635,4.484c-4.6,2.989 -8.178,6.818 -10.734,11.489c-2.556,4.67 -4.345,10.088 -5.367,16.253c-1.023,6.165 -1.534,12.61 -1.534,19.336c0,7.846 0.256,14.478 0.767,19.896c0.511,5.418 1.789,10.088 3.834,14.011c2.044,3.924 5.026,7.38 8.945,10.369c3.919,2.989 9.286,5.978 16.101,8.967l39.871,17.374c11.586,4.857 20.958,10.555 28.114,17.094c7.156,6.539 12.694,14.198 16.613,22.979c3.918,8.78 6.559,18.868 7.923,30.264c1.363,11.396 2.044,24.38 2.044,38.952c0,16.814 -1.533,32.413 -4.6,46.798c-3.067,14.385 -8.094,26.715 -15.08,36.99c-6.985,10.275 -16.271,18.402 -27.858,24.38c-11.586,5.978 -25.728,8.967 -42.426,8.967c-12.609,0 -24.365,-2.429 -35.27,-7.286c-10.905,-4.857 -20.276,-11.489 -28.114,-19.896c-7.838,-8.407 -14.057,-18.402 -18.657,-29.984c-4.601,-11.583 -6.901,-24.1 -6.901,-37.551l0,-21.297l52.138,0l0,17.934c0,10.462 2.812,19.897 8.434,28.303c5.623,8.407 15.08,12.611 28.37,12.611c8.86,0 15.761,-1.402 20.702,-4.204c4.941,-2.802 8.69,-6.725 11.245,-11.769c2.556,-5.044 4.175,-11.303 4.856,-18.776c0.682,-7.472 1.023,-15.692 1.023,-24.66c0,-10.461 -0.341,-19.055 -1.023,-25.781c-0.681,-6.725 -2.129,-12.143 -4.344,-16.253c-2.215,-4.11 -5.282,-7.473 -9.201,-10.088c-3.919,-2.615 -9.116,-5.418 -15.591,-8.407l-37.314,-16.813c-22.491,-10.089 -37.571,-23.446 -45.238,-40.073c-7.668,-16.627 -11.501,-37.457 -11.501,-62.491c0,-14.945 1.874,-29.143 5.623,-42.594c3.748,-13.451 9.286,-25.034 16.612,-34.749c7.327,-9.714 16.613,-17.467 27.858,-23.258c11.246,-5.792 24.366,-8.688 39.36,-8.688c12.949,0 24.791,2.616 35.526,7.847c10.734,5.231 19.935,12.143 27.602,20.737c7.668,8.593 13.546,18.214 17.635,28.863c4.09,10.649 6.134,21.578 6.134,32.787l0,28.023Z" style="fill:#fff;fill-rule:nonzero;"/><g><path d="M2934.24,1805.61c0,10.763 -2.848,20.756 -8.543,29.981c-5.695,9.225 -13.471,17.297 -23.328,24.216c-9.856,6.919 -21.356,12.377 -34.498,16.375c-13.143,3.997 -27.161,5.996 -42.056,5.996c-14.895,0 -28.914,-1.999 -42.056,-5.996c-13.142,-3.998 -24.642,-9.456 -34.499,-16.375c-9.857,-6.919 -17.633,-14.991 -23.328,-24.216c-5.695,-9.225 -8.542,-19.218 -8.542,-29.981l0,-254.61l70.417,0l0,256.322c0,11.685 3.942,20.295 11.828,25.83c7.885,5.535 14.352,8.303 26.18,8.303c11.828,0 18.294,-2.768 26.18,-8.303c7.885,-5.535 11.828,-14.145 11.828,-25.83l0,-256.322l70.417,0l0,254.61Z" style="fill:#fff;fill-rule:nonzero;"/><path d="M2980.33,1551l70.417,0l0,281.363l158.348,0l0,47.047l-228.765,0l0,-328.41Z" style="fill:#fff;fill-rule:nonzero;"/><rect x="3242.43" y="1551" width="83.547" height="328.41" style="fill:#fff;fill-rule:nonzero;"/><path d="M3370.57,1628.49c0,-13.222 3.286,-24.907 9.857,-35.055c6.571,-10.148 15.223,-18.527 25.956,-25.138c10.733,-6.611 22.781,-11.608 36.142,-14.991c13.362,-3.382 26.833,-5.074 40.413,-5.074c13.581,0 27.052,1.692 40.413,5.074c13.362,3.383 25.409,8.38 36.142,14.991c10.733,6.611 19.385,14.99 25.956,25.138c6.571,10.148 9.857,21.833 9.857,35.055l0,173.43c0,13.53 -3.286,25.292 -9.857,35.286c-6.571,9.994 -15.223,18.296 -25.956,24.907c-10.733,6.612 -22.78,11.609 -36.142,14.991c-13.361,3.383 -26.832,5.074 -40.413,5.074c-13.58,0 -27.051,-1.691 -40.413,-5.074c-13.361,-3.382 -25.409,-8.379 -36.142,-14.991c-10.733,-6.611 -19.385,-14.913 -25.956,-24.907c-6.571,-9.994 -9.857,-21.756 -9.857,-35.286l0,-173.43Zm70.417,179.755c0,11.377 4.491,19.757 13.471,25.138c8.981,5.381 16.214,8.072 28.48,8.072c12.266,0 19.499,-2.691 28.48,-8.072c8.981,-5.381 13.471,-13.761 13.471,-25.138l0,-186.079c0,-11.378 -4.49,-19.757 -13.471,-25.139c-8.981,-5.381 -16.214,-8.071 -28.48,-8.071c-12.266,0 -19.499,2.69 -28.48,8.071c-8.98,5.382 -13.471,13.761 -13.471,25.139l0,186.079Z" style="fill:#fff;fill-rule:nonzero;"/></g><path d="M2686.51,1793.87c0,13.614 -3.741,26.255 -11.222,37.923c-7.481,11.669 -17.696,21.879 -30.644,30.63c-12.948,8.752 -28.054,15.655 -45.318,20.712c-17.264,5.056 -35.68,7.584 -55.246,7.584c-19.566,0 -37.981,-2.528 -55.245,-7.584c-17.264,-5.057 -32.371,-11.96 -45.319,-20.712c-12.948,-8.751 -23.162,-18.961 -30.644,-30.63c-7.481,-11.668 -11.221,-24.309 -11.221,-37.923l0,-19.052l88.047,0l0,23.218c0,14.78 5.179,25.671 15.538,32.672c10.358,7.001 23.307,10.502 38.844,10.502c15.538,0 28.486,-3.501 38.845,-10.502c10.358,-7.001 15.538,-17.892 15.538,-32.672l0,-326.218l88.047,0l0,322.052Z" style="fill:#fff;fill-rule:nonzero;"/><g><path d="M2580.63,1922.16l47.88,0l0,16.8l-31.815,0l0,37.8l27.72,0l0,16.8l-27.72,0l0,53.2l-16.065,0l0,-124.6Z" style="fill:#fff;fill-rule:nonzero;"/><path d="M2671.83,2026.76c0,2.916 -0.525,5.625 -1.576,8.125c-1.051,2.5 -2.486,4.687 -4.305,6.562c-1.818,1.875 -3.94,3.354 -6.365,4.438c-2.425,1.083 -5.012,1.625 -7.76,1.625c-2.749,0 -5.335,-0.542 -7.76,-1.625c-2.425,-1.084 -4.547,-2.563 -6.366,-4.438c-1.819,-1.875 -3.253,-4.062 -4.304,-6.562c-1.051,-2.5 -1.577,-5.209 -1.577,-8.125l0,-69l12.368,0l0,67.75c0,3.166 0.727,5.5 2.182,7c1.455,1.5 3.274,2.25 5.457,2.25c2.182,0 4.001,-0.75 5.456,-2.25c1.455,-1.5 2.182,-3.834 2.182,-7l0,-67.75l12.368,0l0,69Z" style="fill:#fff;fill-rule:nonzero;"/><path d="M2678.86,1957.76l11.883,0l18.672,53.625l0.243,0l0,-53.625l12.367,0l0,89l-11.64,0l-18.915,-53.5l-0.242,0l0,53.5l-12.368,0l0,-89Z" style="fill:#fff;fill-rule:nonzero;"/><path d="M2729.06,1957.76l18.309,0c7.032,0 12.408,2.02 16.126,6.062c3.718,4.042 5.577,9.688 5.577,16.938l0,41.625c0,8.333 -1.96,14.479 -5.88,18.437c-3.921,3.958 -9.559,5.938 -16.915,5.938l-17.217,0l0,-89Zm12.367,77l5.699,0c3.476,0 5.941,-0.896 7.396,-2.688c1.455,-1.792 2.183,-4.604 2.183,-8.437l0,-42.875c0,-3.5 -0.687,-6.209 -2.061,-8.125c-1.374,-1.917 -3.88,-2.875 -7.518,-2.875l-5.699,0l0,65Z" style="fill:#fff;fill-rule:nonzero;"/><path d="M2794,1983.39l-0.243,0l-6.062,32.25l12.367,0l-6.062,-32.25Zm-5.214,-25.625l10.306,0l19.279,89l-12.367,0l-3.638,-19.125l-16.854,0l-3.637,19.125l-12.368,0l19.279,-89Z" style="fill:#fff;fill-rule:nonzero;"/><path d="M2859.6,2026.89c0,2.75 -0.505,5.375 -1.515,7.875c-1.011,2.5 -2.405,4.687 -4.184,6.562c-1.778,1.875 -3.859,3.375 -6.244,4.5c-2.385,1.125 -4.951,1.688 -7.699,1.688c-2.344,0 -4.729,-0.334 -7.154,-1c-2.425,-0.667 -4.608,-1.813 -6.548,-3.438c-1.94,-1.625 -3.536,-3.771 -4.789,-6.437c-1.253,-2.667 -1.879,-6.042 -1.879,-10.125l0,-49c0,-2.917 0.485,-5.625 1.455,-8.125c0.97,-2.5 2.344,-4.667 4.122,-6.5c1.779,-1.834 3.9,-3.271 6.366,-4.313c2.465,-1.042 5.193,-1.562 8.184,-1.562c2.829,0 5.456,0.52 7.881,1.562c2.425,1.042 4.527,2.5 6.305,4.375c1.779,1.875 3.173,4.125 4.184,6.75c1.01,2.625 1.515,5.479 1.515,8.563l0,5l-12.367,0l0,-4.25c0,-2.5 -0.687,-4.667 -2.062,-6.5c-1.374,-1.834 -3.233,-2.75 -5.577,-2.75c-3.072,0 -5.113,0.979 -6.123,2.937c-1.011,1.958 -1.516,4.438 -1.516,7.438l0,45.5c0,2.583 0.546,4.75 1.637,6.5c1.091,1.75 3.052,2.625 5.881,2.625c0.808,0 1.677,-0.146 2.607,-0.438c0.929,-0.292 1.778,-0.771 2.546,-1.437c0.768,-0.667 1.394,-1.584 1.879,-2.75c0.485,-1.167 0.728,-2.625 0.728,-4.375l0,-4.375l12.367,0l0,5.5Z" style="fill:#fff;fill-rule:nonzero;"/><rect x="2865.9" y="1957.76" width="12.367" height="89" style="fill:#fff;fill-rule:nonzero;"/><path d="M2885.42,1978.76c0,-3.584 0.607,-6.75 1.819,-9.5c1.213,-2.75 2.809,-5.021 4.79,-6.813c1.98,-1.792 4.203,-3.146 6.668,-4.062c2.466,-0.917 4.951,-1.375 7.457,-1.375c2.506,0 4.992,0.458 7.457,1.375c2.465,0.916 4.688,2.27 6.669,4.062c1.98,1.792 3.577,4.063 4.789,6.813c1.213,2.75 1.819,5.916 1.819,9.5l0,47c0,3.666 -0.606,6.854 -1.819,9.562c-1.212,2.708 -2.809,4.958 -4.789,6.75c-1.981,1.792 -4.204,3.146 -6.669,4.063c-2.465,0.916 -4.951,1.375 -7.457,1.375c-2.506,0 -4.991,-0.459 -7.457,-1.375c-2.465,-0.917 -4.688,-2.271 -6.668,-4.063c-1.981,-1.792 -3.577,-4.042 -4.79,-6.75c-1.212,-2.708 -1.819,-5.896 -1.819,-9.562l0,-47Zm12.368,47c0,3.083 0.828,5.354 2.486,6.812c1.657,1.458 3.617,2.188 5.88,2.188c2.264,0 4.224,-0.73 5.881,-2.188c1.657,-1.458 2.485,-3.729 2.485,-6.812l0,-47c0,-3.084 -0.828,-5.355 -2.485,-6.813c-1.657,-1.458 -3.617,-2.187 -5.881,-2.187c-2.263,0 -4.223,0.729 -5.88,2.187c-1.658,1.458 -2.486,3.729 -2.486,6.813l0,47Zm11.397,-89.625l13.095,0l-16.005,17.625l-8.002,0l10.912,-17.625Z" style="fill:#fff;fill-rule:nonzero;"/><path d="M2933.2,1957.76l11.882,0l18.673,53.625l0.242,0l0,-53.625l12.368,0l0,89l-11.64,0l-18.915,-53.5l-0.243,0l0,53.5l-12.367,0l0,-89Z" style="fill:#fff;fill-rule:nonzero;"/><path d="M3001.82,1957.76l18.309,0c7.033,0 12.408,2.02 16.126,6.062c3.719,4.042 5.578,9.688 5.578,16.938l0,41.625c0,8.333 -1.96,14.479 -5.881,18.437c-3.92,3.958 -9.558,5.938 -16.914,5.938l-17.218,0l0,-89Zm12.368,77l5.699,0c3.476,0 5.941,-0.896 7.396,-2.688c1.455,-1.792 2.182,-4.604 2.182,-8.437l0,-42.875c0,-3.5 -0.687,-6.209 -2.061,-8.125c-1.374,-1.917 -3.88,-2.875 -7.517,-2.875l-5.699,0l0,65Z" style="fill:#fff;fill-rule:nonzero;"/><path d="M3049.35,1957.76l36.86,0l0,12l-24.492,0l0,26.125l21.34,0l0,12l-21.34,0l0,26.125l24.492,0l0,12.75l-36.86,0l0,-89Z" style="fill:#fff;fill-rule:nonzero;"/><path d="M3109.89,1951.56c0,-5.017 0.788,-9.45 2.363,-13.3c1.575,-3.85 3.649,-7.03 6.221,-9.538c2.573,-2.508 5.46,-4.404 8.663,-5.687c3.202,-1.284 6.431,-1.925 9.686,-1.925c3.255,0 6.484,0.641 9.686,1.925c3.203,1.283 6.09,3.179 8.663,5.687c2.572,2.508 4.646,5.688 6.221,9.538c1.575,3.85 2.362,8.283 2.362,13.3l0,6.3l-16.065,0l0,-6.3c0,-4.317 -1.076,-7.496 -3.228,-9.538c-2.153,-2.042 -4.699,-3.062 -7.639,-3.062c-2.94,0 -5.486,1.02 -7.639,3.062c-2.152,2.042 -3.229,5.221 -3.229,9.538l0,65.8c0,4.316 1.077,7.495 3.229,9.537c2.153,2.042 4.699,3.063 7.639,3.063c2.94,0 5.486,-1.021 7.639,-3.063c2.152,-2.042 3.228,-5.221 3.228,-9.537l0,-23.45l-12.757,0l0,-15.75l28.822,0l0,39.2c0,5.133 -0.787,9.595 -2.362,13.387c-1.575,3.792 -3.649,6.942 -6.221,9.45c-2.573,2.508 -5.46,4.404 -8.663,5.688c-3.202,1.283 -6.431,1.925 -9.686,1.925c-3.255,0 -6.484,-0.642 -9.686,-1.925c-3.203,-1.284 -6.09,-3.18 -8.663,-5.688c-2.572,-2.508 -4.646,-5.658 -6.221,-9.45c-1.575,-3.792 -2.363,-8.254 -2.363,-13.387l0,-65.8Z" style="fill:#fff;fill-rule:nonzero;"/><path d="M3212.26,2026.76c0,2.916 -0.541,5.625 -1.625,8.125c-1.083,2.5 -2.562,4.687 -4.437,6.562c-1.875,1.875 -4.063,3.354 -6.563,4.438c-2.5,1.083 -5.166,1.625 -8,1.625c-2.833,0 -5.5,-0.542 -8,-1.625c-2.5,-1.084 -4.687,-2.563 -6.562,-4.438c-1.875,-1.875 -3.354,-4.062 -4.438,-6.562c-1.083,-2.5 -1.625,-5.209 -1.625,-8.125l0,-69l12.75,0l0,67.75c0,3.166 0.75,5.5 2.25,7c1.5,1.5 3.375,2.25 5.625,2.25c2.25,0 4.125,-0.75 5.625,-2.25c1.5,-1.5 2.25,-3.834 2.25,-7l0,-67.75l12.75,0l0,69Z" style="fill:#fff;fill-rule:nonzero;"/><path d="M3238.01,1983.39l-0.25,0l-6.25,32.25l12.75,0l-6.25,-32.25Zm-5.375,-25.625l10.625,0l19.875,89l-12.75,0l-3.75,-19.125l-17.375,0l-3.75,19.125l-12.75,0l19.875,-89Z" style="fill:#fff;fill-rule:nonzero;"/><path d="M3270.14,2009.14l-17.5,-51.375l13.5,0l10.25,35.375l0.25,0l10.25,-35.375l13.5,0l-17.5,51.375l0,37.625l-12.75,0l0,-37.625Z" style="fill:#fff;fill-rule:nonzero;"/><path d="M3315.14,1983.39l-0.25,0l-6.25,32.25l12.75,0l-6.25,-32.25Zm-5.375,-25.625l10.625,0l19.875,89l-12.75,0l-3.75,-19.125l-17.375,0l-3.75,19.125l-12.75,0l19.875,-89Z" style="fill:#fff;fill-rule:nonzero;"/><path d="M3354.26,2025.76c0,3.083 0.855,5.354 2.563,6.812c1.708,1.458 3.729,2.188 6.062,2.188c1.084,0 2,-0.167 2.75,-0.5l-5.75,-4.625l6.5,-7.75l5.125,4.125l0,-0.25l0,-47c0,-3.084 -0.854,-5.355 -2.562,-6.813c-1.708,-1.458 -3.729,-2.187 -6.063,-2.187c-2.333,0 -4.354,0.729 -6.062,2.187c-1.708,1.458 -2.563,3.729 -2.563,6.813l0,47Zm-12.75,-47c0,-3.584 0.625,-6.75 1.875,-9.5c1.25,-2.75 2.896,-5.021 4.938,-6.813c2.042,-1.792 4.333,-3.146 6.875,-4.062c2.542,-0.917 5.104,-1.375 7.687,-1.375c2.584,0 5.146,0.458 7.688,1.375c2.542,0.916 4.833,2.27 6.875,4.062c2.042,1.792 3.687,4.063 4.937,6.813c1.25,2.75 1.875,5.916 1.875,9.5l0,47c0,3.5 -0.625,6.541 -1.875,9.125l7.875,6.375l-6.5,7.75l-7.5,-6.125c-1.916,1.583 -4.02,2.75 -6.312,3.5c-2.292,0.75 -4.646,1.125 -7.063,1.125c-2.583,0 -5.145,-0.459 -7.687,-1.375c-2.542,-0.917 -4.833,-2.271 -6.875,-4.063c-2.042,-1.792 -3.688,-4.042 -4.938,-6.75c-1.25,-2.708 -1.875,-5.896 -1.875,-9.562l0,-47Z" style="fill:#fff;fill-rule:nonzero;"/><path d="M3432.51,2026.76c0,2.916 -0.541,5.625 -1.625,8.125c-1.083,2.5 -2.562,4.687 -4.437,6.562c-1.875,1.875 -4.063,3.354 -6.563,4.438c-2.5,1.083 -5.166,1.625 -8,1.625c-2.833,0 -5.5,-0.542 -8,-1.625c-2.5,-1.084 -4.687,-2.563 -6.562,-4.438c-1.875,-1.875 -3.354,-4.062 -4.438,-6.562c-1.083,-2.5 -1.625,-5.209 -1.625,-8.125l0,-69l12.75,0l0,67.75c0,3.166 0.75,5.5 2.25,7c1.5,1.5 3.375,2.25 5.625,2.25c2.25,0 4.125,-0.75 5.625,-2.25c1.5,-1.5 2.25,-3.834 2.25,-7l0,-67.75l12.75,0l0,69Z" style="fill:#fff;fill-rule:nonzero;"/><rect x="3440.64" y="1957.76" width="12.75" height="89" style="fill:#fff;fill-rule:nonzero;"/><path d="M3461.51,1957.76l12.75,0l0,76.25l25.25,0l0,12.75l-38,0l0,-89Z" style="fill:#fff;fill-rule:nonzero;"/></g><g><path d="M3442.85,2089.51l-31.815,0l0,40.636c1.47,-1.976 3.36,-3.633 5.67,-4.974c2.31,-1.34 4.882,-2.011 7.717,-2.011c5.46,0 9.896,2.258 13.309,6.773c3.412,4.515 5.119,11.147 5.119,19.895l0,38.943c0,5.079 -0.657,9.594 -1.969,13.545c-1.313,3.951 -3.071,7.337 -5.276,10.159c-2.205,2.822 -4.752,4.973 -7.639,6.455c-2.888,1.481 -5.906,2.222 -9.056,2.222c-3.15,0 -6.169,-0.741 -9.057,-2.222c-2.887,-1.482 -5.433,-3.633 -7.638,-6.455c-2.205,-2.822 -3.964,-6.208 -5.277,-10.159c-1.312,-3.951 -1.968,-8.466 -1.968,-13.545l0,-6.35l16.065,0l0,5.503c0,3.668 0.761,6.526 2.283,8.572c1.523,2.045 3.492,3.068 5.907,3.068c2.415,0 4.278,-0.987 5.591,-2.963c1.312,-1.975 1.969,-4.726 1.969,-8.254l0,-35.345c0,-2.963 -0.709,-5.502 -2.127,-7.619c-1.417,-2.116 -3.228,-3.174 -5.433,-3.174c-1.365,0 -2.52,0.317 -3.465,0.952c-0.945,0.635 -1.733,1.376 -2.363,2.222c-0.63,0.847 -1.129,1.764 -1.496,2.752c-0.368,0.987 -0.656,1.763 -0.866,2.328l-14.175,0l0,-81.272l45.99,0l0,20.318Z" style="fill:#fff;fill-rule:nonzero;"/><path d="M3480.02,2100.09c0,-2.963 -0.788,-5.467 -2.363,-7.513c-1.575,-2.046 -3.412,-3.069 -5.512,-3.069c-2.1,0 -3.938,1.023 -5.513,3.069c-1.575,2.046 -2.362,4.55 -2.362,7.513l0,22.011c0,2.963 0.787,5.468 2.362,7.514c1.575,2.046 3.413,3.068 5.513,3.068c2.1,0 3.937,-1.022 5.512,-3.068c1.575,-2.046 2.363,-4.551 2.363,-7.514l0,-22.011Zm-31.815,8.466c0,-4.092 0.105,-7.584 0.315,-10.477c0.21,-2.892 0.551,-5.396 1.023,-7.513c0.473,-2.116 1.077,-4.021 1.812,-5.714c0.735,-1.694 1.627,-3.457 2.677,-5.291c2.1,-3.669 4.725,-6.526 7.875,-8.572c3.15,-2.046 6.563,-3.069 10.238,-3.069c3.675,0 7.087,1.023 10.237,3.069c3.15,2.046 5.775,4.903 7.875,8.572c1.05,1.834 1.943,3.597 2.678,5.291c0.735,1.693 1.338,3.598 1.811,5.714c0.472,2.117 0.814,4.621 1.024,7.513c0.21,2.893 0.315,6.385 0.315,10.477c0,4.515 -0.053,8.325 -0.158,11.429c-0.105,3.104 -0.42,5.855 -0.945,8.254c-0.525,2.399 -1.339,4.55 -2.441,6.455c-1.103,1.905 -2.599,3.916 -4.489,6.032c1.89,1.975 3.386,3.951 4.489,5.926c1.102,1.975 1.916,4.304 2.441,6.984c0.525,2.681 0.84,5.962 0.945,9.842c0.105,3.88 0.158,8.642 0.158,14.286c0,4.656 -0.079,8.501 -0.237,11.535c-0.157,3.033 -0.393,5.679 -0.708,7.936c-0.315,2.258 -0.762,4.163 -1.339,5.715c-0.578,1.552 -1.286,3.174 -2.126,4.868c-1.785,3.668 -4.305,6.808 -7.56,9.418c-3.255,2.61 -7.245,3.915 -11.97,3.915c-4.725,0 -8.715,-1.305 -11.97,-3.915c-3.255,-2.61 -5.775,-5.75 -7.56,-9.418c-0.84,-1.694 -1.549,-3.316 -2.127,-4.868c-0.577,-1.552 -1.023,-3.457 -1.338,-5.715c-0.315,-2.257 -0.552,-4.903 -0.709,-7.936c-0.158,-3.034 -0.236,-6.879 -0.236,-11.535c0,-5.644 0.052,-10.406 0.157,-14.286c0.105,-3.88 0.42,-7.161 0.945,-9.842c0.525,-2.68 1.339,-5.009 2.441,-6.984c1.103,-1.975 2.599,-3.951 4.489,-5.926c-1.89,-2.116 -3.386,-4.127 -4.489,-6.032c-1.102,-1.905 -1.916,-4.056 -2.441,-6.455c-0.525,-2.399 -0.84,-5.15 -0.945,-8.254c-0.105,-3.104 -0.157,-6.914 -0.157,-11.429Zm31.815,50.795c0,-2.963 -0.788,-5.468 -2.363,-7.514c-1.575,-2.046 -3.412,-3.068 -5.512,-3.068c-2.1,0 -3.938,1.022 -5.513,3.068c-1.575,2.046 -2.362,4.551 -2.362,7.514l0,29.63c0,2.963 0.787,5.468 2.362,7.514c1.575,2.045 3.413,3.068 5.513,3.068c2.1,0 3.937,-1.023 5.512,-3.068c1.575,-2.046 2.363,-4.551 2.363,-7.514l0,-29.63Z" style="fill:#fff;fill-rule:nonzero;"/></g></g></svg>
