<?xml version="1.0" encoding="UTF-8" standalone="no"?><!DOCTYPE svg PUBLIC "-//W3C//DTD SVG 1.1//EN" "http://www.w3.org/Graphics/SVG/1.1/DTD/svg11.dtd"><svg width="100%" height="100%" viewBox="0 0 2200 250" version="1.1" xmlns="http://www.w3.org/2000/svg" xmlns:xlink="http://www.w3.org/1999/xlink" xml:space="preserve" xmlns:serif="http://www.serif.com/" style="fill-rule:evenodd;clip-rule:evenodd;stroke-linejoin:round;stroke-miterlimit:1.41421;"><g><path d="M532.295,94.865l-27.546,0l0,-12.683c0,-7.994 -0.262,-12.998 -0.785,-15.012c-0.524,-2.013 -1.767,-3.019 -3.73,-3.019c-1.701,0 -2.857,0.863 -3.467,2.588c-0.611,1.726 -0.916,6.154 -0.916,13.287l0,67.035c0,6.27 0.305,10.397 0.916,12.381c0.61,1.984 1.832,2.976 3.664,2.976c2.006,0 3.369,-1.121 4.089,-3.364c0.72,-2.243 1.08,-6.615 1.08,-13.114l0,-16.565l-5.562,0l0,-21.224l32.257,0l0,74.974l-17.339,0l-2.552,-10.008c-1.875,4.313 -4.242,7.549 -7.099,9.706c-2.857,2.156 -6.227,3.235 -10.109,3.235c-4.623,0 -8.953,-1.481 -12.988,-4.443c-4.034,-2.962 -7.099,-6.629 -9.192,-11c-2.094,-4.372 -3.403,-8.959 -3.926,-13.761c-0.524,-4.803 -0.785,-12.007 -0.785,-21.612l0,-41.499c0,-13.344 0.545,-23.035 1.635,-29.075c1.091,-6.039 4.221,-11.575 9.39,-16.608c5.169,-5.032 11.853,-7.549 20.054,-7.549c8.069,0 14.765,2.186 20.087,6.557c5.321,4.372 8.789,9.562 10.403,15.573c1.614,6.011 2.421,14.739 2.421,26.185l0,6.039Z" style="fill:#e98a00;fill-rule:nonzero;"/><path d="M590.527,43.445l15.769,139.68l-28.2,0l-1.374,-25.107l-9.88,0l-1.636,25.107l-28.527,0l14.002,-139.68l39.846,0Zm-14.59,89.812c-1.396,-15.817 -2.792,-35.344 -4.188,-58.581c-2.792,26.688 -4.536,46.215 -5.234,58.581l9.422,0Z" style="fill:#e98a00;fill-rule:nonzero;"/><path d="M672.511,43.445l0,139.68l-24.144,0l-14.329,-63.499l0,63.499l-23.031,0l0,-139.68l23.031,0l15.441,62.894l0,-62.894l23.032,0Z" style="fill:#e98a00;fill-rule:nonzero;"/><path d="M731.136,43.445l15.768,139.68l-28.2,0l-1.374,-25.107l-9.88,0l-1.636,25.107l-28.527,0l14.002,-139.68l39.847,0Zm-14.591,89.812c-1.396,-15.817 -2.792,-35.344 -4.188,-58.581c-2.791,26.688 -4.536,46.215 -5.234,58.581l9.422,0Z" style="fill:#e98a00;fill-rule:nonzero;"/><path d="M751.615,43.445l20.611,0c13.304,0 22.3,0.805 26.989,2.415c4.689,1.611 8.255,4.257 10.698,7.938c2.443,3.681 3.969,7.779 4.58,12.294c0.611,4.515 0.916,13.387 0.916,26.616l0,48.918c0,12.539 -0.447,20.922 -1.341,25.149c-0.894,4.228 -2.454,7.535 -4.678,9.922c-2.225,2.387 -4.973,4.055 -8.244,5.004c-3.272,0.949 -8.201,1.424 -14.788,1.424l-34.743,0l0,-139.68Zm27.546,23.898l0,91.883c3.97,0 6.412,-1.049 7.328,-3.149c0.916,-2.099 1.374,-7.808 1.374,-17.125l0,-54.268c0,-6.326 -0.152,-10.381 -0.458,-12.164c-0.305,-1.783 -1.003,-3.092 -2.093,-3.926c-1.091,-0.834 -3.141,-1.251 -6.151,-1.251Z" style="fill:#e98a00;fill-rule:nonzero;"/><path d="M888.625,125.234c0,14.034 -0.251,23.97 -0.752,29.808c-0.502,5.838 -2.072,11.173 -4.711,16.004c-2.639,4.831 -6.205,8.541 -10.698,11.13c-4.493,2.588 -9.727,3.882 -15.703,3.882c-5.671,0 -10.763,-1.222 -15.278,-3.667c-4.515,-2.444 -8.146,-6.111 -10.894,-11c-2.748,-4.889 -4.384,-10.209 -4.907,-15.961c-0.524,-5.752 -0.786,-15.817 -0.786,-30.196l0,-23.898c0,-14.035 0.251,-23.971 0.753,-29.809c0.502,-5.838 2.072,-11.172 4.711,-16.004c2.639,-4.831 6.205,-8.541 10.698,-11.129c4.492,-2.588 9.727,-3.883 15.703,-3.883c5.67,0 10.763,1.223 15.278,3.667c4.514,2.445 8.146,6.111 10.894,11c2.748,4.889 4.383,10.209 4.907,15.961c0.523,5.752 0.785,15.817 0.785,30.197l0,23.898Zm-27.546,-45.899c0,-6.499 -0.273,-10.655 -0.818,-12.466c-0.545,-1.812 -1.668,-2.718 -3.369,-2.718c-1.44,0 -2.541,0.733 -3.305,2.2c-0.763,1.467 -1.145,5.795 -1.145,12.984l0,65.224c0,8.11 0.251,13.114 0.753,15.012c0.501,1.898 1.668,2.847 3.5,2.847c1.876,0 3.076,-1.092 3.599,-3.278c0.523,-2.186 0.785,-7.391 0.785,-15.616l0,-64.189Z" style="fill:#e98a00;fill-rule:nonzero;"/><path d="M898.897,43.445l19.499,0c12.998,0 21.798,0.661 26.4,1.984c4.602,1.323 8.354,4.702 11.254,10.137c2.901,5.436 4.351,14.106 4.351,26.012c0,10.871 -1.025,18.176 -3.075,21.914c-2.05,3.739 -6.085,5.982 -12.104,6.73c5.452,1.783 9.116,4.17 10.992,7.161c1.876,2.991 3.042,5.737 3.5,8.239c0.458,2.502 0.687,9.39 0.687,20.663l0,36.84l-25.583,0l0,-46.417c0,-7.477 -0.447,-12.107 -1.341,-13.89c-0.894,-1.783 -3.239,-2.674 -7.034,-2.674l0,62.981l-27.546,0l0,-139.68Zm27.546,23.898l0,31.059c3.097,0 5.267,-0.561 6.511,-1.682c1.243,-1.122 1.864,-4.76 1.864,-10.914l0,-7.679c0,-4.428 -0.599,-7.333 -1.799,-8.713c-1.2,-1.381 -3.391,-2.071 -6.576,-2.071Z" style="fill:#e98a00;fill-rule:nonzero;"/><path d="M971.066,43.445l45.932,0l0,27.953l-18.386,0l0,26.487l17.208,0l0,26.572l-17.208,0l0,30.714l20.218,0l0,27.954l-47.764,0l0,-139.68Z" style="fill:#e98a00;fill-rule:nonzero;"/><path d="M1085.11,85.72l-25.583,0l0,-10.353c0,-4.832 -0.327,-7.909 -0.981,-9.232c-0.654,-1.323 -1.745,-1.984 -3.272,-1.984c-1.657,0 -2.911,0.891 -3.762,2.674c-0.85,1.783 -1.276,4.487 -1.276,8.11c0,4.659 0.48,8.168 1.44,10.526c0.916,2.358 3.511,5.205 7.786,8.541c12.257,9.605 19.978,17.485 23.162,23.64c3.184,6.154 4.776,16.076 4.776,29.765c0,9.95 -0.883,17.283 -2.65,22c-1.766,4.716 -5.179,8.67 -10.239,11.863c-5.06,3.192 -10.949,4.788 -17.666,4.788c-7.372,0 -13.664,-1.841 -18.877,-5.522c-5.212,-3.681 -8.626,-8.368 -10.239,-14.063c-1.614,-5.694 -2.421,-13.775 -2.421,-24.243l0,-9.145l25.583,0l0,16.996c0,5.234 0.359,8.599 1.079,10.094c0.72,1.496 1.996,2.243 3.828,2.243c1.832,0 3.195,-0.949 4.089,-2.847c0.894,-1.898 1.342,-4.716 1.342,-8.455c0,-8.225 -0.851,-13.602 -2.552,-16.133c-1.745,-2.531 -6.042,-6.758 -12.89,-12.683c-6.848,-5.981 -11.385,-10.324 -13.609,-13.027c-2.225,-2.703 -4.068,-6.442 -5.529,-11.216c-1.461,-4.774 -2.192,-10.871 -2.192,-18.29c0,-10.698 1.036,-18.521 3.108,-23.467c2.072,-4.947 5.42,-8.815 10.043,-11.604c4.624,-2.79 10.207,-4.185 16.75,-4.185c7.154,0 13.25,1.525 18.288,4.573c5.038,3.048 8.375,6.888 10.011,11.518c1.635,4.63 2.453,12.495 2.453,23.596l0,5.522Z" style="fill:#e98a00;fill-rule:nonzero;"/><path d="M1223.65,43.445l0,139.68l-24.078,0l0,-94.299l-9.618,94.299l-17.077,0l-10.142,-92.143l0,92.143l-24.078,0l0,-139.68l35.659,0c1.047,8.397 2.16,18.29 3.337,29.678l3.795,35.546l6.281,-65.224l35.921,0Z" style="fill:#31373f;fill-rule:nonzero;"/><path d="M1234.71,43.445l45.932,0l0,27.953l-18.386,0l0,26.487l17.208,0l0,26.572l-17.208,0l0,30.714l20.218,0l0,27.954l-47.764,0l0,-139.68Z" style="fill:#31373f;fill-rule:nonzero;"/><path d="M1351.89,43.445l0,139.68l-24.144,0l-14.329,-63.499l0,63.499l-23.031,0l0,-139.68l23.031,0l15.441,62.894l0,-62.894l23.032,0Z" style="fill:#31373f;fill-rule:nonzero;"/><path d="M1427.27,104.355l-27.546,0l0,-24.329c0,-7.075 -0.295,-11.49 -0.884,-13.244c-0.588,-1.754 -1.886,-2.631 -3.893,-2.631c-2.268,0 -3.707,1.064 -4.318,3.192c-0.611,2.128 -0.916,6.73 -0.916,13.804l0,64.879c0,6.787 0.305,11.216 0.916,13.287c0.611,2.07 1.985,3.105 4.122,3.105c2.05,0 3.391,-1.035 4.024,-3.105c0.632,-2.071 0.949,-6.931 0.949,-14.581l0,-17.514l27.546,0l0,5.435c0,14.437 -0.775,24.675 -2.323,30.715c-1.549,6.039 -4.973,11.33 -10.273,15.874c-5.299,4.544 -11.832,6.816 -19.596,6.816c-8.069,0 -14.722,-1.927 -19.956,-5.781c-5.234,-3.853 -8.702,-9.188 -10.403,-16.004c-1.701,-6.815 -2.552,-17.068 -2.552,-30.757l0,-40.808c0,-10.065 0.262,-17.615 0.785,-22.647c0.524,-5.033 2.083,-9.879 4.678,-14.538c2.596,-4.659 6.194,-8.325 10.796,-11c4.602,-2.674 9.891,-4.012 15.867,-4.012c8.113,0 14.809,2.071 20.087,6.212c5.278,4.141 8.746,9.304 10.403,15.487c1.658,6.183 2.487,15.802 2.487,28.859l0,13.286Z" style="fill:#31373f;fill-rule:nonzero;"/><rect x="1437.15" y="43.445" width="27.546" height="139.68" style="fill:#31373f;fill-rule:nonzero;"/><path d="M1538.69,125.234c0,14.034 -0.25,23.97 -0.752,29.808c-0.502,5.838 -2.072,11.173 -4.711,16.004c-2.639,4.831 -6.205,8.541 -10.698,11.13c-4.493,2.588 -9.727,3.882 -15.703,3.882c-5.671,0 -10.763,-1.222 -15.278,-3.667c-4.514,-2.444 -8.146,-6.111 -10.894,-11c-2.748,-4.889 -4.384,-10.209 -4.907,-15.961c-0.523,-5.752 -0.785,-15.817 -0.785,-30.196l0,-23.898c0,-14.035 0.251,-23.971 0.752,-29.809c0.502,-5.838 2.072,-11.172 4.711,-16.004c2.639,-4.831 6.205,-8.541 10.698,-11.129c4.493,-2.588 9.727,-3.883 15.703,-3.883c5.671,0 10.763,1.223 15.278,3.667c4.515,2.445 8.146,6.111 10.894,11c2.748,4.889 4.384,10.209 4.907,15.961c0.524,5.752 0.785,15.817 0.785,30.197l0,23.898Zm-27.546,-45.899c0,-6.499 -0.272,-10.655 -0.817,-12.466c-0.546,-1.812 -1.669,-2.718 -3.37,-2.718c-1.44,0 -2.541,0.733 -3.304,2.2c-0.764,1.467 -1.145,5.795 -1.145,12.984l0,65.224c0,8.11 0.251,13.114 0.752,15.012c0.502,1.898 1.669,2.847 3.501,2.847c1.875,0 3.075,-1.092 3.598,-3.278c0.524,-2.186 0.785,-7.391 0.785,-15.616l0,-64.189Z" style="fill:#31373f;fill-rule:nonzero;"/><path d="M1610.47,43.445l0,139.68l-24.144,0l-14.329,-63.499l0,63.499l-23.031,0l0,-139.68l23.031,0l15.441,62.894l0,-62.894l23.032,0Z" style="fill:#31373f;fill-rule:nonzero;"/><path d="M1621.53,43.445l45.932,0l0,27.953l-18.386,0l0,26.487l17.208,0l0,26.572l-17.208,0l0,30.714l20.218,0l0,27.954l-47.764,0l0,-139.68Z" style="fill:#31373f;fill-rule:nonzero;"/><path d="M1735.57,85.72l-25.583,0l0,-10.353c0,-4.832 -0.327,-7.909 -0.981,-9.232c-0.654,-1.323 -1.745,-1.984 -3.272,-1.984c-1.657,0 -2.911,0.891 -3.762,2.674c-0.85,1.783 -1.276,4.487 -1.276,8.11c0,4.659 0.48,8.168 1.44,10.526c0.916,2.358 3.511,5.205 7.786,8.541c12.257,9.605 19.978,17.485 23.162,23.64c3.184,6.154 4.776,16.076 4.776,29.765c0,9.95 -0.883,17.283 -2.65,22c-1.766,4.716 -5.179,8.67 -10.239,11.863c-5.06,3.192 -10.949,4.788 -17.666,4.788c-7.372,0 -13.664,-1.841 -18.877,-5.522c-5.212,-3.681 -8.626,-8.368 -10.24,-14.063c-1.614,-5.694 -2.42,-13.775 -2.42,-24.243l0,-9.145l25.583,0l0,16.996c0,5.234 0.359,8.599 1.079,10.094c0.72,1.496 1.996,2.243 3.828,2.243c1.832,0 3.195,-0.949 4.089,-2.847c0.894,-1.898 1.341,-4.716 1.341,-8.455c0,-8.225 -0.85,-13.602 -2.551,-16.133c-1.745,-2.531 -6.042,-6.758 -12.89,-12.683c-6.848,-5.981 -11.385,-10.324 -13.609,-13.027c-2.225,-2.703 -4.068,-6.442 -5.529,-11.216c-1.461,-4.774 -2.192,-10.871 -2.192,-18.29c0,-10.698 1.036,-18.521 3.108,-23.467c2.072,-4.947 5.42,-8.815 10.043,-11.604c4.624,-2.79 10.207,-4.185 16.75,-4.185c7.154,0 13.25,1.525 18.288,4.573c5.038,3.048 8.375,6.888 10.011,11.518c1.635,4.63 2.453,12.495 2.453,23.596l0,5.522Z" style="fill:#31373f;fill-rule:nonzero;"/></g><ellipse cx="1111.77" cy="111.924" rx="44.414" ry="46.951" style="fill:#ebebeb;fill-opacity:0.595561;"/><path d="M1131.32,76.098l-13.273,44.659l0,25.335l-16.861,0l0,-25.335l-12.797,-44.659l16.732,0c2.622,13.632 4.092,22.812 4.409,27.539c1.009,-7.465 2.695,-16.645 5.059,-27.539l16.731,0Z" style="fill:#5d6268;fill-rule:nonzero;"/></svg>