<?xml version="1.0" encoding="UTF-8" standalone="no"?><!DOCTYPE svg PUBLIC "-//W3C//DTD SVG 1.1//EN" "http://www.w3.org/Graphics/SVG/1.1/DTD/svg11.dtd"><svg width="100%" height="100%" viewBox="0 0 256 256" version="1.1" xmlns="http://www.w3.org/2000/svg" xmlns:xlink="http://www.w3.org/1999/xlink" xml:space="preserve" xmlns:serif="http://www.serif.com/" style="fill-rule:evenodd;clip-rule:evenodd;stroke-linejoin:round;stroke-miterlimit:1.41421;"><path d="M23.299,51.339l0,28.823l-6.043,0l0,-19.459l-2.415,19.459l-4.286,0l-2.545,-19.013l0,19.013l-6.045,0l0,-28.823l8.95,0c0.264,1.734 0.542,3.774 0.839,6.125l0.952,7.334l1.577,-13.459l9.016,0Z" style="fill:#154267;fill-rule:nonzero;"/><path d="M41.793,51.339l0,19.263c0,2.183 -0.066,3.717 -0.198,4.601c-0.131,0.883 -0.52,1.793 -1.167,2.724c-0.644,0.932 -1.497,1.637 -2.552,2.117c-1.058,0.482 -2.302,0.721 -3.737,0.721c-1.586,0 -2.988,-0.284 -4.204,-0.853c-1.216,-0.57 -2.125,-1.312 -2.727,-2.225c-0.602,-0.914 -0.959,-1.878 -1.067,-2.892c-0.11,-1.015 -0.165,-3.148 -0.165,-6.401l0,-17.055l6.915,0l0,21.612c0,1.258 0.063,2.062 0.188,2.413c0.127,0.35 0.381,0.524 0.765,0.524c0.437,0 0.72,-0.192 0.847,-0.577c0.124,-0.387 0.188,-1.298 0.188,-2.734l0,-21.238l6.914,0Z" style="fill:#154267;fill-rule:nonzero;"/><path d="M59.118,60.063l-6.419,0l0,-2.137c0,-0.996 -0.083,-1.632 -0.247,-1.903c-0.165,-0.273 -0.438,-0.412 -0.822,-0.412c-0.416,0 -0.731,0.184 -0.944,0.553c-0.213,0.369 -0.32,0.926 -0.32,1.673c0,0.962 0.12,1.685 0.36,2.171c0.231,0.488 0.883,1.076 1.956,1.765c3.076,1.98 5.015,3.607 5.813,4.877c0.799,1.27 1.2,3.316 1.2,6.141c0,2.054 -0.223,3.567 -0.666,4.54c-0.442,0.974 -1.3,1.788 -2.571,2.448c-1.268,0.658 -2.746,0.986 -4.434,0.986c-1.85,0 -3.429,-0.379 -4.736,-1.138c-1.309,-0.76 -2.166,-1.728 -2.572,-2.903c-0.403,-1.174 -0.608,-2.841 -0.608,-5l0,-1.888l6.423,0l0,3.506c0,1.081 0.091,1.774 0.271,2.084c0.179,0.308 0.501,0.462 0.961,0.462c0.459,0 0.802,-0.194 1.025,-0.587c0.225,-0.391 0.337,-0.972 0.337,-1.744c0,-1.697 -0.214,-2.807 -0.639,-3.331c-0.439,-0.52 -1.517,-1.393 -3.237,-2.616c-1.718,-1.234 -2.857,-2.129 -3.415,-2.688c-0.559,-0.557 -1.021,-1.329 -1.389,-2.314c-0.366,-0.986 -0.549,-2.244 -0.549,-3.775c0,-2.209 0.259,-3.821 0.779,-4.841c0.522,-1.021 1.36,-1.82 2.521,-2.394c1.162,-0.577 2.564,-0.865 4.205,-0.865c1.796,0 3.326,0.316 4.591,0.944c1.265,0.629 2.102,1.422 2.513,2.376c0.41,0.956 0.615,2.578 0.615,4.869l0,1.141l-0.002,0Z" style="fill:#154267;fill-rule:nonzero;"/><path d="M61.862,51.339l11.53,0l0,5.768l-4.616,0l0,5.465l4.32,0l0,5.483l-4.32,0l0,6.338l5.075,0l0,5.769l-11.989,0l0,-28.823Z" style="fill:#154267;fill-rule:nonzero;"/><path d="M91.639,68.215c0,2.897 -0.064,4.947 -0.188,6.152c-0.127,1.205 -0.522,2.305 -1.183,3.302c-0.663,0.996 -1.559,1.762 -2.685,2.297c-1.129,0.534 -2.443,0.8 -3.943,0.8c-1.422,0 -2.7,-0.251 -3.835,-0.756c-1.132,-0.504 -2.043,-1.262 -2.733,-2.27c-0.69,-1.009 -1.1,-2.107 -1.231,-3.294c-0.133,-1.187 -0.198,-3.263 -0.198,-6.231l0,-4.929c0,-2.897 0.063,-4.947 0.189,-6.152c0.127,-1.205 0.521,-2.305 1.182,-3.302c0.661,-0.998 1.556,-1.764 2.685,-2.297c1.129,-0.534 2.443,-0.802 3.941,-0.802c1.424,0 2.702,0.254 3.836,0.758c1.133,0.505 2.045,1.26 2.734,2.269c0.69,1.009 1.1,2.106 1.231,3.293c0.131,1.187 0.199,3.265 0.199,6.233l0,4.929l-0.001,0Zm-6.916,-9.471c0,-1.341 -0.068,-2.198 -0.203,-2.572c-0.139,-0.373 -0.421,-0.561 -0.847,-0.561c-0.361,0 -0.638,0.152 -0.83,0.456c-0.191,0.301 -0.288,1.195 -0.288,2.677l0,13.459c0,1.673 0.063,2.706 0.189,3.097c0.127,0.393 0.418,0.588 0.88,0.588c0.471,0 0.772,-0.225 0.902,-0.676c0.131,-0.45 0.196,-1.526 0.196,-3.223l0,-13.245l0.001,0Z" style="fill:#154267;fill-rule:nonzero;"/><path d="M133.337,51.339l0,28.823l-6.043,0l0,-19.459l-2.414,19.459l-4.286,0l-2.548,-19.013l0,19.013l-6.043,0l0,-28.823l8.951,0c0.263,1.734 0.541,3.774 0.837,6.125l0.953,7.334l1.578,-13.459l9.015,0Z" style="fill:#154267;fill-rule:nonzero;"/><path d="M151.831,51.339l0,19.263c0,2.183 -0.067,3.717 -0.199,4.601c-0.13,0.883 -0.518,1.793 -1.165,2.724c-0.647,0.932 -1.497,1.637 -2.555,2.117c-1.056,0.482 -2.302,0.721 -3.735,0.721c-1.588,0 -2.989,-0.284 -4.204,-0.853c-1.216,-0.57 -2.125,-1.312 -2.726,-2.225c-0.603,-0.914 -0.96,-1.878 -1.068,-2.892c-0.11,-1.015 -0.164,-3.148 -0.164,-6.401l0,-17.055l6.914,0l0,21.612c0,1.258 0.063,2.062 0.189,2.413c0.124,0.35 0.381,0.524 0.764,0.524c0.438,0 0.719,-0.192 0.845,-0.577c0.127,-0.387 0.189,-1.298 0.189,-2.734l0,-21.238l6.915,0Z" style="fill:#154267;fill-rule:nonzero;"/><path d="M169.946,51.339l0,28.823l-6.061,0l-3.596,-13.103l0,13.103l-5.782,0l0,-28.823l5.782,0l3.876,12.977l0,-12.977l5.781,0Z" style="fill:#154267;fill-rule:nonzero;"/><rect x="172.72" y="51.339" width="6.915" height="28.821" style="fill:#154267;"/><path d="M198.554,63.907l-6.913,0l0,-5.019c0,-1.461 -0.073,-2.372 -0.221,-2.733c-0.148,-0.362 -0.475,-0.544 -0.977,-0.544c-0.571,0 -0.931,0.22 -1.084,0.66c-0.155,0.437 -0.23,1.387 -0.23,2.847l0,13.387c0,1.402 0.076,2.315 0.23,2.742c0.153,0.427 0.496,0.64 1.033,0.64c0.516,0 0.852,-0.213 1.011,-0.64c0.159,-0.427 0.238,-1.43 0.238,-3.01l0,-3.613l6.913,0l0,1.122c0,2.979 -0.193,5.092 -0.583,6.337c-0.388,1.246 -1.247,2.338 -2.577,3.275c-1.33,0.938 -2.971,1.406 -4.92,1.406c-2.026,0 -3.694,-0.397 -5.008,-1.191c-1.316,-0.796 -2.184,-1.896 -2.612,-3.304c-0.427,-1.406 -0.641,-3.522 -0.641,-6.346l0,-8.418c0,-2.078 0.064,-3.636 0.198,-4.673c0.131,-1.038 0.524,-2.039 1.174,-2.999c0.652,-0.962 1.556,-1.72 2.709,-2.271c1.157,-0.551 2.483,-0.828 3.984,-0.828c2.038,0 3.717,0.427 5.042,1.282c1.325,0.855 2.195,1.92 2.61,3.197c0.418,1.276 0.625,3.261 0.625,5.954l0,2.74l-0.001,0Z" style="fill:#154267;fill-rule:nonzero;"/><rect x="201.035" y="51.339" width="6.915" height="28.821" style="fill:#154267;"/><path d="M210.725,51.339l6.964,0c1.883,0 3.329,0.16 4.343,0.48c1.012,0.322 1.775,0.783 2.283,1.389c0.511,0.606 0.854,1.339 1.036,2.198c0.179,0.86 0.271,2.193 0.271,3.998l0,2.51c0,1.839 -0.176,3.18 -0.525,4.022c-0.352,0.842 -0.994,1.491 -1.93,1.941c-0.937,0.451 -2.16,0.676 -3.67,0.676l-1.858,0l0,11.608l-6.914,0l0,-28.822Zm6.914,4.932l0,7.335c0.198,0.012 0.367,0.018 0.51,0.018c0.635,0 1.074,-0.17 1.321,-0.508c0.248,-0.339 0.37,-1.041 0.37,-2.109l0,-2.368c0,-0.986 -0.142,-1.626 -0.427,-1.924c-0.285,-0.296 -0.876,-0.444 -1.774,-0.444Z" style="fill:#154267;fill-rule:nonzero;"/><path d="M238.711,51.339l3.957,28.823l-7.078,0l-0.346,-5.182l-2.479,0l-0.411,5.182l-7.161,0l3.515,-28.823l10.003,0Zm-3.663,18.534c-0.35,-3.265 -0.701,-7.294 -1.051,-12.088c-0.701,5.507 -1.137,9.536 -1.313,12.088l2.364,0Z" style="fill:#154267;fill-rule:nonzero;"/><path d="M250.765,51.339l0,23.054l4.206,0l0,5.769l-11.119,0l0,-28.823l6.913,0Z" style="fill:#154267;fill-rule:nonzero;"/><path d="M35.805,85.773l5.175,0c3.34,0 5.597,0.166 6.774,0.498c1.177,0.333 2.073,0.88 2.685,1.639c0.613,0.76 0.996,1.604 1.151,2.536c0.153,0.931 0.23,2.762 0.23,5.493l0,10.093c0,2.587 -0.112,4.316 -0.338,5.19c-0.225,0.873 -0.615,1.555 -1.174,2.048c-0.559,0.492 -1.248,0.836 -2.069,1.033c-0.822,0.194 -2.059,0.293 -3.712,0.293l-8.722,0l0,-28.823Zm6.915,4.932l0,18.958c0.997,0 1.61,-0.216 1.84,-0.65c0.23,-0.433 0.344,-1.61 0.344,-3.532l0,-11.199c0,-1.305 -0.038,-2.141 -0.114,-2.51c-0.076,-0.369 -0.252,-0.638 -0.525,-0.81c-0.274,-0.172 -0.789,-0.257 -1.545,-0.257Z" style="fill:#154267;fill-rule:nonzero;"/><path d="M54.396,85.773l11.531,0l0,5.768l-4.615,0l0,5.465l4.319,0l0,5.483l-4.319,0l0,6.338l5.074,0l0,5.768l-11.99,0l0,-28.822Z" style="fill:#154267;fill-rule:nonzero;"/><path d="M96.097,96.382l-6.913,0l0,-2.617c0,-1.649 -0.065,-2.682 -0.199,-3.097c-0.131,-0.415 -0.442,-0.624 -0.936,-0.624c-0.426,0 -0.718,0.179 -0.871,0.535c-0.153,0.357 -0.23,1.27 -0.23,2.742l0,13.833c0,1.292 0.077,2.145 0.23,2.553c0.153,0.41 0.461,0.614 0.921,0.614c0.503,0 0.845,-0.231 1.026,-0.695c0.181,-0.461 0.271,-1.363 0.271,-2.704l0,-3.419l-1.396,0l0,-4.379l8.097,0l0,15.471l-4.352,0l-0.641,-2.067c-0.47,0.892 -1.065,1.558 -1.782,2.004c-0.716,0.445 -1.562,0.666 -2.538,0.666c-1.16,0 -2.246,-0.304 -3.258,-0.916c-1.013,-0.611 -1.783,-1.367 -2.308,-2.27c-0.525,-0.902 -0.854,-1.847 -0.985,-2.84c-0.133,-0.991 -0.198,-2.478 -0.198,-4.458l0,-8.563c0,-2.752 0.136,-4.753 0.411,-5.999c0.273,-1.245 1.06,-2.388 2.357,-3.427c1.296,-1.036 2.974,-1.557 5.034,-1.557c2.025,0 3.706,0.451 5.041,1.353c1.336,0.903 2.207,1.972 2.612,3.214c0.405,1.24 0.608,3.04 0.608,5.402l0,1.245l-0.001,0Z" style="fill:#154267;fill-rule:nonzero;"/><path d="M114.492,85.773l0,19.262c0,2.184 -0.067,3.718 -0.199,4.602c-0.131,0.883 -0.519,1.793 -1.166,2.725c-0.646,0.931 -1.496,1.636 -2.554,2.116c-1.055,0.483 -2.301,0.722 -3.735,0.722c-1.589,0 -2.99,-0.284 -4.205,-0.854c-1.214,-0.571 -2.124,-1.312 -2.727,-2.225c-0.601,-0.914 -0.958,-1.878 -1.066,-2.893c-0.11,-1.014 -0.164,-3.147 -0.164,-6.4l0,-17.054l6.913,0l0,21.612c0,1.257 0.064,2.061 0.189,2.412c0.126,0.351 0.381,0.525 0.765,0.525c0.437,0 0.719,-0.192 0.844,-0.577c0.128,-0.387 0.189,-1.298 0.189,-2.735l0,-21.237l6.916,0l0,-0.001Z" style="fill:#154267;fill-rule:nonzero;"/><path d="M129.108,85.773l3.958,28.823l-7.077,0l-0.346,-5.182l-2.48,0l-0.41,5.182l-7.16,0l3.513,-28.823l10.002,0Zm-3.663,18.533c-0.351,-3.266 -0.7,-7.294 -1.051,-12.088c-0.701,5.506 -1.138,9.535 -1.314,12.088l2.365,0Z" style="fill:#154267;fill-rule:nonzero;"/><path d="M146.961,85.773l-5.043,18.39l0,10.433l-6.404,0l0,-10.434l-4.862,-18.39l6.354,0c0.999,5.615 1.556,9.395 1.676,11.341c0.385,-3.075 1.024,-6.854 1.921,-11.341l6.358,0l0,0.001Z" style="fill:#154267;fill-rule:nonzero;"/><path d="M158.408,85.773l3.958,28.823l-7.079,0l-0.345,-5.182l-2.479,0l-0.412,5.182l-7.16,0l3.514,-28.823l10.003,0Zm-3.662,18.533c-0.351,-3.266 -0.7,-7.294 -1.051,-12.088c-0.701,5.506 -1.138,9.535 -1.315,12.088l2.366,0Z" style="fill:#154267;fill-rule:nonzero;"/><path d="M179.364,114.596l0,3.488l-5.222,0c-1.258,0 -2.147,-0.104 -2.659,-0.313c-0.516,-0.206 -0.864,-0.518 -1.044,-0.933c-0.181,-0.415 -0.271,-1.163 -0.271,-2.242c-1.565,-0.049 -2.912,-0.495 -4.043,-1.337c-1.125,-0.842 -1.871,-1.912 -2.232,-3.213c-0.36,-1.3 -0.542,-3.242 -0.542,-5.829l0,-8.921c0,-1.958 0.108,-3.449 0.32,-4.476c0.215,-1.027 0.656,-1.995 1.324,-2.903c0.667,-0.907 1.526,-1.591 2.579,-2.055c1.05,-0.462 2.215,-0.695 3.498,-0.695c1.543,0 2.92,0.285 4.13,0.855c1.21,0.569 2.113,1.294 2.71,2.171c0.597,0.879 0.986,1.791 1.167,2.734c0.179,0.942 0.271,2.346 0.271,4.209l0,9.364c0,2.565 -0.116,4.302 -0.346,5.216c-0.23,0.916 -0.67,1.641 -1.321,2.182c-0.652,0.541 -1.519,0.952 -2.605,1.238c0.033,0.639 0.157,1.045 0.37,1.211c0.212,0.166 0.719,0.249 1.519,0.249l2.397,0Zm-6.932,-21.418c0,-1.341 -0.067,-2.198 -0.202,-2.573c-0.139,-0.372 -0.42,-0.56 -0.847,-0.56c-0.36,0 -0.637,0.152 -0.829,0.456c-0.19,0.301 -0.289,1.195 -0.289,2.677l0,13.46c0,1.673 0.063,2.706 0.189,3.097c0.127,0.393 0.419,0.587 0.881,0.587c0.469,0 0.771,-0.224 0.902,-0.676c0.131,-0.45 0.196,-1.525 0.196,-3.222l0,-13.246l-0.001,0Z" style="fill:#154267;fill-rule:nonzero;"/><path d="M197.643,85.773l0,19.262c0,2.184 -0.064,3.718 -0.196,4.602c-0.132,0.883 -0.521,1.793 -1.167,2.725c-0.647,0.931 -1.497,1.636 -2.555,2.116c-1.056,0.483 -2.299,0.722 -3.735,0.722c-1.588,0 -2.989,-0.284 -4.204,-0.854c-1.215,-0.571 -2.124,-1.312 -2.727,-2.225c-0.602,-0.914 -0.959,-1.878 -1.067,-2.893c-0.109,-1.014 -0.163,-3.147 -0.163,-6.4l0,-17.054l6.913,0l0,21.612c0,1.257 0.063,2.061 0.189,2.412c0.126,0.351 0.381,0.525 0.764,0.525c0.437,0 0.718,-0.192 0.844,-0.577c0.127,-0.387 0.189,-1.298 0.189,-2.735l0,-21.237l6.915,0l0,-0.001Z" style="fill:#154267;fill-rule:nonzero;"/><rect x="200.32" y="85.773" width="6.914" height="28.821" style="fill:#154267;"/><path d="M216.924,85.773l0,23.055l4.205,0l0,5.768l-11.118,0l0,-28.823l6.913,0Z" style="fill:#154267;fill-rule:nonzero;"/><path d="M42.148,195.524l43.97,-4.975l-3.031,-5.754l-7.589,1.553l6.068,-3.079l-3.039,-4.978l-36.379,17.233Z" style="fill:#d6d6db;fill-rule:nonzero;"/><path d="M103.592,213.525c0,0 115.356,-40.244 116.234,-42.57c0.883,-2.327 -3.172,-5.125 -11.367,-3.141c-8.185,2.002 -67.487,9.436 -67.487,9.436l-6.147,6.681l64.078,-9.324l-78.418,26.949l14.34,-17.624l30.437,-33.598c0,0 -7.323,-2.001 -10.541,0.337c-3.229,2.321 -38.838,15.29 -38.838,15.29l-0.297,4.995l25.385,-10.313l-16.389,18.631l-9.585,1.659l-0.288,4.981l4.02,-0.665l-3.732,4.792l-0.288,13.513l-11.117,9.971Z" style="fill:#d6d6db;fill-rule:nonzero;"/><path d="M106.25,171.912l10.018,-7.223l-1.252,40.145l-10.238,8.637l1.472,-41.559Z" style="fill:#cbc3c0;fill-rule:nonzero;"/><path d="M106.454,172.047l-1.444,40.929l9.8,-8.27l1.232,-39.584l-9.588,6.925Zm-1.895,41.908l0.015,-0.499l1.471,-41.676l0.092,-0.067l10.354,-7.48l-0.013,0.456l-1.255,40.27l-0.083,0.07l-10.581,8.926Z" style="fill:#cbc3c0;fill-rule:nonzero;"/><path d="M77.167,163.682l10.165,-7.167l10.975,16.657l-0.605,21.073l-20.535,-30.563Z" style="fill:#cbc3c0;fill-rule:nonzero;"/><path d="M45.877,155.028l10.361,-6.696l-0.196,21.229l-9.783,10.137l-0.382,-24.67Z" style="fill:#cbc3c0;fill-rule:nonzero;"/><path d="M46.092,155.17l0.369,23.998l9.373,-9.722l0.191,-20.693l-9.933,6.417Zm-0.029,25.062l-0.399,-25.35l10.787,-6.958l-0.197,21.738l-0.071,0.074l-10.12,10.496Z" style="fill:#cbc3c0;fill-rule:nonzero;"/><path d="M73.366,172.181l-1.781,-2.965l-27.087,25.442l12.662,-6.198l16.206,-16.279Z" style="fill:#cbc3c0;fill-rule:nonzero;"/><path d="M71.544,169.561l-25.771,24.207l11.271,-5.507l16.035,-16.109l-1.535,-2.591Zm-26.959,25.318l-0.22,-0.408l27.265,-25.615l2.016,3.368l-16.406,16.46l-12.655,6.195Z" style="fill:#cbc3c0;fill-rule:nonzero;"/><path d="M37.752,152.39l0.502,37.947c0,0 1.951,6.599 6.244,4.321l26.8,-25.204l29.716,44.267c0,0 5.479,1.828 4.696,-4.303l1.172,-37.693l-8.803,-2.505l-0.383,24.97l-20.529,-30.651l-11.545,-3.628l-19.361,19.296l-0.384,-24.296l-8.125,-2.521Z" style="fill:#938379;fill-rule:nonzero;"/><path d="M101.136,213.507c0.197,0.065 0.837,0.23 1.557,0.23c1.036,0 1.809,-0.329 2.289,-0.965c0.536,-0.71 0.71,-1.83 0.517,-3.323l1.167,-37.54l-8.383,-2.377l-0.389,25.352l-0.361,-0.542l-20.487,-30.587l-11.371,-3.582l-19.613,19.554l-0.389,-24.629l-7.708,-2.391l0.501,37.591c0.133,0.426 1.528,4.592 4.289,4.592c0.519,0 1.07,-0.145 1.634,-0.442l26.94,-25.341l29.807,44.4Zm1.557,0.715c-0.933,0 -1.707,-0.25 -1.739,-0.265l-0.066,-0.021l-0.041,-0.065l-29.583,-44.079l-26.675,25.087c-0.625,0.322 -1.247,0.499 -1.835,0.499c-3.192,0 -4.637,-4.753 -4.698,-4.959l-0.012,-0.075l-0.509,-38.275l8.552,2.663l0.004,0.177l0.369,23.779l19.106,-19.035l11.723,3.678l0.039,0.056l20.168,30.113l0.381,-24.579l9.223,2.609l-1.186,37.899c0.212,1.587 0,2.825 -0.612,3.656c-0.559,0.738 -1.459,1.137 -2.609,1.137" style="fill:#938379;fill-rule:nonzero;"/><path d="M41.969,109.901l14.127,0.234l23.794,36.676l-8.316,8.658l-29.605,-45.568Z" style="fill:#a1a2a9;fill-rule:nonzero;"/><path d="M42.391,110.16l29.214,44.952l8.005,-8.331l-23.617,-36.41l-13.602,-0.211Zm29.153,45.662l-0.137,-0.21l-29.863,-45.95l14.661,0.237l0.059,0.09l23.906,36.858l-0.137,0.143l-8.489,8.832Z" style="fill:#a1a2a9;fill-rule:nonzero;"/><path d="M102.041,125.373l10.608,-5.602c0,0 4.333,0.501 4.933,5.118l-1.495,39.983l-9.265,6.912l0.757,-42.123c0,0.001 -2.845,-4.453 -5.538,-4.288" style="fill:#a1a2a9;fill-rule:nonzero;"/><path d="M102.858,125.208c2.479,0.584 4.781,4.14 4.884,4.307l0.047,0.064l0,0.083l-0.749,41.668l8.838,-6.601l1.5,-39.845c-0.533,-4.067 -4.207,-4.779 -4.692,-4.863l-9.828,5.187Zm3.748,47.016l0,-0.444l0.758,-42.045c-0.357,-0.541 -2.932,-4.286 -5.31,-4.117l-0.102,-0.461l10.665,-5.623l0.053,0.004c0.048,0.003 4.508,0.573 5.122,5.318l-1.5,40.148l-9.686,7.22Z" style="fill:#a1a2a9;fill-rule:nonzero;"/><path d="M44.965,155.365l11.898,-6.839l0,-2.029l-11.55,-15.527l-0.348,24.395Z" style="fill:#a1a2a9;fill-rule:nonzero;"/><path d="M45.512,131.61l-0.338,23.368l11.471,-6.601l0,-1.792l-11.133,-14.975Zm-0.765,24.151l0.005,-0.396l0.355,-25.034l11.956,16.076l0,2.271l-12.316,7.083Z" style="fill:#a1a2a9;fill-rule:nonzero;"/><path d="M77.414,163.635l8.838,-6.059l12.578,-13.614l-21.416,19.673Z" style="fill:#acadb3;fill-rule:nonzero;"/><path d="M94.932,147.86l-14.982,13.765l6.197,-4.257l8.785,-9.508Zm-17.411,15.987l-0.232,-0.396l21.417,-19.673l0.274,0.365l-12.587,13.614l-8.872,6.09Z" style="fill:#acadb3;fill-rule:nonzero;"/><path d="M37.799,153.735l-0.585,-39.408c0,0 -0.295,-3.055 4.749,-4.41l28.931,44.663l31.095,-29.122c0,0 5.872,0.675 5.872,6.953l-1.177,39.403l-8.793,-1.793l0.774,-26.195l-21.695,20.149l-11.742,-3.128l-19.738,-30.002l0.403,24.325l-8.094,-1.435Z" style="fill:#371711;fill-rule:nonzero;"/><path d="M98.102,169.824l8.382,1.715l1.161,-39.143c0,-5.579 -4.888,-6.571 -5.59,-6.688l-31.198,29.213l-0.125,-0.202l-28.856,-44.527c-4.642,1.298 -4.461,3.996 -4.454,4.108l0.586,39.223l7.673,1.368l-0.419,-24.778l20.089,30.512l11.563,3.093l21.977,-20.412l-0.789,26.518Zm8.786,2.283l-9.212,-1.882l0.771,-25.877l-21.428,19.89l-0.098,-0.018l-11.813,-3.157l-0.049,-0.075l-19.351,-29.41l0.399,23.884l-8.511,-1.524l0,-0.204l-0.588,-39.401c-0.013,-0.116 -0.258,-3.258 4.905,-4.654l0.131,-0.035l28.887,44.58l30.997,-29.016l0.083,0.006c0.065,0.01 6.055,0.777 6.055,7.197l-1.178,39.696Z" style="fill:#371711;fill-rule:nonzero;"/><g><path d="M127.15,218.617l3.479,20.82l-6.221,0l-0.303,-3.742l-2.18,0l-0.361,3.742l-6.293,0l3.089,-20.82l8.79,0Zm-3.219,13.387c-0.308,-2.357 -0.615,-5.268 -0.924,-8.732c-0.615,3.978 -1.001,6.889 -1.155,8.732l2.079,0Z" style="fill:#371612;fill-rule:nonzero;"/><path d="M146.715,218.617l0,20.82l-5.326,0l-3.161,-9.464l0,9.464l-5.082,0l0,-20.82l5.082,0l3.406,9.375l0,-9.375l5.081,0Zm-0.692,-3.099c-0.444,0.866 -0.987,1.47 -1.632,1.813c-0.644,0.343 -1.212,0.515 -1.703,0.515c-0.683,0 -1.419,-0.142 -2.209,-0.425l-1.068,-0.373c-0.683,-0.248 -1.193,-0.374 -1.529,-0.374c-0.713,0 -1.3,0.43 -1.762,1.287l-2.281,-1.35c1.059,-1.663 2.252,-2.495 3.58,-2.495c0.693,0 1.448,0.137 2.266,0.412l0.895,0.296c0.751,0.248 1.261,0.372 1.531,0.372c0.798,0 1.327,-0.385 1.587,-1.157l2.325,1.479Z" style="fill:#371612;fill-rule:nonzero;"/><path d="M164.52,230.808c0,2.093 -0.055,3.573 -0.167,4.443c-0.111,0.871 -0.457,1.665 -1.038,2.386c-0.582,0.721 -1.369,1.273 -2.361,1.658c-0.991,0.386 -2.146,0.579 -3.465,0.579c-1.251,0 -2.374,-0.182 -3.37,-0.546c-0.996,-0.364 -1.797,-0.911 -2.404,-1.64c-0.605,-0.729 -0.967,-1.522 -1.082,-2.379c-0.116,-0.857 -0.173,-2.358 -0.173,-4.501l0,-3.562c0,-2.091 0.055,-3.573 0.165,-4.443c0.111,-0.869 0.458,-1.665 1.04,-2.386c0.583,-0.719 1.368,-1.272 2.36,-1.658c0.992,-0.385 2.146,-0.578 3.464,-0.578c1.251,0 2.375,0.182 3.372,0.546c0.995,0.364 1.796,0.911 2.402,1.64c0.607,0.728 0.968,1.521 1.083,2.378c0.116,0.858 0.174,2.358 0.174,4.501l0,3.562Zm-6.078,-6.842c0,-0.968 -0.059,-1.588 -0.18,-1.858c-0.12,-0.269 -0.368,-0.405 -0.743,-0.405c-0.317,0 -0.56,0.11 -0.728,0.329c-0.17,0.218 -0.254,0.863 -0.254,1.934l0,9.723c0,1.209 0.056,1.955 0.167,2.237c0.111,0.283 0.368,0.425 0.772,0.425c0.413,0 0.679,-0.163 0.794,-0.489c0.116,-0.326 0.173,-1.101 0.173,-2.328l0,-9.568l-0.001,0Z" style="fill:#371612;fill-rule:nonzero;"/><path d="M181.14,224.918l-5.644,0l0,-1.543c0,-0.721 -0.072,-1.179 -0.217,-1.376c-0.143,-0.197 -0.384,-0.296 -0.722,-0.296c-0.365,0 -0.642,0.133 -0.83,0.398c-0.187,0.266 -0.281,0.669 -0.281,1.209c0,0.695 0.106,1.218 0.317,1.569c0.202,0.352 0.776,0.776 1.718,1.273c2.704,1.432 4.408,2.606 5.11,3.524c0.703,0.917 1.054,2.396 1.054,4.437c0,1.483 -0.195,2.576 -0.585,3.278c-0.39,0.704 -1.143,1.293 -2.259,1.769c-1.116,0.476 -2.415,0.713 -3.897,0.713c-1.627,0 -3.015,-0.274 -4.165,-0.823c-1.149,-0.547 -1.902,-1.246 -2.259,-2.095c-0.357,-0.85 -0.534,-2.055 -0.534,-3.614l0,-1.364l5.644,0l0,2.534c0,0.78 0.08,1.281 0.238,1.505c0.159,0.222 0.441,0.334 0.846,0.334c0.403,0 0.705,-0.141 0.901,-0.424c0.197,-0.283 0.296,-0.704 0.296,-1.261c0,-1.226 -0.188,-2.027 -0.563,-2.405c-0.384,-0.377 -1.332,-1.007 -2.844,-1.89c-1.511,-0.892 -2.511,-1.54 -3.002,-1.942c-0.491,-0.403 -0.897,-0.96 -1.22,-1.672c-0.322,-0.712 -0.484,-1.621 -0.484,-2.726c0,-1.594 0.229,-2.76 0.687,-3.498c0.457,-0.738 1.195,-1.314 2.215,-1.73c1.021,-0.416 2.252,-0.624 3.696,-0.624c1.578,0 2.922,0.228 4.034,0.682c1.111,0.454 1.848,1.027 2.208,1.717c0.362,0.69 0.542,1.862 0.542,3.516l0,0.825Z" style="fill:#371612;fill-rule:nonzero;"/></g><g><path d="M74.805,222.333c-0.094,0.53 0.219,1.06 0.908,1.06c0.657,0 1.095,-0.251 1.596,-0.53l1.002,-0.558l-2.786,14.278c-0.407,2.147 0.031,3.04 2.347,3.04c1.284,0 1.785,-0.279 1.785,-0.279c0,0 -0.344,-0.698 0.031,-2.649l2.942,-14.948c0.408,-2.148 -0.03,-3.04 -2.347,-3.04c0,0 -1.534,1.841 -5.478,3.626Z" style="fill:#938379;fill-rule:nonzero;"/><path d="M85.041,222.333c-0.093,0.53 0.219,1.06 0.908,1.06c0.657,0 1.095,-0.251 1.596,-0.53l1.002,-0.558l-2.787,14.278c-0.406,2.147 0.032,3.04 2.348,3.04c1.284,0 1.784,-0.279 1.784,-0.279c0,0 -0.344,-0.698 0.032,-2.649l2.942,-14.948c0.407,-2.148 -0.031,-3.04 -2.348,-3.04c0,0 -1.534,1.841 -5.477,3.626Z" style="fill:#938379;fill-rule:nonzero;"/><path d="M105.199,218.707c-5.884,0 -9.954,5.885 -9.954,13.553c0,4.769 2.63,7.363 6.792,7.363c6.23,0 10.049,-6.163 10.049,-13.553c0,-4.406 -2.161,-7.363 -6.887,-7.363Zm-0.031,1.534c1.534,0 2.567,1.032 2.567,3.988c0,4.099 -0.971,8.227 -2.098,10.681c-0.97,2.119 -2.222,3.179 -3.474,3.179c-1.659,0 -2.567,-1.199 -2.567,-3.988c0,-4.044 1.001,-8.199 2.097,-10.681c0.908,-2.036 2.191,-3.179 3.475,-3.179Z" style="fill:#938379;fill-rule:nonzero;"/></g></svg>