<?xml version="1.0" encoding="UTF-8" standalone="no"?><!DOCTYPE svg PUBLIC "-//W3C//DTD SVG 1.1//EN" "http://www.w3.org/Graphics/SVG/1.1/DTD/svg11.dtd"><svg width="100%" height="100%" viewBox="0 0 375 255" version="1.1" xmlns="http://www.w3.org/2000/svg" xmlns:xlink="http://www.w3.org/1999/xlink" xml:space="preserve" xmlns:serif="http://www.serif.com/" style="fill-rule:evenodd;clip-rule:evenodd;stroke-linejoin:round;stroke-miterlimit:1.41421;"><path d="M173.099,8.523l-126.288,58.35c-8.393,3.878 -13.767,12.28 -13.767,21.526l0,76.952c0,9.245 5.374,17.647 13.767,21.525l126.288,58.35c6.31,2.916 13.581,2.916 19.891,0l126.288,-58.35c8.393,-3.878 13.766,-12.28 13.766,-21.525l0,-76.952c0,-9.246 -5.373,-17.648 -13.766,-21.526l-126.288,-58.35c-6.31,-2.916 -13.582,-2.916 -19.891,0" style="fill:#232323;fill-rule:nonzero;"/><g><path d="M133.949,175.075l-2.597,0l1.757,-6.967l2.162,0l-1.322,6.967Zm0.545,-7.76c-0.477,0 -0.832,-0.117 -1.066,-0.35c-0.233,-0.234 -0.35,-0.558 -0.35,-0.972c0,-0.405 0.143,-0.757 0.428,-1.058c0.285,-0.301 0.671,-0.451 1.159,-0.451c0.477,0 0.827,0.122 1.05,0.365c0.222,0.244 0.334,0.558 0.334,0.941c0,0.415 -0.137,0.773 -0.412,1.073c-0.275,0.301 -0.656,0.452 -1.143,0.452Z" style="fill:#c9c6bd;fill-rule:nonzero;"/><path d="M140.468,161.84l6.47,0l-0.42,1.882l-3.888,0l-0.436,2.131l3.189,0l-0.405,1.881l-3.126,0l-0.529,2.629l3.982,0l0,1.882l-6.859,0l2.022,-10.405Z" style="fill:#c9c6bd;fill-rule:nonzero;"/><path d="M156.038,161.7l2.411,0.389l-1.913,10.171l-2.1,0l-2.364,-5.35c-0.093,-0.207 -0.189,-0.446 -0.288,-0.715c-0.098,-0.27 -0.189,-0.508 -0.272,-0.716c-0.02,0.228 -0.044,0.477 -0.07,0.747c-0.026,0.269 -0.054,0.508 -0.085,0.715l-0.871,5.397l-2.395,-0.373l1.928,-10.125l2.084,0l2.302,5.288c0.083,0.207 0.182,0.456 0.296,0.746c0.114,0.291 0.217,0.55 0.311,0.778c0.02,-0.238 0.044,-0.5 0.07,-0.785c0.026,-0.286 0.054,-0.516 0.085,-0.692l0.871,-5.475Z" style="fill:#c9c6bd;fill-rule:nonzero;"/><path d="M169.558,161.778l1.727,0.109c0.207,-0.042 0.438,-0.076 0.692,-0.102c0.254,-0.025 0.526,-0.038 0.816,-0.038c0.456,0 0.879,0.041 1.268,0.124c0.389,0.083 0.728,0.22 1.019,0.412c0.29,0.192 0.515,0.449 0.676,0.77c0.161,0.321 0.241,0.715 0.241,1.182c0,0.695 -0.127,1.301 -0.381,1.82c-0.254,0.518 -0.586,0.951 -0.995,1.298c-0.41,0.348 -0.874,0.607 -1.392,0.778c-0.519,0.171 -1.047,0.257 -1.587,0.257l-0.42,0c-0.134,0 -0.274,-0.011 -0.42,-0.031l-0.746,3.888l-2.52,0l2.022,-10.467Zm2.706,1.648l-0.264,0c-0.083,0 -0.166,0.011 -0.249,0.031l-0.591,3.08l0.296,0c0.57,0 1.029,-0.182 1.376,-0.544c0.347,-0.363 0.521,-0.84 0.521,-1.431c0,-0.415 -0.098,-0.708 -0.295,-0.879c-0.197,-0.171 -0.462,-0.257 -0.794,-0.257Z" style="fill:#c9c6bd;fill-rule:nonzero;"/><path d="M179.032,161.778l1.726,0.109c0.208,-0.042 0.438,-0.076 0.692,-0.102c0.254,-0.025 0.527,-0.038 0.817,-0.038c0.456,0 0.879,0.041 1.267,0.124c0.389,0.083 0.729,0.218 1.019,0.404c0.29,0.187 0.516,0.436 0.677,0.747c0.16,0.311 0.241,0.695 0.241,1.151c0,0.456 -0.062,0.866 -0.187,1.228c-0.124,0.363 -0.298,0.687 -0.521,0.973c-0.223,0.285 -0.49,0.534 -0.801,0.746c-0.311,0.213 -0.648,0.386 -1.011,0.521c0.125,0.373 0.303,0.783 0.537,1.229c0.233,0.446 0.497,0.894 0.793,1.345c0.295,0.451 0.607,0.894 0.933,1.33c0.327,0.435 0.646,0.84 0.957,1.213l-2.069,1.089c-0.466,-0.581 -0.868,-1.117 -1.205,-1.61c-0.337,-0.492 -0.633,-0.967 -0.887,-1.423c-0.254,-0.456 -0.477,-0.915 -0.669,-1.377c-0.191,-0.461 -0.381,-0.956 -0.567,-1.485c-0.062,0 -0.13,-0.002 -0.202,-0.008c-0.073,-0.005 -0.14,-0.007 -0.203,-0.007l-0.839,4.308l-2.52,0l2.022,-10.467Zm2.706,1.648l-0.264,0c-0.083,0 -0.166,0.011 -0.249,0.031l-0.513,2.691l0.217,0c0.581,0 1.042,-0.145 1.385,-0.435c0.342,-0.291 0.513,-0.7 0.513,-1.229c0,-0.373 -0.099,-0.643 -0.296,-0.809c-0.197,-0.166 -0.461,-0.249 -0.793,-0.249Z" style="fill:#c9c6bd;fill-rule:nonzero;"/><path d="M189.579,161.84l6.47,0l-0.42,1.882l-3.889,0l-0.435,2.131l3.188,0l-0.404,1.881l-3.126,0l-0.529,2.629l3.982,0l0,1.882l-6.859,0l2.022,-10.405Z" style="fill:#c9c6bd;fill-rule:nonzero;"/><path d="M206.564,168.279c0.031,-0.197 0.081,-0.482 0.148,-0.856c0.067,-0.373 0.143,-0.731 0.226,-1.073c-0.094,0.176 -0.187,0.358 -0.28,0.545c-0.094,0.186 -0.184,0.365 -0.273,0.536c-0.088,0.171 -0.171,0.327 -0.248,0.467c-0.078,0.14 -0.138,0.251 -0.179,0.334l-2.287,4.013l-1.975,0l-0.746,-3.966c-0.021,-0.083 -0.042,-0.197 -0.063,-0.342c-0.02,-0.146 -0.046,-0.304 -0.077,-0.475c-0.031,-0.171 -0.063,-0.347 -0.094,-0.529c-0.031,-0.181 -0.057,-0.355 -0.077,-0.521c-0.021,0.166 -0.044,0.34 -0.07,0.521c-0.026,0.182 -0.052,0.358 -0.078,0.529l-0.117,0.77l-0.746,4.059l-2.504,-0.373l2.488,-10.078l2.178,0l1.15,6.423c0.021,0.145 0.052,0.342 0.094,0.591c0.041,0.249 0.072,0.467 0.093,0.653c0.093,-0.186 0.2,-0.404 0.319,-0.653c0.119,-0.249 0.22,-0.446 0.303,-0.591l3.64,-6.423l2.161,0l-1.166,10.405l-2.551,0l0.731,-3.966Z" style="fill:#c9c6bd;fill-rule:nonzero;"/><path d="M213.86,161.84l2.52,0l-2.022,10.405l-2.519,0l2.021,-10.405Z" style="fill:#c9c6bd;fill-rule:nonzero;"/><path d="M224.329,161.653c1.276,0 2.199,0.309 2.769,0.926c0.57,0.617 0.855,1.49 0.855,2.62c0,0.923 -0.116,1.82 -0.35,2.691c-0.233,0.871 -0.588,1.646 -1.065,2.325c-0.477,0.679 -1.078,1.226 -1.804,1.641c-0.726,0.415 -1.581,0.622 -2.566,0.622c-1.276,0 -2.196,-0.316 -2.761,-0.949c-0.565,-0.632 -0.848,-1.508 -0.848,-2.628c0,-0.923 0.117,-1.82 0.35,-2.691c0.234,-0.871 0.586,-1.643 1.058,-2.317c0.472,-0.674 1.07,-1.216 1.796,-1.625c0.726,-0.41 1.581,-0.615 2.566,-0.615Zm-0.482,1.929c-0.446,0 -0.832,0.166 -1.158,0.497c-0.327,0.332 -0.594,0.747 -0.801,1.245c-0.208,0.497 -0.363,1.042 -0.467,1.633c-0.104,0.591 -0.155,1.146 -0.155,1.664c0,0.27 0.023,0.521 0.07,0.754c0.046,0.234 0.124,0.438 0.233,0.615c0.109,0.176 0.254,0.313 0.435,0.412c0.182,0.098 0.407,0.148 0.677,0.148c0.446,0 0.832,-0.169 1.159,-0.506c0.326,-0.337 0.593,-0.759 0.801,-1.268c0.207,-0.508 0.362,-1.06 0.466,-1.656c0.104,-0.596 0.156,-1.153 0.156,-1.672c0,-0.259 -0.024,-0.503 -0.07,-0.731c-0.047,-0.228 -0.125,-0.428 -0.234,-0.599c-0.108,-0.171 -0.254,-0.303 -0.435,-0.396c-0.182,-0.094 -0.407,-0.14 -0.677,-0.14Z" style="fill:#c9c6bd;fill-rule:nonzero;"/><path d="M234.456,161.653c0.508,0 0.933,0.057 1.276,0.171c0.342,0.114 0.622,0.267 0.84,0.459c0.217,0.192 0.388,0.41 0.513,0.653c0.124,0.244 0.228,0.495 0.311,0.755l-1.96,0.902c-0.114,-0.332 -0.236,-0.584 -0.365,-0.755c-0.13,-0.171 -0.335,-0.256 -0.615,-0.256c-0.3,0 -0.539,0.085 -0.715,0.256c-0.176,0.171 -0.265,0.376 -0.265,0.615c0,0.3 0.068,0.529 0.203,0.684c0.134,0.156 0.311,0.311 0.528,0.467l1.369,1.011c0.405,0.3 0.723,0.658 0.957,1.073c0.233,0.415 0.35,0.912 0.35,1.493c0,0.549 -0.112,1.029 -0.335,1.439c-0.223,0.409 -0.523,0.749 -0.902,1.018c-0.378,0.27 -0.811,0.472 -1.299,0.607c-0.487,0.135 -0.995,0.202 -1.524,0.202c-0.757,0 -1.415,-0.086 -1.975,-0.257c-0.56,-0.171 -1.058,-0.376 -1.493,-0.614l1.089,-1.929c0.383,0.229 0.767,0.428 1.151,0.599c0.383,0.171 0.777,0.257 1.182,0.257c0.425,0 0.764,-0.091 1.018,-0.272c0.254,-0.182 0.381,-0.464 0.381,-0.848c0,-0.301 -0.072,-0.547 -0.217,-0.739c-0.146,-0.192 -0.337,-0.376 -0.576,-0.552l-1.104,-0.809c-0.249,-0.186 -0.467,-0.373 -0.653,-0.56c-0.187,-0.186 -0.342,-0.388 -0.467,-0.606c-0.124,-0.218 -0.22,-0.456 -0.288,-0.716c-0.067,-0.259 -0.101,-0.549 -0.101,-0.87c0,-0.457 0.094,-0.864 0.28,-1.221c0.187,-0.358 0.446,-0.659 0.778,-0.902c0.332,-0.244 0.72,-0.431 1.166,-0.56c0.446,-0.13 0.934,-0.195 1.462,-0.195Z" style="fill:#c9c6bd;fill-rule:nonzero;"/><path d="M241.721,161.84l2.598,0l-1.742,6.968l-2.162,0l1.306,-6.968Zm-0.528,7.761c0.477,0 0.829,0.116 1.057,0.35c0.228,0.233 0.342,0.557 0.342,0.972c0,0.415 -0.14,0.772 -0.42,1.073c-0.28,0.301 -0.663,0.451 -1.15,0.451c-0.477,0 -0.827,-0.122 -1.05,-0.366c-0.223,-0.243 -0.335,-0.562 -0.335,-0.956c0,-0.415 0.138,-0.772 0.412,-1.073c0.275,-0.301 0.656,-0.451 1.144,-0.451Z" style="fill:#c9c6bd;fill-rule:nonzero;"/></g><g><path d="M81.71,121.108c0,0.459 -0.092,1.01 -0.277,1.653c-0.184,0.644 -0.289,1.016 -0.315,1.118c3.159,0.268 5.739,0.828 7.739,1.682c0.382,0.165 0.573,0.509 0.573,1.032c0,0.522 -0.226,1.312 -0.678,2.369c-0.452,1.057 -1,2.029 -1.643,2.914c-0.644,0.885 -1.188,1.328 -1.634,1.328c-0.229,0 -0.427,-0.089 -0.593,-0.267c-1.681,-1.835 -3.363,-3.249 -5.044,-4.243c-0.943,3.567 -1.72,6.453 -2.332,8.657c2.141,1.605 3.389,2.586 3.746,2.942c0.356,0.357 0.755,0.758 1.194,1.204c0.44,0.446 0.774,0.851 1.003,1.214c0.23,0.363 0.465,0.767 0.707,1.213c0.446,0.841 0.669,1.838 0.669,2.991c0,1.153 -0.309,2.207 -0.927,3.162c-0.617,0.956 -1.487,1.733 -2.608,2.331c-2.153,1.134 -4.968,1.816 -8.446,2.045l-0.936,3.363c-0.217,0.777 -0.567,1.166 -1.051,1.166c-0.625,0 -0.937,-0.395 -0.937,-1.185c0,-0.433 0.185,-1.516 0.554,-3.248l-0.707,0c-1.388,0 -2.821,-0.07 -4.299,-0.211c-0.127,0.484 -0.268,0.997 -0.42,1.539l-0.535,1.939c-0.217,0.777 -0.567,1.166 -1.051,1.166c-0.625,0 -0.937,-0.395 -0.937,-1.185c0,-0.459 0.217,-1.694 0.65,-3.707c-1.822,-0.229 -3.471,-0.516 -4.949,-0.86c-1.478,-0.344 -2.427,-0.624 -2.847,-0.841c-0.421,-0.216 -0.631,-0.567 -0.631,-1.051c0,-0.484 0.389,-1.519 1.166,-3.105c0.777,-1.586 1.388,-2.379 1.834,-2.379c0.268,0 0.701,0.204 1.299,0.612c2.561,1.719 4.262,2.789 5.102,3.21c0.637,-2.803 1.147,-4.994 1.529,-6.574c-3.057,-2.496 -4.962,-4.598 -5.713,-6.305c-0.332,-0.778 -0.497,-1.548 -0.497,-2.313c0,-2.484 1.022,-4.633 3.067,-6.449c2.044,-1.815 4.742,-3.073 8.092,-3.774c0.523,-1.72 0.905,-2.796 1.147,-3.229c0.382,-0.764 0.879,-1.147 1.49,-1.147c0.701,0 1.051,0.408 1.051,1.223c0,0.51 -0.191,1.402 -0.573,2.676c0.866,-0.077 1.618,-0.115 2.255,-0.115c0.637,0 1.363,0.013 2.178,0.038c0.421,-1.325 0.752,-2.217 0.994,-2.675c0.382,-0.764 0.879,-1.147 1.49,-1.147c0.701,0 1.051,0.408 1.051,1.223Zm-9.726,9.822c0,0.752 0.258,1.484 0.774,2.198c0.516,0.713 1.252,1.471 2.207,2.274c0.815,-3.185 1.51,-5.803 2.083,-7.854c-0.331,-0.076 -0.806,-0.115 -1.424,-0.115c-0.618,0 -1.277,0.195 -1.977,0.583c-0.701,0.389 -1.185,0.946 -1.453,1.672l-0.134,0.459c-0.05,0.331 -0.076,0.592 -0.076,0.783Zm-3.955,14.064l-1.529,5.58c0.879,0.229 1.608,0.344 2.188,0.344c0.579,0 1.06,-0.051 1.443,-0.153c0.382,-0.102 0.722,-0.293 1.022,-0.573c0.299,-0.28 0.449,-0.653 0.449,-1.118c0,-0.465 -0.303,-1.026 -0.908,-1.682c-0.605,-0.656 -1.493,-1.455 -2.665,-2.398Z" style="fill:#c9c6bd;fill-rule:nonzero;"/><path d="M110.813,151.319c-1.057,1.529 -1.911,2.293 -2.561,2.293c-1.414,0 -2.28,-0.325 -2.598,-0.974c-0.153,-0.281 -0.23,-0.631 -0.23,-1.051c0,-1.096 1.179,-2.765 3.535,-5.007c2.357,-2.242 5.701,-4.751 10.033,-7.529c3.133,-1.987 5.14,-3.42 6.019,-4.299c0.93,-0.93 1.481,-1.678 1.653,-2.245c0.172,-0.567 0.258,-1.086 0.258,-1.558c0,-1.745 -1.249,-2.618 -3.746,-2.618c-2.509,0 -5.229,0.548 -8.159,1.644c-1.172,0.433 -1.828,0.675 -1.968,0.726c-0.14,0.051 -0.325,0.076 -0.554,0.076c-0.688,0 -1.032,-0.312 -1.032,-0.936c0,-0.357 0.092,-0.691 0.277,-1.003c0.185,-0.312 0.525,-0.71 1.022,-1.195c3.542,-3.414 8.083,-5.121 13.625,-5.121c3.592,0 6.363,0.777 8.312,2.332c1.49,1.197 2.236,2.853 2.236,4.968c0,2.624 -1.185,4.866 -3.555,6.726c-2.063,1.631 -4.809,3.179 -8.235,4.644c-1.631,0.7 -3.198,1.369 -4.701,2.006c-3.771,1.567 -6.631,3.07 -8.58,4.51c3.35,-0.077 9.312,-0.873 17.886,-2.389c2.815,-0.497 4.484,-0.745 5.006,-0.745c0.523,0 0.921,0.108 1.195,0.325c0.273,0.216 0.41,0.589 0.41,1.118c0,0.528 -0.242,1.484 -0.726,2.866c-0.484,1.382 -1.127,2.685 -1.93,3.908c-0.802,1.223 -1.525,1.869 -2.169,1.939c-0.643,0.07 -1.379,0.105 -2.207,0.105c-2.14,0 -5.255,-0.401 -9.344,-1.204c-4.089,-0.802 -7.146,-1.573 -9.172,-2.312Z" style="fill:#c9c6bd;fill-rule:nonzero;"/><path d="M157.094,128.771c0.803,0 1.204,0.255 1.204,0.764c0,0.344 -0.363,0.937 -1.089,1.777c-1.452,1.707 -2.576,3.94 -3.373,6.698c-0.796,2.758 -1.194,5.57 -1.194,8.436c0,3.682 0.968,5.523 2.905,5.523c1.35,0 2.649,-0.946 3.898,-2.838c1.248,-1.892 2.251,-4.404 3.009,-7.538c0.758,-3.134 1.137,-6.414 1.137,-9.841c0,-1.822 -0.436,-3.204 -1.309,-4.147c-0.872,-0.942 -1.92,-1.414 -3.143,-1.414c-0.675,0 -1.634,0.147 -2.876,0.44c-1.242,0.293 -1.939,0.439 -2.092,0.439c-0.586,0 -0.879,-0.255 -0.879,-0.764c0,-0.344 0.251,-0.729 0.755,-1.156c0.503,-0.427 1.168,-0.831 1.996,-1.214c1.975,-0.93 4.086,-1.395 6.335,-1.395c2.248,0 4.099,0.313 5.551,0.937c1.452,0.624 2.637,1.49 3.554,2.599c1.898,2.254 2.847,5.102 2.847,8.541c0,2.395 -0.328,4.66 -0.984,6.793c-0.656,2.134 -1.563,4.007 -2.723,5.618c-1.159,1.612 -2.503,3.01 -4.032,4.195c-3.121,2.382 -6.656,3.573 -10.605,3.573c-4.051,0 -7.159,-1.051 -9.325,-3.153c-2.115,-2.038 -3.172,-4.771 -3.172,-8.198c0,-2.216 0.35,-4.248 1.051,-6.095c0.701,-1.847 1.659,-3.395 2.876,-4.644c1.216,-1.248 2.656,-2.216 4.318,-2.904c1.663,-0.688 3.449,-1.032 5.36,-1.032Z" style="fill:#c9c6bd;fill-rule:nonzero;"/><path d="M191.49,152.16c-0.739,0.828 -1.71,1.484 -2.914,1.968c-1.204,0.484 -2.516,0.726 -3.936,0.726c-1.421,0 -2.621,-0.363 -3.602,-1.089c-0.981,-0.726 -1.472,-1.605 -1.472,-2.637c0,-1.032 0.379,-1.971 1.137,-2.818c0.758,-0.848 1.736,-1.513 2.933,-1.997c1.198,-0.484 2.507,-0.726 3.927,-0.726c1.421,0 2.618,0.372 3.593,1.117c0.974,0.746 1.462,1.631 1.462,2.657c0,1.025 -0.376,1.958 -1.128,2.799Z" style="fill:#c9c6bd;fill-rule:nonzero;"/><path d="M215.854,128.771c0.802,0 1.204,0.255 1.204,0.764c0,0.344 -0.363,0.937 -1.09,1.777c-1.452,1.707 -2.576,3.94 -3.372,6.698c-0.797,2.758 -1.195,5.57 -1.195,8.436c0,3.682 0.969,5.523 2.905,5.523c1.35,0 2.65,-0.946 3.898,-2.838c1.249,-1.892 2.252,-4.404 3.01,-7.538c0.758,-3.134 1.137,-6.414 1.137,-9.841c0,-1.822 -0.437,-3.204 -1.309,-4.147c-0.873,-0.942 -1.921,-1.414 -3.144,-1.414c-0.675,0 -1.633,0.147 -2.876,0.44c-1.242,0.293 -1.939,0.439 -2.092,0.439c-0.586,0 -0.879,-0.255 -0.879,-0.764c0,-0.344 0.252,-0.729 0.755,-1.156c0.503,-0.427 1.169,-0.831 1.997,-1.214c1.974,-0.93 4.086,-1.395 6.334,-1.395c2.249,0 4.099,0.313 5.551,0.937c1.453,0.624 2.637,1.49 3.555,2.599c1.898,2.254 2.847,5.102 2.847,8.541c0,2.395 -0.328,4.66 -0.984,6.793c-0.656,2.134 -1.564,4.007 -2.723,5.618c-1.16,1.612 -2.504,3.01 -4.032,4.195c-3.121,2.382 -6.656,3.573 -10.606,3.573c-4.051,0 -7.159,-1.051 -9.325,-3.153c-2.114,-2.038 -3.172,-4.771 -3.172,-8.198c0,-2.216 0.351,-4.248 1.051,-6.095c0.701,-1.847 1.66,-3.395 2.876,-4.644c1.217,-1.248 2.656,-2.216 4.319,-2.904c1.662,-0.688 3.449,-1.032 5.36,-1.032Z" style="fill:#c9c6bd;fill-rule:nonzero;"/><path d="M251.721,128.771c0.802,0 1.204,0.255 1.204,0.764c0,0.344 -0.363,0.937 -1.09,1.777c-1.452,1.707 -2.576,3.94 -3.372,6.698c-0.796,2.758 -1.195,5.57 -1.195,8.436c0,3.682 0.969,5.523 2.905,5.523c1.35,0 2.65,-0.946 3.898,-2.838c1.249,-1.892 2.252,-4.404 3.01,-7.538c0.758,-3.134 1.137,-6.414 1.137,-9.841c0,-1.822 -0.437,-3.204 -1.309,-4.147c-0.873,-0.942 -1.921,-1.414 -3.144,-1.414c-0.675,0 -1.633,0.147 -2.875,0.44c-1.242,0.293 -1.94,0.439 -2.093,0.439c-0.586,0 -0.879,-0.255 -0.879,-0.764c0,-0.344 0.252,-0.729 0.755,-1.156c0.503,-0.427 1.169,-0.831 1.997,-1.214c1.974,-0.93 4.086,-1.395 6.334,-1.395c2.249,0 4.099,0.313 5.551,0.937c1.453,0.624 2.637,1.49 3.555,2.599c1.898,2.254 2.847,5.102 2.847,8.541c0,2.395 -0.328,4.66 -0.984,6.793c-0.656,2.134 -1.564,4.007 -2.723,5.618c-1.159,1.612 -2.503,3.01 -4.032,4.195c-3.121,2.382 -6.656,3.573 -10.605,3.573c-4.052,0 -7.16,-1.051 -9.326,-3.153c-2.114,-2.038 -3.172,-4.771 -3.172,-8.198c0,-2.216 0.351,-4.248 1.051,-6.095c0.701,-1.847 1.66,-3.395 2.876,-4.644c1.217,-1.248 2.656,-2.216 4.319,-2.904c1.662,-0.688 3.449,-1.032 5.36,-1.032Z" style="fill:#c9c6bd;fill-rule:nonzero;"/><path d="M287.588,128.771c0.802,0 1.204,0.255 1.204,0.764c0,0.344 -0.363,0.937 -1.089,1.777c-1.453,1.707 -2.577,3.94 -3.373,6.698c-0.796,2.758 -1.194,5.57 -1.194,8.436c0,3.682 0.968,5.523 2.904,5.523c1.35,0 2.65,-0.946 3.898,-2.838c1.249,-1.892 2.252,-4.404 3.01,-7.538c0.758,-3.134 1.137,-6.414 1.137,-9.841c0,-1.822 -0.436,-3.204 -1.309,-4.147c-0.873,-0.942 -1.92,-1.414 -3.143,-1.414c-0.676,0 -1.634,0.147 -2.876,0.44c-1.242,0.293 -1.94,0.439 -2.093,0.439c-0.586,0 -0.879,-0.255 -0.879,-0.764c0,-0.344 0.252,-0.729 0.755,-1.156c0.503,-0.427 1.169,-0.831 1.997,-1.214c1.974,-0.93 4.086,-1.395 6.334,-1.395c2.249,0 4.099,0.313 5.552,0.937c1.452,0.624 2.637,1.49 3.554,2.599c1.898,2.254 2.847,5.102 2.847,8.541c0,2.395 -0.328,4.66 -0.984,6.793c-0.656,2.134 -1.564,4.007 -2.723,5.618c-1.159,1.612 -2.503,3.01 -4.032,4.195c-3.121,2.382 -6.656,3.573 -10.605,3.573c-4.051,0 -7.16,-1.051 -9.325,-3.153c-2.115,-2.038 -3.173,-4.771 -3.173,-8.198c0,-2.216 0.351,-4.248 1.051,-6.095c0.701,-1.847 1.66,-3.395 2.876,-4.644c1.217,-1.248 2.656,-2.216 4.319,-2.904c1.662,-0.688 3.449,-1.032 5.36,-1.032Z" style="fill:#c9c6bd;fill-rule:nonzero;"/></g><g><path d="M138.9,73.666l2.713,0l4.577,12.494l-3.082,0l-0.923,-3.008l-4.042,0l-0.959,3.008l-3.027,0l4.743,-12.494Zm2.602,7.235c-0.123,-0.357 -0.249,-0.729 -0.378,-1.117c-0.129,-0.388 -0.252,-0.766 -0.369,-1.135c-0.117,-0.369 -0.225,-0.717 -0.323,-1.043c-0.099,-0.326 -0.185,-0.599 -0.259,-0.821c-0.073,0.234 -0.16,0.514 -0.258,0.84c-0.098,0.326 -0.206,0.673 -0.323,1.043c-0.117,0.369 -0.24,0.744 -0.369,1.125c-0.129,0.382 -0.255,0.751 -0.378,1.108l2.657,0Z" style="fill:#c9c6bd;fill-rule:nonzero;"/><path d="M150.25,73.666c0.11,0 0.335,-0.003 0.673,-0.009c0.338,-0.006 0.711,-0.009 1.117,-0.009c0.406,0 0.799,-0.003 1.181,-0.01c0.381,-0.006 0.67,-0.009 0.867,-0.009c1.563,0 2.741,0.292 3.534,0.877c0.794,0.584 1.191,1.375 1.191,2.371c0,0.628 -0.2,1.181 -0.6,1.661c-0.4,0.48 -0.987,0.849 -1.763,1.108c0.923,0.27 1.609,0.664 2.058,1.181c0.449,0.516 0.674,1.132 0.674,1.845c0,2.338 -1.766,3.507 -5.297,3.507l-0.784,0c-0.351,0 -0.717,-0.003 -1.098,-0.009c-0.382,-0.007 -0.735,-0.01 -1.061,-0.01l-0.692,0l0,-12.494Zm3.045,10.501l0.904,0c0.246,0 0.477,-0.024 0.692,-0.074c0.215,-0.049 0.403,-0.132 0.563,-0.249c0.16,-0.117 0.286,-0.277 0.378,-0.48c0.092,-0.203 0.139,-0.458 0.139,-0.766c0,-0.233 -0.031,-0.458 -0.093,-0.673c-0.061,-0.215 -0.166,-0.406 -0.313,-0.572c-0.148,-0.166 -0.342,-0.299 -0.582,-0.397c-0.24,-0.098 -0.532,-0.148 -0.876,-0.148c-0.173,0 -0.329,0.003 -0.471,0.01c-0.141,0.006 -0.255,0.015 -0.341,0.027l0,3.322Zm0,-5.26l0.849,0c0.381,0 0.722,-0.116 1.024,-0.35c0.301,-0.234 0.452,-0.658 0.452,-1.274c0,-0.516 -0.12,-0.919 -0.36,-1.208c-0.24,-0.29 -0.637,-0.434 -1.19,-0.434l-0.452,0c-0.142,0 -0.25,0.006 -0.323,0.018l0,3.248Z" style="fill:#c9c6bd;fill-rule:nonzero;"/><rect x="163.795" y="73.666" width="3.045" height="12.494" style="fill:#c9c6bd;fill-rule:nonzero;"/><path d="M172.081,73.666l7.954,0l0,2.233l-4.909,0l0,2.676l4.079,0l-0.351,2.196l-3.728,0l0,3.156l5.168,0l0,2.233l-8.213,0l0,-12.494Z" style="fill:#c9c6bd;fill-rule:nonzero;"/><path d="M184.704,73.666c0.111,0 0.332,-0.003 0.664,-0.009c0.333,-0.006 0.702,-0.009 1.108,-0.009c0.406,0 0.799,-0.003 1.181,-0.01c0.381,-0.006 0.677,-0.009 0.886,-0.009c1.574,0 2.756,0.302 3.543,0.905c0.787,0.602 1.181,1.494 1.181,2.676c0,0.787 -0.191,1.436 -0.572,1.947c-0.381,0.51 -0.898,0.907 -1.55,1.19c0.369,0.209 0.695,0.486 0.978,0.83c0.283,0.345 0.554,0.76 0.812,1.246c0.258,0.486 0.52,1.043 0.784,1.67c0.265,0.628 0.557,1.317 0.877,2.067l-3.267,0c-0.393,-0.861 -0.726,-1.621 -0.996,-2.279c-0.271,-0.658 -0.523,-1.212 -0.757,-1.661c-0.234,-0.449 -0.464,-0.787 -0.692,-1.015c-0.228,-0.228 -0.501,-0.341 -0.821,-0.341l-0.314,0l0,5.296l-3.045,0l0,-12.494Zm3.045,5.297l0.775,0c0.431,0 0.797,-0.132 1.098,-0.397c0.302,-0.265 0.452,-0.68 0.452,-1.246c0,-0.233 -0.027,-0.452 -0.083,-0.655c-0.055,-0.203 -0.144,-0.381 -0.267,-0.535c-0.123,-0.154 -0.292,-0.277 -0.508,-0.369c-0.215,-0.092 -0.476,-0.139 -0.784,-0.139l-0.683,0l0,3.341Z" style="fill:#c9c6bd;fill-rule:nonzero;"/><path d="M206.148,73.666l-0.387,2.233l-2.879,0l0,10.261l-3.045,0l0,-10.261l-2.971,0l0,-2.233l9.282,0Z" style="fill:#c9c6bd;fill-rule:nonzero;"/><path d="M212.755,73.666l2.713,0l4.577,12.494l-3.082,0l-0.923,-3.008l-4.042,0l-0.959,3.008l-3.027,0l4.743,-12.494Zm2.602,7.235c-0.123,-0.357 -0.249,-0.729 -0.378,-1.117c-0.129,-0.388 -0.252,-0.766 -0.369,-1.135c-0.117,-0.369 -0.225,-0.717 -0.323,-1.043c-0.099,-0.326 -0.185,-0.599 -0.259,-0.821c-0.073,0.234 -0.16,0.514 -0.258,0.84c-0.098,0.326 -0.206,0.673 -0.323,1.043c-0.117,0.369 -0.24,0.744 -0.369,1.125c-0.129,0.382 -0.255,0.751 -0.378,1.108l2.657,0Z" style="fill:#c9c6bd;fill-rule:nonzero;"/><path d="M227.888,73.5c0.443,0 0.87,0.037 1.282,0.111c0.413,0.074 0.797,0.166 1.154,0.277c0.357,0.11 0.68,0.236 0.969,0.378c0.289,0.141 0.538,0.286 0.747,0.434l-1.07,2.03c-0.148,-0.074 -0.326,-0.169 -0.535,-0.286c-0.21,-0.117 -0.434,-0.231 -0.674,-0.342c-0.24,-0.11 -0.486,-0.203 -0.738,-0.277c-0.252,-0.073 -0.495,-0.11 -0.729,-0.11c-0.431,0 -0.751,0.089 -0.96,0.267c-0.209,0.179 -0.314,0.403 -0.314,0.674c0.013,0.209 0.062,0.394 0.148,0.554c0.086,0.16 0.215,0.316 0.388,0.47c0.172,0.154 0.393,0.305 0.664,0.452c0.271,0.148 0.603,0.302 0.997,0.462c0.492,0.209 0.922,0.424 1.291,0.646c0.369,0.221 0.674,0.473 0.914,0.756c0.24,0.283 0.421,0.603 0.544,0.96c0.123,0.357 0.185,0.769 0.185,1.236c0,0.566 -0.102,1.099 -0.305,1.597c-0.203,0.498 -0.495,0.932 -0.876,1.301c-0.382,0.369 -0.843,0.658 -1.384,0.867c-0.542,0.209 -1.151,0.314 -1.827,0.314c-0.48,0 -0.939,-0.043 -1.375,-0.129c-0.437,-0.086 -0.84,-0.197 -1.209,-0.332c-0.369,-0.136 -0.708,-0.28 -1.015,-0.434c-0.308,-0.154 -0.572,-0.298 -0.794,-0.434l0.997,-2.177c0.086,0.061 0.246,0.163 0.48,0.304c0.233,0.142 0.498,0.283 0.793,0.425c0.295,0.141 0.597,0.267 0.905,0.378c0.307,0.111 0.584,0.166 0.83,0.166c0.517,0 0.895,-0.12 1.135,-0.36c0.24,-0.24 0.36,-0.581 0.36,-1.024c0,-0.443 -0.151,-0.778 -0.452,-1.006c-0.302,-0.228 -0.729,-0.452 -1.283,-0.674c-0.541,-0.221 -1.021,-0.455 -1.439,-0.701c-0.419,-0.246 -0.772,-0.523 -1.062,-0.83c-0.289,-0.308 -0.51,-0.652 -0.664,-1.034c-0.154,-0.381 -0.231,-0.824 -0.231,-1.329c0,-0.553 0.114,-1.048 0.342,-1.485c0.227,-0.437 0.532,-0.812 0.913,-1.126c0.382,-0.314 0.822,-0.554 1.32,-0.72c0.498,-0.166 1.024,-0.249 1.578,-0.249Z" style="fill:#c9c6bd;fill-rule:nonzero;"/></g><g><path d="M86.26,75.012l2.709,-2.416l9.915,11.114l-2.709,2.417l-9.915,-11.115Z" style="fill:#c9c6bd;fill-rule:nonzero;"/><path d="M103.131,62.408l3.066,-1.943l7.975,12.579l-2.62,1.66l-7.025,-3.151c-0.145,-0.065 -0.35,-0.161 -0.613,-0.289c-0.264,-0.128 -0.539,-0.262 -0.827,-0.401c-0.288,-0.138 -0.566,-0.275 -0.833,-0.409c-0.268,-0.135 -0.488,-0.242 -0.661,-0.324l1.045,1.422c0.191,0.261 0.375,0.517 0.553,0.769c0.177,0.253 0.321,0.466 0.431,0.639l3.118,4.796l-3.066,1.943l-7.975,-12.579l2.509,-1.59l7.039,3.091l1.579,0.744c0.284,0.133 0.552,0.262 0.806,0.388c0.253,0.126 0.47,0.236 0.651,0.329c-0.138,-0.19 -0.295,-0.411 -0.473,-0.663c-0.177,-0.253 -0.363,-0.512 -0.558,-0.779c-0.196,-0.267 -0.382,-0.527 -0.559,-0.779c-0.178,-0.252 -0.329,-0.478 -0.455,-0.676l-3.107,-4.777Z" style="fill:#c9c6bd;fill-rule:nonzero;"/><path d="M117.893,54.641c0.484,-0.211 0.969,-0.374 1.455,-0.49c0.485,-0.116 0.95,-0.198 1.392,-0.247c0.443,-0.048 0.856,-0.064 1.239,-0.047c0.384,0.017 0.725,0.056 1.024,0.118l-0.204,2.728c-0.196,-0.01 -0.437,-0.03 -0.721,-0.058c-0.284,-0.028 -0.584,-0.045 -0.899,-0.052c-0.315,-0.007 -0.628,0.009 -0.938,0.049c-0.311,0.039 -0.594,0.114 -0.85,0.226c-0.47,0.205 -0.777,0.454 -0.921,0.749c-0.144,0.294 -0.151,0.59 -0.022,0.885c0.113,0.223 0.254,0.401 0.425,0.535c0.17,0.134 0.386,0.244 0.647,0.33c0.262,0.086 0.575,0.145 0.942,0.178c0.366,0.033 0.802,0.042 1.308,0.03c0.638,-0.006 1.211,0.024 1.72,0.091c0.508,0.066 0.961,0.197 1.358,0.392c0.397,0.195 0.748,0.458 1.052,0.79c0.304,0.331 0.568,0.752 0.79,1.263c0.27,0.619 0.412,1.248 0.428,1.89c0.015,0.641 -0.098,1.254 -0.339,1.839c-0.241,0.585 -0.608,1.121 -1.1,1.607c-0.492,0.486 -1.108,0.89 -1.847,1.212c-0.525,0.229 -1.046,0.4 -1.564,0.514c-0.519,0.114 -1.012,0.184 -1.48,0.212c-0.468,0.028 -0.906,0.031 -1.316,0.009c-0.409,-0.021 -0.767,-0.053 -1.073,-0.096l0.052,-2.854c0.124,0.026 0.347,0.061 0.67,0.104c0.322,0.043 0.679,0.072 1.069,0.086c0.39,0.014 0.779,0.009 1.168,-0.017c0.389,-0.025 0.718,-0.096 0.987,-0.214c0.565,-0.246 0.921,-0.557 1.069,-0.933c0.148,-0.377 0.117,-0.807 -0.094,-1.291c-0.211,-0.484 -0.535,-0.779 -0.973,-0.884c-0.438,-0.105 -1.012,-0.147 -1.723,-0.126c-0.697,0.016 -1.332,-0.011 -1.907,-0.081c-0.574,-0.07 -1.092,-0.204 -1.555,-0.402c-0.462,-0.199 -0.868,-0.47 -1.218,-0.813c-0.349,-0.344 -0.644,-0.792 -0.884,-1.343c-0.264,-0.605 -0.375,-1.2 -0.335,-1.786c0.041,-0.586 0.195,-1.141 0.463,-1.665c0.267,-0.525 0.634,-0.996 1.099,-1.415c0.466,-0.419 1.001,-0.76 1.606,-1.023Z" style="fill:#c9c6bd;fill-rule:nonzero;"/><path d="M138.679,51.375c-0.536,-0.361 -1.011,-0.567 -1.424,-0.62c-0.414,-0.053 -0.804,-0.025 -1.169,0.084c-0.914,0.273 -1.451,0.896 -1.612,1.87c-0.162,0.974 -0.018,2.212 0.43,3.716c0.214,0.717 0.455,1.361 0.725,1.931c0.269,0.57 0.579,1.032 0.93,1.387c0.35,0.355 0.747,0.596 1.191,0.724c0.444,0.128 0.947,0.108 1.509,-0.059c0.492,-0.147 0.956,-0.35 1.391,-0.61c0.435,-0.26 0.826,-0.526 1.174,-0.798l1.463,2.135c-0.382,0.313 -0.882,0.638 -1.5,0.975c-0.619,0.338 -1.357,0.634 -2.214,0.89c-2.165,0.645 -3.93,0.501 -5.294,-0.431c-1.365,-0.932 -2.384,-2.53 -3.059,-4.793c-0.326,-1.096 -0.496,-2.14 -0.508,-3.131c-0.012,-0.991 0.146,-1.899 0.474,-2.724c0.328,-0.825 0.833,-1.542 1.517,-2.151c0.683,-0.609 1.565,-1.075 2.648,-1.398c0.562,-0.167 1.072,-0.266 1.53,-0.295c0.458,-0.029 0.873,-0.011 1.244,0.054c0.372,0.065 0.712,0.167 1.021,0.304c0.309,0.138 0.595,0.29 0.859,0.456l-1.326,2.484Z" style="fill:#c9c6bd;fill-rule:nonzero;"/><path d="M146.165,45.748c0.13,-0.023 0.389,-0.073 0.777,-0.15c0.389,-0.077 0.821,-0.158 1.298,-0.243c0.476,-0.085 0.938,-0.172 1.384,-0.259c0.446,-0.087 0.792,-0.153 1.037,-0.197c1.848,-0.33 3.298,-0.224 4.348,0.318c1.051,0.542 1.7,1.506 1.948,2.892c0.165,0.924 0.078,1.726 -0.263,2.405c-0.34,0.679 -0.863,1.253 -1.569,1.722c0.477,0.168 0.917,0.425 1.322,0.769c0.404,0.345 0.809,0.776 1.214,1.292c0.405,0.516 0.829,1.114 1.271,1.795c0.442,0.681 0.93,1.428 1.462,2.242l-3.833,0.685c-0.642,-0.928 -1.192,-1.75 -1.647,-2.465c-0.456,-0.716 -0.868,-1.313 -1.237,-1.791c-0.368,-0.477 -0.71,-0.826 -1.025,-1.045c-0.315,-0.22 -0.66,-0.296 -1.035,-0.229l-0.369,0.066l1.112,6.216l-3.573,0.639l-2.622,-14.662Zm4.685,5.577l0.909,-0.163c0.505,-0.09 0.907,-0.323 1.205,-0.696c0.299,-0.374 0.388,-0.893 0.27,-1.557c-0.05,-0.274 -0.128,-0.525 -0.235,-0.751c-0.108,-0.227 -0.25,-0.417 -0.427,-0.572c-0.176,-0.155 -0.401,-0.264 -0.673,-0.327c-0.272,-0.063 -0.588,-0.062 -0.949,0.002l-0.801,0.144l0.701,3.92Z" style="fill:#c9c6bd;fill-rule:nonzero;"/><path d="M163.838,43.005l3.613,-0.352l1.443,14.824l-3.613,0.352l-1.443,-14.824Z" style="fill:#c9c6bd;fill-rule:nonzero;"/><path d="M174.873,42.101c0.103,-0.002 0.348,-0.01 0.737,-0.024c0.388,-0.014 0.817,-0.025 1.287,-0.033c0.469,-0.008 0.938,-0.02 1.407,-0.035c0.469,-0.016 0.851,-0.026 1.144,-0.031c1.877,-0.033 3.292,0.343 4.244,1.126c0.952,0.783 1.441,1.885 1.465,3.308c0.027,1.569 -0.48,2.755 -1.523,3.558c-1.042,0.802 -2.479,1.22 -4.313,1.251l-0.659,0.012l0.098,5.697l-3.629,0.063l-0.258,-14.892Zm3.747,6.734l0.924,-0.016c0.499,-0.008 0.928,-0.188 1.289,-0.539c0.361,-0.351 0.535,-0.893 0.522,-1.626c-0.011,-0.616 -0.17,-1.149 -0.479,-1.598c-0.308,-0.45 -0.815,-0.676 -1.519,-0.678c-0.19,0.003 -0.352,0.009 -0.483,0.019c-0.132,0.01 -0.242,0.023 -0.33,0.039l0.076,4.399Z" style="fill:#c9c6bd;fill-rule:nonzero;"/><path d="M199.432,46.325c-0.374,-0.527 -0.745,-0.888 -1.113,-1.084c-0.368,-0.195 -0.743,-0.307 -1.123,-0.334c-0.951,-0.069 -1.674,0.324 -2.169,1.178c-0.495,0.854 -0.8,2.063 -0.912,3.629c-0.054,0.746 -0.056,1.433 -0.006,2.062c0.051,0.628 0.177,1.17 0.379,1.626c0.203,0.456 0.489,0.822 0.859,1.099c0.369,0.276 0.847,0.436 1.432,0.478c0.512,0.037 1.018,0.011 1.517,-0.078c0.499,-0.089 0.959,-0.2 1.38,-0.331l0.613,2.514c-0.467,0.158 -1.05,0.285 -1.748,0.382c-0.698,0.097 -1.493,0.113 -2.386,0.048c-2.253,-0.162 -3.852,-0.921 -4.799,-2.275c-0.946,-1.355 -1.334,-3.21 -1.165,-5.566c0.083,-1.141 0.293,-2.177 0.632,-3.108c0.34,-0.932 0.809,-1.725 1.407,-2.38c0.599,-0.656 1.325,-1.147 2.18,-1.475c0.854,-0.328 1.845,-0.452 2.971,-0.371c0.585,0.042 1.097,0.131 1.536,0.265c0.439,0.135 0.82,0.298 1.145,0.491c0.324,0.192 0.606,0.408 0.847,0.645c0.24,0.238 0.454,0.482 0.642,0.731l-2.119,1.854Z" style="fill:#c9c6bd;fill-rule:nonzero;"/><path d="M207.922,43.681l3.59,0.541l-2.219,14.728l-3.589,-0.541l2.218,-14.728Z" style="fill:#c9c6bd;fill-rule:nonzero;"/><path d="M225.317,46.859c1.124,0.28 2.049,0.692 2.775,1.236c0.726,0.543 1.275,1.194 1.645,1.951c0.371,0.758 0.568,1.619 0.592,2.585c0.024,0.966 -0.104,2.011 -0.384,3.135c-0.277,1.11 -0.668,2.089 -1.174,2.938c-0.506,0.849 -1.119,1.532 -1.837,2.048c-0.718,0.516 -1.542,0.851 -2.472,1.005c-0.93,0.154 -1.964,0.089 -3.103,-0.195c-1.124,-0.28 -2.056,-0.682 -2.794,-1.206c-0.739,-0.524 -1.294,-1.161 -1.667,-1.911c-0.372,-0.751 -0.573,-1.598 -0.602,-2.542c-0.029,-0.945 0.098,-1.986 0.382,-3.125c0.276,-1.11 0.669,-2.096 1.179,-2.959c0.51,-0.863 1.126,-1.564 1.85,-2.102c0.723,-0.537 1.554,-0.886 2.493,-1.045c0.939,-0.159 1.978,-0.097 3.117,0.187Zm-0.921,2.423c-0.925,-0.23 -1.705,0.033 -2.34,0.789c-0.634,0.757 -1.141,1.896 -1.52,3.419c-0.181,0.726 -0.299,1.399 -0.356,2.02c-0.056,0.621 -0.028,1.176 0.084,1.665c0.113,0.489 0.331,0.902 0.655,1.24c0.324,0.337 0.778,0.579 1.361,0.724c0.925,0.231 1.697,-0.015 2.315,-0.738c0.619,-0.723 1.117,-1.845 1.497,-3.368c0.181,-0.726 0.301,-1.406 0.361,-2.041c0.06,-0.635 0.035,-1.205 -0.074,-1.708c-0.108,-0.503 -0.324,-0.927 -0.646,-1.272c-0.322,-0.345 -0.768,-0.588 -1.337,-0.73Z" style="fill:#c9c6bd;fill-rule:nonzero;"/><path d="M247.28,54.349l3.367,1.355l-5.56,13.817l-2.878,-1.158l-1.54,-7.545c-0.033,-0.155 -0.074,-0.377 -0.124,-0.666c-0.049,-0.289 -0.102,-0.59 -0.157,-0.905c-0.055,-0.315 -0.106,-0.62 -0.153,-0.915c-0.047,-0.296 -0.089,-0.538 -0.124,-0.726l-0.544,1.678c-0.1,0.308 -0.201,0.607 -0.302,0.898c-0.102,0.292 -0.191,0.532 -0.268,0.723l-2.074,5.331l-3.367,-1.355l5.56,-13.817l2.755,1.108l1.598,7.521l0.317,1.716c0.058,0.308 0.11,0.602 0.156,0.881c0.046,0.279 0.083,0.52 0.113,0.721c0.074,-0.223 0.161,-0.48 0.263,-0.771c0.101,-0.292 0.203,-0.594 0.306,-0.909c0.103,-0.314 0.205,-0.617 0.306,-0.908c0.102,-0.291 0.196,-0.546 0.284,-0.764l2.066,-5.31Z" style="fill:#c9c6bd;fill-rule:nonzero;"/><path d="M258.292,59.547l8.153,4.842l-1.36,2.289l-5.031,-2.989l-1.629,2.743l4.18,2.483l-1.696,2.037l-3.821,-2.269l-1.921,3.235l5.296,3.145l-1.359,2.289l-8.417,-4.999l7.605,-12.806Z" style="fill:#c9c6bd;fill-rule:nonzero;"/><path d="M276.519,71.677c0.406,0.338 0.769,0.698 1.09,1.08c0.321,0.382 0.603,0.76 0.845,1.134c0.243,0.374 0.442,0.736 0.599,1.086c0.157,0.35 0.274,0.673 0.353,0.967l-2.529,1.043c-0.079,-0.181 -0.17,-0.404 -0.272,-0.671c-0.102,-0.266 -0.221,-0.542 -0.356,-0.827c-0.136,-0.284 -0.29,-0.556 -0.465,-0.816c-0.175,-0.261 -0.369,-0.48 -0.583,-0.658c-0.394,-0.329 -0.755,-0.491 -1.083,-0.487c-0.328,0.003 -0.595,0.129 -0.802,0.377c-0.148,0.201 -0.244,0.407 -0.287,0.62c-0.043,0.212 -0.045,0.454 -0.004,0.726c0.04,0.273 0.128,0.58 0.263,0.921c0.135,0.342 0.322,0.737 0.561,1.184c0.291,0.567 0.521,1.092 0.69,1.577c0.169,0.484 0.255,0.948 0.259,1.39c0.004,0.442 -0.074,0.874 -0.234,1.294c-0.16,0.421 -0.418,0.845 -0.775,1.274c-0.431,0.518 -0.93,0.928 -1.497,1.229c-0.566,0.301 -1.164,0.476 -1.795,0.523c-0.631,0.047 -1.275,-0.041 -1.93,-0.262c-0.655,-0.222 -1.293,-0.591 -1.913,-1.107c-0.439,-0.367 -0.826,-0.756 -1.16,-1.168c-0.334,-0.412 -0.619,-0.821 -0.853,-1.227c-0.235,-0.405 -0.435,-0.796 -0.599,-1.172c-0.164,-0.375 -0.296,-0.709 -0.396,-1.002l2.575,-1.234c0.032,0.122 0.101,0.337 0.207,0.645c0.106,0.308 0.24,0.639 0.403,0.994c0.162,0.355 0.342,0.701 0.539,1.037c0.197,0.336 0.408,0.598 0.634,0.786c0.473,0.394 0.911,0.573 1.314,0.536c0.403,-0.036 0.773,-0.257 1.111,-0.663c0.338,-0.406 0.456,-0.828 0.354,-1.266c-0.103,-0.439 -0.323,-0.97 -0.661,-1.596c-0.327,-0.616 -0.588,-1.196 -0.783,-1.741c-0.195,-0.544 -0.308,-1.068 -0.338,-1.57c-0.03,-0.502 0.03,-0.987 0.18,-1.453c0.151,-0.467 0.418,-0.931 0.803,-1.393c0.423,-0.507 0.905,-0.874 1.447,-1.1c0.541,-0.227 1.107,-0.338 1.695,-0.334c0.589,0.004 1.175,0.12 1.758,0.348c0.583,0.228 1.128,0.553 1.635,0.976Z" style="fill:#c9c6bd;fill-rule:nonzero;"/></g><g id="_-HASTA-EL-24-DE-JUNIO-" serif:id="(HASTA EL 24 DE JUNIO)"><path d="M86.035,172.528l-2.658,-2.855l-5.008,3.133l-2.208,-2.372l11.565,-7.214l2.207,2.371l-4.458,2.785l2.644,2.839l4.472,-2.769l2.208,2.371l-11.565,7.214l-2.208,-2.371l5.009,-3.132Z" style="fill:#c9c6bd;fill-rule:nonzero;"/><path d="M99.119,174.017l2.159,1.72l-6.334,12.06l-2.597,-2.068l1.603,-2.815l-3.067,-2.442l-3.438,1.557l-2.136,-2.392l13.81,-5.62Zm-3.959,6.768c0.34,-0.599 0.681,-1.176 1.021,-1.731c0.34,-0.556 0.625,-1.032 0.856,-1.428c-0.479,0.215 -1.042,0.474 -1.691,0.775c-0.65,0.301 -1.316,0.614 -2.001,0.938l1.815,1.446Z" style="fill:#c9c6bd;fill-rule:nonzero;"/><path d="M109.471,180.698c0.56,0.337 0.99,0.682 1.291,1.034c0.302,0.353 0.508,0.707 0.621,1.063c0.113,0.356 0.157,0.709 0.132,1.06c-0.025,0.351 -0.077,0.697 -0.158,1.037l-2.757,-0.306c0.094,-0.441 0.127,-0.799 0.098,-1.073c-0.029,-0.275 -0.198,-0.505 -0.507,-0.691c-0.331,-0.199 -0.65,-0.263 -0.958,-0.192c-0.308,0.072 -0.541,0.239 -0.699,0.502c-0.199,0.331 -0.276,0.627 -0.231,0.887c0.045,0.261 0.136,0.55 0.273,0.865l0.837,2.022c0.246,0.6 0.359,1.205 0.341,1.817c-0.018,0.611 -0.22,1.237 -0.605,1.877c-0.365,0.605 -0.806,1.059 -1.323,1.363c-0.517,0.303 -1.074,0.477 -1.669,0.523c-0.596,0.046 -1.207,-0.018 -1.833,-0.193c-0.627,-0.175 -1.231,-0.438 -1.813,-0.789c-0.834,-0.502 -1.503,-1.033 -2.006,-1.593c-0.503,-0.56 -0.916,-1.116 -1.237,-1.668l2.479,-1.402c0.271,0.506 0.561,0.981 0.87,1.424c0.309,0.443 0.687,0.798 1.132,1.067c0.468,0.282 0.903,0.407 1.303,0.376c0.4,-0.032 0.727,-0.259 0.982,-0.681c0.199,-0.331 0.283,-0.651 0.25,-0.958c-0.032,-0.308 -0.122,-0.638 -0.267,-0.99l-0.68,-1.624c-0.15,-0.371 -0.266,-0.721 -0.348,-1.05c-0.082,-0.33 -0.119,-0.655 -0.112,-0.978c0.008,-0.322 0.06,-0.649 0.158,-0.979c0.098,-0.33 0.253,-0.672 0.467,-1.026c0.302,-0.503 0.675,-0.889 1.118,-1.159c0.443,-0.271 0.928,-0.43 1.455,-0.478c0.527,-0.048 1.079,0.004 1.657,0.157c0.577,0.153 1.156,0.405 1.739,0.756Z" style="fill:#c9c6bd;fill-rule:nonzero;"/><path d="M113.681,183.411l9.017,4.231l-1.499,1.97l-2.843,-1.334l-6.575,9.021l-2.952,-1.385l6.558,-9.03l-2.734,-1.283l1.028,-2.19Z" style="fill:#c9c6bd;fill-rule:nonzero;"/><path d="M126.527,189.075l2.569,1.009l-2.505,13.39l-3.09,-1.213l0.703,-3.161l-3.649,-1.432l-2.828,2.499l-2.745,-1.657l11.545,-9.435Zm-1.792,7.633c0.149,-0.672 0.304,-1.323 0.466,-1.955c0.162,-0.631 0.295,-1.17 0.398,-1.616c-0.394,0.347 -0.857,0.76 -1.388,1.238c-0.532,0.479 -1.077,0.974 -1.636,1.486l2.16,0.847Z" style="fill:#c9c6bd;fill-rule:nonzero;"/><path d="M143.641,194.426l8.117,1.828l-1.059,2.242l-4.878,-1.098l-1.148,2.55l4,0.9l-1.039,2.247l-3.922,-0.883l-1.406,3.148l4.995,1.125l-0.532,2.361l-8.605,-1.938l5.477,-12.482Z" style="fill:#c9c6bd;fill-rule:nonzero;"/><path d="M155.067,196.754l3.2,0.508l-3.832,10.489l4.326,0.686l-0.379,2.39l-8,-1.269l4.685,-12.804Z" style="fill:#c9c6bd;fill-rule:nonzero;"/><path d="M171.982,200.477c0.856,-0.335 1.641,-0.576 2.356,-0.723c0.714,-0.148 1.43,-0.205 2.15,-0.172c0.506,0.024 0.969,0.112 1.389,0.264c0.42,0.153 0.778,0.36 1.073,0.62c0.295,0.261 0.521,0.568 0.678,0.922c0.157,0.355 0.226,0.745 0.207,1.171c-0.02,0.439 -0.097,0.87 -0.23,1.291c-0.133,0.421 -0.343,0.855 -0.63,1.302c-0.288,0.448 -0.656,0.911 -1.105,1.391c-0.449,0.48 -1.007,0.992 -1.672,1.535l-1.997,1.63l4.395,0.202l-0.595,2.495l-7.952,-0.365l0.116,-2.517l2.545,-2.226c0.653,-0.571 1.21,-1.056 1.668,-1.455c0.459,-0.399 0.833,-0.756 1.121,-1.07c0.288,-0.313 0.501,-0.601 0.64,-0.861c0.139,-0.261 0.215,-0.538 0.228,-0.831c0.012,-0.266 -0.041,-0.495 -0.158,-0.688c-0.118,-0.192 -0.344,-0.296 -0.677,-0.311c-0.386,-0.018 -0.789,0.031 -1.208,0.145c-0.419,0.114 -0.927,0.291 -1.526,0.53l-0.816,-2.279Z" style="fill:#c9c6bd;fill-rule:nonzero;"/><path d="M191.115,203.344l-0.598,3.372l1.44,-0.027l-0.435,2.449l-1.439,0.026l-0.561,3.211l-3.16,0.059l0.541,-3.211l-4.999,0.093l-0.03,-1.6l4.795,-7.91l3.119,-0.058l-4.35,7.062l1.9,-0.035l0.508,-2.81l3.269,-0.621Z" style="fill:#c9c6bd;fill-rule:nonzero;"/><path d="M204.697,197.724l2.082,-0.139c0.409,-0.153 0.863,-0.293 1.364,-0.419c0.5,-0.126 0.994,-0.225 1.483,-0.295c1.61,-0.233 2.835,-0.006 3.675,0.681c0.84,0.687 1.363,1.743 1.569,3.168c0.189,1.306 0.231,2.526 0.125,3.66c-0.106,1.133 -0.417,2.148 -0.934,3.045c-0.517,0.896 -1.264,1.644 -2.242,2.243c-0.978,0.6 -2.239,1.011 -3.782,1.234c-0.647,0.094 -1.235,0.172 -1.765,0.235c-0.53,0.063 -0.867,0.105 -1.012,0.126l-1.208,0.175l0.645,-13.714Zm4.625,1.656c-0.304,0.044 -0.576,0.093 -0.818,0.148c-0.241,0.055 -0.476,0.133 -0.704,0.233l-0.404,8.667l0.831,-0.12c0.739,-0.107 1.349,-0.363 1.829,-0.769c0.48,-0.406 0.848,-0.918 1.102,-1.534c0.255,-0.616 0.404,-1.308 0.448,-2.075c0.044,-0.768 0.006,-1.567 -0.114,-2.398c-0.05,-0.343 -0.125,-0.656 -0.227,-0.938c-0.101,-0.281 -0.24,-0.521 -0.417,-0.717c-0.176,-0.197 -0.389,-0.342 -0.638,-0.433c-0.249,-0.092 -0.545,-0.114 -0.888,-0.064Z" style="fill:#c9c6bd;fill-rule:nonzero;"/><path d="M218.445,195.529l8.108,-1.868l0.017,2.48l-4.872,1.122l0.069,2.796l3.995,-0.92l0.037,2.474l-3.918,0.903l0.097,3.446l4.989,-1.149l0.543,2.358l-8.595,1.98l-0.47,-13.622Z" style="fill:#c9c6bd;fill-rule:nonzero;"/><path d="M237.702,190.077l3.057,-1.075l1.864,12.659c0.105,0.74 0.119,1.403 0.042,1.988c-0.077,0.585 -0.234,1.132 -0.473,1.64c-0.238,0.508 -0.551,0.996 -0.937,1.464c-0.387,0.468 -0.831,0.953 -1.333,1.454l-1.812,-1.716c0.656,-0.626 1.088,-1.227 1.296,-1.802c0.207,-0.574 0.261,-1.205 0.162,-1.89l-1.866,-12.722Z" style="fill:#c9c6bd;fill-rule:nonzero;"/><path d="M246.885,186.383l1.964,8.1c0.042,0.187 0.093,0.361 0.153,0.524c0.061,0.163 0.124,0.318 0.191,0.463c0.262,0.569 0.591,0.942 0.988,1.119c0.397,0.177 0.826,0.16 1.286,-0.052c0.594,-0.273 0.957,-0.759 1.09,-1.459c0.133,-0.699 0.093,-1.506 -0.122,-2.42l-1.916,-7.946l2.943,-1.354l2.022,8.272c0.169,0.685 0.248,1.376 0.237,2.07c-0.011,0.695 -0.146,1.359 -0.405,1.992c-0.259,0.633 -0.66,1.228 -1.204,1.786c-0.543,0.558 -1.257,1.04 -2.141,1.447c-0.727,0.335 -1.385,0.531 -1.974,0.589c-0.59,0.059 -1.115,0.003 -1.574,-0.167c-0.46,-0.17 -0.859,-0.438 -1.196,-0.804c-0.337,-0.366 -0.622,-0.804 -0.856,-1.312c-0.179,-0.388 -0.331,-0.846 -0.457,-1.376l-1.973,-8.118l2.944,-1.354Z" style="fill:#c9c6bd;fill-rule:nonzero;"/><path d="M262.672,177.573l2.9,-1.204l4.781,12.421l-2.297,1.419l-6.202,-4.256c-0.242,-0.163 -0.508,-0.359 -0.798,-0.588c-0.29,-0.228 -0.551,-0.428 -0.781,-0.598c0.131,0.263 0.274,0.551 0.428,0.864c0.153,0.312 0.283,0.592 0.39,0.84l2.694,6.493l-2.873,1.21l-4.732,-12.38l2.28,-1.408l6.092,4.229c0.23,0.171 0.506,0.376 0.827,0.617c0.321,0.241 0.61,0.454 0.866,0.641c-0.138,-0.275 -0.29,-0.578 -0.454,-0.907c-0.164,-0.329 -0.289,-0.601 -0.374,-0.815l-2.747,-6.578Z" style="fill:#c9c6bd;fill-rule:nonzero;"/><path d="M268.043,173.828l2.544,-2.007l6.248,12.113l-2.543,2.008l-6.249,-12.114Z" style="fill:#c9c6bd;fill-rule:nonzero;"/><path d="M276.484,165.809c1.14,-1.179 2.25,-1.757 3.33,-1.733c1.081,0.025 2.143,0.542 3.188,1.552c0.853,0.825 1.578,1.735 2.174,2.729c0.597,0.994 0.996,2.015 1.198,3.063c0.201,1.048 0.169,2.093 -0.096,3.135c-0.265,1.041 -0.838,2.017 -1.719,2.928c-1.14,1.179 -2.255,1.747 -3.345,1.704c-1.089,-0.043 -2.152,-0.565 -3.187,-1.566c-0.853,-0.825 -1.578,-1.734 -2.175,-2.728c-0.596,-0.995 -0.995,-2.011 -1.197,-3.049c-0.201,-1.039 -0.167,-2.077 0.103,-3.114c0.271,-1.037 0.846,-2.011 1.726,-2.921Zm1.352,2.169c-0.398,0.412 -0.59,0.918 -0.575,1.516c0.014,0.599 0.159,1.216 0.434,1.853c0.275,0.636 0.639,1.267 1.093,1.891c0.453,0.624 0.92,1.168 1.399,1.631c0.249,0.241 0.503,0.444 0.76,0.61c0.257,0.165 0.516,0.276 0.776,0.333c0.261,0.057 0.517,0.046 0.771,-0.034c0.253,-0.08 0.5,-0.244 0.741,-0.493c0.399,-0.412 0.588,-0.92 0.568,-1.523c-0.019,-0.603 -0.171,-1.228 -0.455,-1.874c-0.285,-0.646 -0.656,-1.283 -1.115,-1.912c-0.458,-0.628 -0.927,-1.175 -1.406,-1.638c-0.24,-0.232 -0.486,-0.428 -0.739,-0.589c-0.252,-0.16 -0.506,-0.267 -0.762,-0.319c-0.255,-0.053 -0.507,-0.037 -0.756,0.048c-0.248,0.084 -0.493,0.251 -0.734,0.5Z" style="fill:#c9c6bd;fill-rule:nonzero;"/></g><path d="M119.145,103.56c-2.326,-2.723 1.118,-4.868 1.118,-4.868c0.069,4.394 4.581,3.991 6.799,2.489c3.358,-2.275 3.008,-6.533 1.92,-8.916c-1.097,-2.402 -3.623,-4.13 -6.581,-4.131c-7.214,-0.005 -13.837,2.569 -17.542,7.426c-3.701,4.855 -4.414,8.037 -2.067,10.878c3.166,3.831 9.697,0.421 9.697,0.421c-3.36,6.252 -9.676,5.701 -11.809,4.697c-1.928,-0.91 -5.135,-4.155 -4.361,-8.451c0.83,-4.608 4.125,-8.849 11.723,-12.751c7.404,-3.803 14.636,-3.115 14.636,-3.115c-3.949,-1.038 -10.038,-1.466 -21.352,3.778c-2.247,1.04 -5.407,2.299 -8.811,3.245c-0.337,1.404 -0.497,3.449 -1.285,4.535c-0.985,1.371 -2.663,1.733 -3.01,2.886c-0.595,-0.214 -0.502,-1.28 -0.502,-1.28c-1.7,2.715 -4.167,0.513 -5.663,2.816c-1.331,-1.897 1.781,-5.093 2.992,-5.711c0.724,-0.383 -0.379,-0.452 -0.954,-0.023c-2.289,1.714 -4.373,2.42 -6.049,2.493c-1.408,0.063 -2.529,-0.321 -3.235,-0.934c0.76,0.088 0.498,-0.585 1.228,-0.762c-3.443,0.68 -5.132,-1.576 -6.062,-2.09c0.418,-0.861 2.032,-1.45 3.315,-1.213c-3.058,-1.001 -4.991,-3.381 -4.63,-5.584c0.049,-0.29 0.136,-0.578 0.268,-0.861c0.079,0.125 0.164,0.247 0.248,0.368c2.185,3.222 5.207,5.453 8.585,6.56c3.522,1.15 7.429,1.07 11.18,-0.355c-5.976,1.145 -11.989,0.836 -14.675,-3.597c-1.295,-2.137 -1.814,-6.185 2.508,-7.965c4.319,-1.783 7.579,1.158 7.579,1.158c-2.143,0.485 -2.532,1.873 -2.127,3.153c1.054,3.307 5.09,3.868 9.027,3.372c4.479,-0.564 10.041,-2.95 11.483,-3.411c6.373,-2.036 10.767,-2.273 11.596,-2.307c1.177,-0.051 7.77,-0.433 11.96,2.315c0.876,0.574 3.916,2.395 4.6,7.135c0.433,3.001 -0.855,5.625 -2.068,7.227c-2.493,3.29 -7.504,3.922 -9.679,1.373" style="fill:#e8901b;fill-rule:nonzero;"/><path d="M246.208,103.253c2.326,-2.723 -1.118,-4.868 -1.118,-4.868c-0.07,4.394 -4.582,3.991 -6.799,2.489c-3.358,-2.274 -3.008,-6.533 -1.92,-8.916c1.096,-2.402 3.622,-4.13 6.581,-4.131c7.214,-0.005 13.837,2.569 17.542,7.426c3.7,4.855 4.414,8.037 2.067,10.878c-3.166,3.832 -9.697,0.421 -9.697,0.421c3.36,6.253 9.676,5.701 11.808,4.697c1.929,-0.91 5.136,-4.154 4.362,-8.451c-0.83,-4.608 -4.126,-8.848 -11.724,-12.751c-7.404,-3.803 -14.635,-3.114 -14.635,-3.114c3.948,-1.039 10.038,-1.466 21.351,3.777c2.247,1.04 5.408,2.299 8.811,3.245c0.338,1.404 0.498,3.449 1.285,4.535c0.986,1.371 2.663,1.733 3.01,2.886c0.595,-0.214 0.503,-1.28 0.503,-1.28c1.7,2.716 4.167,0.513 5.663,2.816c1.33,-1.897 -1.781,-5.093 -2.993,-5.711c-0.723,-0.382 0.38,-0.452 0.955,-0.023c2.289,1.715 4.373,2.42 6.048,2.494c1.409,0.062 2.529,-0.322 3.236,-0.935c-0.761,0.088 -0.499,-0.584 -1.229,-0.762c3.444,0.68 5.132,-1.576 6.062,-2.09c-0.417,-0.861 -2.031,-1.45 -3.314,-1.213c3.058,-1.001 4.99,-3.381 4.629,-5.584c-0.049,-0.29 -0.135,-0.577 -0.267,-0.861c-0.079,0.126 -0.164,0.248 -0.248,0.369c-2.185,3.221 -5.207,5.452 -8.585,6.559c-3.522,1.151 -7.429,1.07 -11.18,-0.355c5.976,1.145 11.989,0.836 14.674,-3.597c1.295,-2.137 1.814,-6.185 -2.507,-7.965c-4.32,-1.783 -7.579,1.158 -7.579,1.158c2.143,0.485 2.532,1.873 2.126,3.153c-1.054,3.308 -5.09,3.868 -9.026,3.372c-4.48,-0.564 -10.041,-2.95 -11.483,-3.411c-6.373,-2.036 -10.767,-2.272 -11.597,-2.307c-1.176,-0.051 -7.769,-0.433 -11.96,2.315c-0.875,0.574 -3.916,2.395 -4.599,7.135c-0.433,3.001 0.855,5.626 2.068,7.227c2.492,3.291 7.504,3.922 9.679,1.373" style="fill:#e8901b;fill-rule:nonzero;"/></svg>