<?xml version="1.0" encoding="UTF-8" standalone="no"?><!DOCTYPE svg PUBLIC "-//W3C//DTD SVG 1.1//EN" "http://www.w3.org/Graphics/SVG/1.1/DTD/svg11.dtd"><svg width="100%" height="100%" viewBox="0 0 1000 700" version="1.1" xmlns="http://www.w3.org/2000/svg" xmlns:xlink="http://www.w3.org/1999/xlink" xml:space="preserve" xmlns:serif="http://www.serif.com/" style="fill-rule:evenodd;clip-rule:evenodd;stroke-linejoin:round;stroke-miterlimit:1.41421;"><g><path d="M77.521,153.083l-18.938,0c0,-3.532 -0.039,-5.758 -0.117,-6.68c-0.078,-0.922 -0.453,-1.695 -1.125,-2.32c-0.672,-0.625 -1.586,-0.938 -2.742,-0.938c-0.969,0 -1.766,0.297 -2.391,0.891c-0.625,0.593 -0.984,1.359 -1.078,2.297c-0.094,0.937 -0.141,2.828 -0.141,5.671l0,12.094c0.969,-2.031 2.391,-3.555 4.266,-4.57c1.875,-1.016 4.187,-1.524 6.937,-1.524c3.469,0 6.532,0.938 9.188,2.813c2.656,1.875 4.344,4.125 5.062,6.75c0.719,2.625 1.079,6.172 1.079,10.641l0,6.046c0,5.313 -0.204,9.266 -0.61,11.86c-0.406,2.594 -1.492,4.992 -3.258,7.195c-1.765,2.203 -4.187,3.914 -7.265,5.133c-3.078,1.219 -6.664,1.828 -10.758,1.828c-5.094,0 -9.266,-0.703 -12.516,-2.109c-3.25,-1.407 -5.757,-3.43 -7.523,-6.071c-1.766,-2.64 -2.797,-5.414 -3.094,-8.32c-0.297,-2.906 -0.445,-8.547 -0.445,-16.922l0,-10.5c0,-9.031 0.133,-15.07 0.398,-18.117c0.266,-3.047 1.352,-5.93 3.258,-8.648c1.906,-2.719 4.508,-4.758 7.805,-6.118c3.297,-1.359 7.101,-2.039 11.414,-2.039c5.312,0 9.672,0.86 13.078,2.578c3.406,1.719 5.844,4.141 7.312,7.266c1.469,3.125 2.204,7.063 2.204,11.813Zm-18.938,23.671c0,-2.687 -0.297,-4.531 -0.891,-5.531c-0.593,-1 -1.562,-1.5 -2.906,-1.5c-1.312,0 -2.273,0.477 -2.883,1.43c-0.609,0.953 -0.914,2.82 -0.914,5.601l0,13.735c0,3.344 0.289,5.531 0.868,6.562c0.578,1.032 1.539,1.547 2.882,1.547c0.813,0 1.657,-0.398 2.532,-1.195c0.875,-0.797 1.312,-2.945 1.312,-6.445l0,-14.204Z" style="fill:#231f20;fill-rule:nonzero;"/><path d="M128.708,158.614l0,25.312c0,5.75 -0.312,9.938 -0.937,12.563c-0.625,2.625 -1.922,5.078 -3.891,7.359c-1.969,2.281 -4.344,3.922 -7.125,4.922c-2.781,1 -5.891,1.5 -9.328,1.5c-4.531,0 -8.297,-0.523 -11.297,-1.57c-3,-1.047 -5.391,-2.68 -7.172,-4.899c-1.781,-2.218 -3.047,-4.554 -3.797,-7.008c-0.75,-2.453 -1.125,-6.351 -1.125,-11.695l0,-26.484c0,-6.969 0.602,-12.188 1.805,-15.656c1.203,-3.469 3.594,-6.25 7.172,-8.344c3.578,-2.094 7.914,-3.141 13.008,-3.141c4.156,0 7.875,0.727 11.156,2.18c3.281,1.453 5.734,3.226 7.359,5.32c1.625,2.094 2.727,4.453 3.305,7.078c0.578,2.625 0.867,6.813 0.867,12.563Zm-18.937,-6.375c0,-4.031 -0.196,-6.555 -0.586,-7.571c-0.391,-1.015 -1.305,-1.523 -2.743,-1.523c-1.406,0 -2.335,0.539 -2.789,1.617c-0.453,1.078 -0.679,3.571 -0.679,7.477l0,37.031c0,4.406 0.211,7.063 0.633,7.969c0.421,0.906 1.335,1.359 2.742,1.359c1.406,0 2.328,-0.531 2.765,-1.594c0.438,-1.062 0.657,-3.453 0.657,-7.171l0,-37.594Z" style="fill:#231f20;fill-rule:nonzero;"/><path d="M162.036,145.77l0,8.813c0,3.906 -0.344,6.89 -1.031,8.953c-0.688,2.062 -2.125,3.757 -4.313,5.086c-2.187,1.328 -5.125,1.992 -8.812,1.992c-3.906,0 -6.836,-0.555 -8.789,-1.664c-1.953,-1.11 -3.32,-2.649 -4.102,-4.617c-0.781,-1.969 -1.172,-4.813 -1.172,-8.532l0,-9.234c0,-5.75 1.258,-9.672 3.774,-11.766c2.516,-2.093 5.82,-3.14 9.914,-3.14c3.562,0 6.453,0.625 8.672,1.875c2.219,1.25 3.75,2.804 4.594,4.664c0.843,1.859 1.265,4.383 1.265,7.57Zm-12.328,-2.812c0,-1.875 -0.094,-3.024 -0.281,-3.446c-0.188,-0.422 -0.688,-0.633 -1.5,-0.633c-0.781,0 -1.274,0.219 -1.477,0.657c-0.203,0.437 -0.304,1.578 -0.304,3.422l0,16.546c0,1.719 0.109,2.805 0.328,3.258c0.218,0.453 0.656,0.68 1.312,0.68c0.875,0 1.414,-0.211 1.617,-0.633c0.204,-0.422 0.305,-1.398 0.305,-2.93l0,-16.921Z" style="fill:#231f20;fill-rule:nonzero;"/><path d="M226.442,155.895l-18.328,0l0,-5.625c0,-2.625 -0.234,-4.297 -0.703,-5.016c-0.469,-0.718 -1.25,-1.078 -2.344,-1.078c-1.187,0 -2.085,0.485 -2.695,1.453c-0.609,0.969 -0.914,2.438 -0.914,4.407c0,2.531 0.344,4.437 1.031,5.718c0.657,1.282 2.516,2.829 5.578,4.641c8.782,5.219 14.313,9.5 16.594,12.844c2.281,3.344 3.422,8.734 3.422,16.172c0,5.406 -0.633,9.39 -1.898,11.953c-1.266,2.562 -3.711,4.711 -7.336,6.445c-3.625,1.734 -7.844,2.602 -12.657,2.602c-5.281,0 -9.789,-1 -13.523,-3c-3.734,-2 -6.18,-4.547 -7.336,-7.641c-1.156,-3.094 -1.734,-7.484 -1.734,-13.172l0,-4.969l18.328,0l0,9.235c0,2.844 0.258,4.672 0.773,5.484c0.516,0.813 1.43,1.219 2.742,1.219c1.313,0 2.29,-0.516 2.93,-1.547c0.641,-1.031 0.961,-2.562 0.961,-4.594c0,-4.468 -0.609,-7.39 -1.828,-8.765c-1.25,-1.375 -4.328,-3.672 -9.234,-6.891c-4.907,-3.25 -8.157,-5.609 -9.75,-7.078c-1.594,-1.469 -2.914,-3.5 -3.961,-6.094c-1.047,-2.594 -1.571,-5.906 -1.571,-9.937c0,-5.813 0.743,-10.063 2.227,-12.75c1.484,-2.688 3.883,-4.789 7.195,-6.305c3.313,-1.516 7.313,-2.273 12,-2.273c5.125,0 9.492,0.828 13.102,2.484c3.609,1.656 6,3.742 7.172,6.258c1.172,2.515 1.757,6.789 1.757,12.82l0,3Z" style="fill:#231f20;fill-rule:nonzero;"/><path d="M268.349,132.926l11.297,75.891l-20.204,0l-0.984,-13.641l-7.078,0l-1.172,13.641l-20.437,0l10.031,-75.891l28.547,0Zm-10.453,48.797c-1,-8.594 -2,-19.203 -3,-31.828c-2,14.5 -3.25,25.109 -3.75,31.828l6.75,0Z" style="fill:#231f20;fill-rule:nonzero;"/><path d="M302.755,132.926l0,60.703l12,0l0,15.188l-31.734,0l0,-75.891l19.734,0Z" style="fill:#231f20;fill-rule:nonzero;"/><path d="M363.177,177.364c0,7.625 -0.18,13.023 -0.539,16.195c-0.36,3.172 -1.485,6.07 -3.375,8.695c-1.891,2.625 -4.446,4.641 -7.664,6.047c-3.219,1.407 -6.969,2.11 -11.25,2.11c-4.063,0 -7.711,-0.664 -10.946,-1.993c-3.234,-1.328 -5.836,-3.32 -7.804,-5.976c-1.969,-2.656 -3.141,-5.547 -3.516,-8.672c-0.375,-3.125 -0.562,-8.594 -0.562,-16.406l0,-12.985c0,-7.625 0.179,-13.023 0.539,-16.195c0.359,-3.172 1.484,-6.07 3.375,-8.695c1.89,-2.625 4.445,-4.641 7.664,-6.047c3.218,-1.406 6.968,-2.109 11.25,-2.109c4.062,0 7.711,0.664 10.945,1.992c3.234,1.328 5.836,3.32 7.805,5.976c1.968,2.657 3.14,5.547 3.515,8.672c0.375,3.125 0.563,8.594 0.563,16.406l0,12.985Zm-19.735,-24.938c0,-3.531 -0.195,-5.789 -0.585,-6.773c-0.391,-0.985 -1.196,-1.477 -2.415,-1.477c-1.031,0 -1.82,0.399 -2.367,1.196c-0.547,0.796 -0.82,3.148 -0.82,7.054l0,35.438c0,4.406 0.18,7.125 0.539,8.156c0.359,1.031 1.195,1.547 2.508,1.547c1.344,0 2.203,-0.594 2.578,-1.781c0.375,-1.188 0.562,-4.016 0.562,-8.485l0,-34.875Zm12.891,-34.593l-15.422,12.703l-9.515,0l8.25,-12.703l16.687,0Z" style="fill:#231f20;fill-rule:nonzero;"/><path d="M414.599,132.926l0,75.891l-17.297,0l-10.266,-34.5l0,34.5l-16.5,0l0,-75.891l16.5,0l11.063,34.172l0,-34.172l16.5,0Z" style="fill:#231f20;fill-rule:nonzero;"/><path d="M439.442,132.926l14.766,0c9.531,0 15.977,0.438 19.336,1.313c3.359,0.875 5.914,2.312 7.664,4.312c1.75,2 2.844,4.227 3.281,6.68c0.438,2.453 0.657,7.273 0.657,14.461l0,26.578c0,6.813 -0.321,11.367 -0.961,13.664c-0.641,2.297 -1.758,4.094 -3.352,5.391c-1.594,1.297 -3.562,2.203 -5.906,2.718c-2.344,0.516 -5.875,0.774 -10.594,0.774l-24.891,0l0,-75.891Zm19.735,12.985l0,49.922c2.844,0 4.594,-0.571 5.25,-1.711c0.656,-1.141 0.984,-4.243 0.984,-9.305l0,-29.484c0,-3.438 -0.109,-5.641 -0.328,-6.61c-0.219,-0.969 -0.719,-1.68 -1.5,-2.133c-0.781,-0.453 -2.25,-0.679 -4.406,-0.679Z" style="fill:#231f20;fill-rule:nonzero;"/><path d="M492.505,132.926l32.906,0l0,15.188l-13.172,0l0,14.39l12.328,0l0,14.438l-12.328,0l0,16.687l14.485,0l0,15.188l-34.219,0l0,-75.891Z" style="fill:#231f20;fill-rule:nonzero;"/><path d="M573.458,132.926l0,50.719c0,7.594 -0.078,12.477 -0.234,14.648c-0.157,2.172 -0.867,4.133 -2.133,5.883c-1.266,1.75 -2.984,2.961 -5.156,3.633c-2.172,0.672 -5.446,1.008 -9.821,1.008l-9.89,0l0,-13.266c1.187,0.094 2.047,0.141 2.578,0.141c1.406,0 2.515,-0.344 3.328,-1.031c0.812,-0.688 1.281,-1.532 1.406,-2.532c0.125,-1 0.188,-2.937 0.188,-5.812l0,-53.391l19.734,0Z" style="fill:#231f20;fill-rule:nonzero;"/><path d="M625.958,132.926l0,50.719c0,5.75 -0.187,9.789 -0.562,12.117c-0.375,2.328 -1.485,4.719 -3.329,7.172c-1.843,2.453 -4.273,4.313 -7.289,5.578c-3.015,1.266 -6.57,1.899 -10.664,1.899c-4.531,0 -8.531,-0.75 -12,-2.25c-3.468,-1.5 -6.062,-3.453 -7.781,-5.86c-1.719,-2.406 -2.734,-4.945 -3.047,-7.617c-0.312,-2.672 -0.469,-8.289 -0.469,-16.851l0,-44.907l19.735,0l0,56.907c0,3.312 0.18,5.429 0.539,6.351c0.359,0.922 1.086,1.383 2.18,1.383c1.25,0 2.054,-0.508 2.414,-1.524c0.359,-1.015 0.539,-3.414 0.539,-7.195l0,-55.922l19.734,0Z" style="fill:#231f20;fill-rule:nonzero;"/><path d="M653.333,132.926l0,60.703l12,0l0,15.188l-31.734,0l0,-75.891l19.734,0Z" style="fill:#231f20;fill-rule:nonzero;"/><rect x="670.114" y="132.926" width="19.734" height="75.891" style="fill:#231f20;fill-rule:nonzero;"/><path d="M742.864,177.364c0,7.625 -0.179,13.023 -0.539,16.195c-0.359,3.172 -1.484,6.07 -3.375,8.695c-1.89,2.625 -4.445,4.641 -7.664,6.047c-3.219,1.407 -6.969,2.11 -11.25,2.11c-4.062,0 -7.711,-0.664 -10.945,-1.993c-3.234,-1.328 -5.836,-3.32 -7.805,-5.976c-1.969,-2.656 -3.14,-5.547 -3.515,-8.672c-0.375,-3.125 -0.563,-8.594 -0.563,-16.406l0,-12.985c0,-7.625 0.18,-13.023 0.539,-16.195c0.36,-3.172 1.485,-6.07 3.375,-8.695c1.891,-2.625 4.445,-4.641 7.664,-6.047c3.219,-1.406 6.969,-2.109 11.25,-2.109c4.063,0 7.711,0.664 10.946,1.992c3.234,1.328 5.835,3.32 7.804,5.976c1.969,2.657 3.141,5.547 3.516,8.672c0.375,3.125 0.562,8.594 0.562,16.406l0,12.985Zm-19.734,-24.938c0,-3.531 -0.195,-5.789 -0.586,-6.773c-0.391,-0.985 -1.195,-1.477 -2.414,-1.477c-1.031,0 -1.82,0.399 -2.367,1.196c-0.547,0.796 -0.821,3.148 -0.821,7.054l0,35.438c0,4.406 0.18,7.125 0.54,8.156c0.359,1.031 1.195,1.547 2.507,1.547c1.344,0 2.203,-0.594 2.578,-1.781c0.375,-1.188 0.563,-4.016 0.563,-8.485l0,-34.875Z" style="fill:#231f20;fill-rule:nonzero;"/><path d="M505.466,223.899l14.906,0c4.031,0 7.131,0.316 9.299,0.949c2.168,0.633 3.797,1.547 4.887,2.742c1.09,1.196 1.828,2.643 2.215,4.342c0.386,1.699 0.58,4.33 0.58,7.893l0,4.957c0,3.633 -0.375,6.281 -1.125,7.945c-0.75,1.664 -2.127,2.941 -4.131,3.832c-2.004,0.891 -4.623,1.336 -7.858,1.336l-3.972,0l0,22.922l-14.801,0l0,-56.918Zm14.801,9.738l0,14.485c0.422,0.023 0.785,0.035 1.09,0.035c1.359,0 2.302,-0.334 2.83,-1.002c0.527,-0.668 0.791,-2.057 0.791,-4.166l0,-4.676c0,-1.945 -0.305,-3.211 -0.914,-3.797c-0.61,-0.586 -1.875,-0.879 -3.797,-0.879Z" style="fill:#231f20;fill-rule:nonzero;"/><rect x="541.607" y="223.899" width="14.801" height="56.918" style="fill:#231f20;fill-rule:nonzero;"/><path d="M595.396,223.899l0,56.918l-12.973,0l-7.699,-25.875l0,25.875l-12.375,0l0,-56.918l12.375,0l8.297,25.629l0,-25.629l12.375,0Z" style="fill:#231f20;fill-rule:nonzero;"/><path d="M631.149,223.899l0,11.391l-8.789,0l0,45.527l-14.8,0l0,-45.527l-8.754,0l0,-11.391l32.343,0Z" style="fill:#231f20;fill-rule:nonzero;"/><path d="M668.169,223.899l0,38.039c0,4.313 -0.141,7.342 -0.422,9.088c-0.281,1.746 -1.113,3.539 -2.496,5.379c-1.383,1.84 -3.205,3.234 -5.467,4.183c-2.261,0.95 -4.927,1.424 -7.998,1.424c-3.398,0 -6.398,-0.562 -9,-1.687c-2.601,-1.125 -4.547,-2.59 -5.836,-4.395c-1.289,-1.804 -2.051,-3.709 -2.285,-5.713c-0.234,-2.004 -0.351,-6.216 -0.351,-12.638l0,-33.68l14.8,0l0,42.68c0,2.484 0.135,4.072 0.405,4.763c0.269,0.692 0.814,1.037 1.634,1.037c0.938,0 1.541,-0.38 1.811,-1.142c0.269,-0.762 0.404,-2.561 0.404,-5.397l0,-41.941l14.801,0Z" style="fill:#231f20;fill-rule:nonzero;"/><path d="M673.899,223.899l10.477,0c6.984,0 11.713,0.269 14.186,0.809c2.472,0.539 4.488,1.916 6.046,4.13c1.559,2.215 2.338,5.748 2.338,10.6c0,4.43 -0.55,7.406 -1.652,8.93c-1.102,1.523 -3.27,2.437 -6.504,2.742c2.93,0.726 4.899,1.699 5.906,2.918c1.008,1.219 1.635,2.338 1.881,3.357c0.246,1.02 0.369,3.826 0.369,8.42l0,15.012l-13.746,0l0,-18.914c0,-3.047 -0.24,-4.934 -0.72,-5.66c-0.481,-0.727 -1.741,-1.09 -3.78,-1.09l0,25.664l-14.801,0l0,-56.918Zm14.801,9.738l0,12.656c1.664,0 2.83,-0.228 3.498,-0.685c0.668,-0.457 1.002,-1.94 1.002,-4.447l0,-3.129c0,-1.805 -0.322,-2.989 -0.967,-3.551c-0.644,-0.563 -1.822,-0.844 -3.533,-0.844Z" style="fill:#231f20;fill-rule:nonzero;"/><path d="M738.235,223.899l8.473,56.918l-15.152,0l-0.739,-10.231l-5.308,0l-0.879,10.231l-15.328,0l7.523,-56.918l21.41,0Zm-7.839,36.598c-0.75,-6.446 -1.5,-14.403 -2.25,-23.871c-1.5,10.875 -2.438,18.832 -2.813,23.871l5.063,0Z" style="fill:#231f20;fill-rule:nonzero;"/><path d="M175.349,371.681l-2.485,-12.796l0,-11.625l14.344,0l0,11.625l-2.156,12.796l-9.703,0Zm17.765,0l-2.484,-12.796l0,-11.625l14.344,0l0,11.625l-2.203,12.796l-9.657,0Z" style="fill:#231f20;fill-rule:nonzero;"/><path d="M210.599,347.26l33.422,0l0,15.187l-13.688,0l0,14.391l12.188,0l0,14.437l-12.188,0l0,31.875l-19.734,0l0,-75.89Z" style="fill:#231f20;fill-rule:nonzero;"/><path d="M293.661,347.26l0,50.718c0,5.75 -0.187,9.789 -0.562,12.118c-0.375,2.328 -1.485,4.718 -3.328,7.171c-1.844,2.454 -4.274,4.313 -7.289,5.579c-3.016,1.265 -6.571,1.898 -10.665,1.898c-4.531,0 -8.531,-0.75 -12,-2.25c-3.468,-1.5 -6.062,-3.453 -7.781,-5.859c-1.719,-2.407 -2.734,-4.946 -3.047,-7.618c-0.312,-2.671 -0.468,-8.289 -0.468,-16.851l0,-44.906l19.734,0l0,56.906c0,3.312 0.18,5.43 0.539,6.351c0.359,0.922 1.086,1.383 2.18,1.383c1.25,0 2.054,-0.508 2.414,-1.523c0.359,-1.016 0.539,-3.414 0.539,-7.196l0,-55.921l19.734,0Z" style="fill:#231f20;fill-rule:nonzero;"/><path d="M345.364,347.26l0,75.89l-17.297,0l-10.265,-34.5l0,34.5l-16.5,0l0,-75.89l16.5,0l11.062,34.171l0,-34.171l16.5,0Z" style="fill:#231f20;fill-rule:nonzero;"/><path d="M353.286,347.26l14.766,0c9.531,0 15.976,0.437 19.336,1.312c3.359,0.875 5.914,2.313 7.664,4.313c1.75,2 2.844,4.226 3.281,6.679c0.438,2.453 0.656,7.274 0.656,14.461l0,26.578c0,6.813 -0.32,11.368 -0.961,13.664c-0.64,2.297 -1.757,4.094 -3.351,5.391c-1.594,1.297 -3.563,2.203 -5.906,2.719c-2.344,0.515 -5.875,0.773 -10.594,0.773l-24.891,0l0,-75.89Zm19.735,12.984l0,49.922c2.843,0 4.593,-0.57 5.25,-1.711c0.656,-1.141 0.984,-4.242 0.984,-9.305l0,-29.484c0,-3.438 -0.109,-5.641 -0.328,-6.61c-0.219,-0.968 -0.719,-1.679 -1.5,-2.132c-0.781,-0.453 -2.25,-0.68 -4.406,-0.68Z" style="fill:#231f20;fill-rule:nonzero;"/><path d="M440.427,347.26l11.297,75.89l-20.203,0l-0.985,-13.64l-7.078,0l-1.172,13.64l-20.437,0l10.031,-75.89l28.547,0Zm-10.453,48.796c-1,-8.593 -2,-19.203 -3,-31.828c-2,14.5 -3.25,25.11 -3.75,31.828l6.75,0Z" style="fill:#231f20;fill-rule:nonzero;"/><path d="M501.177,380.353l-19.735,0l0,-13.218c0,-3.844 -0.21,-6.243 -0.632,-7.196c-0.422,-0.953 -1.352,-1.429 -2.789,-1.429c-1.625,0 -2.657,0.578 -3.094,1.734c-0.438,1.156 -0.656,3.656 -0.656,7.5l0,35.25c0,3.687 0.218,6.094 0.656,7.219c0.437,1.125 1.422,1.687 2.953,1.687c1.469,0 2.43,-0.562 2.883,-1.687c0.453,-1.125 0.679,-3.766 0.679,-7.922l0,-9.516l19.735,0l0,2.953c0,7.844 -0.555,13.407 -1.664,16.688c-1.11,3.281 -3.563,6.156 -7.36,8.625c-3.796,2.469 -8.476,3.703 -14.039,3.703c-5.781,0 -10.547,-1.047 -14.297,-3.141c-3.75,-2.093 -6.234,-4.992 -7.453,-8.695c-1.218,-3.703 -1.828,-9.273 -1.828,-16.711l0,-22.172c0,-5.469 0.188,-9.57 0.563,-12.304c0.375,-2.735 1.492,-5.368 3.351,-7.899c1.86,-2.531 4.438,-4.523 7.735,-5.976c3.297,-1.454 7.086,-2.18 11.367,-2.18c5.812,0 10.609,1.125 14.39,3.375c3.782,2.25 6.266,5.055 7.454,8.414c1.187,3.359 1.781,8.586 1.781,15.68l0,7.218Z" style="fill:#231f20;fill-rule:nonzero;"/><rect x="508.255" y="347.26" width="19.734" height="75.891" style="fill:#231f20;fill-rule:nonzero;"/><path d="M581.005,391.697c0,7.625 -0.18,13.024 -0.539,16.195c-0.359,3.172 -1.484,6.071 -3.375,8.696c-1.891,2.625 -4.445,4.64 -7.664,6.047c-3.219,1.406 -6.969,2.109 -11.25,2.109c-4.063,0 -7.711,-0.664 -10.945,-1.992c-3.235,-1.328 -5.836,-3.321 -7.805,-5.977c-1.969,-2.656 -3.141,-5.547 -3.516,-8.672c-0.375,-3.125 -0.562,-8.593 -0.562,-16.406l0,-12.984c0,-7.625 0.179,-13.024 0.539,-16.196c0.359,-3.171 1.484,-6.07 3.375,-8.695c1.89,-2.625 4.445,-4.641 7.664,-6.047c3.219,-1.406 6.969,-2.109 11.25,-2.109c4.062,0 7.711,0.664 10.945,1.992c3.235,1.328 5.836,3.32 7.805,5.977c1.969,2.656 3.14,5.546 3.515,8.671c0.375,3.125 0.563,8.594 0.563,16.407l0,12.984Zm-19.734,-24.937c0,-3.532 -0.196,-5.789 -0.586,-6.774c-0.391,-0.984 -1.196,-1.476 -2.414,-1.476c-1.032,0 -1.821,0.398 -2.368,1.195c-0.546,0.797 -0.82,3.148 -0.82,7.055l0,35.437c0,4.406 0.18,7.125 0.539,8.156c0.36,1.032 1.195,1.547 2.508,1.547c1.344,0 2.203,-0.594 2.578,-1.781c0.375,-1.188 0.563,-4.016 0.563,-8.484l0,-34.875Zm12.89,-34.594l-15.422,12.703l-9.515,0l8.25,-12.703l16.687,0Z" style="fill:#231f20;fill-rule:nonzero;"/><path d="M632.427,347.26l0,75.89l-17.297,0l-10.266,-34.5l0,34.5l-16.5,0l0,-75.89l16.5,0l11.063,34.171l0,-34.171l16.5,0Z" style="fill:#231f20;fill-rule:nonzero;"/><path d="M657.271,347.26l14.765,0c9.531,0 15.977,0.437 19.336,1.312c3.36,0.875 5.914,2.313 7.664,4.313c1.75,2 2.844,4.226 3.281,6.679c0.438,2.453 0.657,7.274 0.657,14.461l0,26.578c0,6.813 -0.321,11.368 -0.961,13.664c-0.641,2.297 -1.758,4.094 -3.352,5.391c-1.594,1.297 -3.562,2.203 -5.906,2.719c-2.344,0.515 -5.875,0.773 -10.594,0.773l-24.89,0l0,-75.89Zm19.734,12.984l0,49.922c2.844,0 4.594,-0.57 5.25,-1.711c0.656,-1.141 0.984,-4.242 0.984,-9.305l0,-29.484c0,-3.438 -0.109,-5.641 -0.328,-6.61c-0.219,-0.968 -0.719,-1.679 -1.5,-2.132c-0.781,-0.453 -2.25,-0.68 -4.406,-0.68Z" style="fill:#231f20;fill-rule:nonzero;"/><path d="M710.333,347.26l32.906,0l0,15.187l-13.172,0l0,14.391l12.329,0l0,14.437l-12.329,0l0,16.688l14.485,0l0,15.187l-34.219,0l0,-75.89Z" style="fill:#231f20;fill-rule:nonzero;"/><path d="M353.099,467.53l-19.735,0l0,-6.89c0,-4.344 -0.187,-7.063 -0.562,-8.156c-0.375,-1.094 -1.266,-1.641 -2.672,-1.641c-1.219,0 -2.047,0.469 -2.484,1.406c-0.438,0.938 -0.657,3.344 -0.657,7.219l0,36.422c0,3.406 0.219,5.648 0.657,6.726c0.437,1.078 1.312,1.618 2.625,1.618c1.437,0 2.414,-0.61 2.929,-1.829c0.516,-1.218 0.774,-3.593 0.774,-7.125l0,-9l-3.985,0l0,-11.531l23.11,0l0,40.735l-12.422,0l-1.828,-5.438c-1.344,2.344 -3.039,4.102 -5.086,5.273c-2.047,1.172 -4.461,1.758 -7.242,1.758c-3.313,0 -6.414,-0.804 -9.305,-2.414c-2.891,-1.609 -5.086,-3.601 -6.586,-5.976c-1.5,-2.375 -2.438,-4.868 -2.813,-7.477c-0.375,-2.609 -0.562,-6.523 -0.562,-11.742l0,-22.547c0,-7.25 0.391,-12.516 1.172,-15.797c0.781,-3.281 3.023,-6.289 6.726,-9.023c3.704,-2.735 8.493,-4.102 14.368,-4.102c5.781,0 10.578,1.188 14.39,3.563c3.813,2.375 6.297,5.195 7.453,8.461c1.157,3.265 1.735,8.007 1.735,14.226l0,3.281Z" style="fill:#231f20;fill-rule:nonzero;"/><path d="M405.599,439.593l0,50.719c0,5.75 -0.188,9.789 -0.563,12.117c-0.375,2.328 -1.484,4.719 -3.328,7.172c-1.844,2.453 -4.273,4.312 -7.289,5.578c-3.016,1.265 -6.57,1.898 -10.664,1.898c-4.531,0 -8.531,-0.75 -12,-2.25c-3.469,-1.5 -6.063,-3.453 -7.781,-5.859c-1.719,-2.406 -2.735,-4.945 -3.047,-7.617c-0.313,-2.672 -0.469,-8.289 -0.469,-16.852l0,-44.906l19.734,0l0,56.906c0,3.313 0.18,5.43 0.54,6.352c0.359,0.922 1.085,1.383 2.179,1.383c1.25,0 2.055,-0.508 2.414,-1.524c0.36,-1.016 0.539,-3.414 0.539,-7.195l0,-55.922l19.735,0Z" style="fill:#231f20;fill-rule:nonzero;"/><path d="M447.317,439.593l11.297,75.891l-20.203,0l-0.984,-13.641l-7.078,0l-1.172,13.641l-20.438,0l10.032,-75.891l28.546,0Zm-10.453,48.797c-1,-8.594 -2,-19.203 -3,-31.828c-2,14.5 -3.25,25.109 -3.75,31.828l6.75,0Z" style="fill:#231f20;fill-rule:nonzero;"/><path d="M498.271,439.593l-14.391,48.422l0,27.469l-18.281,0l0,-27.469l-13.875,-48.422l18.14,0c2.844,14.781 4.438,24.734 4.782,29.859c1.093,-8.093 2.921,-18.047 5.484,-29.859l18.141,0Z" style="fill:#231f20;fill-rule:nonzero;"/><path d="M530.942,439.593l11.297,75.891l-20.203,0l-0.984,-13.641l-7.078,0l-1.172,13.641l-20.438,0l10.032,-75.891l28.546,0Zm-10.453,48.797c-1,-8.594 -2,-19.203 -3,-31.828c-2,14.5 -3.25,25.109 -3.75,31.828l6.75,0Z" style="fill:#231f20;fill-rule:nonzero;"/><path d="M590.755,515.484l0,9.187l-14.906,0c-3.594,0 -6.125,-0.273 -7.594,-0.82c-1.469,-0.547 -2.461,-1.367 -2.977,-2.461c-0.515,-1.094 -0.773,-3.063 -0.773,-5.906c-4.469,-0.125 -8.313,-1.297 -11.531,-3.516c-3.219,-2.219 -5.344,-5.039 -6.375,-8.461c-1.032,-3.422 -1.547,-8.539 -1.547,-15.352l0,-23.484c0,-5.156 0.305,-9.086 0.914,-11.789c0.609,-2.703 1.867,-5.25 3.773,-7.641c1.907,-2.39 4.36,-4.195 7.36,-5.414c3,-1.218 6.328,-1.828 9.984,-1.828c4.406,0 8.336,0.75 11.789,2.25c3.453,1.5 6.031,3.406 7.735,5.719c1.703,2.312 2.812,4.711 3.328,7.195c0.515,2.485 0.773,6.18 0.773,11.086l0,24.656c0,6.75 -0.328,11.329 -0.984,13.735c-0.657,2.406 -1.914,4.32 -3.774,5.742c-1.859,1.422 -4.336,2.508 -7.429,3.258c0.093,1.687 0.445,2.75 1.054,3.187c0.61,0.438 2.055,0.657 4.336,0.657l6.844,0Zm-19.781,-56.391c0,-3.531 -0.196,-5.789 -0.586,-6.774c-0.391,-0.984 -1.196,-1.476 -2.414,-1.476c-1.032,0 -1.821,0.398 -2.367,1.195c-0.547,0.797 -0.821,3.149 -0.821,7.055l0,35.437c0,4.407 0.18,7.125 0.539,8.157c0.36,1.031 1.196,1.547 2.508,1.547c1.344,0 2.203,-0.594 2.578,-1.782c0.375,-1.187 0.563,-4.015 0.563,-8.484l0,-34.875Z" style="fill:#231f20;fill-rule:nonzero;"/><path d="M642.927,439.593l0,50.719c0,5.75 -0.188,9.789 -0.563,12.117c-0.375,2.328 -1.484,4.719 -3.328,7.172c-1.844,2.453 -4.273,4.312 -7.289,5.578c-3.015,1.265 -6.57,1.898 -10.664,1.898c-4.531,0 -8.531,-0.75 -12,-2.25c-3.469,-1.5 -6.062,-3.453 -7.781,-5.859c-1.719,-2.406 -2.735,-4.945 -3.047,-7.617c-0.313,-2.672 -0.469,-8.289 -0.469,-16.852l0,-44.906l19.735,0l0,56.906c0,3.313 0.179,5.43 0.539,6.352c0.359,0.922 1.086,1.383 2.179,1.383c1.25,0 2.055,-0.508 2.414,-1.524c0.36,-1.016 0.539,-3.414 0.539,-7.195l0,-55.922l19.735,0Z" style="fill:#231f20;fill-rule:nonzero;"/><rect x="650.567" y="439.593" width="19.734" height="75.891" style="fill:#231f20;fill-rule:nonzero;"/><path d="M697.958,439.593l0,60.703l12,0l0,15.188l-31.734,0l0,-75.891l19.734,0Z" style="fill:#231f20;fill-rule:nonzero;"/><path d="M714.974,464.015l-2.485,-12.797l0,-11.625l14.344,0l0,11.625l-2.156,12.797l-9.703,0Zm17.765,0l-2.484,-12.797l0,-11.625l14.344,0l0,11.625l-2.203,12.797l-9.657,0Z" style="fill:#231f20;fill-rule:nonzero;"/><path d="M602.286,644.879l0,12.938l-41.672,0l0,-10.828c12.344,-20.188 19.68,-32.68 22.008,-37.477c2.328,-4.797 3.492,-8.539 3.492,-11.226c0,-2.063 -0.351,-3.602 -1.054,-4.618c-0.703,-1.015 -1.774,-1.523 -3.211,-1.523c-1.438,0 -2.508,0.562 -3.211,1.687c-0.703,1.125 -1.055,3.36 -1.055,6.704l0,7.218l-16.969,0l0,-2.765c0,-4.25 0.219,-7.602 0.657,-10.055c0.437,-2.453 1.515,-4.867 3.234,-7.242c1.719,-2.375 3.953,-4.172 6.703,-5.391c2.75,-1.219 6.047,-1.828 9.891,-1.828c7.531,0 13.226,1.867 17.086,5.602c3.859,3.734 5.789,8.461 5.789,14.179c0,4.344 -1.086,8.938 -3.258,13.782c-2.172,4.843 -8.57,15.125 -19.195,30.843l20.765,0Z" style="fill:#231f20;fill-rule:nonzero;"/><path d="M654.317,607.614l0,25.312c0,5.75 -0.312,9.938 -0.937,12.563c-0.625,2.625 -1.922,5.078 -3.891,7.359c-1.968,2.281 -4.343,3.922 -7.125,4.922c-2.781,1 -5.89,1.5 -9.328,1.5c-4.531,0 -8.297,-0.524 -11.297,-1.57c-3,-1.047 -5.39,-2.68 -7.172,-4.899c-1.781,-2.219 -3.046,-4.555 -3.796,-7.008c-0.75,-2.453 -1.125,-6.351 -1.125,-11.695l0,-26.484c0,-6.969 0.601,-12.188 1.804,-15.657c1.203,-3.468 3.594,-6.25 7.172,-8.343c3.578,-2.094 7.914,-3.141 13.008,-3.141c4.156,0 7.875,0.727 11.156,2.18c3.281,1.453 5.735,3.226 7.36,5.32c1.625,2.094 2.726,4.453 3.304,7.078c0.578,2.625 0.867,6.813 0.867,12.563Zm-18.937,-6.375c0,-4.032 -0.195,-6.555 -0.586,-7.571c-0.391,-1.015 -1.305,-1.523 -2.742,-1.523c-1.406,0 -2.336,0.539 -2.789,1.617c-0.453,1.078 -0.68,3.57 -0.68,7.477l0,37.031c0,4.406 0.211,7.062 0.633,7.969c0.422,0.906 1.336,1.359 2.742,1.359c1.406,0 2.328,-0.531 2.766,-1.594c0.437,-1.062 0.656,-3.453 0.656,-7.172l0,-37.593Z" style="fill:#231f20;fill-rule:nonzero;"/><path d="M690.317,581.926l0,75.891l-18.937,0l0,-40.688c0,-5.875 -0.141,-9.406 -0.422,-10.593c-0.281,-1.188 -1.055,-2.086 -2.32,-2.696c-1.266,-0.609 -4.086,-0.914 -8.461,-0.914l-1.875,0l0,-8.859c9.156,-1.969 16.109,-6.016 20.859,-12.141l11.156,0Z" style="fill:#231f20;fill-rule:nonzero;"/><path d="M697.677,637.661l18.937,0c0,3.531 0.047,5.757 0.141,6.679c0.094,0.922 0.477,1.696 1.148,2.321c0.672,0.625 1.586,0.937 2.743,0.937c0.968,0 1.765,-0.297 2.39,-0.891c0.625,-0.593 0.977,-1.359 1.055,-2.296c0.078,-0.938 0.117,-2.829 0.117,-5.672l0,-12.094c-0.937,2.031 -2.344,3.555 -4.219,4.57c-1.875,1.016 -4.203,1.524 -6.984,1.524c-3.469,0 -6.531,-0.938 -9.188,-2.813c-2.656,-1.875 -4.343,-4.125 -5.062,-6.75c-0.719,-2.625 -1.078,-6.172 -1.078,-10.64l0,-6.047c0,-5.313 0.211,-9.266 0.633,-11.86c0.422,-2.593 1.507,-4.992 3.257,-7.195c1.75,-2.203 4.172,-3.914 7.266,-5.133c3.094,-1.219 6.688,-1.828 10.781,-1.828c5.063,0 9.219,0.703 12.469,2.109c3.25,1.407 5.766,3.43 7.547,6.071c1.781,2.64 2.812,5.414 3.094,8.32c0.281,2.906 0.422,8.531 0.422,16.875l0,10.547c0,9.031 -0.125,15.07 -0.375,18.117c-0.25,3.047 -1.336,5.93 -3.258,8.649c-1.922,2.718 -4.524,4.757 -7.805,6.117c-3.281,1.359 -7.078,2.039 -11.391,2.039c-5.343,0 -9.71,-0.86 -13.101,-2.578c-3.391,-1.719 -5.828,-4.141 -7.313,-7.266c-1.484,-3.125 -2.226,-7.062 -2.226,-11.812Zm18.937,-23.672c0,3.187 0.414,5.156 1.243,5.906c0.828,0.75 1.679,1.125 2.554,1.125c1.313,0 2.274,-0.477 2.883,-1.43c0.609,-0.953 0.914,-2.82 0.914,-5.601l0,-13.735c0,-3.343 -0.289,-5.531 -0.867,-6.562c-0.578,-1.031 -1.539,-1.547 -2.883,-1.547c-0.812,0 -1.656,0.398 -2.531,1.195c-0.875,0.797 -1.313,2.946 -1.313,6.446l0,14.203Z" style="fill:#231f20;fill-rule:nonzero;"/></g></svg>