<?xml version="1.0" encoding="UTF-8" standalone="no"?><!DOCTYPE svg PUBLIC "-//W3C//DTD SVG 1.1//EN" "http://www.w3.org/Graphics/SVG/1.1/DTD/svg11.dtd"><svg width="100%" height="100%" viewBox="0 0 900 900" version="1.1" xmlns="http://www.w3.org/2000/svg" xmlns:xlink="http://www.w3.org/1999/xlink" xml:space="preserve" xmlns:serif="http://www.serif.com/" style="fill-rule:evenodd;clip-rule:evenodd;stroke-linejoin:round;stroke-miterlimit:1.41421;"><path d="M561.25,654.08l-291.502,52.37l10.873,60.522l291.502,-52.37l-10.873,-60.522Z" style="fill:#f8e08e;"/><path d="M604.142,337.315l42.185,240.437l-255.382,44.807l-42.185,-240.436l79.711,-13.986l-37.351,65.732c-5.298,9.41 -8.828,18.656 -10.591,27.739c-1.763,9.083 -2.003,17.281 -0.72,24.593c1.143,6.513 3.477,12.434 7.003,17.762c3.526,5.329 8.041,9.749 13.544,13.258c5.503,3.51 11.846,5.93 19.028,7.261c7.182,1.331 15.058,1.245 23.627,-0.259c8.455,-1.483 15.832,-4.073 22.132,-7.769c6.3,-3.696 11.435,-8.16 15.405,-13.391c3.97,-5.23 6.695,-11.008 8.176,-17.334c1.482,-6.325 1.621,-12.915 0.418,-19.77c-1.123,-6.398 -3.26,-12.206 -6.413,-17.424c-3.154,-5.218 -7.038,-9.571 -11.655,-13.059c-4.616,-3.489 -9.763,-5.972 -15.439,-7.449c-5.677,-1.478 -11.657,-1.665 -17.941,-0.562c-1.6,0.28 -3.393,0.801 -5.379,1.562c-1.987,0.76 -4.409,2.393 -7.267,4.896l-0.686,0.12l43.011,-72.731l136.769,-23.997Zm-111.603,107.732c-1.804,-10.283 -2.1,-19.859 -0.888,-28.727c1.211,-8.869 3.724,-16.7 7.537,-23.494c3.814,-6.793 8.777,-12.404 14.889,-16.833c6.113,-4.429 13.225,-7.355 21.337,-8.778c7.998,-1.403 15.653,-1.068 22.965,1.005c7.313,2.074 13.889,5.66 19.731,10.76c5.841,5.099 10.84,11.612 14.999,19.539c4.158,7.926 7.139,17.031 8.944,27.314c1.804,10.283 2.1,19.859 0.888,28.727c-1.211,8.869 -3.69,16.724 -7.436,23.564c-3.747,6.84 -8.705,12.48 -14.874,16.919c-6.17,4.439 -13.254,7.36 -21.252,8.763c-8.112,1.424 -15.795,1.094 -23.051,-0.99c-7.255,-2.084 -13.837,-5.699 -19.745,-10.845c-5.908,-5.146 -10.941,-11.683 -15.1,-19.61c-4.158,-7.926 -7.139,-17.031 -8.944,-27.314Zm-79.542,34.978c0.521,2.971 1.579,5.641 3.172,8.012c1.594,2.37 3.532,4.356 5.816,5.957c2.283,1.602 4.81,2.748 7.581,3.44c2.771,0.691 5.642,0.776 8.613,0.255c2.97,-0.521 5.641,-1.578 8.011,-3.172c2.37,-1.593 4.356,-3.532 5.958,-5.815c1.601,-2.283 2.748,-4.81 3.439,-7.581c0.692,-2.772 0.777,-5.643 0.256,-8.613c-0.521,-2.971 -1.579,-5.641 -3.172,-8.011c-1.594,-2.371 -3.532,-4.357 -5.815,-5.958c-2.284,-1.602 -4.811,-2.748 -7.582,-3.44c-2.771,-0.691 -5.642,-0.776 -8.613,-0.255c-2.97,0.521 -5.641,1.578 -8.011,3.172c-2.37,1.594 -4.356,3.532 -5.958,5.815c-1.601,2.283 -2.748,4.81 -3.439,7.581c-0.692,2.772 -0.777,5.643 -0.256,8.613Zm112.791,-40.811c1.002,5.712 2.428,10.821 4.278,15.325c1.85,4.504 4.019,8.304 6.505,11.401c2.487,3.097 5.21,5.358 8.168,6.782c2.959,1.424 6.095,1.845 9.408,1.264c3.199,-0.561 5.976,-2.02 8.33,-4.376c2.355,-2.357 4.145,-5.409 5.372,-9.157c1.226,-3.749 1.943,-8.055 2.149,-12.92c0.207,-4.865 -0.191,-10.154 -1.194,-15.867c-0.982,-5.598 -2.403,-10.678 -4.263,-15.239c-1.86,-4.561 -4,-8.367 -6.42,-11.417c-2.419,-3.049 -5.137,-5.281 -8.153,-6.695c-3.015,-1.415 -6.123,-1.841 -9.322,-1.28c-3.313,0.582 -6.118,2.046 -8.416,4.392c-2.297,2.346 -4.092,5.37 -5.386,9.071c-1.294,3.701 -2.039,8.013 -2.235,12.935c-0.197,4.922 0.196,10.182 1.179,15.781Z" style="fill:#62b5e5;"/><g><path d="M711.156,566.121l-57.396,10.07l14.464,-21.446c3.813,-5.672 6.747,-10.427 8.803,-14.264c2.056,-3.837 3.526,-7.035 4.409,-9.594c0.883,-2.559 1.355,-4.591 1.415,-6.096c0.061,-1.506 0.003,-2.762 -0.174,-3.771c-0.188,-1.072 -0.544,-2.081 -1.067,-3.029c-0.524,-0.948 -1.202,-1.755 -2.033,-2.421c-0.832,-0.667 -1.778,-1.15 -2.838,-1.452c-1.06,-0.301 -2.252,-0.336 -3.576,-0.103c-2.521,0.442 -4.347,1.607 -5.478,3.495c-1.131,1.888 -1.48,4.061 -1.049,6.519c0.122,0.694 0.393,1.686 0.814,2.976l-20.234,3.551c-0.73,-4.161 -0.716,-8.062 0.042,-11.704c0.758,-3.642 2.15,-6.907 4.177,-9.797c2.028,-2.89 4.611,-5.293 7.751,-7.208c3.141,-1.916 6.728,-3.227 10.762,-3.935c3.972,-0.697 7.754,-0.711 11.348,-0.042c3.594,0.669 6.819,1.923 9.675,3.761c2.857,1.838 5.252,4.195 7.187,7.072c1.934,2.877 3.222,6.144 3.863,9.8c0.686,3.909 0.484,7.664 -0.606,11.266c-1.09,3.603 -3.159,7.459 -6.206,11.567l-9.879,13.137l23.072,-4.048l2.754,15.696Z" style="fill:#62b5e5;fill-rule:nonzero;"/><path d="M729.375,526.082c0.553,3.152 1.339,5.971 2.36,8.456c1.021,2.485 2.217,4.581 3.589,6.29c1.372,1.709 2.874,2.956 4.507,3.741c1.632,0.786 3.362,1.019 5.19,0.698c1.765,-0.31 3.297,-1.115 4.596,-2.415c1.299,-1.3 2.287,-2.984 2.964,-5.052c0.676,-2.068 1.072,-4.444 1.186,-7.128c0.114,-2.684 -0.106,-5.602 -0.659,-8.754c-0.542,-3.089 -1.326,-5.891 -2.352,-8.408c-1.027,-2.516 -2.207,-4.616 -3.542,-6.298c-1.335,-1.683 -2.834,-2.915 -4.498,-3.695c-1.664,-0.78 -3.379,-1.015 -5.144,-0.706c-1.828,0.321 -3.375,1.129 -4.643,2.423c-1.267,1.295 -2.258,2.963 -2.972,5.005c-0.713,2.042 -1.124,4.421 -1.233,7.137c-0.108,2.715 0.109,5.617 0.651,8.706Zm-18.344,3.219c-0.996,-5.674 -1.159,-10.957 -0.491,-15.85c0.669,-4.893 2.055,-9.214 4.159,-12.962c2.104,-3.748 4.842,-6.843 8.215,-9.287c3.372,-2.444 7.296,-4.058 11.772,-4.843c4.412,-0.774 8.636,-0.59 12.67,0.555c4.035,1.144 7.663,3.122 10.886,5.936c3.223,2.813 5.981,6.406 8.275,10.78c2.295,4.373 3.939,9.396 4.935,15.07c0.995,5.673 1.159,10.956 0.49,15.849c-0.668,4.894 -2.036,9.227 -4.103,13.001c-2.067,3.774 -4.802,6.886 -8.206,9.335c-3.404,2.449 -7.312,4.06 -11.725,4.835c-4.476,0.785 -8.715,0.603 -12.718,-0.547c-4.003,-1.149 -7.634,-3.144 -10.894,-5.983c-3.259,-2.84 -6.036,-6.446 -8.331,-10.819c-2.294,-4.374 -3.939,-9.397 -4.934,-15.07Z" style="fill:#62b5e5;fill-rule:nonzero;"/><path d="M790.189,494.944l-10.402,1.825l-2.754,-15.696l28.934,-5.076l12.509,71.295l-18.533,3.251l-9.754,-55.599Z" style="fill:#62b5e5;fill-rule:nonzero;"/><path d="M847.316,542.232l16.154,-26.811l-0.379,0.066c-1.577,1.381 -2.913,2.282 -4.009,2.702c-1.096,0.419 -2.085,0.707 -2.968,0.861c-3.467,0.609 -6.782,0.508 -9.946,-0.301c-3.163,-0.81 -6.003,-2.18 -8.518,-4.11c-2.515,-1.931 -4.643,-4.335 -6.383,-7.214c-1.739,-2.878 -2.919,-6.083 -3.538,-9.613c-0.664,-3.782 -0.587,-7.418 0.23,-10.908c0.818,-3.49 2.321,-6.677 4.512,-9.563c2.19,-2.886 5.023,-5.349 8.499,-7.388c3.476,-2.04 7.546,-3.468 12.211,-4.287c4.727,-0.829 9.073,-0.877 13.035,-0.143c3.963,0.735 7.462,2.07 10.498,4.006c3.037,1.937 5.527,4.375 7.473,7.315c1.945,2.94 3.233,6.207 3.863,9.8c0.708,4.034 0.576,8.557 -0.397,13.569c-0.972,5.011 -2.92,10.112 -5.843,15.304l-13.03,22.949l-21.464,3.766Zm22.424,-52.181c-0.288,-1.639 -0.871,-3.112 -1.75,-4.42c-0.88,-1.307 -1.949,-2.403 -3.209,-3.287c-1.259,-0.883 -2.654,-1.516 -4.183,-1.897c-1.528,-0.382 -3.112,-0.429 -4.751,-0.141c-1.639,0.287 -3.113,0.871 -4.42,1.75c-1.308,0.879 -2.404,1.949 -3.287,3.208c-0.884,1.26 -1.517,2.654 -1.898,4.183c-0.382,1.529 -0.429,3.113 -0.141,4.752c0.287,1.639 0.871,3.112 1.75,4.42c0.879,1.308 1.949,2.403 3.208,3.287c1.26,0.884 2.654,1.516 4.183,1.898c1.529,0.381 3.113,0.428 4.752,0.141c1.639,-0.288 3.112,-0.871 4.42,-1.751c1.308,-0.879 2.404,-1.948 3.287,-3.208c0.884,-1.26 1.516,-2.654 1.898,-4.183c0.381,-1.529 0.428,-3.113 0.141,-4.752Z" style="fill:#62b5e5;fill-rule:nonzero;"/></g><g><path d="M66.572,358.565c-2.304,-1.285 -4.535,-2.144 -6.69,-2.578c-2.155,-0.434 -4.179,-0.486 -6.07,-0.154c-2.395,0.421 -4.25,1.331 -5.564,2.731c-1.313,1.4 -1.81,3.014 -1.489,4.842c0.221,1.261 0.782,2.235 1.682,2.921c0.9,0.687 2.017,1.222 3.352,1.605c1.334,0.383 2.812,0.66 4.434,0.83c1.622,0.171 3.233,0.375 4.835,0.614c6.405,0.956 11.306,2.874 14.703,5.754c3.397,2.88 5.571,7.031 6.522,12.452c0.642,3.656 0.608,7.074 -0.102,10.252c-0.709,3.178 -2.061,6.031 -4.054,8.557c-1.993,2.527 -4.605,4.675 -7.836,6.443c-3.231,1.769 -7.022,3.035 -11.371,3.799c-9.014,1.581 -17.837,0.368 -26.467,-3.641l5.321,-16.334c3.205,1.972 6.268,3.319 9.189,4.041c2.92,0.722 5.704,0.851 8.352,0.387c3.026,-0.531 5.158,-1.62 6.396,-3.267c1.238,-1.646 1.702,-3.352 1.392,-5.117c-0.188,-1.072 -0.54,-1.969 -1.056,-2.69c-0.517,-0.722 -1.274,-1.336 -2.273,-1.843c-0.999,-0.507 -2.257,-0.92 -3.775,-1.239c-1.518,-0.318 -3.346,-0.647 -5.485,-0.986c-2.528,-0.337 -5.023,-0.76 -7.484,-1.27c-2.461,-0.511 -4.723,-1.365 -6.785,-2.562c-2.062,-1.198 -3.846,-2.85 -5.353,-4.958c-1.507,-2.107 -2.57,-4.926 -3.189,-8.456c-0.62,-3.53 -0.598,-6.831 0.065,-9.904c0.663,-3.073 1.871,-5.819 3.623,-8.238c1.752,-2.419 4.057,-4.465 6.916,-6.136c2.858,-1.671 6.178,-2.838 9.96,-3.502c3.53,-0.619 7.304,-0.777 11.32,-0.475c4.017,0.302 7.956,1.089 11.818,2.361l-4.837,15.761Z" style="fill:#62b5e5;fill-rule:nonzero;"/><path d="M130.615,374.717l-12.485,-22.274l-4.157,25.194l16.642,-2.92Zm7.389,13.226l-26.476,4.645l-2.082,13.134l-19.762,3.467l14.629,-76.056l20.235,-3.551l39.646,66.534l-19.762,3.467l-6.428,-11.64Z" style="fill:#62b5e5;fill-rule:nonzero;"/><path d="M178.35,320.143l9.755,55.598l22.221,-3.898l2.753,15.696l-40.753,7.15l-12.509,-71.295l18.533,-3.251Z" style="fill:#62b5e5;fill-rule:nonzero;"/><path d="M231.126,347.628c0.498,2.837 1.492,5.359 2.984,7.566c1.492,2.207 3.307,4.033 5.445,5.478c2.138,1.444 4.506,2.442 7.104,2.993c2.598,0.551 5.253,0.589 7.963,0.113c2.711,-0.475 5.194,-1.414 7.45,-2.817c2.255,-1.403 4.158,-3.15 5.708,-5.242c1.55,-2.091 2.65,-4.428 3.302,-7.012c0.651,-2.583 0.728,-5.293 0.23,-8.13c-0.498,-2.836 -1.492,-5.359 -2.984,-7.566c-1.492,-2.207 -3.323,-4.03 -5.492,-5.469c-2.169,-1.439 -4.553,-2.434 -7.152,-2.985c-2.598,-0.551 -5.252,-0.589 -7.963,-0.114c-2.711,0.476 -5.194,1.415 -7.449,2.818c-2.256,1.403 -4.143,3.147 -5.661,5.233c-1.518,2.086 -2.603,4.42 -3.255,7.004c-0.651,2.583 -0.728,5.293 -0.23,8.13Zm-19.384,3.401c-0.929,-5.295 -0.817,-10.399 0.335,-15.312c1.152,-4.913 3.163,-9.376 6.033,-13.388c2.87,-4.013 6.547,-7.403 11.032,-10.172c4.485,-2.769 9.627,-4.662 15.427,-5.679c5.736,-1.007 11.2,-0.975 16.391,0.097c5.191,1.071 9.835,3.001 13.931,5.791c4.096,2.79 7.521,6.299 10.277,10.527c2.756,4.227 4.599,8.988 5.528,14.283c0.929,5.295 0.817,10.399 -0.335,15.312c-1.152,4.914 -3.179,9.379 -6.08,13.397c-2.902,4.018 -6.611,7.414 -11.127,10.188c-4.517,2.774 -9.643,4.665 -15.38,5.671c-5.799,1.017 -11.278,0.988 -16.438,-0.089c-5.16,-1.076 -9.772,-3.012 -13.836,-5.808c-4.064,-2.796 -7.474,-6.307 -10.23,-10.534c-2.756,-4.228 -4.599,-8.989 -5.528,-14.284Zm47.01,-63.707l-15.965,15.667l-8.364,-5.453l12.825,-17.454l11.504,7.24Z" style="fill:#62b5e5;fill-rule:nonzero;"/><path d="M308.675,370.767l-12.509,-71.295l18.533,-3.252l41.877,37.585l-7.647,-43.591l18.438,-3.235l12.509,71.295l-18.439,3.235l-41.877,-37.584l7.648,43.59l-18.533,3.252Z" style="fill:#62b5e5;fill-rule:nonzero;"/><path d="M442.743,331.065l4.255,-0.747c3.215,-0.564 5.995,-1.571 8.34,-3.022c2.344,-1.451 4.228,-3.212 5.652,-5.281c1.424,-2.069 2.38,-4.397 2.868,-6.984c0.488,-2.588 0.478,-5.331 -0.031,-8.231c-0.497,-2.837 -1.435,-5.401 -2.811,-7.694c-1.377,-2.292 -3.087,-4.169 -5.131,-5.63c-2.043,-1.461 -4.414,-2.474 -7.112,-3.041c-2.699,-0.566 -5.624,-0.572 -8.776,-0.019l-4.255,0.746l7.001,39.903Zm-28.287,-52.347l27.421,-4.811c4.854,-0.852 9.579,-0.674 14.177,0.533c4.598,1.208 8.774,3.156 12.527,5.844c3.753,2.688 6.922,6.03 9.508,10.028c2.585,3.997 4.293,8.359 5.122,13.087c0.819,4.665 0.708,9.314 -0.33,13.947c-1.039,4.633 -2.863,8.868 -5.471,12.705c-2.609,3.836 -5.869,7.105 -9.781,9.805c-3.912,2.701 -8.327,4.483 -13.243,5.345l-27.422,4.812l-12.508,-71.295Z" style="fill:#62b5e5;fill-rule:nonzero;"/><path d="M532.095,274.257l-22.032,3.866l2.091,11.914l20.802,-3.65l2.754,15.696l-20.803,3.65l2.157,12.292l22.032,-3.865l2.754,15.696l-40.565,7.117l-12.509,-71.295l40.565,-7.117l2.754,15.696Z" style="fill:#62b5e5;fill-rule:nonzero;"/><path d="M76.392,438.422l8.677,49.452c0.365,2.081 0.592,4.023 0.681,5.826c0.089,1.804 -0.008,3.381 -0.291,4.73c-0.466,2.161 -1.261,4.201 -2.387,6.12c-1.125,1.92 -2.531,3.628 -4.217,5.126c-1.687,1.498 -3.622,2.78 -5.807,3.846c-2.185,1.065 -4.538,1.819 -7.059,2.261c-7.628,1.339 -14.451,-1.07 -20.469,-7.227l9.93,-14.51c0.691,2.088 1.683,3.668 2.976,4.741c1.292,1.072 2.727,1.471 4.303,1.194c3.467,-0.608 4.719,-3.654 3.757,-9.139l-8.627,-49.169l18.533,-3.251Z" style="fill:#62b5e5;fill-rule:nonzero;"/><path d="M109.959,432.532l6.802,38.768c0.365,2.08 0.817,4.194 1.356,6.341c0.54,2.147 1.358,4.034 2.456,5.661c1.097,1.627 2.594,2.842 4.489,3.647c1.896,0.805 4.388,0.936 7.477,0.394c3.089,-0.542 5.372,-1.511 6.849,-2.907c1.477,-1.397 2.47,-3.049 2.98,-4.958c0.51,-1.909 0.652,-3.964 0.429,-6.167c-0.224,-2.202 -0.519,-4.344 -0.884,-6.424l-6.802,-38.768l18.439,-3.235l7.249,41.321c1.947,11.095 0.831,19.64 -3.348,25.636c-4.178,5.997 -11.531,9.918 -22.058,11.765c-10.528,1.847 -18.792,0.666 -24.794,-3.544c-6.002,-4.21 -9.976,-11.863 -11.923,-22.957l-7.25,-41.321l18.533,-3.252Z" style="fill:#62b5e5;fill-rule:nonzero;"/><path d="M187.022,419.011l9.755,55.599l22.221,-3.898l2.754,15.696l-40.754,7.15l-12.509,-71.295l18.533,-3.252Z" style="fill:#62b5e5;fill-rule:nonzero;"/><path d="M237.326,410.186l12.509,71.295l-18.533,3.251l-12.509,-71.295l18.533,-3.251Z" style="fill:#62b5e5;fill-rule:nonzero;"/><path d="M274.689,440.375c0.498,2.837 1.493,5.359 2.985,7.566c1.491,2.208 3.306,4.033 5.444,5.478c2.138,1.444 4.506,2.442 7.104,2.993c2.599,0.551 5.253,0.589 7.964,0.114c2.71,-0.476 5.193,-1.415 7.449,-2.818c2.255,-1.403 4.158,-3.15 5.708,-5.241c1.55,-2.092 2.65,-4.429 3.302,-7.013c0.651,-2.583 0.728,-5.293 0.23,-8.13c-0.497,-2.836 -1.492,-5.358 -2.984,-7.566c-1.492,-2.207 -3.323,-4.03 -5.492,-5.469c-2.169,-1.439 -4.553,-2.434 -7.151,-2.985c-2.599,-0.551 -5.253,-0.589 -7.964,-0.114c-2.71,0.476 -5.193,1.415 -7.449,2.818c-2.255,1.403 -4.142,3.147 -5.661,5.233c-1.518,2.086 -2.603,4.42 -3.254,7.004c-0.652,2.583 -0.729,5.293 -0.231,8.13Zm-19.384,3.401c-0.929,-5.295 -0.817,-10.399 0.335,-15.312c1.152,-4.913 3.163,-9.376 6.033,-13.388c2.87,-4.013 6.547,-7.403 11.032,-10.172c4.485,-2.769 9.628,-4.662 15.427,-5.679c5.736,-1.007 11.2,-0.974 16.391,0.097c5.192,1.071 9.835,3.001 13.931,5.791c4.096,2.791 7.522,6.299 10.278,10.527c2.756,4.227 4.598,8.988 5.527,14.283c0.929,5.296 0.818,10.4 -0.335,15.313c-1.152,4.913 -3.179,9.378 -6.08,13.396c-2.901,4.018 -6.61,7.414 -11.127,10.188c-4.516,2.774 -9.643,4.665 -15.379,5.671c-5.8,1.018 -11.279,0.988 -16.439,-0.088c-5.16,-1.077 -9.772,-3.013 -13.836,-5.809c-4.064,-2.795 -7.474,-6.307 -10.23,-10.534c-2.756,-4.228 -4.599,-8.989 -5.528,-14.284Z" style="fill:#62b5e5;fill-rule:nonzero;"/></g><g transform="matrix(-0.172812,-0.984955,0.984955,-0.172812,-737.01,744.562)"><text x="56.939px" y="1455.28px" style="font-family:'Futura-Medium', 'Futura', sans-serif;font-weight:500;font-size:64px;fill:#e56274;">PINTURA</text></g><g><path d="M262.2,747.817l11.302,10.169l-4.018,4.226l-14.512,-13.095l9.096,-17.777l5.18,2.581l-7.048,13.896Zm-13.174,2.311l11.302,10.169l-4.017,4.226l-14.513,-13.095l9.096,-17.777l5.18,2.581l-7.048,13.896Z" style="fill:#bf62bd;fill-rule:nonzero;"/><path d="M300.163,714.823l-16.56,2.905l2.004,11.419l15.974,-2.803l1.183,6.741l-15.975,2.803l3.97,22.623l-7.172,1.259l-8.338,-47.525l23.731,-4.163l1.183,6.741Z" style="fill:#bf62bd;fill-rule:nonzero;"/><path d="M315.355,723.293l3.019,17.206c0.871,4.966 3.266,7.105 7.186,6.418c3.919,-0.688 5.443,-3.515 4.572,-8.481l-3.019,-17.206l6.925,-1.215l3.046,17.36c0.421,2.401 0.488,4.526 0.199,6.374c-0.301,1.661 -1.05,3.241 -2.246,4.741c-1.983,2.442 -4.78,3.98 -8.392,4.613c-3.591,0.63 -6.734,0.135 -9.43,-1.486c-1.656,-1 -2.918,-2.227 -3.787,-3.682c-0.819,-1.295 -1.47,-3.317 -1.953,-6.067l-3.045,-17.36l6.925,-1.215Z" style="fill:#bf62bd;fill-rule:nonzero;"/><path d="M342.78,718.482l6.956,-1.221l0.486,2.77c2,-2.825 4.519,-4.505 7.556,-5.037c3.488,-0.612 6.4,0.008 8.734,1.862c2.011,1.572 3.387,4.472 4.128,8.699l3.224,18.375l-6.956,1.221l-2.938,-16.745c-0.518,-2.954 -1.287,-4.924 -2.306,-5.909c-1.002,-1.008 -2.559,-1.327 -4.673,-0.956c-2.298,0.403 -3.796,1.448 -4.494,3.136c-0.681,1.663 -0.694,4.363 -0.039,8.097l2.538,14.467l-6.956,1.22l-5.26,-29.979Z" style="fill:#bf62bd;fill-rule:nonzero;"/><path d="M395.584,686.532l6.957,-1.221l9.121,51.988l-6.956,1.22l-0.551,-3.139c-2.261,3.146 -5.116,5.022 -8.563,5.626c-4.104,0.72 -7.773,-0.18 -11.007,-2.701c-3.225,-2.585 -5.239,-6.166 -6.041,-10.742c-0.785,-4.473 -0.096,-8.444 2.066,-11.911c2.138,-3.485 5.229,-5.582 9.271,-6.291c3.509,-0.616 6.901,0.27 10.175,2.657l-4.472,-25.486Zm-9.961,39.789c0.504,2.873 1.684,5.077 3.54,6.613c1.9,1.549 4.051,2.112 6.452,1.691c2.565,-0.45 4.482,-1.696 5.753,-3.738c1.259,-2.103 1.643,-4.561 1.149,-7.372c-0.493,-2.811 -1.69,-4.991 -3.59,-6.54c-1.893,-1.508 -4.102,-2.041 -6.626,-1.598c-2.38,0.418 -4.212,1.67 -5.496,3.756c-1.26,2.104 -1.654,4.5 -1.182,7.188Z" style="fill:#bf62bd;fill-rule:nonzero;"/><path d="M437.243,701.908l6.956,-1.221l5.26,29.98l-6.956,1.22l-0.551,-3.139c-2.384,3.168 -5.218,5.04 -8.501,5.616c-4.145,0.727 -7.834,-0.169 -11.069,-2.69c-3.224,-2.586 -5.238,-6.167 -6.041,-10.743c-0.788,-4.494 -0.101,-8.474 2.061,-11.942c2.163,-3.467 5.265,-5.556 9.308,-6.265c3.488,-0.612 6.869,0.275 10.143,2.662l-0.61,-3.478Zm-13.822,17.781c0.504,2.873 1.684,5.077 3.539,6.613c1.901,1.549 4.051,2.113 6.452,1.692c2.565,-0.45 4.483,-1.696 5.753,-3.738c1.26,-2.104 1.643,-4.561 1.15,-7.372c-0.493,-2.812 -1.69,-4.992 -3.591,-6.541c-1.893,-1.508 -4.101,-2.04 -6.625,-1.598c-2.381,0.418 -4.213,1.67 -5.496,3.757c-1.26,2.103 -1.654,4.499 -1.182,7.187Z" style="fill:#bf62bd;fill-rule:nonzero;"/><path d="M476.499,696.353l1.615,9.203c-1.919,-1.652 -3.567,-2.727 -4.945,-3.225c-1.36,-0.523 -2.872,-0.638 -4.534,-0.347c-2.606,0.457 -4.611,1.75 -6.014,3.879c-1.403,2.129 -1.864,4.568 -1.381,7.318c0.493,2.811 1.729,4.973 3.708,6.488c2,1.51 4.302,2.037 6.908,1.58c1.662,-0.292 3.067,-0.909 4.213,-1.85c1.109,-0.914 2.318,-2.522 3.627,-4.824l1.604,9.141c-2.556,1.95 -5.239,3.172 -8.05,3.665c-4.638,0.814 -8.779,-0.004 -12.424,-2.452c-3.648,-2.469 -5.864,-5.941 -6.649,-10.414c-0.785,-4.473 0.132,-8.526 2.752,-12.159c2.62,-3.632 6.229,-5.852 10.825,-6.658c2.955,-0.518 5.87,-0.3 8.745,0.655Z" style="fill:#bf62bd;fill-rule:nonzero;"/><path d="M489.908,692.668l5.26,29.979l-6.926,1.215l-5.26,-29.979l6.926,-1.215Zm-10.16,-11.067c-0.212,-1.211 0.046,-2.335 0.773,-3.372c0.728,-1.037 1.707,-1.664 2.938,-1.88c1.252,-0.219 2.396,0.035 3.434,0.762c1.033,0.707 1.66,1.686 1.879,2.938c0.22,1.252 -0.034,2.396 -0.762,3.433c-0.707,1.034 -1.686,1.661 -2.938,1.88c-1.251,0.22 -2.396,-0.034 -3.433,-0.762c-1.037,-0.727 -1.667,-1.727 -1.891,-2.999Z" style="fill:#bf62bd;fill-rule:nonzero;"/><path d="M499.856,706.151c-0.76,-4.329 0.143,-8.284 2.709,-11.865c2.566,-3.581 6.075,-5.761 10.528,-6.543c4.473,-0.785 8.538,0.078 12.193,2.588c3.614,2.518 5.812,6.003 6.594,10.456c0.788,4.494 -0.101,8.531 -2.666,12.111c-2.59,3.564 -6.152,5.744 -10.687,6.539c-4.494,0.789 -8.53,-0.09 -12.107,-2.635c-3.569,-2.504 -5.757,-6.054 -6.564,-10.651Zm7.101,-1.118c0.526,2.995 1.742,5.225 3.648,6.688c1.952,1.477 4.271,1.98 6.959,1.508c2.709,-0.475 4.721,-1.727 6.036,-3.756c1.315,-2.028 1.717,-4.5 1.206,-7.413c-0.512,-2.914 -1.731,-5.101 -3.658,-6.561c-1.951,-1.476 -4.271,-1.979 -6.959,-1.507c-2.647,0.464 -4.636,1.723 -5.968,3.775c-1.332,2.053 -1.754,4.475 -1.264,7.266Zm14.093,-33.058l-9.422,12.123l-4.196,-1.675l6.499,-12.689l7.119,2.241Z" style="fill:#bf62bd;fill-rule:nonzero;"/><path d="M536.57,684.481l6.956,-1.221l0.486,2.771c2,-2.826 4.519,-4.505 7.556,-5.038c3.488,-0.612 6.4,0.009 8.734,1.862c2.01,1.572 3.386,4.472 4.128,8.699l3.224,18.376l-6.956,1.22l-2.938,-16.744c-0.518,-2.955 -1.287,-4.925 -2.306,-5.909c-1.002,-1.009 -2.559,-1.328 -4.673,-0.957c-2.298,0.403 -3.796,1.448 -4.494,3.136c-0.681,1.664 -0.694,4.363 -0.039,8.097l2.538,14.467l-6.956,1.22l-5.26,-29.979Z" style="fill:#bf62bd;fill-rule:nonzero;"/><path d="M608.827,649.118l6.956,-1.22l9.122,51.987l-6.957,1.22l-0.551,-3.139c-2.261,3.146 -5.115,5.022 -8.562,5.627c-4.104,0.72 -7.773,-0.181 -11.008,-2.701c-3.224,-2.586 -5.238,-6.167 -6.041,-10.743c-0.785,-4.473 -0.096,-8.444 2.067,-11.911c2.138,-3.485 5.228,-5.582 9.271,-6.291c3.509,-0.615 6.9,0.27 10.175,2.657l-4.472,-25.486Zm-9.961,39.789c0.504,2.873 1.684,5.077 3.539,6.613c1.901,1.549 4.052,2.113 6.452,1.692c2.565,-0.451 4.483,-1.697 5.753,-3.738c1.26,-2.104 1.643,-4.561 1.15,-7.373c-0.493,-2.811 -1.69,-4.991 -3.59,-6.54c-1.894,-1.508 -4.102,-2.041 -6.626,-1.598c-2.381,0.418 -4.213,1.67 -5.496,3.757c-1.26,2.103 -1.654,4.499 -1.182,7.187Z" style="fill:#bf62bd;fill-rule:nonzero;"/><path d="M658.604,680.203l-21.484,3.769c0.616,2.43 1.76,4.249 3.432,5.458c1.668,1.188 3.61,1.587 5.826,1.198c1.724,-0.302 3.078,-0.963 4.062,-1.981c0.964,-1.016 1.96,-2.755 2.987,-5.22l6.421,2.237c-0.633,1.697 -1.356,3.183 -2.169,4.457c-0.813,1.274 -1.732,2.366 -2.757,3.276c-1.024,0.909 -2.175,1.645 -3.451,2.207c-1.276,0.563 -2.694,0.981 -4.254,1.254c-4.473,0.785 -8.316,-0.021 -11.529,-2.419c-3.216,-2.418 -5.244,-6.017 -6.082,-10.798c-0.832,-4.741 -0.192,-8.808 1.92,-12.203c2.139,-3.358 5.394,-5.42 9.765,-6.187c4.412,-0.774 8.147,0.019 11.205,2.38c3.034,2.345 4.985,5.99 5.853,10.935l0.255,1.637Zm-8.104,-4.416c-1.612,-3.525 -4.265,-4.963 -7.959,-4.315c-0.841,0.148 -1.609,0.415 -2.302,0.801c-0.694,0.386 -1.301,0.873 -1.822,1.461c-0.521,0.589 -0.937,1.259 -1.249,2.012c-0.313,0.753 -0.506,1.58 -0.58,2.482l13.912,-2.441Z" style="fill:#bf62bd;fill-rule:nonzero;"/><path d="M364.014,787.063l19.637,-3.446l0.275,1.57c0.627,3.571 0.761,6.804 0.402,9.702c-0.375,2.688 -1.342,5.311 -2.903,7.87c-3.54,5.74 -8.717,9.207 -15.529,10.402c-6.649,1.167 -12.764,-0.235 -18.347,-4.205c-5.586,-3.99 -8.971,-9.361 -10.156,-16.112c-1.209,-6.895 0.176,-13.166 4.155,-18.814c3.976,-5.668 9.422,-9.109 16.337,-10.322c3.714,-0.652 7.316,-0.501 10.804,0.452c3.344,0.979 6.803,2.91 10.376,5.794l-4.251,5.791c-4.81,-4.508 -10.016,-6.27 -15.617,-5.287c-5.028,0.882 -8.94,3.356 -11.738,7.421c-2.809,4.004 -3.763,8.571 -2.863,13.701c0.929,5.294 3.592,9.322 7.989,12.082c4.108,2.558 8.235,3.473 12.38,2.746c3.529,-0.619 6.491,-2.365 8.884,-5.239c2.39,-2.894 3.456,-6.042 3.197,-9.445l-11.85,2.08l-1.182,-6.741Z" style="fill:#bf62bd;fill-rule:nonzero;"/><path d="M397.353,775.82l3.019,17.205c0.871,4.966 3.267,7.105 7.186,6.418c3.919,-0.688 5.443,-3.515 4.572,-8.48l-3.019,-17.206l6.926,-1.215l3.046,17.359c0.421,2.401 0.487,4.526 0.198,6.375c-0.301,1.66 -1.05,3.24 -2.246,4.74c-1.983,2.442 -4.78,3.98 -8.391,4.613c-3.591,0.631 -6.735,0.135 -9.43,-1.486c-1.656,-1 -2.919,-2.227 -3.788,-3.682c-0.819,-1.295 -1.47,-3.317 -1.952,-6.067l-3.046,-17.359l6.925,-1.215Z" style="fill:#bf62bd;fill-rule:nonzero;"/><path d="M446.878,767.13l6.956,-1.22l5.26,29.979l-6.956,1.221l-0.551,-3.14c-2.384,3.168 -5.218,5.04 -8.501,5.616c-4.145,0.728 -7.834,-0.169 -11.069,-2.69c-3.224,-2.585 -5.238,-6.166 -6.041,-10.742c-0.788,-4.494 -0.101,-8.475 2.061,-11.942c2.163,-3.468 5.265,-5.556 9.308,-6.266c3.488,-0.612 6.869,0.276 10.143,2.662l-0.61,-3.478Zm-13.822,17.782c0.504,2.872 1.683,5.077 3.539,6.612c1.901,1.549 4.051,2.113 6.452,1.692c2.565,-0.45 4.483,-1.696 5.753,-3.738c1.26,-2.103 1.643,-4.561 1.15,-7.372c-0.493,-2.811 -1.69,-4.991 -3.591,-6.54c-1.893,-1.508 -4.102,-2.041 -6.625,-1.598c-2.381,0.418 -4.213,1.67 -5.497,3.756c-1.259,2.104 -1.653,4.499 -1.181,7.188Z" style="fill:#bf62bd;fill-rule:nonzero;"/><path d="M476.862,787.029l-17.764,-22.043l8.033,-1.409l12.197,15.627l5.533,-18.738l7.818,-1.371l-15.763,50.483l-7.911,1.388l7.857,-23.937Z" style="fill:#bf62bd;fill-rule:nonzero;"/><path d="M518.411,754.58l6.956,-1.221l5.26,29.98l-6.957,1.22l-0.55,-3.139c-2.385,3.168 -5.218,5.04 -8.501,5.616c-4.145,0.727 -7.835,-0.169 -11.069,-2.69c-3.225,-2.586 -5.239,-6.167 -6.041,-10.743c-0.789,-4.494 -0.102,-8.474 2.061,-11.942c2.162,-3.467 5.264,-5.556 9.307,-6.265c3.488,-0.612 6.87,0.275 10.144,2.662l-0.61,-3.478Zm-13.823,17.781c0.504,2.873 1.684,5.077 3.54,6.613c1.9,1.549 4.051,2.113 6.452,1.692c2.565,-0.45 4.482,-1.696 5.753,-3.738c1.259,-2.104 1.642,-4.561 1.149,-7.372c-0.493,-2.812 -1.69,-4.992 -3.59,-6.541c-1.894,-1.508 -4.102,-2.04 -6.626,-1.598c-2.38,0.418 -4.212,1.67 -5.496,3.757c-1.26,2.103 -1.654,4.499 -1.182,7.187Z" style="fill:#bf62bd;fill-rule:nonzero;"/><path d="M564.33,794.241l-3.451,-19.668c-2.256,3.293 -5.149,5.25 -8.678,5.869c-4.043,0.709 -7.659,-0.19 -10.848,-2.697c-3.214,-2.524 -5.215,-6.033 -6.004,-10.527c-0.799,-4.556 -0.123,-8.598 2.029,-12.127c2.176,-3.512 5.305,-5.626 9.389,-6.343c3.468,-0.608 6.806,0.213 10.014,2.463l-0.573,-3.263l6.956,-1.22l8.123,46.293l-6.957,1.22Zm-21.955,-28.573c0.507,2.893 1.699,5.106 3.576,6.638c1.883,1.573 4.025,2.149 6.426,1.728c2.545,-0.446 4.452,-1.691 5.723,-3.733c1.287,-2.066 1.68,-4.525 1.18,-7.377c-0.493,-2.811 -1.69,-4.991 -3.591,-6.54c-1.893,-1.508 -4.102,-2.041 -6.625,-1.598c-2.381,0.417 -4.213,1.67 -5.497,3.756c-1.259,2.104 -1.657,4.479 -1.192,7.126Z" style="fill:#bf62bd;fill-rule:nonzero;"/><path d="M579.539,743.855l3.019,17.206c0.871,4.966 3.267,7.105 7.186,6.417c3.919,-0.688 5.443,-3.514 4.572,-8.48l-3.019,-17.206l6.926,-1.215l3.045,17.36c0.422,2.4 0.488,4.525 0.199,6.374c-0.301,1.66 -1.05,3.24 -2.246,4.74c-1.983,2.442 -4.78,3.98 -8.392,4.614c-3.591,0.63 -6.734,0.134 -9.43,-1.487c-1.656,-0.999 -2.918,-2.227 -3.787,-3.682c-0.819,-1.295 -1.47,-3.317 -1.952,-6.066l-3.046,-17.36l6.925,-1.215Z" style="fill:#bf62bd;fill-rule:nonzero;"/><path d="M613.89,737.828l5.26,29.98l-6.926,1.215l-5.26,-29.98l6.926,-1.215Zm-10.16,-11.067c-0.212,-1.211 0.046,-2.335 0.773,-3.372c0.728,-1.037 1.707,-1.664 2.938,-1.88c1.252,-0.219 2.396,0.035 3.434,0.762c1.033,0.707 1.66,1.687 1.879,2.938c0.22,1.252 -0.034,2.396 -0.762,3.434c-0.707,1.033 -1.686,1.66 -2.938,1.879c-1.251,0.22 -2.396,-0.034 -3.433,-0.762c-1.037,-0.727 -1.667,-1.727 -1.891,-2.999Z" style="fill:#bf62bd;fill-rule:nonzero;"/><path d="M625.726,713.066l9.121,51.987l-6.925,1.215l-9.121,-51.987l6.925,-1.215Z" style="fill:#bf62bd;fill-rule:nonzero;"/><path d="M649.626,746.755l-11.388,-10.661l4.022,-4.196l14.605,13.619l-9.219,17.259l-5.185,-2.612l7.165,-13.409Zm13.174,-2.311l-11.358,-10.666l3.992,-4.191l14.605,13.619l-9.188,17.253l-5.217,-2.606l7.166,-13.409Z" style="fill:#bf62bd;fill-rule:nonzero;"/></g></svg>