<?xml version="1.0" encoding="UTF-8" standalone="no"?><!DOCTYPE svg PUBLIC "-//W3C//DTD SVG 1.1//EN" "http://www.w3.org/Graphics/SVG/1.1/DTD/svg11.dtd"><svg viewBox="0 0 256 256" version="1.1" xmlns="http://www.w3.org/2000/svg" xmlns:xlink="http://www.w3.org/1999/xlink" xml:space="preserve" style="fill-rule:evenodd;clip-rule:evenodd;stroke-linejoin:round;stroke-miterlimit:1.41421;"><path d="M181.508,99.113c0,29.746 -24.127,53.857 -53.927,53.857c-29.767,0 -53.915,-24.111 -53.915,-53.857c0,-29.748 24.148,-53.887 53.915,-53.887c29.8,0 53.927,24.139 53.927,53.887" style="fill:#0094d6;fill-rule:nonzero;"/><path d="M85.112,56.384c-10.908,10.887 -17.68,25.988 -17.68,42.691c0,16.69 6.772,31.767 17.68,42.669c10.915,10.901 25.894,17.592 42.468,17.592c16.551,0 31.565,-6.691 42.473,-17.592c10.901,-10.902 17.68,-25.979 17.68,-42.669c0,-16.703 -6.779,-31.804 -17.68,-42.691c-10.908,-10.894 -25.922,-17.584 -42.473,-17.598c-16.574,0.014 -31.553,6.704 -42.468,17.598m-22.513,42.691c0.061,-35.63 28.934,-64.717 64.981,-64.75c36.04,0.033 64.927,29.12 64.988,64.75c-0.061,35.605 -28.948,64.692 -64.988,64.725c-36.047,-0.033 -64.92,-29.12 -64.981,-64.725" style="fill:#0094d6;fill-rule:nonzero;"/><path d="M127.323,45.361l12.085,37.134l39.129,0l-31.649,22.946l12.078,37.151l-31.643,-22.958l-31.616,22.958l12.08,-37.151l-31.649,-22.946l39.122,0l12.063,-37.134Z" style="fill:#fff;fill-rule:nonzero;"/><path d="M82.46,158.925c0.443,0.278 1.038,0.146 1.309,-0.339c0.263,-0.431 0.112,-1.014 -0.339,-1.263c-0.457,-0.311 -1.052,-0.139 -1.311,0.315c-0.296,0.428 -0.101,1.047 0.341,1.287" style="fill:#1e1c1a;fill-rule:nonzero;"/><path d="M79.233,164.407c0.478,0.278 1.012,0.127 1.308,-0.343c0.257,-0.457 0.132,-1.036 -0.345,-1.299c-0.471,-0.264 -1.024,-0.111 -1.309,0.343c-0.249,0.443 -0.117,1.055 0.346,1.299" style="fill:#1e1c1a;fill-rule:nonzero;"/><path d="M81.622,161.201c-0.043,-0.035 -0.05,-0.078 -0.061,-0.111l-0.022,0l0.022,0l-0.022,-0.011l0.022,0.011l0.171,0l-0.171,0c0.011,0.019 0.018,0.033 0.061,0.111" style="fill:#009e4c;fill-rule:nonzero;"/><path d="M81.539,160.931l0.195,0.021l0.019,0l0,0.172c0,0 -0.019,0 -0.019,0.021l0,0.11l-0.16,0c-0.035,0.015 -0.089,0.05 -0.089,0.05l-0.231,-0.402l0.285,0.028Z" style="fill:#1e1c1a;fill-rule:nonzero;"/><path d="M81.622,161.201c0.395,0.692 1.974,3.856 -1.857,5.412c0,0 7.184,5.849 10.21,5.96c3.025,0.138 4.647,-0.391 6.065,-2.798c0.085,-0.08 0.036,-0.049 0.085,-0.148c1.419,-2.414 1.085,-4.092 -0.506,-6.654c-1.55,-2.61 -10.188,-6.003 -10.188,-6.003c0.506,4.031 -2.868,4.153 -3.699,4.12" style="fill:#009e4c;fill-rule:nonzero;"/><path d="M85.604,157.226c0.845,0.324 4.037,1.67 6.614,3.185c1.475,0.859 2.755,1.808 3.268,2.638c1.475,2.391 1.953,4.038 0.52,6.485l-0.089,0.186c-1.447,2.43 -3.13,2.835 -5.944,2.696c-0.969,-0.047 -2.409,-0.675 -3.892,-1.565c-2.583,-1.52 -5.317,-3.668 -5.99,-4.216c1.108,-0.504 1.87,-1.195 2.195,-2.113c0.466,-1.358 -0.172,-2.739 -0.463,-3.266c0.673,0.014 2.091,-0.092 2.993,-1.12c0.663,-0.694 0.887,-1.67 0.788,-2.91m-4.273,3.828l0.153,0.249c0.249,0.367 0.955,1.788 0.477,3.104c-0.289,0.873 -1.051,1.576 -2.237,2.054l-0.261,0.103l0.228,0.156c0.289,0.247 7.209,5.899 10.27,6.019c2.866,0.11 4.709,-0.323 6.205,-2.862l0.061,-0.103c0,0 0.029,-0.054 0.029,-0.08c1.524,-2.567 1.004,-4.355 -0.485,-6.826c-1.6,-2.595 -9.918,-5.899 -10.278,-6.052l-0.249,-0.084l0.035,0.261c0.186,1.268 -0.056,2.268 -0.645,2.955c-0.894,0.941 -2.334,1.009 -2.901,1.002l-0.402,0.104Z" style="fill:#1e1c1a;fill-rule:nonzero;"/><path d="M81.539,161.055c2.868,-0.198 5.894,0.437 8.609,2.035c2.791,1.593 4.791,3.92 5.977,6.537c-2.84,0.209 -5.873,-0.415 -8.596,-2.024c-2.769,-1.598 -4.778,-3.908 -5.99,-6.548" style="fill:#009e4c;fill-rule:nonzero;"/><path d="M95.854,169.459c-2.875,0.167 -5.706,-0.492 -8.277,-2.002c-2.528,-1.476 -4.516,-3.638 -5.753,-6.207c2.847,-0.196 5.734,0.47 8.268,1.983c2.548,1.475 4.529,3.635 5.762,6.226m-14.529,-8.529l0.082,0.195c1.254,2.75 3.346,5.049 6.026,6.609c2.68,1.577 5.678,2.283 8.713,2.04l0.235,0l-0.125,-0.219c-1.254,-2.76 -3.317,-5.035 -6.004,-6.581c-2.687,-1.581 -5.687,-2.289 -8.713,-2.073l-0.214,0.029Z" style="fill:#1e1c1a;fill-rule:nonzero;"/><path d="M102.682,172.836c0.285,0.117 0.652,-0.036 0.805,-0.374c0.125,-0.313 -0.035,-0.704 -0.355,-0.824c-3.643,-1.122 -7.568,-2.943 -7.568,-2.943c-0.32,-0.13 -0.715,0.032 -0.832,0.362c-0.111,0.334 0.049,0.687 0.374,0.821c0,0 2.715,1.518 7.576,2.958" style="fill:#1e1c1a;fill-rule:nonzero;"/><path d="M67.335,143.772c0.339,0.398 0.934,0.398 1.323,0.042c0.409,-0.353 0.423,-0.946 0.089,-1.327c-0.374,-0.4 -1.024,-0.4 -1.384,-0.068c-0.367,0.384 -0.395,0.993 -0.028,1.353" style="fill:#1e1c1a;fill-rule:nonzero;"/><path d="M62.681,148.129c0.36,0.376 0.969,0.393 1.358,0.037c0.374,-0.374 0.407,-0.971 0.056,-1.324c-0.388,-0.407 -0.983,-0.431 -1.372,-0.078c-0.374,0.374 -0.395,0.976 -0.042,1.365" style="fill:#1e1c1a;fill-rule:nonzero;"/><path d="M65.874,145.704c0,-0.028 -0.014,-0.068 -0.043,-0.094c0,-0.026 -0.007,-0.026 -0.007,-0.026c0,0 0.007,0 0.007,0.026l0,-0.026l0,0.026c0.071,0 0.118,0.026 0.175,0.04c-0.071,-0.014 -0.132,-0.04 -0.175,-0.04c0.029,0.026 0.043,0.064 0.043,0.094" style="fill:#009e4c;fill-rule:nonzero;"/><path d="M65.874,145.431l0.188,0.066l0.033,0.014c0,0 -0.033,0.073 -0.089,0.125c0.028,0.037 0.028,0.04 0.028,0.04l-0.028,0.026c-0.029,0.061 -0.057,0.096 -0.057,0.096c0,0 -0.089,-0.035 -0.125,-0.035c-0.049,0 -0.082,0.021 -0.082,0.021l-0.118,-0.471l0.25,0.118Z" style="fill:#1e1c1a;fill-rule:nonzero;"/><path d="M65.874,145.704c0.2,0.772 0.788,4.299 -3.29,4.669c0,0 5.196,7.642 8.102,8.618c2.828,0.984 4.538,0.911 6.581,-0.976c0.082,-0.054 0.054,-0.031 0.167,-0.125c2.014,-1.91 2.164,-3.626 1.369,-6.524c-0.769,-2.925 -8.068,-8.605 -8.068,-8.605c-0.664,3.951 -3.92,3.143 -4.729,2.889" style="fill:#009e4c;fill-rule:nonzero;"/><path d="M70.832,143.038c0.72,0.539 3.407,2.746 5.438,4.903c1.169,1.255 2.132,2.52 2.374,3.473c0.762,2.687 0.734,4.422 -1.343,6.358l-0.118,0.118c-2.092,1.943 -3.802,1.84 -6.475,0.941c-0.927,-0.318 -2.127,-1.341 -3.297,-2.607c-2.042,-2.198 -4.037,-5.017 -4.576,-5.744c1.259,-0.169 2.174,-0.628 2.727,-1.402c0.844,-1.172 0.616,-2.666 0.499,-3.238c0.63,0.186 2.028,0.478 3.221,-0.228c0.788,-0.489 1.28,-1.365 1.55,-2.574m-5.181,2.459l0.071,0.287c0.11,0.426 0.374,1.962 -0.396,3.113c-0.555,0.76 -1.475,1.195 -2.776,1.334l-0.249,0.009l0.157,0.221c0.217,0.306 5.25,7.709 8.153,8.683c2.72,0.906 4.612,1.014 6.772,-0.998l0.056,-0.075l0.083,-0.064c2.188,-2.028 2.188,-3.906 1.447,-6.71c-0.796,-2.93 -7.845,-8.454 -8.137,-8.68l-0.195,-0.153l-0.068,0.252c-0.207,1.284 -0.692,2.178 -1.454,2.625c-1.134,0.671 -2.513,0.332 -3.054,0.156l-0.41,0Z" style="fill:#1e1c1a;fill-rule:nonzero;"/><path d="M65.832,145.584c2.819,0.574 5.539,2.04 7.701,4.376c2.189,2.292 3.464,5.108 3.899,7.93c-2.84,-0.567 -5.574,-2.054 -7.694,-4.36c-2.202,-2.323 -3.477,-5.12 -3.906,-7.946" style="fill:#009e4c;fill-rule:nonzero;"/><path d="M77.19,157.668c-2.797,-0.656 -5.341,-2.085 -7.376,-4.268c-2.007,-2.116 -3.282,-4.791 -3.753,-7.603c2.812,0.638 5.339,2.09 7.341,4.255c2.064,2.167 3.325,4.788 3.788,7.616m-11.538,-12.304l0.042,0.219c0.402,2.993 1.779,5.798 3.899,8.033c2.117,2.283 4.804,3.817 7.79,4.433l0.2,0.052l-0.011,-0.212c-0.424,-3.026 -1.782,-5.788 -3.913,-8.047c-2.134,-2.27 -4.821,-3.8 -7.786,-4.426l-0.221,-0.052Z" style="fill:#1e1c1a;fill-rule:nonzero;"/><path d="M82.758,162.807c0.285,0.221 0.673,0.174 0.901,-0.113c0.207,-0.254 0.158,-0.68 -0.106,-0.871c-3.179,-2.15 -6.404,-4.978 -6.404,-4.978c-0.306,-0.203 -0.692,-0.16 -0.902,0.117c-0.228,0.271 -0.171,0.676 0.097,0.897c0,0 2.197,2.226 6.414,4.948" style="fill:#1e1c1a;fill-rule:nonzero;"/><path d="M57.127,124.964c0.243,0.451 0.788,0.654 1.261,0.428c0.471,-0.242 0.685,-0.817 0.414,-1.273c-0.2,-0.475 -0.795,-0.666 -1.261,-0.447c-0.484,0.235 -0.684,0.842 -0.414,1.292" style="fill:#1e1c1a;fill-rule:nonzero;"/><path d="M51.421,127.823c0.235,0.454 0.802,0.647 1.294,0.405c0.459,-0.207 0.644,-0.791 0.409,-1.259c-0.221,-0.489 -0.805,-0.666 -1.254,-0.447c-0.478,0.238 -0.685,0.819 -0.449,1.301" style="fill:#1e1c1a;fill-rule:nonzero;"/><path d="M55.16,126.41l0,-0.12c0.022,0 0,-0.042 0,-0.042l0,0.042c0.055,0.04 0.104,0.045 0.158,0.106c-0.061,-0.061 -0.108,-0.092 -0.158,-0.106c0,0 0.022,0.078 0,0.12" style="fill:#009e4c;fill-rule:nonzero;"/><path d="M55.257,126.14l0.16,0.108l0,0.04c0,0 -0.021,0.047 -0.085,0.094l0,0.029l-0.033,0c-0.035,0.058 -0.084,0.11 -0.084,0.11c0,0 -0.076,-0.082 -0.109,-0.11l-0.106,0l0.036,-0.476l0.221,0.205Z" style="fill:#1e1c1a;fill-rule:nonzero;"/><path d="M55.16,126.41c-0.021,0.8 -0.437,4.315 -4.473,3.553c0,0 2.817,8.793 5.311,10.536c2.452,1.746 4.127,2.165 6.607,0.925c0.111,-0.038 0.068,-0.026 0.158,-0.064c2.494,-1.268 3.139,-2.854 3.214,-5.875c0.085,-3.021 -5.297,-10.55 -5.297,-10.55c-1.774,3.64 -4.668,1.913 -5.362,1.461" style="fill:#009e4c;fill-rule:nonzero;"/><path d="M60.694,125.225c0.505,0.711 2.465,3.605 3.802,6.259c0.76,1.551 1.365,3.019 1.322,4.003c-0.075,2.797 -0.567,4.451 -3.096,5.727l-0.2,0.08c-2.508,1.277 -4.156,0.689 -6.454,-0.939c-0.805,-0.555 -1.65,-1.897 -2.403,-3.445c-1.346,-2.67 -2.48,-5.946 -2.743,-6.783c1.219,0.197 2.237,0.016 3,-0.593c1.12,-0.89 1.341,-2.377 1.397,-2.958c0.556,0.365 1.807,1.035 3.13,0.68c0.894,-0.228 1.635,-0.925 2.245,-2.031m-5.659,0.883l-0.033,0.301c-0.021,0.454 -0.181,2.005 -1.275,2.868c-0.742,0.596 -1.772,0.748 -3.04,0.52l-0.236,-0.061l0.083,0.261c0.138,0.372 2.875,8.868 5.381,10.624c2.348,1.651 4.099,2.294 6.767,0.948l0.082,-0.038l0.078,-0.037c2.694,-1.337 3.219,-3.149 3.301,-6.007c0.071,-3.04 -5.111,-10.337 -5.339,-10.621l-0.139,-0.231l-0.146,0.231c-0.553,1.15 -1.265,1.868 -2.153,2.103c-1.24,0.325 -2.491,-0.393 -2.95,-0.72l-0.381,-0.141Z" style="fill:#1e1c1a;fill-rule:nonzero;"/><path d="M55.181,126.248c2.534,1.377 4.722,3.548 6.137,6.388c1.447,2.81 1.868,5.883 1.447,8.723c-2.523,-1.374 -4.725,-3.549 -6.116,-6.365c-1.44,-2.854 -1.863,-5.906 -1.468,-8.746" style="fill:#009e4c;fill-rule:nonzero;"/><path d="M62.646,141.085c-2.505,-1.421 -4.557,-3.516 -5.865,-6.17c-1.33,-2.642 -1.829,-5.55 -1.447,-8.362c2.477,1.388 4.522,3.506 5.851,6.155c1.316,2.636 1.807,5.52 1.461,8.377m-7.569,-15.068l-0.042,0.207c-0.436,3.016 0.07,6.049 1.454,8.83c1.379,2.777 3.546,4.986 6.193,6.44l0.214,0.115l0.035,-0.223c0.443,-3.012 -0.077,-6.042 -1.468,-8.817c-1.393,-2.804 -3.546,-5.002 -6.207,-6.461l-0.179,-0.091Z" style="fill:#1e1c1a;fill-rule:nonzero;"/><path d="M66.532,147.582c0.179,0.273 0.595,0.348 0.88,0.158c0.261,-0.21 0.311,-0.6 0.125,-0.899c-2.419,-2.927 -4.725,-6.579 -4.725,-6.579c-0.214,-0.278 -0.616,-0.332 -0.892,-0.132c-0.263,0.193 -0.353,0.598 -0.141,0.89c0,0 1.468,2.731 4.753,6.562" style="fill:#1e1c1a;fill-rule:nonzero;"/><path d="M52.66,104.01c0.083,0.539 0.575,0.882 1.095,0.784c0.52,-0.097 0.865,-0.586 0.762,-1.092c-0.071,-0.544 -0.57,-0.88 -1.087,-0.765c-0.527,0.068 -0.908,0.595 -0.77,1.073" style="fill:#1e1c1a;fill-rule:nonzero;"/><path d="M46.371,105.171c0.104,0.501 0.603,0.84 1.13,0.75c0.513,-0.094 0.858,-0.579 0.762,-1.108c-0.104,-0.501 -0.574,-0.854 -1.094,-0.77c-0.506,0.106 -0.866,0.589 -0.798,1.128" style="fill:#1e1c1a;fill-rule:nonzero;"/><path d="M50.381,104.869c0,-0.04 0.021,-0.077 0.042,-0.117l0,-0.019l0,0.019l0,-0.019l0,0.019c0.028,0.04 0.083,0.077 0.111,0.131c-0.083,-0.07 -0.09,-0.105 -0.111,-0.131c-0.021,0.026 -0.021,0.061 -0.042,0.117" style="fill:#009e4c;fill-rule:nonzero;"/><path d="M50.534,104.631l0.11,0.148l0,0.014c0.029,-0.014 0.029,0.021 0.029,0.021c0,0 -0.064,0.031 -0.132,0.068c-0.007,0.012 -0.007,0.05 -0.007,0.05l-0.054,0c-0.029,0.009 -0.078,0.042 -0.078,0.042c0,0 -0.075,-0.08 -0.082,-0.103c-0.064,-0.026 -0.09,-0.04 -0.09,-0.04l0.151,-0.464l0.153,0.264Z" style="fill:#1e1c1a;fill-rule:nonzero;"/><path d="M50.381,104.869c-0.254,0.734 -1.668,4 -5.318,2.125c0,0 0.228,9.233 2.106,11.588c1.875,2.391 3.337,3.29 6.066,2.814c0.125,-0.021 0.089,-0.042 0.2,-0.058c2.758,-0.478 3.795,-1.848 4.732,-4.706c0.934,-2.892 -2.099,-11.624 -2.099,-11.624c-2.708,3 -5.021,0.537 -5.534,-0.125" style="fill:#009e4c;fill-rule:nonzero;"/><path d="M55.998,105.288c0.304,0.856 1.372,4.16 1.871,7.091c0.317,1.68 0.435,3.262 0.138,4.212c-0.851,2.638 -1.814,4.085 -4.578,4.605l-0.222,0.026c-2.762,0.51 -4.162,-0.525 -5.894,-2.713c-0.609,-0.784 -1.044,-2.283 -1.369,-3.993c-0.515,-2.946 -0.666,-6.395 -0.722,-7.285c1.15,0.532 2.174,0.638 3.054,0.301c1.371,-0.569 1.981,-1.929 2.176,-2.477c0.45,0.492 1.447,1.52 2.824,1.539c0.943,0.042 1.837,-0.419 2.722,-1.306m-5.68,-0.732l-0.089,0.275c-0.165,0.405 -0.753,1.88 -2.05,2.4c-0.866,0.313 -1.877,0.212 -3.026,-0.381l-0.256,-0.122l0.026,0.27c0,0.367 0.23,9.318 2.127,11.701c1.781,2.247 3.317,3.349 6.205,2.847l0.127,-0.018c0,0 0.075,0 0.103,-0.014c2.922,-0.539 3.939,-2.102 4.847,-4.838c0.92,-2.894 -1.995,-11.344 -2.12,-11.713l-0.068,-0.266l-0.188,0.198c-0.85,0.953 -1.758,1.437 -2.68,1.407c-1.287,-0.038 -2.257,-1.09 -2.631,-1.523l-0.327,-0.223Z" style="fill:#1e1c1a;fill-rule:nonzero;"/><path d="M50.444,104.696c2.014,2.04 3.518,4.75 4.045,7.88c0.588,3.132 0.132,6.143 -1.054,8.762c-2.028,-1.988 -3.518,-4.706 -4.078,-7.847c-0.576,-3.099 -0.125,-6.167 1.087,-8.795" style="fill:#009e4c;fill-rule:nonzero;"/><path d="M53.381,121.047c-1.988,-2.071 -3.353,-4.671 -3.885,-7.574c-0.513,-2.915 -0.174,-5.819 0.984,-8.417c2.007,2.029 3.343,4.636 3.877,7.556c0.527,2.908 0.172,5.809 -0.976,8.435m-3,-16.6l-0.097,0.221c-1.273,2.708 -1.661,5.795 -1.08,8.861c0.56,3.061 1.96,5.8 4.12,7.93l0.16,0.179l0.083,-0.217c1.287,-2.758 1.649,-5.812 1.089,-8.875c-0.541,-3.059 -1.974,-5.812 -4.115,-7.93l-0.16,-0.169Z" style="fill:#1e1c1a;fill-rule:nonzero;"/><path d="M55.257,128.373c0.089,0.323 0.463,0.528 0.788,0.41c0.341,-0.132 0.513,-0.492 0.402,-0.81c-1.501,-3.494 -2.665,-7.663 -2.665,-7.663c-0.118,-0.318 -0.506,-0.506 -0.817,-0.388c-0.325,0.134 -0.506,0.492 -0.374,0.828c0,0 0.616,3.028 2.666,7.623" style="fill:#1e1c1a;fill-rule:nonzero;"/><path d="M54.329,82.697c-0.076,0.529 0.291,0.986 0.833,1.042c0.524,0.059 0.981,-0.31 1.03,-0.837c0.082,-0.549 -0.317,-1.005 -0.845,-1.066c-0.491,-0.078 -0.99,0.332 -1.018,0.861" style="fill:#1e1c1a;fill-rule:nonzero;"/><path d="M47.986,81.997c-0.062,0.515 0.296,0.986 0.844,1.05c0.527,0.056 0.991,-0.323 1.045,-0.866c0.049,-0.513 -0.304,-0.972 -0.831,-1.052c-0.513,-0.049 -0.99,0.362 -1.058,0.868" style="fill:#1e1c1a;fill-rule:nonzero;"/><path d="M51.899,82.857c0,-0.05 0.021,-0.099 0.054,-0.125l0,-0.007l0,0.007l0,-0.007l0,0.007c0.035,0.071 0.063,0.125 0.07,0.184c-0.007,-0.109 -0.07,-0.158 -0.07,-0.184c0,0.016 -0.033,0.071 -0.054,0.125" style="fill:#009e4c;fill-rule:nonzero;"/><path d="M52.099,82.676l0.063,0.16l0,0.021l0.028,0.026c0,0 -0.07,0.019 -0.127,0.033c-0.04,0.012 -0.047,0.026 -0.047,0.026l-0.028,0c-0.068,0 -0.089,0.019 -0.089,0.019c0,0 -0.057,-0.104 -0.057,-0.153c-0.054,-0.007 -0.082,-0.049 -0.082,-0.049l0.263,-0.37l0.076,0.287Z" style="fill:#1e1c1a;fill-rule:nonzero;"/><path d="M51.899,82.857c-0.478,0.654 -2.748,3.355 -5.72,0.529c0,0 -2.384,8.927 -1.254,11.732c1.108,2.807 2.266,4.059 5.049,4.397l0.186,0c2.751,0.302 4.169,-0.698 5.852,-3.181c1.703,-2.503 1.301,-11.729 1.301,-11.729c-3.475,2.087 -4.937,-0.92 -5.29,-1.689" style="fill:#009e4c;fill-rule:nonzero;"/><path d="M57.155,84.841c0.068,0.903 0.125,4.369 -0.181,7.334c-0.193,1.696 -0.525,3.247 -1.087,4.044c-1.558,2.342 -2.916,3.445 -5.706,3.153l-0.207,-0.03c-2.805,-0.311 -3.866,-1.683 -4.925,-4.287c-0.339,-0.913 -0.339,-2.499 -0.153,-4.203c0.327,-2.978 1.184,-6.329 1.407,-7.183c0.92,0.812 1.878,1.214 2.824,1.136c1.449,-0.131 2.433,-1.27 2.793,-1.75c0.27,0.614 0.983,1.852 2.263,2.294c0.894,0.271 1.885,0.096 2.972,-0.508m-5.242,-2.299l-0.153,0.216c-0.257,0.379 -1.254,1.6 -2.64,1.723c-0.939,0.087 -1.876,-0.33 -2.817,-1.219l-0.195,-0.181l-0.054,0.242c-0.09,0.372 -2.431,9.035 -1.275,11.835c1.065,2.671 2.209,4.167 5.145,4.506l0.104,0c0,0 0.099,0.038 0.125,0.007c2.957,0.344 4.376,-0.889 6.011,-3.256c1.704,-2.508 1.33,-11.457 1.302,-11.831l0,-0.266l-0.236,0.144c-1.087,0.68 -2.117,0.868 -2.957,0.579c-1.238,-0.381 -1.883,-1.654 -2.111,-2.205l-0.249,-0.294Z" style="fill:#1e1c1a;fill-rule:nonzero;"/><path d="M51.988,82.724c1.372,2.525 2.036,5.53 1.676,8.671c-0.318,3.176 -1.64,5.962 -3.504,8.12c-1.379,-2.504 -2.049,-5.515 -1.71,-8.663c0.367,-3.172 1.661,-5.97 3.538,-8.128" style="fill:#009e4c;fill-rule:nonzero;"/><path d="M50.181,99.211c-1.343,-2.555 -1.906,-5.416 -1.579,-8.36c0.339,-2.932 1.509,-5.631 3.318,-7.826c1.355,2.537 1.903,5.426 1.586,8.363c-0.299,2.948 -1.483,5.644 -3.325,7.823m1.835,-16.767l-0.145,0.169c-1.996,2.29 -3.25,5.102 -3.589,8.193c-0.324,3.099 0.264,6.149 1.704,8.786l0.141,0.198l0.129,-0.153c1.989,-2.29 3.25,-5.118 3.567,-8.207c0.346,-3.09 -0.256,-6.132 -1.703,-8.802l-0.104,-0.184Z" style="fill:#1e1c1a;fill-rule:nonzero;"/><path d="M49.918,106.783c0,0.346 0.311,0.593 0.649,0.582c0.356,0 0.619,-0.311 0.584,-0.636c-0.431,-3.786 -0.402,-8.115 -0.402,-8.115c-0.007,-0.339 -0.297,-0.595 -0.638,-0.588c-0.346,0 -0.649,0.306 -0.616,0.666c0,0 -0.276,3.099 0.423,8.091" style="fill:#1e1c1a;fill-rule:nonzero;"/><path d="M61.947,62.672c-0.195,0.494 0,1.061 0.52,1.254c0.478,0.221 1.045,0 1.24,-0.504c0.207,-0.491 -0.035,-1.047 -0.492,-1.242c-0.492,-0.216 -1.068,0.017 -1.268,0.492" style="fill:#1e1c1a;fill-rule:nonzero;"/><path d="M56.096,60.244c-0.221,0.464 0,1.028 0.498,1.245c0.478,0.2 1.052,-0.057 1.248,-0.513c0.2,-0.506 -0.043,-1.04 -0.516,-1.247c-0.468,-0.207 -1.052,0.009 -1.23,0.515" style="fill:#1e1c1a;fill-rule:nonzero;"/><path d="M59.586,62.152c0.021,-0.009 0.054,-0.03 0.082,-0.08l0.05,0l-0.05,0c0.05,0.071 0.05,0.125 0.05,0.172c0,-0.092 -0.05,-0.122 -0.05,-0.172c0,0.029 -0.028,0.05 -0.082,0.08" style="fill:#009e4c;fill-rule:nonzero;"/><path d="M59.856,62.035l0,0.235l-0.139,0l-0.049,0.036l-0.026,-0.036l-0.106,0c0,0 0,-0.117 -0.014,-0.148c-0.04,-0.021 -0.047,-0.049 -0.047,-0.049l0.381,-0.318l0,0.28Z" style="fill:#1e1c1a;fill-rule:nonzero;"/><path d="M59.586,62.152c-0.602,0.492 -3.574,2.48 -5.595,-1.096c0,0 -4.864,7.877 -4.565,10.896c0.264,3.017 1.026,4.563 3.607,5.633c0.092,0.04 0.042,0.026 0.174,0.059c2.541,1.08 4.198,0.513 6.511,-1.391c2.362,-1.905 4.59,-10.887 4.59,-10.887c-3.906,1.015 -4.522,-2.275 -4.59,-3.122" style="fill:#009e4c;fill-rule:nonzero;"/><path d="M64.094,65.581c-0.214,0.852 -1.136,4.212 -2.294,6.976c-0.656,1.57 -1.398,2.963 -2.186,3.586c-2.155,1.769 -3.741,2.468 -6.357,1.381l-0.196,-0.108c-2.609,-1.08 -3.207,-2.68 -3.477,-5.48c-0.09,-0.969 0.362,-2.511 1.026,-4.059c1.15,-2.774 2.896,-5.755 3.381,-6.534c0.663,1.052 1.461,1.713 2.395,1.908c1.412,0.287 2.708,-0.527 3.165,-0.877c0.089,0.649 0.388,2.061 1.517,2.814c0.756,0.539 1.772,0.652 3.026,0.393m-4.376,-3.72l-0.243,0.174c-0.353,0.285 -1.663,1.167 -3.028,0.896c-0.906,-0.162 -1.661,-0.83 -2.332,-1.934l-0.124,-0.249l-0.153,0.249c-0.174,0.316 -4.854,7.937 -4.572,10.97c0.264,2.849 0.962,4.611 3.692,5.757l0.075,0.038c0,0 0.092,0.056 0.092,0.038c2.748,1.164 4.48,0.381 6.732,-1.4c2.32,-1.93 4.501,-10.624 4.59,-11l0.071,-0.259l-0.259,0.073c-1.238,0.339 -2.264,0.247 -3.005,-0.266c-1.073,-0.737 -1.315,-2.148 -1.397,-2.718l-0.139,-0.369Z" style="fill:#1e1c1a;fill-rule:nonzero;"/><path d="M59.717,62.073c0.602,2.798 0.367,5.873 -0.859,8.796c-1.212,2.943 -3.261,5.235 -5.652,6.79c-0.616,-2.781 -0.414,-5.878 0.819,-8.821c1.231,-2.911 3.261,-5.247 5.692,-6.765" style="fill:#009e4c;fill-rule:nonzero;"/><path d="M53.297,77.365c-0.553,-2.812 -0.264,-5.736 0.887,-8.464c1.134,-2.717 3.04,-4.976 5.402,-6.548c0.574,2.812 0.271,5.713 -0.866,8.457c-1.143,2.724 -3.007,4.993 -5.423,6.555m6.56,-15.551l-0.243,0.13c-2.557,1.614 -4.538,3.983 -5.734,6.842c-1.2,2.868 -1.505,5.937 -0.847,8.89l0.043,0.235l0.179,-0.127c2.583,-1.621 4.557,-3.972 5.748,-6.84c1.207,-2.878 1.503,-5.963 0.854,-8.915l0,-0.215Z" style="fill:#1e1c1a;fill-rule:nonzero;"/><path d="M50.901,84.532c-0.117,0.35 0.118,0.689 0.457,0.776c0.32,0.104 0.706,-0.132 0.762,-0.468c0.631,-3.732 1.925,-7.873 1.925,-7.873c0.07,-0.346 -0.125,-0.67 -0.506,-0.753c-0.332,-0.11 -0.635,0.123 -0.748,0.447c0,0 -1.134,2.911 -1.89,7.871" style="fill:#1e1c1a;fill-rule:nonzero;"/><path d="M74.967,45.677c-0.341,0.4 -0.284,1.019 0.125,1.325c0.402,0.351 1.031,0.292 1.329,-0.144c0.346,-0.392 0.278,-0.992 -0.117,-1.324c-0.395,-0.327 -1.04,-0.276 -1.337,0.143" style="fill:#1e1c1a;fill-rule:nonzero;"/><path d="M70.022,41.664c-0.341,0.4 -0.263,1 0.132,1.337c0.407,0.341 1.01,0.266 1.316,-0.153c0.345,-0.391 0.298,-0.981 -0.097,-1.32c-0.431,-0.332 -1.04,-0.261 -1.351,0.136" style="fill:#1e1c1a;fill-rule:nonzero;"/><path d="M72.834,44.493c0.021,-0.024 0.068,-0.024 0.11,-0.054l0.014,0l-0.014,0l0.029,0l-0.029,0c0,0.063 0,0.143 -0.042,0.176c0.042,-0.077 0.042,-0.122 0.042,-0.176c0,0.019 -0.061,0.04 -0.11,0.054" style="fill:#009e4c;fill-rule:nonzero;"/><path d="M73.111,44.469l-0.043,0.174l0,0.026c0,0 -0.068,-0.005 -0.146,-0.026l-0.04,0l-0.028,-0.029l-0.103,-0.021c0,0 0.056,-0.101 0.056,-0.155c-0.028,-0.028 -0.056,-0.08 -0.056,-0.08l0.456,-0.169l-0.096,0.28Z" style="fill:#1e1c1a;fill-rule:nonzero;"/><path d="M72.834,44.493c-0.741,0.31 -4.12,1.353 -5.061,-2.619c0,0 -6.899,6.179 -7.455,9.141c-0.602,2.963 -0.338,4.652 1.829,6.407c0.084,0.068 0.049,0.038 0.153,0.132c2.167,1.774 3.877,1.685 6.661,0.527c2.807,-1.195 7.461,-9.162 7.461,-9.162c-4.019,-0.132 -3.642,-3.466 -3.52,-4.304" style="fill:#009e4c;fill-rule:nonzero;"/><path d="M76.157,49.039c-0.435,0.769 -2.263,3.725 -4.134,6.04c-1.094,1.322 -2.209,2.466 -3.103,2.838c-2.574,1.075 -4.306,1.308 -6.508,-0.478l-0.139,-0.134c-2.203,-1.781 -2.334,-3.508 -1.795,-6.275c0.188,-0.949 1.061,-2.269 2.127,-3.598c1.913,-2.318 4.425,-4.692 5.103,-5.287c0.341,1.205 0.922,2.042 1.746,2.496c1.28,0.666 2.755,0.236 3.296,0.05c-0.082,0.649 -0.214,2.07 0.652,3.169c0.595,0.704 1.525,1.075 2.755,1.179m-3.122,-4.788l-0.285,0.106c-0.416,0.153 -1.903,0.642 -3.143,0c-0.838,-0.431 -1.379,-1.273 -1.664,-2.544l-0.096,-0.249l-0.172,0.169c-0.313,0.259 -6.941,6.249 -7.515,9.252c-0.553,2.812 -0.402,4.696 1.863,6.569l0.125,0.045l0.047,0.089c2.323,1.854 4.198,1.64 6.845,0.534c2.816,-1.183 7.353,-8.905 7.534,-9.228l0.125,-0.214l-0.257,-0.042c-1.296,-0.01 -2.237,-0.391 -2.783,-1.116c-0.852,-1.007 -0.687,-2.407 -0.589,-2.981l-0.035,-0.39Z" style="fill:#1e1c1a;fill-rule:nonzero;"/><path d="M72.973,44.438c-0.221,2.877 -1.297,5.757 -3.304,8.2c-1.995,2.475 -4.619,4.108 -7.369,4.917c0.2,-2.852 1.296,-5.753 3.325,-8.197c1.988,-2.499 4.59,-4.132 7.348,-4.92" style="fill:#009e4c;fill-rule:nonzero;"/><path d="M62.48,57.295c0.285,-2.854 1.4,-5.551 3.24,-7.857c1.859,-2.291 4.303,-3.917 7.059,-4.748c-0.243,2.852 -1.344,5.567 -3.207,7.857c-1.897,2.294 -4.323,3.922 -7.092,4.748m10.666,-13.045l-0.2,0.045c-2.923,0.819 -5.494,2.527 -7.468,4.953c-1.968,2.407 -3.123,5.259 -3.33,8.296l-0.035,0.226l0.216,-0.082c2.92,-0.824 5.497,-2.513 7.464,-4.937c1.974,-2.407 3.11,-5.284 3.353,-8.312l0,-0.189Z" style="fill:#1e1c1a;fill-rule:nonzero;"/><path d="M58.145,63.5c-0.174,0.311 -0.082,0.699 0.221,0.861c0.313,0.184 0.728,0.073 0.88,-0.214c1.655,-3.412 4.059,-7.019 4.059,-7.019c0.179,-0.303 0.069,-0.717 -0.228,-0.868c-0.313,-0.176 -0.694,-0.085 -0.88,0.247c0,0 -1.913,2.445 -4.052,6.993" style="fill:#1e1c1a;fill-rule:nonzero;"/><path d="M172.935,158.925c-0.471,0.278 -1.062,0.146 -1.297,-0.339c-0.282,-0.431 -0.136,-1.035 0.327,-1.263c0.45,-0.311 1.066,-0.139 1.33,0.315c0.263,0.428 0.089,1.047 -0.36,1.287" style="fill:#1e1c1a;fill-rule:nonzero;"/><path d="M176.175,164.407c-0.456,0.278 -1.075,0.127 -1.322,-0.343c-0.263,-0.457 -0.103,-1.036 0.353,-1.299c0.449,-0.264 1.038,-0.111 1.308,0.343c0.264,0.443 0.09,1.055 -0.339,1.299" style="fill:#1e1c1a;fill-rule:nonzero;"/><path d="M173.793,161.201c0,-0.035 0.014,-0.078 0.061,-0.111l0,-0.011l0,0.011c-0.061,0 -0.115,-0.011 -0.186,0l0.186,0c-0.033,0.019 -0.061,0.033 -0.061,0.111" style="fill:#009e4c;fill-rule:nonzero;"/><path d="M173.855,160.931l-0.186,0.021l-0.021,0c0,0 0,0.061 0.014,0.136c-0.014,0.022 -0.014,0.036 -0.014,0.036c0,0 0.014,0 0.021,0.021c0,0.056 0.007,0.11 0.007,0.11l0.129,0c0.05,0.015 0.085,0.05 0.085,0.05l0.249,-0.402l-0.284,0.028Z" style="fill:#1e1c1a;fill-rule:nonzero;"/><path d="M173.669,161.089c-0.852,0.036 -4.212,-0.117 -3.706,-4.12c0,0 -8.621,3.393 -10.186,6.005c-1.588,2.562 -1.941,4.238 -0.513,6.652c0.061,0.099 0.042,0.068 0.111,0.148c1.404,2.407 3.011,2.937 6.051,2.798c3.043,-0.111 10.203,-5.96 10.203,-5.96c-3.831,-1.553 -2.245,-4.72 -1.836,-5.412" style="fill:#009e4c;fill-rule:nonzero;"/><path d="M170.579,160.137c0.894,1.007 2.356,1.132 2.979,1.12c-0.263,0.525 -0.88,1.875 -0.416,3.263c0.313,0.918 1.047,1.61 2.202,2.113c-0.72,0.551 -3.421,2.697 -6.012,4.217c-1.496,0.892 -2.936,1.517 -3.906,1.567c-2.818,0.136 -4.515,-0.268 -5.934,-2.699l-0.096,-0.183c-1.436,-2.448 -0.965,-4.097 0.503,-6.485c0.527,-0.831 1.803,-1.781 3.257,-2.65c2.604,-1.503 5.816,-2.849 6.621,-3.174c-0.078,1.24 0.15,2.217 0.802,2.911m3.09,0.814c-0.596,0 -1.996,-0.08 -2.862,-1.005c-0.616,-0.684 -0.844,-1.684 -0.705,-2.953l0.061,-0.263l-0.283,0.087c-0.338,0.153 -8.677,3.456 -10.263,6.052c-1.475,2.468 -2.017,4.258 -0.492,6.826c0,0.023 0.054,0.08 0.054,0.08l0.05,0.103c1.501,2.539 3.324,2.972 6.197,2.859c3.047,-0.12 10.003,-5.772 10.306,-6.017l0.193,-0.157l-0.228,-0.101c-1.198,-0.48 -1.96,-1.182 -2.257,-2.055c-0.477,-1.317 0.236,-2.736 0.464,-3.103l0.146,-0.249l-0.381,-0.104Z" style="fill:#1e1c1a;fill-rule:nonzero;"/><path d="M173.855,161.055c-2.852,-0.212 -5.885,0.437 -8.628,2.035c-2.744,1.593 -4.772,3.92 -5.963,6.537c2.866,0.209 5.892,-0.415 8.636,-2.024c2.727,-1.598 4.736,-3.908 5.955,-6.548" style="fill:#009e4c;fill-rule:nonzero;"/><path d="M165.323,163.233c2.541,-1.513 5.395,-2.179 8.261,-2.002c-1.273,2.588 -3.233,4.75 -5.767,6.226c-2.548,1.51 -5.395,2.169 -8.277,2.002c1.24,-2.591 3.228,-4.751 5.783,-6.226m8.567,-2.332c-3.04,-0.216 -6.054,0.492 -8.734,2.073c-2.673,1.546 -4.765,3.821 -6.031,6.581l-0.105,0.219l0.228,0c3.028,0.243 6.026,-0.463 8.722,-2.04c2.671,-1.56 4.769,-3.859 6.038,-6.609l0.068,-0.195l-0.186,-0.029Z" style="fill:#1e1c1a;fill-rule:nonzero;"/><path d="M152.746,172.836c-0.339,0.117 -0.713,-0.043 -0.823,-0.374c-0.146,-0.313 0.035,-0.704 0.346,-0.824c3.635,-1.122 7.576,-2.962 7.576,-2.962c0.318,-0.111 0.687,0.051 0.791,0.381c0.145,0.334 -0.008,0.687 -0.346,0.821c0,0 -2.716,1.518 -7.544,2.958" style="fill:#1e1c1a;fill-rule:nonzero;"/><path d="M188.06,143.772c-0.342,0.398 -0.956,0.398 -1.323,0.042c-0.388,-0.353 -0.437,-0.946 -0.063,-1.327c0.381,-0.4 0.983,-0.4 1.364,-0.068c0.389,0.384 0.403,0.993 0.022,1.353" style="fill:#1e1c1a;fill-rule:nonzero;"/><path d="M192.713,148.129c-0.353,0.376 -0.97,0.393 -1.358,0.037c-0.367,-0.374 -0.367,-0.971 -0.014,-1.324c0.367,-0.407 0.972,-0.431 1.322,-0.078c0.391,0.374 0.424,0.976 0.05,1.365" style="fill:#1e1c1a;fill-rule:nonzero;"/><path d="M189.528,145.704c0,-0.028 0.021,-0.068 0.049,-0.094l0,-0.026l0,0.026c-0.028,-0.026 0,-0.026 0,-0.026l0,0.026c-0.063,0 -0.148,0.026 -0.188,0.026c0.104,0 0.139,-0.026 0.188,-0.026c-0.028,0 -0.049,0.064 -0.049,0.094" style="fill:#009e4c;fill-rule:nonzero;"/><path d="M189.528,145.431l-0.188,0.066l-0.007,0l0,0.014c0,0 0,0.073 0.049,0.125l0,0.04l0.014,0.026c0,0.061 0.033,0.096 0.033,0.096c0,0 0.12,-0.035 0.148,-0.035c0.061,0 0.09,0.021 0.09,0.021l0.131,-0.471l-0.27,0.118Z" style="fill:#1e1c1a;fill-rule:nonzero;"/><path d="M189.389,145.636c-0.809,0.258 -4.066,1.077 -4.729,-2.876c0,0 -7.28,5.68 -8.057,8.607c-0.809,2.897 -0.663,4.612 1.386,6.523c0.097,0.094 0.064,0.073 0.139,0.124c2.045,1.887 3.741,1.953 6.621,0.977c2.875,-0.977 8.061,-8.619 8.061,-8.619c-4.08,-0.384 -3.475,-3.896 -3.282,-4.668" style="fill:#009e4c;fill-rule:nonzero;"/><path d="M186.148,145.612c1.176,0.705 2.541,0.414 3.186,0.228c-0.111,0.572 -0.32,2.068 0.513,3.237c0.546,0.777 1.489,1.233 2.708,1.403c-0.513,0.727 -2.529,3.546 -4.558,5.746c-1.193,1.263 -2.362,2.287 -3.303,2.607c-2.654,0.896 -4.384,1 -6.447,-0.944l-0.16,-0.118c-2.05,-1.934 -2.085,-3.67 -1.337,-6.357c0.25,-0.951 1.205,-2.219 2.389,-3.473c2.051,-2.158 4.724,-4.362 5.423,-4.904c0.292,1.21 0.791,2.085 1.586,2.575m3.193,-0.116c-0.548,0.177 -1.939,0.516 -3.054,-0.155c-0.763,-0.447 -1.261,-1.341 -1.476,-2.624l-0.049,-0.254l-0.2,0.153c-0.299,0.226 -7.341,5.751 -8.136,8.683c-0.727,2.802 -0.709,4.68 1.461,6.71l0.068,0.061l0.075,0.076c2.156,2.011 4.047,1.905 6.732,0.997c2.929,-0.974 7.986,-8.376 8.193,-8.68l0.139,-0.223l-0.243,-0.01c-1.301,-0.138 -2.23,-0.574 -2.769,-1.334c-0.812,-1.148 -0.506,-2.687 -0.416,-3.113l0.068,-0.287l-0.393,0Z" style="fill:#1e1c1a;fill-rule:nonzero;"/><path d="M189.576,145.584c-2.811,0.574 -5.541,2.04 -7.708,4.376c-2.181,2.292 -3.468,5.097 -3.877,7.93c2.811,-0.567 5.552,-2.054 7.701,-4.36c2.181,-2.323 3.454,-5.12 3.884,-7.946" style="fill:#009e4c;fill-rule:nonzero;"/><path d="M181.979,150.051c2.035,-2.165 4.571,-3.617 7.362,-4.254c-0.471,2.814 -1.725,5.487 -3.753,7.602c-2.009,2.186 -4.572,3.612 -7.369,4.268c0.456,-2.828 1.717,-5.449 3.76,-7.616m7.548,-4.633c-2.941,0.623 -5.65,2.153 -7.798,4.426c-2.125,2.256 -3.449,5.019 -3.899,8.047l-0.021,0.209l0.221,-0.052c2.965,-0.616 5.645,-2.15 7.777,-4.43c2.134,-2.238 3.463,-5.042 3.887,-8.033l0.04,-0.219l-0.207,0.052Z" style="fill:#1e1c1a;fill-rule:nonzero;"/><path d="M172.636,162.807c-0.264,0.221 -0.671,0.174 -0.913,-0.113c-0.196,-0.254 -0.139,-0.68 0.124,-0.871c3.172,-2.15 6.433,-4.978 6.433,-4.978c0.285,-0.226 0.659,-0.16 0.895,0.117c0.207,0.271 0.164,0.676 -0.132,0.897c0,0 -2.177,2.226 -6.407,4.948" style="fill:#1e1c1a;fill-rule:nonzero;"/><path d="M198.282,124.964c-0.222,0.451 -0.803,0.654 -1.288,0.428c-0.437,-0.242 -0.623,-0.817 -0.416,-1.285c0.249,-0.463 0.845,-0.654 1.287,-0.435c0.478,0.235 0.666,0.842 0.417,1.292" style="fill:#1e1c1a;fill-rule:nonzero;"/><path d="M203.967,127.823c-0.228,0.454 -0.797,0.647 -1.282,0.405c-0.449,-0.207 -0.656,-0.791 -0.4,-1.259c0.242,-0.489 0.809,-0.666 1.28,-0.447c0.445,0.238 0.624,0.819 0.402,1.301" style="fill:#1e1c1a;fill-rule:nonzero;"/><path d="M200.234,126.41l0,-0.12l0,-0.042l0,0.042c-0.056,0.04 -0.117,0.045 -0.152,0.092c0.082,-0.047 0.103,-0.078 0.152,-0.092l0,0.12Z" style="fill:#009e4c;fill-rule:nonzero;"/><path d="M200.165,126.14l-0.151,0.108l-0.049,0.04c0,0 0.049,0.047 0.096,0.094l0.021,0.029l0.021,0c0.012,0.058 0.076,0.11 0.076,0.11c0,0 0.096,-0.082 0.096,-0.11l0.118,0l0,-0.476l-0.228,0.205Z" style="fill:#1e1c1a;fill-rule:nonzero;"/><path d="M200.082,126.382c-0.687,0.464 -3.567,2.182 -5.341,-1.447c0,0 -5.4,7.527 -5.311,10.551c0.085,3.019 0.701,4.607 3.2,5.873c0.118,0.037 0.082,0.028 0.16,0.066c2.513,1.24 4.155,0.821 6.633,-0.925c2.466,-1.746 5.299,-10.536 5.299,-10.536c-4.038,0.762 -4.445,-2.753 -4.487,-3.553" style="fill:#009e4c;fill-rule:nonzero;"/><path d="M196.973,127.256c1.308,0.355 2.562,-0.316 3.108,-0.68c0.035,0.581 0.264,2.068 1.407,2.957c0.748,0.593 1.76,0.791 3.019,0.593c-0.318,0.838 -1.412,4.113 -2.77,6.784c-0.783,1.548 -1.621,2.891 -2.416,3.444c-2.299,1.629 -3.934,2.217 -6.449,0.939l-0.16,-0.08c-2.567,-1.273 -3.045,-2.929 -3.116,-5.727c-0.047,-0.983 0.534,-2.452 1.302,-4.002c1.336,-2.654 3.289,-5.548 3.809,-6.259c0.602,1.106 1.343,1.802 2.266,2.031m3.04,-1.007c-0.499,0.327 -1.732,1.044 -2.991,0.72c-0.868,-0.236 -1.581,-0.953 -2.155,-2.104l-0.089,-0.231l-0.175,0.193c-0.207,0.323 -5.423,7.619 -5.345,10.659c0.082,2.859 0.637,4.671 3.275,6.007l0.193,0.075c2.661,1.346 4.412,0.704 6.781,-0.945c2.48,-1.758 5.249,-10.276 5.367,-10.624l0.078,-0.263l-0.271,0.03c-1.261,0.259 -2.287,0.106 -3.007,-0.489c-1.087,-0.861 -1.261,-2.431 -1.268,-2.866l-0.012,-0.301l-0.381,0.139Z" style="fill:#1e1c1a;fill-rule:nonzero;"/><path d="M200.214,126.248c-2.523,1.365 -4.708,3.548 -6.116,6.388c-1.468,2.81 -1.898,5.883 -1.468,8.723c2.52,-1.374 4.737,-3.549 6.13,-6.365c1.426,-2.854 1.868,-5.906 1.454,-8.746" style="fill:#009e4c;fill-rule:nonzero;"/><path d="M194.229,132.709c1.323,-2.649 3.36,-4.767 5.852,-6.157c0.369,2.812 -0.115,5.72 -1.44,8.362c-1.336,2.657 -3.379,4.748 -5.873,6.172c-0.346,-2.857 0.125,-5.741 1.461,-8.377m5.934,-6.6c-2.684,1.457 -4.811,3.657 -6.218,6.462c-1.412,2.774 -1.918,5.804 -1.48,8.816l0.028,0.221l0.219,-0.115c2.675,-1.454 4.807,-3.664 6.207,-6.44c1.386,-2.781 1.903,-5.814 1.475,-8.828l-0.049,-0.219l-0.182,0.103Z" style="fill:#1e1c1a;fill-rule:nonzero;"/><path d="M188.897,147.582c-0.221,0.273 -0.588,0.348 -0.901,0.158c-0.275,-0.21 -0.339,-0.6 -0.125,-0.899c2.41,-2.953 4.739,-6.579 4.739,-6.579c0.2,-0.278 0.6,-0.332 0.873,-0.132c0.283,0.193 0.339,0.598 0.151,0.89c0,0 -1.461,2.731 -4.737,6.562" style="fill:#1e1c1a;fill-rule:nonzero;"/><path d="M202.748,104.01c-0.077,0.539 -0.583,0.882 -1.108,0.784c-0.513,-0.097 -0.859,-0.586 -0.755,-1.092c0.07,-0.558 0.583,-0.88 1.101,-0.765c0.541,0.068 0.859,0.595 0.762,1.073" style="fill:#1e1c1a;fill-rule:nonzero;"/><path d="M209.009,105.171c-0.097,0.501 -0.582,0.84 -1.123,0.75c-0.492,-0.094 -0.845,-0.579 -0.748,-1.108c0.092,-0.501 0.583,-0.854 1.094,-0.77c0.52,0.106 0.88,0.589 0.777,1.128" style="fill:#1e1c1a;fill-rule:nonzero;"/><path d="M205.02,104.869c0,-0.04 -0.022,-0.077 -0.022,-0.117l0,-0.019l0,0.019l-0.021,-0.019l0.021,0.019c-0.075,0.04 -0.089,0.077 -0.124,0.131c0.049,-0.07 0.077,-0.105 0.124,-0.131c0,0.026 0.022,0.061 0.022,0.117" style="fill:#009e4c;fill-rule:nonzero;"/><path d="M204.874,104.631l-0.118,0.148l0,0.014c0,-0.014 -0.021,0.021 -0.021,0.021c0,0 0.063,0.031 0.139,0.068l0,0.05l0.035,0c0.042,0.009 0.111,0.03 0.111,0.03c0,0 0.035,-0.068 0.068,-0.091c0.063,-0.026 0.099,-0.04 0.099,-0.04l-0.167,-0.464l-0.146,0.264Z" style="fill:#1e1c1a;fill-rule:nonzero;"/><path d="M204.874,104.883c-0.546,0.661 -2.833,3.127 -5.539,0.125c0,0 -3.047,8.732 -2.092,11.623c0.934,2.859 1.988,4.229 4.744,4.706c0.103,0.017 0.054,0.017 0.178,0.059c2.744,0.461 4.198,-0.423 6.069,-2.814c1.882,-2.355 2.07,-11.588 2.07,-11.588c-3.621,1.875 -5.014,-1.391 -5.284,-2.125" style="fill:#009e4c;fill-rule:nonzero;"/><path d="M202.117,106.593c1.365,-0.017 2.391,-1.045 2.805,-1.537c0.228,0.546 0.838,1.909 2.217,2.466c0.88,0.346 1.87,0.229 3.026,-0.291c-0.05,0.889 -0.193,4.338 -0.713,7.284c-0.304,1.711 -0.749,3.21 -1.344,3.993c-1.746,2.188 -3.158,3.226 -5.922,2.715l-0.2,-0.028c-2.784,-0.52 -3.732,-1.967 -4.577,-4.605c-0.32,-0.948 -0.195,-2.531 0.111,-4.214c0.539,-2.929 1.593,-6.233 1.903,-7.089c0.852,0.887 1.772,1.348 2.694,1.306m2.64,-1.814c-0.36,0.433 -1.336,1.484 -2.647,1.522c-0.891,0.033 -1.807,-0.452 -2.672,-1.407l-0.165,-0.198l-0.092,0.266c-0.111,0.37 -3.047,8.819 -2.092,11.716c0.88,2.734 1.927,4.296 4.85,4.837c0,0.014 0.089,0.014 0.089,0.014l0.089,0.017c2.937,0.501 4.462,-0.6 6.24,-2.847c1.897,-2.381 2.106,-11.334 2.135,-11.701l0,-0.269l-0.238,0.12c-1.141,0.593 -2.167,0.697 -3.026,0.382c-1.308,-0.52 -1.918,-1.996 -2.042,-2.4l-0.097,-0.273l-0.332,0.221Z" style="fill:#1e1c1a;fill-rule:nonzero;"/><path d="M204.978,104.696c-2.028,2.04 -3.51,4.75 -4.087,7.88c-0.567,3.132 -0.11,6.143 1.097,8.762c2.014,-1.988 3.496,-4.706 4.056,-7.847c0.574,-3.099 0.111,-6.167 -1.066,-8.795" style="fill:#009e4c;fill-rule:nonzero;"/><path d="M201.051,112.612c0.52,-2.92 1.864,-5.527 3.873,-7.555c1.149,2.597 1.501,5.501 0.977,8.416c-0.523,2.904 -1.871,5.504 -3.873,7.574c-1.144,-2.626 -1.522,-5.527 -0.977,-8.435m3.824,-8.017c-2.148,2.139 -3.588,4.892 -4.115,7.937c-0.582,3.078 -0.2,6.132 1.061,8.889l0.117,0.217l0.151,-0.179c2.162,-2.129 3.574,-4.868 4.122,-7.929c0.553,-3.066 0.182,-6.153 -1.089,-8.885l-0.101,-0.198l-0.146,0.148Z" style="fill:#1e1c1a;fill-rule:nonzero;"/><path d="M200.165,128.373c-0.118,0.323 -0.499,0.528 -0.817,0.41c-0.332,-0.132 -0.52,-0.506 -0.381,-0.81c1.482,-3.494 2.666,-7.663 2.666,-7.663c0.124,-0.318 0.456,-0.506 0.833,-0.388c0.282,0.124 0.496,0.492 0.379,0.828c0,0 -0.622,3.028 -2.68,7.623" style="fill:#1e1c1a;fill-rule:nonzero;"/><path d="M201.093,82.697c0.061,0.515 -0.311,0.986 -0.838,1.042c-0.527,0.059 -1.005,-0.31 -1.054,-0.837c-0.054,-0.549 0.313,-1.005 0.847,-1.066c0.511,-0.078 1.002,0.332 1.045,0.861" style="fill:#1e1c1a;fill-rule:nonzero;"/><path d="M207.423,81.997c0.054,0.515 -0.313,0.986 -0.845,1.05c-0.534,0.056 -1.004,-0.323 -1.047,-0.866c-0.054,-0.513 0.325,-0.972 0.831,-1.052c0.506,-0.049 0.983,0.362 1.061,0.868" style="fill:#1e1c1a;fill-rule:nonzero;"/><path d="M203.51,82.857c-0.028,-0.05 -0.049,-0.099 -0.061,-0.125l0,-0.007l0,0.007l-0.028,-0.007l0.028,0.007c-0.028,0.071 -0.057,0.125 -0.057,0.169c0.007,-0.094 0.029,-0.143 0.057,-0.169c0.012,0.016 0.012,0.071 0.061,0.125" style="fill:#009e4c;fill-rule:nonzero;"/><path d="M203.288,82.676l-0.042,0.16l0,0.021l-0.026,0.026c0,0 0.068,0.019 0.144,0.033c0.028,0.012 0.028,0.026 0.028,0.026l0.028,0c0.042,0 0.118,0.019 0.118,0.019c0,0 0.028,-0.104 0.028,-0.153c0.054,-0.007 0.068,-0.049 0.068,-0.049l-0.242,-0.37l-0.104,0.287Z" style="fill:#1e1c1a;fill-rule:nonzero;"/><path d="M203.392,82.901c-0.332,0.784 -1.843,3.791 -5.297,1.704c0,0 -0.423,9.226 1.266,11.727c1.711,2.485 3.139,3.485 5.88,3.183l0.195,0c2.77,-0.338 3.927,-1.59 5.026,-4.397c1.165,-2.805 -1.28,-11.732 -1.28,-11.732c-2.929,2.826 -5.214,0.09 -5.673,-0.529" style="fill:#009e4c;fill-rule:nonzero;"/><path d="M201.218,85.329c1.308,-0.424 2.002,-1.659 2.245,-2.275c0.364,0.48 1.369,1.621 2.809,1.753c0.958,0.075 1.899,-0.327 2.84,-1.137c0.2,0.852 1.054,4.205 1.414,7.181c0.172,1.704 0.172,3.29 -0.188,4.205c-1.052,2.602 -2.106,3.974 -4.904,4.287l-0.214,0.031c-2.811,0.291 -4.127,-0.815 -5.713,-3.156c-0.545,-0.795 -0.873,-2.348 -1.075,-4.044c-0.318,-2.965 -0.235,-6.431 -0.205,-7.334c1.12,0.607 2.104,0.781 2.991,0.489m2.028,-2.494c-0.256,0.55 -0.866,1.826 -2.139,2.207c-0.83,0.287 -1.835,0.099 -2.929,-0.593l-0.214,-0.132l-0.031,0.268c0,0.372 -0.414,9.32 1.304,11.831c1.647,2.365 3.061,3.598 6.047,3.256l0.082,-0.007l0.068,0c2.965,-0.341 4.116,-1.837 5.189,-4.506c1.155,-2.802 -1.17,-11.465 -1.262,-11.835l-0.075,-0.242l-0.188,0.179c-0.927,0.891 -1.882,1.306 -2.805,1.219c-1.383,-0.12 -2.367,-1.353 -2.637,-1.72l-0.193,-0.219l-0.217,0.294Z" style="fill:#1e1c1a;fill-rule:nonzero;"/><path d="M203.42,82.724c-1.379,2.525 -2.03,5.53 -1.703,8.671c0.339,3.176 1.647,5.962 3.524,8.12c1.412,-2.504 2.071,-5.515 1.711,-8.663c-0.334,-3.172 -1.663,-5.97 -3.532,-8.128" style="fill:#009e4c;fill-rule:nonzero;"/><path d="M201.889,91.388c-0.318,-2.936 0.228,-5.828 1.572,-8.362c1.828,2.195 3.035,4.892 3.324,7.826c0.332,2.943 -0.242,5.802 -1.564,8.36c-1.857,-2.179 -2.998,-4.878 -3.332,-7.824m1.4,-8.76c-1.468,2.671 -2.042,5.713 -1.704,8.803c0.304,3.089 1.558,5.917 3.565,8.204l0.139,0.153l0.12,-0.197c1.459,-2.638 2.028,-5.685 1.701,-8.784c-0.346,-3.094 -1.579,-5.903 -3.572,-8.193l-0.145,-0.169l-0.104,0.183Z" style="fill:#1e1c1a;fill-rule:nonzero;"/><path d="M205.532,106.783c-0.049,0.346 -0.346,0.593 -0.687,0.582c-0.339,0 -0.621,-0.316 -0.593,-0.636c0.428,-3.786 0.386,-8.115 0.386,-8.115c0.014,-0.339 0.313,-0.595 0.652,-0.588c0.374,0 0.63,0.306 0.616,0.666c0,0 0.278,3.099 -0.374,8.091" style="fill:#1e1c1a;fill-rule:nonzero;"/><path d="M193.461,62.672c0.195,0.494 -0.043,1.061 -0.52,1.254c-0.478,0.221 -1.045,0 -1.233,-0.504c-0.236,-0.491 0,-1.047 0.491,-1.242c0.466,-0.216 1.047,0.017 1.262,0.492" style="fill:#1e1c1a;fill-rule:nonzero;"/><path d="M199.32,60.244c0.195,0.464 -0.021,1.028 -0.513,1.245c-0.463,0.2 -1.03,-0.057 -1.259,-0.513c-0.181,-0.506 0.047,-1.04 0.525,-1.247c0.492,-0.207 1.04,0.009 1.247,0.515" style="fill:#1e1c1a;fill-rule:nonzero;"/><path d="M195.823,62.152c-0.05,-0.009 -0.069,-0.03 -0.069,-0.08l-0.035,0l0.035,0l-0.035,0l0.035,0c-0.035,0.071 -0.07,0.125 -0.035,0.172c0,-0.092 0,-0.122 0.035,-0.172c0,0.029 0,0.05 0.069,0.08" style="fill:#009e4c;fill-rule:nonzero;"/><path d="M195.553,62.035l-0.028,0.195l0.028,0l-0.028,0.04l0.16,0c0.033,0 0.068,0.036 0.068,0.036l0,-0.036l0.11,0l0,-0.148c0.036,-0.021 0.064,-0.087 0.064,-0.087l-0.374,-0.28l0,0.28Z" style="fill:#1e1c1a;fill-rule:nonzero;"/><path d="M195.718,62.243c-0.089,0.847 -0.706,4.137 -4.597,3.122c0,0 2.209,8.984 4.555,10.888c2.329,1.905 3.948,2.472 6.546,1.392c0.103,-0.035 0.063,-0.021 0.16,-0.058c2.569,-1.071 3.324,-2.619 3.628,-5.636c0.263,-3.018 -4.591,-10.896 -4.591,-10.896c-2.023,3.576 -4.988,1.588 -5.597,1.096" style="fill:#009e4c;fill-rule:nonzero;"/><path d="M194.327,65.187c1.158,-0.751 1.426,-2.165 1.511,-2.812c0.484,0.348 1.757,1.162 3.178,0.875c0.949,-0.193 1.744,-0.856 2.381,-1.908c0.464,0.779 2.224,3.76 3.4,6.511c0.638,1.571 1.109,3.112 1.033,4.082c-0.27,2.802 -0.908,4.4 -3.505,5.482l-0.158,0.106c-2.633,1.089 -4.205,0.388 -6.393,-1.381c-0.76,-0.624 -1.515,-2.014 -2.167,-3.584c-1.151,-2.767 -2.085,-6.127 -2.266,-6.995c1.193,0.261 2.209,0.162 2.986,-0.376m1.198,-2.958c-0.04,0.572 -0.292,1.984 -1.372,2.718c-0.734,0.513 -1.772,0.607 -2.998,0.268l-0.256,-0.075l0.089,0.261c0.064,0.374 2.224,9.068 4.565,10.997c2.252,1.784 3.962,2.565 6.71,1.403l0.083,-0.038l0.117,-0.038c2.723,-1.148 3.393,-2.91 3.671,-5.76c0.292,-3.032 -4.377,-10.654 -4.584,-10.969l-0.131,-0.249l-0.125,0.249c-0.666,1.104 -1.421,1.774 -2.334,1.937c-1.372,0.268 -2.673,-0.615 -3.033,-0.897l-0.242,-0.188l-0.16,0.381Z" style="fill:#1e1c1a;fill-rule:nonzero;"/><path d="M195.684,62.073c-0.588,2.798 -0.374,5.873 0.873,8.796c1.19,2.943 3.235,5.235 5.666,6.79c0.588,-2.781 0.367,-5.878 -0.866,-8.821c-1.193,-2.911 -3.243,-5.247 -5.673,-6.765" style="fill:#009e4c;fill-rule:nonzero;"/><path d="M196.667,70.809c-1.141,-2.743 -1.405,-5.644 -0.845,-8.456c2.375,1.572 4.259,3.83 5.396,6.548c1.162,2.727 1.44,5.652 0.873,8.445c-2.398,-1.544 -4.266,-3.812 -5.424,-6.537m-1.141,-8.781c-0.619,2.953 -0.334,6.038 0.864,8.918c1.2,2.866 3.178,5.216 5.727,6.837l0.209,0.13l0.054,-0.238c0.638,-2.953 0.348,-6.021 -0.871,-8.887c-1.185,-2.861 -3.167,-5.231 -5.734,-6.845l-0.195,-0.129l-0.054,0.214Z" style="fill:#1e1c1a;fill-rule:nonzero;"/><path d="M204.521,84.532c0.104,0.35 -0.125,0.689 -0.485,0.776c-0.331,0.104 -0.673,-0.132 -0.748,-0.468c-0.631,-3.76 -1.932,-7.873 -1.932,-7.873c-0.063,-0.346 0.132,-0.67 0.478,-0.753c0.353,-0.11 0.692,0.123 0.776,0.447c0,0 1.127,2.911 1.911,7.871" style="fill:#1e1c1a;fill-rule:nonzero;"/><path d="M180.455,45.677c0.346,0.4 0.278,1.019 -0.146,1.325c-0.4,0.351 -1.018,0.292 -1.315,-0.144c-0.346,-0.392 -0.285,-0.992 0.097,-1.324c0.416,-0.327 1.032,-0.276 1.364,0.143" style="fill:#1e1c1a;fill-rule:nonzero;"/><path d="M185.379,41.664c0.353,0.4 0.285,1 -0.145,1.337c-0.382,0.341 -0.991,0.266 -1.344,-0.153c-0.311,-0.391 -0.256,-0.981 0.146,-1.32c0.381,-0.332 1.009,-0.261 1.343,0.136" style="fill:#1e1c1a;fill-rule:nonzero;"/><path d="M182.575,44.493c-0.056,-0.024 -0.078,-0.024 -0.118,-0.054l-0.035,0l0.035,0l-0.035,0l0.035,0c0,0.063 0,0.143 0.04,0.176c-0.04,-0.077 -0.075,-0.122 -0.04,-0.176c0,0.019 0.047,0.04 0.118,0.054" style="fill:#009e4c;fill-rule:nonzero;"/><path d="M182.276,44.469l0.061,0.174l0.017,0.021l0,0.005c0,0 0.047,-0.005 0.103,-0.026l0.062,0l0.028,-0.029c0.028,0 0.082,-0.021 0.082,-0.021c0,0 -0.026,-0.101 -0.026,-0.155c0.026,-0.028 0.054,-0.08 0.054,-0.08l-0.456,-0.169l0.075,0.28Z" style="fill:#1e1c1a;fill-rule:nonzero;"/><path d="M182.498,44.614c0.132,0.838 0.513,4.172 -3.532,4.304c0,0 4.669,7.967 7.487,9.127c2.77,1.193 4.48,1.282 6.64,-0.489c0.104,-0.097 0.085,-0.064 0.153,-0.134c2.141,-1.756 2.431,-3.445 1.85,-6.405c-0.582,-2.965 -7.473,-9.144 -7.473,-9.144c-0.92,3.972 -4.316,2.932 -5.047,2.619" style="fill:#009e4c;fill-rule:nonzero;"/><path d="M181.999,47.859c0.852,-1.099 0.763,-2.518 0.659,-3.169c0.553,0.188 2,0.616 3.296,-0.048c0.824,-0.454 1.405,-1.294 1.737,-2.496c0.68,0.595 3.207,2.967 5.099,5.287c1.094,1.329 1.953,2.649 2.153,3.598c0.541,2.767 0.409,4.494 -1.8,6.275l-0.153,0.134c-2.196,1.784 -3.92,1.551 -6.497,0.478c-0.906,-0.374 -2.021,-1.518 -3.094,-2.84c-1.927,-2.313 -3.713,-5.271 -4.162,-6.04c1.233,-0.101 2.188,-0.473 2.762,-1.179m0.339,-3.217c0.085,0.575 0.238,1.975 -0.609,2.982c-0.513,0.724 -1.502,1.103 -2.763,1.115l-0.291,0.04l0.167,0.214c0.171,0.322 4.736,8.045 7.52,9.228c2.651,1.106 4.536,1.32 6.849,-0.531l0.078,-0.09l0.047,-0.045c2.313,-1.875 2.437,-3.757 1.927,-6.569c-0.598,-3.002 -7.238,-8.993 -7.53,-9.254l-0.193,-0.169l-0.063,0.249c-0.297,1.256 -0.852,2.103 -1.675,2.546c-1.255,0.64 -2.744,0.153 -3.158,0l-0.285,-0.108l-0.021,0.392Z" style="fill:#1e1c1a;fill-rule:nonzero;"/><path d="M182.422,44.438c0.221,2.877 1.315,5.757 3.311,8.2c2,2.475 4.618,4.108 7.362,4.917c-0.202,-2.866 -1.297,-5.767 -3.297,-8.197c-2.009,-2.499 -4.632,-4.132 -7.376,-4.92" style="fill:#009e4c;fill-rule:nonzero;"/><path d="M185.864,52.546c-1.877,-2.289 -3.012,-5.002 -3.235,-7.856c2.736,0.831 5.16,2.456 7.037,4.748c1.857,2.306 2.963,5.003 3.24,7.857c-2.762,-0.826 -5.185,-2.454 -7.042,-4.749m-3.595,-8.108c0.228,3.028 1.365,5.906 3.353,8.313c1.946,2.424 4.508,4.113 7.466,4.939l0.2,0.08l-0.043,-0.226c-0.2,-3.038 -1.362,-5.889 -3.329,-8.296c-1.953,-2.426 -4.537,-4.134 -7.459,-4.953l-0.209,-0.045l0.021,0.188Z" style="fill:#1e1c1a;fill-rule:nonzero;"/><path d="M197.277,63.5c0.189,0.292 0.069,0.699 -0.256,0.861c-0.292,0.184 -0.692,0.073 -0.866,-0.214c-1.668,-3.412 -4.066,-7.019 -4.066,-7.019c-0.158,-0.303 -0.061,-0.717 0.249,-0.868c0.292,-0.176 0.695,-0.085 0.873,0.247c0,0 1.885,2.445 4.066,6.993" style="fill:#1e1c1a;fill-rule:nonzero;"/><path d="M144.117,185.131c-7.05,-3.774 -11.828,-4.522 -14.875,-8.788c0,0 12.131,-9.828 17.437,-9.581c5.242,0.249 3.755,8.569 3.755,10.089c0,1.746 0.753,12.064 -6.317,8.28m-33.699,-0.456c-6.689,3.581 -5.983,-6.207 -5.983,-7.871c0,-1.423 -1.419,-9.306 3.588,-9.55c5.019,-0.243 16.482,9.054 16.482,9.054c-2.882,4.063 -7.402,4.79 -14.087,8.367m45.23,-11.746c0,-2.746 -0.444,-6.078 -2.512,-8.414c-1.415,-1.607 -3.32,-2.525 -5.591,-2.621c-6.038,-0.257 -15.859,6.734 -20.374,10.277c-4.537,-3.543 -14.358,-10.534 -20.402,-10.277c-2.259,0.096 -4.198,1.014 -5.591,2.621c-2.056,2.336 -2.506,5.668 -2.506,8.414c0,1.277 0.092,2.402 0.188,3.247l0.055,0.741l0,0.431c0,0.397 -0.022,0.882 -0.022,1.426c0,3.324 0.41,8.727 4.24,11.091c1.64,1.01 4.445,1.744 8.454,-0.381l4.822,-2.299c-0.2,6.756 -2.21,14.81 -2.21,14.81c6.461,-2.438 8.471,-18.118 12.784,-18.118c4.336,0 6.71,15.68 13.178,18.118c0,0 -2.242,-8.149 -2.512,-14.939l5.096,2.428c4.012,2.125 6.814,1.391 8.442,0.381c3.852,-2.364 4.266,-7.767 4.266,-11.091c0,-0.544 -0.033,-1.029 -0.033,-1.426l-0.014,-0.447l0.047,-0.725c0.078,-0.845 0.195,-1.97 0.195,-3.247" style="fill:#e51e25;fill-rule:nonzero;"/><path d="M23.165,148.017l1.019,2.033c0.595,1.247 1.397,2.224 2.776,1.518c1.419,-0.683 1.101,-1.885 0.499,-3.127l-1.019,-2.043l-3.275,1.619Zm3.842,-5.207l2.676,5.442c1.487,3.008 0.338,5.003 -1.457,5.888c-1.765,0.88 -4.078,0.557 -5.553,-2.415l-1.393,-2.79l-3.92,1.939l-1.308,-2.659l10.955,-5.405Z" style="fill:#009edf;fill-rule:nonzero;"/><path d="M26.087,163.354c0.997,1.513 2.494,1.24 3.663,0.463c1.205,-0.736 2.113,-1.974 1.122,-3.51c-0.983,-1.527 -2.458,-1.205 -3.656,-0.454c-1.179,0.755 -2.085,1.971 -1.129,3.501m6.336,-4.052c1.642,2.607 1.144,5.268 -1.233,6.781c-2.367,1.501 -4.972,0.824 -6.64,-1.753c-1.635,-2.562 -1.143,-5.221 1.212,-6.741c2.409,-1.499 5.014,-0.842 6.661,1.713" style="fill:#009edf;fill-rule:nonzero;"/><path d="M36.164,165.3l1.56,2.014l-1.304,0.998l0.028,0.042c1.163,-0.306 2.577,0.275 3.365,1.308c0.125,0.139 0.216,0.346 0.292,0.52l-1.781,1.367c-0.111,-0.216 -0.318,-0.56 -0.511,-0.816c-1.207,-1.548 -2.633,-1.306 -3.852,-0.374l-3.186,2.435l-1.621,-2.127l7.01,-5.367Z" style="fill:#009edf;fill-rule:nonzero;"/><path d="M46.42,187.863c-1.593,0.153 -2.873,-0.468 -3.817,-1.381c-2.969,-2.885 -2.79,-6.605 -0.31,-9.134c2.527,-2.602 6.247,-2.906 9.226,-0.021c1.985,1.913 2.755,4.826 1.072,7.021l-2.023,-1.967c0.687,-1.191 0.367,-2.475 -0.642,-3.44c-1.878,-1.843 -4.026,-1.078 -5.516,0.47c-1.419,1.457 -2.139,3.619 -0.233,5.457c1.384,1.343 2.831,1.447 4.134,0.343l-2.134,-2.061l1.386,-1.437l4.052,3.92l-4.6,4.724l-1.365,-1.303l0.77,-1.191Z" style="fill:#009edf;fill-rule:nonzero;"/><path d="M56.878,198.095l-2.016,-1.555l0.748,-0.984l-0.026,-0.026c-1.165,0.363 -2.377,0.026 -3.271,-0.651c-2.249,-1.734 -1.931,-3.318 -0.588,-5.043l3.311,-4.32l2.12,1.626l-3.061,3.963c-0.888,1.145 -0.937,2 0.047,2.76c1.129,0.898 2.091,0.691 3.185,-0.732l2.833,-3.692l2.111,1.649l-5.393,7.005Z" style="fill:#009edf;fill-rule:nonzero;"/><path d="M66.94,199.419c-0.567,0.075 -1.377,-0.398 -2.16,-0.72c-0.784,-0.33 -1.565,-0.483 -2.024,0.277c-0.484,0.753 0.057,1.363 0.777,1.819c1.793,1.085 2.645,-0.143 2.908,-0.598l0.499,-0.778Zm-4.294,-4.777c1.35,-1.845 3.602,-1.24 5.444,-0.085c1.669,1.04 3.415,2.589 2.299,4.377l-2.423,3.915c-0.431,0.673 -0.784,1.407 -0.756,1.843l-2.305,-1.417c0.061,-0.296 0.16,-0.572 0.275,-0.845c-1.127,0.236 -2.346,-0.171 -3.358,-0.788c-1.546,-0.976 -2.376,-2.463 -1.372,-4.005c1.04,-1.691 2.709,-1.221 4.198,-0.529c1.515,0.682 2.784,1.52 3.318,0.682c0.541,-0.882 -0.021,-1.411 -0.838,-1.915c-0.868,-0.55 -1.635,-0.567 -2.223,0.174l-2.259,-1.407Z" style="fill:#009edf;fill-rule:nonzero;"/><path d="M73.506,209.173c-1.144,1.03 -2.238,1.136 -3.899,0.31c-0.477,-0.251 -0.955,-0.51 -1.407,-0.795l0.908,-1.791c0.424,0.247 0.859,0.551 1.351,0.763c0.845,0.332 1.525,-0.304 1.565,-1.064l0.644,-8.957l2.556,1.27l-0.735,6.405l0.015,0.019l4.611,-4.471l2.492,1.247l-8.101,7.064Z" style="fill:#009edf;fill-rule:nonzero;"/><path d="M86.713,208.961c-0.539,0.17 -1.422,-0.148 -2.238,-0.322c-0.817,-0.155 -1.635,-0.205 -1.953,0.626c-0.339,0.849 0.313,1.325 1.136,1.654c1.946,0.744 2.556,-0.609 2.744,-1.118l0.311,-0.84Zm-5.092,-3.894c0.964,-2.075 3.306,-1.901 5.327,-1.108c1.814,0.682 3.835,1.901 3.082,3.868l-1.668,4.29c-0.292,0.75 -0.478,1.529 -0.381,1.962l-2.548,-0.979c0.032,-0.28 0.061,-0.593 0.143,-0.877c-1.08,0.451 -2.341,0.273 -3.456,-0.163c-1.702,-0.649 -2.77,-1.972 -2.125,-3.652c0.734,-1.861 2.445,-1.729 4.07,-1.303c1.603,0.379 3.008,0.981 3.368,0.049c0.374,-0.976 -0.311,-1.4 -1.198,-1.745c-0.944,-0.353 -1.682,-0.243 -2.127,0.607l-2.487,-0.949Z" style="fill:#009edf;fill-rule:nonzero;"/><path d="M95.564,214.664c1.696,0.448 2.616,-0.67 3.018,-2.063c0.346,-1.351 0.182,-2.939 -1.44,-3.393c-1.67,-0.433 -2.673,0.741 -3.047,2.125c-0.353,1.374 -0.2,2.863 1.469,3.331m3.51,5.829l-2.562,-0.704l1.094,-4.082l-0.033,-0.012c-0.833,0.753 -2.191,0.798 -3.297,0.504c-1.734,-0.471 -3.67,-2.224 -2.771,-5.509c0.644,-2.364 2.597,-4.188 5.47,-3.411c1.144,0.313 2.149,1 2.473,2.101l0.04,0l0.313,-1.094l2.431,0.687l-3.158,11.52Z" style="fill:#009edf;fill-rule:nonzero;"/><path d="M112.059,219.658l-2.506,-0.412l0.179,-1.214l-0.033,-0.012c-0.847,0.868 -2.059,1.153 -3.186,0.962c-2.797,-0.458 -3.249,-2.011 -2.903,-4.169l0.887,-5.36l2.63,0.426l-0.823,4.934c-0.228,1.423 0.118,2.214 1.336,2.426c1.447,0.23 2.156,-0.386 2.473,-2.165l0.742,-4.569l2.658,0.437l-1.454,8.716Z" style="fill:#009edf;fill-rule:nonzero;"/><path d="M118.694,209.996l-2.651,-0.232l0.185,-1.993l2.64,0.256l-0.174,1.969Zm-2.804,1.132l2.68,0.238l-0.784,8.798l-2.678,-0.236l0.782,-8.8Z" style="fill:#009edf;fill-rule:nonzero;"/><path d="M120.945,208.138l2.659,0.141l-0.574,12.186l-2.666,-0.139l0.581,-12.188Z" style="fill:#009edf;fill-rule:nonzero;"/><path d="M131.264,208.286l2.941,-0.148l0.556,12.188l-2.937,0.15l-0.56,-12.19Z" style="fill:#009edf;fill-rule:nonzero;"/><path d="M136.991,211.41l2.499,-0.302l0.174,1.217l0.057,-0.019c0.532,-1.056 1.654,-1.666 2.769,-1.814c2.805,-0.351 3.706,0.998 3.967,3.186l0.673,5.383l-2.652,0.33l-0.602,-4.951c-0.181,-1.442 -0.729,-2.101 -1.981,-1.943c-1.433,0.176 -1.967,0.986 -1.739,2.76l0.567,4.595l-2.659,0.322l-1.073,-8.764Z" style="fill:#009edf;fill-rule:nonzero;"/><path d="M153.169,210.426c-1.704,0.393 -1.981,1.866 -1.656,3.268c0.298,1.351 1.324,2.612 2.924,2.247c1.737,-0.404 1.932,-1.875 1.612,-3.289c-0.318,-1.402 -1.191,-2.619 -2.88,-2.226m3.671,5.457l-0.071,0c-0.372,1.073 -1.348,1.71 -2.569,1.995c-2.845,0.645 -4.763,-1.268 -5.318,-3.647c-0.525,-2.315 0.414,-4.786 3.186,-5.419c1.115,-0.259 2.334,-0.075 3.115,0.633l-0.005,0l0.026,-0.024l-0.99,-4.31l2.597,-0.614l2.737,11.899l-2.487,0.576l-0.221,-1.089Z" style="fill:#009edf;fill-rule:nonzero;"/><path d="M167.089,208.325c-0.638,-1.085 -1.384,-1.518 -2.626,-1.094c-1.579,0.539 -1.682,1.828 -1.482,2.499l4.108,-1.405Zm-3.624,2.859c0.577,1.416 1.589,1.821 2.986,1.353c1.033,-0.365 1.65,-1.203 1.629,-1.765l2.23,-0.758c-0.035,2.21 -1.261,3.574 -3.367,4.271c-2.901,0.998 -5.292,-0.205 -6.183,-2.807c-0.859,-2.506 0.4,-5.052 3.204,-6.014c3.125,-1.052 5.459,0.835 6.165,3.466l-6.664,2.254Z" style="fill:#009edf;fill-rule:nonzero;"/><path d="M178.648,204.522c-0.562,-1.27 -1.746,-2.327 -3.304,-1.623c-1.6,0.724 -1.524,2.251 -0.908,3.548c0.588,1.306 1.718,2.31 3.283,1.59c1.585,-0.736 1.545,-2.218 0.929,-3.515m-8.414,-1.035l2.313,-1.057l0.484,1.019l0.029,-0.007c0.186,-1.115 0.948,-1.939 2.042,-2.452c2.784,-1.263 4.979,0.191 6.033,2.483c0.984,2.141 0.595,4.743 -1.995,5.917c-1.054,0.49 -2.273,0.537 -3.214,0l-0.043,0.029l1.753,3.818l-2.416,1.116l-4.986,-10.866Z" style="fill:#009edf;fill-rule:nonzero;"/><path d="M188.309,198.158c-0.859,-0.953 -1.682,-1.223 -2.793,-0.555c-1.473,0.85 -1.28,2.127 -0.969,2.737l3.762,-2.182Zm-2.986,3.511c0.852,1.294 1.925,1.492 3.2,0.727c0.927,-0.558 1.372,-1.501 1.233,-2.056l2.042,-1.189c0.403,2.182 -0.527,3.758 -2.43,4.88c-2.652,1.544 -5.249,0.859 -6.642,-1.513c-1.342,-2.273 -0.643,-5.042 1.927,-6.531c2.858,-1.676 5.524,-0.297 6.724,2.134l-6.054,3.548Z" style="fill:#009edf;fill-rule:nonzero;"/><path d="M190.393,192.767l2.064,-1.492l0.72,0.998l0.042,-0.029c-0.021,-1.223 0.623,-2.277 1.558,-2.943c2.273,-1.68 3.705,-0.944 5.007,0.837l3.207,4.412l-2.141,1.558l-2.977,-4.031c-0.845,-1.174 -1.649,-1.489 -2.64,-0.755c-1.183,0.856 -1.245,1.812 -0.2,3.28l2.744,3.736l-2.163,1.577l-5.221,-7.148Z" style="fill:#009edf;fill-rule:nonzero;"/><path d="M204.064,184.048c-1.287,1.162 -0.817,2.571 0.132,3.663c0.955,1.026 2.444,1.64 3.67,0.544c1.301,-1.181 0.777,-2.574 -0.214,-3.664c-0.955,-1.066 -2.287,-1.703 -3.588,-0.543m5.837,2.986l-0.004,0.023c0.164,1.113 -0.377,2.172 -1.304,2.998c-2.188,1.95 -4.779,1.2 -6.407,-0.614c-1.6,-1.763 -2,-4.372 0.139,-6.273c0.845,-0.777 1.974,-1.191 3.026,-0.967l-0.026,0.025l0.04,-0.025l-2.984,-3.306l1.986,-1.786l8.193,9.061l-1.896,1.706l-0.763,-0.842Z" style="fill:#009edf;fill-rule:nonzero;"/><path d="M208.247,177.846l1.868,-1.915l6.372,6.106l-1.833,1.941l-6.407,-6.132Zm0.873,-2.864l-1.85,1.925l-1.44,-1.372l1.85,-1.934l1.44,1.381Z" style="fill:#009edf;fill-rule:nonzero;"/><path d="M218.649,171.36c-1.087,-0.6 -1.967,-0.569 -2.791,0.436c-1.082,1.317 -0.484,2.442 0.029,2.906l2.762,-3.342Zm-1.579,4.325c1.247,0.925 2.299,0.744 3.261,-0.419c0.666,-0.812 0.763,-1.87 0.459,-2.336l1.508,-1.833c1.109,1.922 0.784,3.727 -0.63,5.426c-1.953,2.355 -4.647,2.604 -6.765,0.856c-2.03,-1.694 -2.301,-4.536 -0.416,-6.816c2.134,-2.534 5.084,-2.137 7.07,-0.29l-4.487,5.412Z" style="fill:#009edf;fill-rule:nonzero;"/><path d="M218.795,165.584l1.426,-2.106l1.026,0.694l0.021,-0.057c-0.431,-1.115 -0.203,-2.343 0.456,-3.282c1.579,-2.334 3.172,-2.129 5,-0.915l4.508,3.056l-1.489,2.205l-4.148,-2.784c-1.219,-0.814 -2.071,-0.828 -2.763,0.198c-0.804,1.198 -0.534,2.115 0.949,3.122l3.837,2.598l-1.475,2.205l-7.348,-4.934Z" style="fill:#009edf;fill-rule:nonzero;"/><path d="M226.703,153.036l0.962,-1.69l1.407,0.795l-0.948,1.69l3.814,2.148c0.706,0.393 0.998,0.292 1.454,-0.485c0.125,-0.254 0.271,-0.475 0.348,-0.748l1.655,0.918c-0.153,0.435 -0.436,0.946 -0.685,1.397c-0.812,1.445 -1.81,2.525 -3.353,1.654l-4.555,-2.552l-0.798,1.409l-1.426,-0.805l0.824,-1.402l-2.313,-1.285l1.287,-2.334l2.327,1.29Z" style="fill:#009edf;fill-rule:nonzero;"/><path d="M234.321,145.462c-1.212,-0.301 -2.063,-0.045 -2.609,1.127c-0.694,1.539 0.193,2.49 0.802,2.803l1.807,-3.93Zm-0.423,4.572c1.442,0.59 2.411,0.127 3.035,-1.224c0.435,-0.971 0.278,-2.004 -0.139,-2.4l0.969,-2.115c1.586,1.546 1.725,3.36 0.789,5.374c-1.287,2.77 -3.814,3.699 -6.294,2.553c-2.424,-1.099 -3.4,-3.781 -2.174,-6.456c1.385,-3.005 4.362,-3.389 6.75,-2.087l-2.936,6.355Z" style="fill:#009edf;fill-rule:nonzero;"/></svg>