<?xml version="1.0" encoding="UTF-8" standalone="no"?><!DOCTYPE svg PUBLIC "-//W3C//DTD SVG 1.1//EN" "http://www.w3.org/Graphics/SVG/1.1/DTD/svg11.dtd"><svg viewBox="0 0 700 700" version="1.1" xmlns="http://www.w3.org/2000/svg" xmlns:xlink="http://www.w3.org/1999/xlink" xml:space="preserve" style="fill-rule:evenodd;clip-rule:evenodd;stroke-linejoin:round;stroke-miterlimit:1.41421;"><ellipse cx="350.208" cy="346.914" rx="331.49" ry="321.398" style="fill:#fff0cc;"/><path d="M351.977,26.613c-182.746,-1.184 -331.835,141.448 -332.983,318.56c-1.147,177.113 146.082,321.664 328.829,322.848c182.746,1.183 331.791,-141.449 332.938,-318.561c1.148,-177.112 -146.037,-321.663 -328.784,-322.847m-240.319,395.155l213.063,-204.219l107.68,0.998l-1.724,102.08l107.453,-100.773l-1.643,144.252l-127.881,123.025l0.762,-145.009l-84.872,81.196l-0.625,-101.816l-105.115,102.076c0,0 -107.169,-1.124 -107.098,-1.81l0,0Z" style="fill:#ff7300;fill-rule:nonzero;"/><path d="M373.595,667.523c-21.852,-18.742 -262.082,-243.91 -262.082,-243.91l108.375,0l104.108,-101.605l0,101.605l85.395,-80.856l0,144.821l126.466,-123.109l2.959,-144.671c0,0 115.666,125.604 141.743,153.916c-13.427,157.401 -144.052,282.779 -306.964,293.809Z" style="fill:#a41e20;"/><path d="M432.988,218.004l-2.87,102.915l52.834,-49.329l-49.964,-53.586Z" style="fill:#a41e20;"/><path d="M350.744,25.516l0.536,0.001l0.535,0.002l0.536,0.003l0.535,0.004l0.535,0.004l0.534,0.006l0.535,0.006l0.534,0.007l0.534,0.008l0.534,0.008l0.534,0.01l0.533,0.01l0.534,0.011l0.533,0.012l0.533,0.013l0.532,0.013l0.533,0.015l0.532,0.015l0.532,0.016l0.532,0.016l0.531,0.018l0.532,0.018l0.531,0.02l0.531,0.02l0.531,0.02l0.53,0.022l0.531,0.022l0.53,0.024l0.53,0.024l0.529,0.025l0.53,0.025l0.529,0.027l0.529,0.027l0.529,0.028l0.529,0.029l0.528,0.029l0.528,0.031l0.528,0.031l0.528,0.032l0.527,0.033l0.528,0.034l0.527,0.034l0.527,0.036l0.526,0.036l0.527,0.036l0.526,0.038l0.526,0.039l0.525,0.039l0.526,0.04l0.525,0.041l0.525,0.041l0.525,0.043l0.524,0.043l0.525,0.044l0.524,0.045l0.524,0.045l0.523,0.047l0.524,0.047l0.523,0.048l0.523,0.048l0.522,0.05l0.523,0.05l0.522,0.051l0.522,0.052l0.522,0.053l0.521,0.053l0.521,0.054l0.521,0.055l0.521,0.056l0.521,0.057l0.52,0.057l0.52,0.058l0.52,0.059l0.519,0.06l0.52,0.06l0.519,0.062l0.519,0.062l0.518,0.062l0.519,0.064l0.518,0.064l0.517,0.065l0.518,0.066l0.517,0.067l0.517,0.067l0.517,0.068l0.517,0.069l0.516,0.07l0.516,0.071l0.516,0.071l0.516,0.072l0.515,0.073l0.515,0.073l0.515,0.075l0.514,0.075l0.515,0.076l0.514,0.076l0.513,0.078l0.514,0.078l0.513,0.079l0.513,0.08l0.513,0.08l0.512,0.081l0.513,0.082l0.511,0.083l0.512,0.083l0.512,0.085l0.511,0.085l0.511,0.085l0.51,0.087l0.511,0.087l0.51,0.088l0.509,0.089l0.51,0.09l0.509,0.09l0.509,0.091l0.509,0.092l0.508,0.092l0.509,0.094l0.507,0.094l0.508,0.095l0.507,0.095l0.508,0.096l0.506,0.097l0.507,0.098l0.506,0.099l0.506,0.099l0.506,0.1l0.505,0.101l0.505,0.102l0.505,0.102l0.505,0.103l0.504,0.104l0.504,0.104l0.504,0.105l0.503,0.106l0.504,0.107l0.502,0.107l0.503,0.109l0.502,0.109l0.502,0.109l0.502,0.111l0.502,0.111l0.501,0.112l0.501,0.112l0.5,0.114l0.501,0.114l0.5,0.115l0.499,0.115l0.5,0.116l0.499,0.117l0.499,0.118l0.498,0.119l0.499,0.119l0.497,0.12l0.498,0.121l0.498,0.121l0.497,0.122l0.496,0.123l0.497,0.123l0.496,0.125l0.496,0.125l0.495,0.126l0.496,0.126l0.495,0.127l0.494,0.128l0.495,0.129l0.494,0.129l0.494,0.13l0.493,0.131l0.493,0.131l0.493,0.133l0.493,0.133l0.492,0.133l0.492,0.135l0.491,0.135l0.492,0.136l0.491,0.136l0.49,0.137l0.491,0.138l0.49,0.139l0.49,0.139l0.489,0.141l0.489,0.14l0.489,0.142l0.488,0.142l0.489,0.143l0.487,0.144l0.488,0.144l0.487,0.145l0.487,0.146l0.487,0.146l0.486,0.147l0.486,0.148l0.486,0.149l0.485,0.149l0.485,0.15l0.484,0.151l0.485,0.151l0.484,0.152l0.484,0.153l0.483,0.154l0.483,0.154l0.483,0.155l0.482,0.155l0.482,0.157l0.482,0.157l0.481,0.157l0.481,0.159l0.481,0.159l0.48,0.159l0.481,0.161l0.479,0.161l0.48,0.162l0.479,0.162l0.479,0.164l0.478,0.164l0.478,0.164l0.478,0.166l0.477,0.166l0.477,0.166l0.477,0.168l0.476,0.168l0.476,0.168l0.476,0.17l0.476,0.17l0.475,0.171l0.474,0.171l0.475,0.172l0.474,0.173l0.473,0.174l0.474,0.174l0.473,0.175l0.472,0.175l0.473,0.177l0.471,0.176l0.472,0.178l0.471,0.178l0.471,0.179l0.471,0.18l0.47,0.18l0.47,0.181l0.469,0.182l0.469,0.182l0.469,0.183l0.469,0.184l0.468,0.184l0.467,0.185l0.468,0.186l0.467,0.186l0.466,0.187l0.467,0.188l0.466,0.188l0.465,0.189l0.465,0.19l0.465,0.19l0.465,0.191l0.464,0.192l0.464,0.193l0.463,0.193l0.463,0.193l0.463,0.195l0.462,0.195l0.462,0.195l0.462,0.197l0.461,0.197l0.461,0.197l0.46,0.199l0.461,0.199l0.459,0.199l0.919,0.401l0.917,0.404l0.915,0.407l0.914,0.409l0.913,0.412l0.911,0.414l0.909,0.417l0.908,0.419l0.906,0.422l0.905,0.425l0.904,0.427l0.901,0.43l0.901,0.432l0.899,0.435l0.897,0.438l0.895,0.44l0.895,0.443l0.892,0.445l0.891,0.447l0.889,0.451l0.888,0.452l0.886,0.456l0.885,0.457l0.883,0.461l0.882,0.463l0.879,0.465l0.879,0.468l0.876,0.47l0.875,0.473l0.874,0.475l0.872,0.478l0.87,0.48l0.868,0.483l0.867,0.485l0.865,0.488l0.864,0.49l0.862,0.493l0.86,0.495l0.858,0.497l0.857,0.5l0.855,0.502l0.854,0.505l0.852,0.507l0.85,0.51l0.848,0.512l0.847,0.514l0.845,0.517l0.843,0.519l0.842,0.522l0.839,0.524l0.839,0.526l0.836,0.529l0.835,0.531l0.832,0.533l0.831,0.536l0.83,0.538l0.827,0.541l0.826,0.543l0.824,0.545l0.823,0.547l0.82,0.55l0.819,0.553l0.817,0.554l0.815,0.557l0.813,0.559l0.812,0.562l0.809,0.563l0.808,0.566l0.806,0.569l0.805,0.57l0.802,0.573l0.8,0.576l0.799,0.577l0.797,0.58l0.795,0.582l0.793,0.584l0.791,0.587l0.79,0.588l0.787,0.591l0.786,0.594l0.784,0.595l0.782,0.598l0.78,0.6l0.778,0.602l0.776,0.604l0.774,0.607l0.773,0.609l0.77,0.611l0.769,0.613l0.766,0.615l0.765,0.618l0.763,0.619l0.76,0.622l0.759,0.624l0.757,0.627l0.755,0.628l0.753,0.631l0.751,0.632l0.749,0.635l0.747,0.637l0.745,0.639l0.743,0.641l0.741,0.644l0.739,0.645l0.737,0.648l0.735,0.649l0.733,0.652l0.731,0.654l0.729,0.656l0.727,0.658l0.724,0.66l0.723,0.663l0.721,0.664l0.719,0.666l0.716,0.669l0.715,0.67l0.713,0.673l0.71,0.675l0.708,0.676l0.707,0.679l0.704,0.681l0.702,0.682l0.7,0.685l0.698,0.687l0.696,0.689l0.693,0.691l0.692,0.693l0.689,0.694l0.688,0.697l0.685,0.699l0.683,0.701l0.681,0.703l0.679,0.704l0.676,0.707l0.675,0.709l0.672,0.711l0.67,0.712l0.668,0.715l0.666,0.716l0.663,0.719l0.662,0.72l0.659,0.722l0.657,0.725l0.654,0.726l0.653,0.728l0.65,0.73l0.648,0.732l0.646,0.734l0.644,0.735l0.641,0.738l0.64,0.74l0.637,0.741l0.634,0.743l0.633,0.745l0.63,0.747l0.628,0.749l0.625,0.751l0.624,0.752l0.621,0.755l0.618,0.756l0.617,0.758l0.614,0.76l0.612,0.762l0.61,0.763l0.607,0.766l0.605,0.767l0.602,0.769l0.601,0.771l0.598,0.772l0.595,0.775l0.594,0.776l0.59,0.778l0.589,0.78l0.586,0.781l0.584,0.783l0.582,0.785l0.579,0.787l0.576,0.789l0.575,0.79l0.572,0.792l0.569,0.794l0.567,0.795l0.565,0.798l0.562,0.799l0.56,0.8l0.558,0.803l0.555,0.804l0.553,0.806l0.55,0.807l0.548,0.809l0.545,0.811l0.543,0.813l0.54,0.814l0.538,0.816l0.536,0.818l0.533,0.819l0.53,0.821l0.528,0.822l0.526,0.825l0.523,0.826l0.521,0.827l0.518,0.829l0.515,0.831l0.513,0.832l0.511,0.834l0.508,0.836l0.505,0.837l0.503,0.839l0.501,0.841l0.249,0.42l0.249,0.422l0.248,0.421l0.247,0.422l0.247,0.423l0.246,0.422l0.245,0.424l0.245,0.423l0.244,0.424l0.244,0.425l0.243,0.424l0.242,0.426l0.241,0.425l0.241,0.426l0.241,0.426l0.239,0.427l0.239,0.427l0.239,0.428l0.237,0.428l0.237,0.428l0.237,0.429l0.236,0.429l0.235,0.429l0.234,0.43l0.234,0.43l0.233,0.431l0.233,0.431l0.231,0.431l0.232,0.432l0.23,0.432l0.23,0.432l0.229,0.433l0.229,0.434l0.228,0.433l0.227,0.434l0.227,0.435l0.226,0.434l0.225,0.435l0.225,0.436l0.224,0.436l0.223,0.436l0.223,0.437l0.222,0.437l0.221,0.437l0.221,0.438l0.22,0.438l0.219,0.438l0.219,0.439l0.218,0.44l0.217,0.439l0.217,0.44l0.216,0.44l0.215,0.441l0.215,0.441l0.213,0.442l0.214,0.441l0.212,0.443l0.212,0.442l0.212,0.443l0.21,0.443l0.21,0.444l0.21,0.444l0.208,0.444l0.208,0.445l0.207,0.445l0.207,0.445l0.206,0.446l0.205,0.446l0.205,0.447l0.203,0.447l0.204,0.447l0.202,0.447l0.202,0.448l0.201,0.449l0.201,0.448l0.199,0.449l0.199,0.449l0.199,0.45l0.198,0.45l0.197,0.45l0.196,0.451l0.196,0.451l0.195,0.452l0.194,0.451l0.193,0.452l0.193,0.453l0.193,0.453l0.191,0.453l0.191,0.453l0.19,0.454l0.189,0.454l0.189,0.455l0.188,0.455l0.188,0.455l0.186,0.455l0.186,0.456l0.185,0.457l0.185,0.456l0.184,0.457l0.183,0.457l0.183,0.458l0.181,0.458l0.181,0.458l0.181,0.459l0.179,0.458l0.179,0.46l0.179,0.459l0.177,0.46l0.177,0.46l0.176,0.461l0.176,0.461l0.174,0.461l0.174,0.462l0.174,0.462l0.172,0.462l0.172,0.462l0.172,0.463l0.17,0.463l0.17,0.464l0.169,0.464l0.168,0.464l0.168,0.464l0.167,0.465l0.166,0.465l0.165,0.466l0.165,0.466l0.164,0.466l0.164,0.466l0.162,0.467l0.162,0.467l0.161,0.467l0.161,0.468l0.16,0.468l0.159,0.468l0.158,0.469l0.158,0.469l0.156,0.469l0.157,0.47l0.155,0.47l0.155,0.47l0.154,0.471l0.153,0.471l0.152,0.471l0.152,0.471l0.151,0.472l0.151,0.472l0.149,0.472l0.149,0.473l0.148,0.473l0.148,0.473l0.146,0.474l0.146,0.474l0.146,0.474l0.144,0.475l0.144,0.475l0.143,0.475l0.142,0.475l0.142,0.476l0.141,0.476l0.14,0.476l0.139,0.477l0.139,0.477l0.137,0.477l0.138,0.478l0.136,0.478l0.136,0.478l0.135,0.478l0.134,0.479l0.133,0.479l0.133,0.479l0.132,0.48l0.131,0.48l0.13,0.48l0.13,0.48l0.129,0.481l0.128,0.481l0.128,0.482l0.126,0.481l0.126,0.482l0.125,0.482l0.125,0.483l0.124,0.483l0.123,0.483l0.122,0.483l0.121,0.484l0.121,0.484l0.12,0.484l0.119,0.485l0.118,0.484l0.118,0.485l0.117,0.486l0.116,0.485l0.116,0.486l0.114,0.486l0.114,0.487l0.113,0.487l0.113,0.487l0.111,0.487l0.111,0.488l0.11,0.487l0.109,0.489l0.109,0.488l0.108,0.489l0.107,0.489l0.106,0.489l0.106,0.489l0.104,0.49l0.104,0.49l0.103,0.491l0.103,0.49l0.101,0.491l0.101,0.491l0.1,0.491l0.1,0.492l0.098,0.492l0.098,0.492l0.097,0.493l0.096,0.492l0.096,0.493l0.094,0.494l0.094,0.493l0.094,0.494l0.092,0.494l0.091,0.494l0.091,0.495l0.09,0.494l0.09,0.496l0.088,0.495l0.088,0.495l0.087,0.496l0.086,0.496l0.085,0.497l0.085,0.496l0.083,0.497l0.083,0.497l0.083,0.498l0.081,0.497l0.081,0.498l0.079,0.498l0.079,0.499l0.079,0.498l0.077,0.499l0.077,0.499l0.076,0.5l0.075,0.499l0.074,0.5l0.074,0.5l0.072,0.501l0.072,0.5l0.071,0.501l0.071,0.501l0.069,0.502l0.069,0.501l0.068,0.502l0.067,0.502l0.067,0.502l0.065,0.503l0.065,0.503l0.064,0.503l0.063,0.503l0.062,0.503l0.062,0.504l0.061,0.504l0.06,0.504l0.059,0.505l0.058,0.505l0.058,0.504l0.056,0.506l0.056,0.505l0.055,0.506l0.055,0.505l0.053,0.507l0.053,0.506l0.052,0.506l0.051,0.507l0.05,0.507l0.049,0.507l0.049,0.508l0.048,0.508l0.047,0.507l0.046,0.509l0.045,0.508l0.045,0.508l0.044,0.509l0.043,0.509l0.042,0.51l0.041,0.509l0.041,0.51l0.039,0.51l0.039,0.51l0.038,0.51l0.037,0.511l0.037,0.51l0.035,0.511l0.035,0.512l0.034,0.511l0.033,0.512l0.032,0.512l0.032,0.512l0.03,0.512l0.03,0.513l0.029,0.512l0.028,0.513l0.027,0.513l0.027,0.514l0.025,0.513l0.025,0.514l0.024,0.514l0.023,0.514l0.022,0.515l0.022,0.514l0.021,0.515l0.019,0.515l0.019,0.515l0.018,0.516l0.018,0.515l0.016,0.516l0.016,0.516l0.015,0.517l0.014,0.516l0.013,0.517l0.012,0.517l0.011,0.517l0.011,0.517l0.01,0.517l0.009,0.518l0.008,0.518l0.007,0.518l0.006,0.518l0.006,0.518l0.004,0.519l0.004,0.519l0.003,0.519l0.002,0.519l0.001,0.519l0.001,0.52l-0.001,0.52l-0.001,0.519l-0.002,0.519l-0.003,0.519l-0.004,0.519l-0.004,0.519l-0.006,0.518l-0.006,0.518l-0.007,0.518l-0.008,0.518l-0.009,0.518l-0.01,0.517l-0.011,0.518l-0.011,0.517l-0.012,0.516l-0.013,0.517l-0.014,0.517l-0.015,0.516l-0.016,0.516l-0.016,0.516l-0.018,0.515l-0.018,0.516l-0.019,0.515l-0.019,0.515l-0.021,0.515l-0.022,0.514l-0.022,0.515l-0.023,0.514l-0.024,0.514l-0.025,0.514l-0.025,0.513l-0.027,0.514l-0.027,0.513l-0.028,0.513l-0.029,0.513l-0.03,0.512l-0.03,0.512l-0.032,0.512l-0.032,0.512l-0.033,0.512l-0.034,0.511l-0.035,0.512l-0.035,0.511l-0.037,0.51l-0.037,0.511l-0.038,0.51l-0.039,0.51l-0.039,0.51l-0.041,0.51l-0.041,0.51l-0.042,0.509l-0.043,0.509l-0.044,0.509l-0.045,0.508l-0.045,0.509l-0.046,0.508l-0.047,0.508l-0.048,0.507l-0.049,0.508l-0.049,0.507l-0.05,0.507l-0.051,0.507l-0.052,0.506l-0.053,0.507l-0.053,0.506l-0.055,0.506l-0.055,0.505l-0.056,0.506l-0.056,0.505l-0.058,0.505l-0.058,0.504l-0.059,0.505l-0.06,0.504l-0.061,0.504l-0.062,0.504l-0.062,0.503l-0.063,0.503l-0.064,0.503l-0.065,0.503l-0.065,0.503l-0.067,0.502l-0.067,0.502l-0.068,0.502l-0.069,0.502l-0.069,0.501l-0.071,0.501l-0.071,0.501l-0.072,0.5l-0.072,0.501l-0.074,0.5l-0.074,0.5l-0.075,0.499l-0.076,0.5l-0.077,0.499l-0.077,0.499l-0.079,0.498l-0.079,0.499l-0.079,0.498l-0.081,0.498l-0.081,0.497l-0.083,0.498l-0.083,0.497l-0.083,0.497l-0.085,0.496l-0.085,0.497l-0.086,0.496l-0.087,0.496l-0.088,0.495l-0.088,0.496l-0.09,0.495l-0.09,0.494l-0.091,0.495l-0.091,0.494l-0.092,0.494l-0.094,0.494l-0.094,0.494l-0.094,0.493l-0.096,0.493l-0.096,0.493l-0.097,0.492l-0.098,0.492l-0.098,0.492l-0.1,0.492l-0.1,0.491l-0.101,0.491l-0.101,0.491l-0.103,0.491l-0.103,0.49l-0.104,0.49l-0.104,0.49l-0.106,0.489l-0.106,0.489l-0.107,0.489l-0.108,0.489l-0.109,0.489l-0.109,0.488l-0.11,0.488l-0.111,0.487l-0.111,0.487l-0.113,0.487l-0.113,0.487l-0.114,0.487l-0.114,0.486l-0.116,0.486l-0.116,0.485l-0.117,0.486l-0.118,0.485l-0.118,0.485l-0.119,0.484l-0.12,0.484l-0.121,0.484l-0.121,0.484l-0.122,0.483l-0.123,0.483l-0.124,0.483l-0.125,0.483l-0.125,0.482l-0.126,0.482l-0.126,0.482l-0.128,0.481l-0.128,0.481l-0.129,0.481l-0.13,0.48l-0.13,0.48l-0.131,0.48l-0.132,0.48l-0.133,0.479l-0.133,0.479l-0.134,0.479l-0.135,0.478l-0.136,0.479l-0.136,0.477l-0.138,0.478l-0.137,0.477l-0.139,0.477l-0.139,0.477l-0.14,0.476l-0.141,0.476l-0.142,0.476l-0.142,0.475l-0.143,0.476l-0.144,0.474l-0.144,0.475l-0.146,0.474l-0.146,0.474l-0.146,0.474l-0.148,0.473l-0.148,0.473l-0.149,0.473l-0.149,0.472l-0.151,0.472l-0.151,0.472l-0.152,0.471l-0.152,0.472l-0.153,0.47l-0.154,0.471l-0.155,0.47l-0.155,0.47l-0.157,0.47l-0.156,0.469l-0.158,0.469l-0.158,0.469l-0.159,0.468l-0.16,0.468l-0.161,0.468l-0.161,0.467l-0.162,0.467l-0.162,0.467l-0.164,0.466l-0.164,0.466l-0.165,0.466l-0.165,0.466l-0.166,0.465l-0.167,0.465l-0.168,0.464l-0.168,0.464l-0.169,0.464l-0.17,0.464l-0.17,0.463l-0.172,0.463l-0.172,0.462l-0.172,0.463l-0.174,0.461l-0.174,0.462l-0.174,0.461l-0.176,0.461l-0.176,0.461l-0.177,0.46l-0.177,0.46l-0.179,0.459l-0.179,0.46l-0.179,0.459l-0.181,0.458l-0.181,0.458l-0.181,0.458l-0.183,0.458l-0.183,0.457l-0.184,0.457l-0.185,0.457l-0.185,0.456l-0.186,0.456l-0.186,0.455l-0.188,0.455l-0.188,0.455l-0.189,0.455l-0.189,0.454l-0.19,0.454l-0.191,0.453l-0.191,0.453l-0.193,0.453l-0.193,0.453l-0.193,0.452l-0.194,0.452l-0.195,0.451l-0.196,0.451l-0.196,0.451l-0.197,0.45l-0.198,0.45l-0.199,0.45l-0.199,0.449l-0.199,0.449l-0.201,0.449l-0.201,0.448l-0.202,0.448l-0.202,0.447l-0.204,0.448l-0.203,0.446l-0.205,0.447l-0.205,0.446l-0.206,0.446l-0.207,0.445l-0.207,0.445l-0.208,0.445l-0.208,0.444l-0.21,0.444l-0.21,0.444l-0.21,0.443l-0.212,0.443l-0.212,0.442l-0.212,0.443l-0.214,0.441l-0.213,0.442l-0.215,0.441l-0.215,0.441l-0.216,0.44l-0.217,0.44l-0.217,0.44l-0.218,0.439l-0.219,0.439l-0.219,0.438l-0.22,0.438l-0.221,0.438l-0.221,0.437l-0.222,0.437l-0.223,0.437l-0.223,0.436l-0.224,0.436l-0.225,0.436l-0.225,0.435l-0.226,0.435l-0.227,0.434l-0.227,0.434l-0.228,0.434l-0.229,0.433l-0.229,0.433l-0.23,0.432l-0.23,0.432l-0.232,0.432l-0.231,0.431l-0.233,0.431l-0.233,0.431l-0.234,0.43l-0.234,0.43l-0.235,0.429l-0.236,0.43l-0.237,0.428l-0.237,0.428l-0.237,0.428l-0.239,0.428l-0.239,0.427l-0.239,0.427l-0.241,0.426l-0.241,0.426l-0.241,0.426l-0.242,0.425l-0.243,0.425l-0.244,0.424l-0.244,0.424l-0.245,0.423l-0.245,0.424l-0.246,0.422l-0.247,0.423l-0.247,0.422l-0.248,0.422l-0.249,0.421l-0.249,0.421l-0.501,0.84l-0.503,0.839l-0.505,0.837l-0.508,0.836l-0.511,0.834l-0.513,0.832l-0.515,0.831l-0.518,0.829l-0.521,0.828l-0.523,0.825l-0.526,0.825l-0.528,0.822l-0.53,0.821l-0.533,0.819l-0.536,0.818l-0.538,0.816l-0.54,0.814l-0.543,0.813l-0.545,0.811l-0.548,0.809l-0.55,0.807l-0.553,0.806l-0.555,0.804l-0.558,0.803l-0.56,0.8l-0.562,0.799l-0.565,0.798l-0.567,0.795l-0.569,0.794l-0.572,0.792l-0.575,0.79l-0.576,0.789l-0.579,0.787l-0.582,0.785l-0.584,0.783l-0.586,0.782l-0.589,0.779l-0.59,0.778l-0.594,0.776l-0.595,0.775l-0.598,0.772l-0.601,0.771l-0.602,0.769l-0.605,0.767l-0.607,0.766l-0.61,0.763l-0.612,0.762l-0.614,0.76l-0.617,0.758l-0.618,0.756l-0.621,0.755l-0.624,0.752l-0.625,0.751l-0.628,0.749l-0.63,0.747l-0.633,0.745l-0.634,0.743l-0.637,0.742l-0.64,0.739l-0.641,0.738l-0.644,0.735l-0.646,0.734l-0.648,0.732l-0.65,0.73l-0.653,0.728l-0.654,0.726l-0.657,0.725l-0.659,0.722l-0.662,0.72l-0.663,0.719l-0.666,0.716l-0.668,0.715l-0.67,0.713l-0.672,0.71l-0.675,0.709l-0.676,0.707l-0.679,0.704l-0.681,0.703l-0.683,0.701l-0.685,0.699l-0.688,0.697l-0.689,0.695l-0.692,0.692l-0.693,0.691l-0.696,0.689l-0.698,0.687l-0.7,0.685l-0.702,0.683l-0.704,0.68l-0.707,0.679l-0.708,0.677l-0.71,0.674l-0.713,0.673l-0.715,0.67l-0.716,0.669l-0.719,0.666l-0.721,0.665l-0.723,0.662l-0.724,0.66l-0.727,0.658l-0.729,0.656l-0.731,0.654l-0.733,0.652l-0.735,0.649l-0.737,0.648l-0.739,0.645l-0.741,0.644l-0.743,0.641l-0.745,0.639l-0.747,0.637l-0.749,0.635l-0.751,0.633l-0.753,0.63l-0.755,0.629l-0.757,0.626l-0.759,0.624l-0.76,0.622l-0.763,0.619l-0.765,0.618l-0.766,0.615l-0.769,0.614l-0.77,0.61l-0.773,0.609l-0.774,0.607l-0.776,0.604l-0.778,0.602l-0.78,0.6l-0.782,0.598l-0.784,0.595l-0.786,0.594l-0.787,0.591l-0.79,0.589l-0.791,0.586l-0.793,0.584l-0.795,0.582l-0.797,0.58l-0.799,0.578l-0.8,0.575l-0.802,0.573l-0.805,0.57l-0.806,0.569l-0.808,0.566l-0.809,0.564l-0.812,0.561l-0.813,0.559l-0.815,0.557l-0.817,0.555l-0.819,0.552l-0.82,0.55l-0.823,0.547l-0.824,0.545l-0.826,0.543l-0.827,0.541l-0.83,0.538l-0.831,0.536l-0.832,0.533l-0.835,0.531l-0.836,0.529l-0.839,0.527l-0.839,0.523l-0.842,0.522l-0.843,0.519l-0.845,0.517l-0.847,0.514l-0.848,0.512l-0.85,0.51l-0.852,0.507l-0.854,0.505l-0.855,0.502l-0.857,0.5l-0.858,0.498l-0.86,0.495l-0.862,0.492l-0.864,0.49l-0.865,0.488l-0.867,0.485l-0.868,0.483l-0.87,0.48l-0.872,0.478l-0.874,0.475l-0.875,0.473l-0.876,0.47l-0.879,0.468l-0.879,0.466l-0.882,0.462l-0.883,0.461l-0.885,0.457l-0.886,0.456l-0.888,0.453l-0.889,0.45l-0.891,0.447l-0.892,0.446l-0.895,0.442l-0.895,0.44l-0.897,0.438l-0.899,0.435l-0.901,0.432l-0.901,0.43l-0.904,0.427l-0.905,0.425l-0.906,0.422l-0.908,0.419l-0.909,0.417l-0.911,0.415l-0.913,0.411l-0.914,0.409l-0.915,0.407l-0.917,0.404l-0.919,0.401l-0.459,0.2l-0.461,0.199l-0.46,0.198l-0.461,0.198l-0.461,0.197l-0.462,0.196l-0.462,0.196l-0.462,0.195l-0.463,0.194l-0.463,0.194l-0.463,0.193l-0.464,0.192l-0.464,0.192l-0.465,0.191l-0.465,0.19l-0.465,0.19l-0.465,0.189l-0.466,0.188l-0.467,0.188l-0.466,0.187l-0.467,0.186l-0.468,0.186l-0.467,0.185l-0.468,0.184l-0.469,0.184l-0.469,0.183l-0.469,0.182l-0.469,0.182l-0.47,0.181l-0.47,0.18l-0.471,0.18l-0.471,0.179l-0.471,0.178l-0.472,0.178l-0.471,0.177l-0.473,0.176l-0.472,0.175l-0.473,0.175l-0.474,0.174l-0.473,0.174l-0.474,0.173l-0.475,0.172l-0.474,0.171l-0.475,0.171l-0.476,0.17l-0.476,0.17l-0.476,0.169l-0.476,0.168l-0.477,0.167l-0.477,0.167l-0.477,0.166l-0.478,0.165l-0.478,0.165l-0.478,0.163l-0.479,0.164l-0.479,0.162l-0.48,0.162l-0.479,0.161l-0.481,0.161l-0.48,0.159l-0.481,0.159l-0.481,0.159l-0.481,0.158l-0.482,0.157l-0.482,0.156l-0.482,0.155l-0.483,0.155l-0.483,0.154l-0.483,0.154l-0.484,0.153l-0.484,0.152l-0.485,0.151l-0.484,0.151l-0.485,0.15l-0.485,0.149l-0.486,0.149l-0.486,0.148l-0.486,0.147l-0.487,0.146l-0.487,0.146l-0.487,0.145l-0.488,0.145l-0.487,0.143l-0.489,0.143l-0.488,0.142l-0.489,0.142l-0.489,0.141l-0.489,0.14l-0.49,0.139l-0.49,0.139l-0.491,0.138l-0.49,0.137l-0.491,0.137l-0.492,0.135l-0.491,0.135l-0.492,0.135l-0.492,0.133l-0.493,0.133l-0.493,0.133l-0.493,0.131l-0.493,0.131l-0.494,0.13l-0.494,0.129l-0.495,0.129l-0.494,0.128l-0.495,0.127l-0.496,0.127l-0.495,0.125l-0.496,0.125l-0.496,0.125l-0.497,0.123l-0.496,0.123l-0.497,0.122l-0.498,0.122l-0.498,0.12l-0.497,0.12l-0.499,0.119l-0.498,0.119l-0.499,0.118l-0.499,0.117l-0.5,0.116l-0.499,0.116l-0.5,0.114l-0.501,0.114l-0.5,0.114l-0.501,0.112l-0.501,0.112l-0.502,0.111l-0.502,0.111l-0.502,0.11l-0.502,0.108l-0.503,0.109l-0.502,0.107l-0.504,0.107l-0.503,0.106l-0.504,0.105l-0.504,0.105l-0.504,0.103l-0.505,0.103l-0.505,0.103l-0.505,0.101l-0.505,0.101l-0.506,0.1l-0.506,0.099l-0.506,0.099l-0.507,0.098l-0.506,0.097l-0.508,0.096l-0.507,0.096l-0.508,0.094l-0.507,0.094l-0.509,0.094l-0.508,0.092l-0.509,0.092l-0.509,0.091l-0.509,0.09l-0.51,0.09l-0.509,0.089l-0.51,0.088l-0.511,0.087l-0.51,0.087l-0.511,0.085l-0.511,0.085l-0.512,0.085l-0.512,0.083l-0.511,0.083l-0.513,0.082l-0.512,0.081l-0.513,0.081l-0.513,0.079l-0.513,0.079l-0.514,0.078l-0.513,0.078l-0.514,0.076l-0.515,0.076l-0.514,0.075l-0.515,0.075l-0.515,0.073l-0.515,0.073l-0.516,0.072l-0.516,0.071l-0.516,0.071l-0.516,0.07l-0.517,0.069l-0.517,0.068l-0.517,0.067l-0.517,0.067l-0.518,0.066l-0.517,0.065l-0.518,0.064l-0.519,0.064l-0.518,0.063l-0.519,0.062l-0.519,0.061l-0.52,0.06l-0.519,0.06l-0.52,0.059l-0.52,0.058l-0.52,0.057l-0.521,0.057l-0.521,0.056l-0.521,0.055l-0.521,0.054l-0.521,0.053l-0.522,0.053l-0.522,0.052l-0.522,0.051l-0.523,0.05l-0.522,0.05l-0.523,0.048l-0.523,0.048l-0.524,0.048l-0.523,0.046l-0.524,0.045l-0.524,0.045l-0.525,0.044l-0.524,0.043l-0.525,0.043l-0.525,0.041l-0.525,0.041l-0.526,0.04l-0.525,0.04l-0.526,0.038l-0.526,0.038l-0.527,0.037l-0.526,0.036l-0.527,0.035l-0.527,0.034l-0.528,0.034l-0.527,0.033l-0.528,0.032l-0.528,0.031l-0.528,0.031l-0.528,0.029l-0.529,0.029l-0.529,0.028l-0.529,0.028l-0.529,0.026l-0.53,0.026l-0.529,0.024l-0.53,0.024l-0.53,0.024l-0.531,0.022l-0.53,0.022l-0.531,0.021l-0.531,0.02l-0.531,0.019l-0.532,0.018l-0.531,0.018l-0.532,0.017l-0.532,0.015l-0.532,0.016l-0.533,0.014l-0.532,0.013l-0.533,0.013l-0.533,0.012l-0.534,0.011l-0.533,0.01l-0.534,0.01l-0.534,0.008l-0.534,0.008l-0.534,0.007l-0.535,0.006l-0.534,0.006l-0.535,0.004l-0.535,0.004l-0.536,0.003l-0.535,0.002l-0.536,0.001l-0.536,0l-0.536,0l-0.535,-0.001l-0.536,-0.002l-0.535,-0.003l-0.535,-0.004l-0.535,-0.004l-0.535,-0.006l-0.534,-0.006l-0.535,-0.007l-0.534,-0.008l-0.534,-0.008l-0.533,-0.01l-0.534,-0.01l-0.533,-0.011l-0.533,-0.012l-0.533,-0.013l-0.533,-0.013l-0.532,-0.014l-0.532,-0.016l-0.532,-0.015l-0.532,-0.017l-0.532,-0.018l-0.531,-0.018l-0.531,-0.019l-0.531,-0.02l-0.531,-0.021l-0.531,-0.022l-0.53,-0.022l-0.53,-0.024l-0.53,-0.024l-0.53,-0.024l-0.529,-0.026l-0.53,-0.026l-0.529,-0.028l-0.528,-0.028l-0.529,-0.029l-0.528,-0.029l-0.529,-0.031l-0.528,-0.031l-0.527,-0.032l-0.528,-0.033l-0.527,-0.034l-0.527,-0.034l-0.527,-0.035l-0.527,-0.036l-0.526,-0.037l-0.526,-0.038l-0.526,-0.038l-0.526,-0.04l-0.525,-0.04l-0.525,-0.041l-0.525,-0.041l-0.525,-0.043l-0.525,-0.043l-0.524,-0.044l-0.524,-0.045l-0.524,-0.045l-0.524,-0.046l-0.523,-0.048l-0.523,-0.048l-0.523,-0.048l-0.523,-0.05l-0.522,-0.05l-0.522,-0.051l-0.522,-0.052l-0.522,-0.053l-0.522,-0.053l-0.521,-0.054l-0.521,-0.055l-0.521,-0.056l-0.52,-0.057l-0.52,-0.057l-0.52,-0.058l-0.52,-0.059l-0.52,-0.06l-0.519,-0.06l-0.519,-0.061l-0.519,-0.062l-0.519,-0.063l-0.518,-0.064l-0.518,-0.064l-0.518,-0.065l-0.517,-0.066l-0.518,-0.067l-0.517,-0.067l-0.517,-0.068l-0.516,-0.069l-0.517,-0.07l-0.516,-0.071l-0.515,-0.071l-0.516,-0.072l-0.515,-0.073l-0.515,-0.073l-0.515,-0.075l-0.515,-0.075l-0.514,-0.076l-0.514,-0.076l-0.514,-0.078l-0.513,-0.078l-0.513,-0.079l-0.513,-0.079l-0.513,-0.081l-0.513,-0.081l-0.512,-0.082l-0.512,-0.083l-0.511,-0.083l-0.512,-0.085l-0.511,-0.085l-0.511,-0.085l-0.511,-0.087l-0.51,-0.087l-0.51,-0.088l-0.51,-0.089l-0.509,-0.09l-0.51,-0.09l-0.509,-0.091l-0.508,-0.092l-0.509,-0.092l-0.508,-0.094l-0.508,-0.094l-0.507,-0.094l-0.508,-0.096l-0.507,-0.096l-0.507,-0.097l-0.506,-0.098l-0.507,-0.099l-0.505,-0.099l-0.506,-0.1l-0.506,-0.101l-0.505,-0.101l-0.505,-0.103l-0.504,-0.103l-0.505,-0.103l-0.504,-0.105l-0.503,-0.105l-0.504,-0.106l-0.503,-0.107l-0.503,-0.107l-0.502,-0.109l-0.503,-0.108l-0.502,-0.11l-0.502,-0.111l-0.501,-0.111l-0.501,-0.112l-0.501,-0.112l-0.501,-0.114l-0.5,-0.114l-0.5,-0.114l-0.5,-0.116l-0.499,-0.116l-0.499,-0.117l-0.499,-0.118l-0.499,-0.119l-0.498,-0.119l-0.498,-0.12l-0.497,-0.12l-0.498,-0.122l-0.497,-0.122l-0.497,-0.123l-0.496,-0.123l-0.496,-0.125l-0.496,-0.125l-0.496,-0.125l-0.495,-0.127l-0.495,-0.127l-0.495,-0.128l-0.494,-0.129l-0.494,-0.129l-0.494,-0.13l-0.493,-0.131l-0.494,-0.131l-0.492,-0.133l-0.493,-0.133l-0.492,-0.133l-0.492,-0.135l-0.492,-0.135l-0.491,-0.135l-0.491,-0.137l-0.491,-0.137l-0.49,-0.138l-0.49,-0.139l-0.49,-0.139l-0.489,-0.14l-0.489,-0.141l-0.489,-0.142l-0.489,-0.142l-0.488,-0.143l-0.488,-0.143l-0.487,-0.145l-0.488,-0.145l-0.486,-0.146l-0.487,-0.146l-0.486,-0.147l-0.486,-0.148l-0.486,-0.149l-0.485,-0.149l-0.485,-0.15l-0.485,-0.151l-0.484,-0.151l-0.484,-0.152l-0.484,-0.153l-0.483,-0.154l-0.483,-0.154l-0.483,-0.155l-0.482,-0.155l-0.482,-0.156l-0.482,-0.157l-0.482,-0.158l-0.481,-0.159l-0.48,-0.159l-0.481,-0.159l-0.48,-0.161l-0.48,-0.161l-0.479,-0.162l-0.479,-0.162l-0.479,-0.164l-0.478,-0.163l-0.478,-0.165l-0.478,-0.165l-0.478,-0.166l-0.477,-0.167l-0.476,-0.167l-0.477,-0.168l-0.476,-0.169l-0.476,-0.17l-0.475,-0.17l-0.475,-0.171l-0.475,-0.171l-0.474,-0.172l-0.474,-0.173l-0.474,-0.174l-0.473,-0.174l-0.473,-0.175l-0.473,-0.175l-0.472,-0.176l-0.472,-0.177l-0.471,-0.178l-0.472,-0.178l-0.47,-0.179l-0.471,-0.18l-0.47,-0.18l-0.47,-0.181l-0.47,-0.182l-0.469,-0.182l-0.468,-0.183l-0.469,-0.184l-0.468,-0.184l-0.468,-0.185l-0.467,-0.186l-0.467,-0.186l-0.467,-0.187l-0.466,-0.188l-0.466,-0.188l-0.466,-0.189l-0.465,-0.19l-0.465,-0.19l-0.464,-0.191l-0.464,-0.192l-0.464,-0.192l-0.464,-0.193l-0.463,-0.194l-0.462,-0.194l-0.463,-0.195l-0.462,-0.196l-0.461,-0.196l-0.461,-0.197l-0.461,-0.198l-0.461,-0.198l-0.46,-0.199l-0.46,-0.2l-0.918,-0.401l-0.917,-0.404l-0.915,-0.407l-0.914,-0.409l-0.913,-0.411l-0.911,-0.415l-0.909,-0.417l-0.908,-0.419l-0.907,-0.422l-0.905,-0.425l-0.903,-0.427l-0.902,-0.43l-0.9,-0.432l-0.899,-0.435l-0.897,-0.438l-0.896,-0.44l-0.894,-0.442l-0.892,-0.446l-0.891,-0.447l-0.89,-0.45l-0.888,-0.453l-0.886,-0.456l-0.884,-0.457l-0.884,-0.461l-0.881,-0.462l-0.88,-0.466l-0.878,-0.468l-0.877,-0.47l-0.875,-0.473l-0.873,-0.475l-0.872,-0.478l-0.87,-0.48l-0.868,-0.483l-0.867,-0.485l-0.865,-0.488l-0.864,-0.49l-0.862,-0.492l-0.86,-0.495l-0.859,-0.498l-0.856,-0.5l-0.856,-0.502l-0.853,-0.505l-0.852,-0.507l-0.85,-0.51l-0.848,-0.512l-0.847,-0.514l-0.845,-0.517l-0.843,-0.519l-0.842,-0.522l-0.84,-0.523l-0.838,-0.527l-0.836,-0.529l-0.835,-0.531l-0.833,-0.533l-0.831,-0.536l-0.829,-0.538l-0.828,-0.541l-0.826,-0.543l-0.824,-0.545l-0.822,-0.547l-0.82,-0.55l-0.819,-0.552l-0.817,-0.555l-0.815,-0.557l-0.814,-0.559l-0.811,-0.561l-0.81,-0.564l-0.808,-0.566l-0.806,-0.569l-0.804,-0.57l-0.802,-0.573l-0.801,-0.575l-0.799,-0.578l-0.796,-0.58l-0.795,-0.582l-0.794,-0.584l-0.791,-0.586l-0.789,-0.589l-0.788,-0.591l-0.785,-0.594l-0.784,-0.595l-0.782,-0.598l-0.78,-0.6l-0.778,-0.602l-0.776,-0.604l-0.775,-0.607l-0.772,-0.609l-0.77,-0.61l-0.769,-0.614l-0.767,-0.615l-0.764,-0.618l-0.763,-0.619l-0.761,-0.622l-0.758,-0.624l-0.757,-0.626l-0.755,-0.629l-0.753,-0.63l-0.751,-0.633l-0.749,-0.635l-0.747,-0.637l-0.745,-0.639l-0.743,-0.641l-0.741,-0.644l-0.739,-0.645l-0.737,-0.648l-0.735,-0.649l-0.733,-0.652l-0.731,-0.654l-0.729,-0.656l-0.727,-0.658l-0.725,-0.66l-0.723,-0.662l-0.72,-0.665l-0.719,-0.666l-0.717,-0.669l-0.714,-0.67l-0.713,-0.673l-0.71,-0.674l-0.709,-0.677l-0.706,-0.679l-0.704,-0.68l-0.702,-0.683l-0.7,-0.685l-0.698,-0.687l-0.696,-0.689l-0.694,-0.691l-0.691,-0.692l-0.69,-0.695l-0.687,-0.697l-0.685,-0.699l-0.683,-0.701l-0.681,-0.703l-0.679,-0.704l-0.677,-0.707l-0.674,-0.709l-0.672,-0.71l-0.67,-0.713l-0.668,-0.715l-0.666,-0.716l-0.664,-0.719l-0.661,-0.72l-0.659,-0.722l-0.657,-0.725l-0.655,-0.726l-0.652,-0.728l-0.651,-0.73l-0.648,-0.732l-0.646,-0.734l-0.643,-0.735l-0.642,-0.738l-0.639,-0.739l-0.637,-0.742l-0.635,-0.743l-0.632,-0.745l-0.63,-0.747l-0.628,-0.749l-0.626,-0.751l-0.623,-0.752l-0.621,-0.755l-0.619,-0.756l-0.616,-0.758l-0.614,-0.76l-0.612,-0.762l-0.61,-0.763l-0.607,-0.766l-0.605,-0.767l-0.603,-0.769l-0.6,-0.771l-0.598,-0.772l-0.596,-0.775l-0.593,-0.776l-0.591,-0.778l-0.588,-0.779l-0.587,-0.782l-0.583,-0.783l-0.582,-0.785l-0.579,-0.787l-0.577,-0.789l-0.574,-0.79l-0.572,-0.792l-0.57,-0.794l-0.567,-0.795l-0.564,-0.798l-0.563,-0.799l-0.56,-0.8l-0.557,-0.803l-0.555,-0.804l-0.553,-0.806l-0.55,-0.807l-0.548,-0.809l-0.545,-0.811l-0.543,-0.813l-0.541,-0.814l-0.538,-0.816l-0.535,-0.818l-0.533,-0.819l-0.531,-0.821l-0.528,-0.822l-0.525,-0.825l-0.523,-0.825l-0.521,-0.828l-0.518,-0.829l-0.516,-0.831l-0.513,-0.832l-0.51,-0.834l-0.508,-0.836l-0.506,-0.837l-0.503,-0.839l-0.5,-0.84l-0.249,-0.421l-0.249,-0.421l-0.248,-0.422l-0.247,-0.422l-0.247,-0.423l-0.246,-0.422l-0.246,-0.424l-0.244,-0.423l-0.244,-0.424l-0.244,-0.424l-0.243,-0.425l-0.242,-0.425l-0.242,-0.426l-0.241,-0.426l-0.24,-0.426l-0.24,-0.427l-0.239,-0.427l-0.238,-0.428l-0.238,-0.428l-0.237,-0.428l-0.236,-0.428l-0.236,-0.43l-0.235,-0.429l-0.234,-0.43l-0.234,-0.43l-0.233,-0.431l-0.233,-0.431l-0.232,-0.431l-0.231,-0.432l-0.231,-0.432l-0.229,-0.432l-0.23,-0.433l-0.228,-0.433l-0.228,-0.434l-0.227,-0.434l-0.227,-0.434l-0.226,-0.435l-0.225,-0.435l-0.225,-0.436l-0.224,-0.436l-0.223,-0.436l-0.223,-0.437l-0.222,-0.437l-0.221,-0.437l-0.221,-0.438l-0.22,-0.438l-0.219,-0.438l-0.219,-0.439l-0.218,-0.439l-0.217,-0.44l-0.217,-0.44l-0.216,-0.44l-0.215,-0.441l-0.215,-0.441l-0.214,-0.442l-0.213,-0.441l-0.213,-0.443l-0.212,-0.442l-0.211,-0.443l-0.211,-0.443l-0.21,-0.444l-0.209,-0.444l-0.209,-0.444l-0.207,-0.445l-0.208,-0.445l-0.206,-0.445l-0.206,-0.446l-0.205,-0.446l-0.205,-0.447l-0.204,-0.446l-0.203,-0.448l-0.203,-0.447l-0.201,-0.448l-0.201,-0.448l-0.201,-0.449l-0.2,-0.449l-0.199,-0.449l-0.198,-0.45l-0.198,-0.45l-0.197,-0.45l-0.196,-0.451l-0.196,-0.451l-0.195,-0.451l-0.194,-0.452l-0.194,-0.452l-0.193,-0.453l-0.192,-0.453l-0.191,-0.453l-0.191,-0.453l-0.19,-0.454l-0.19,-0.454l-0.189,-0.455l-0.188,-0.455l-0.187,-0.455l-0.187,-0.455l-0.186,-0.456l-0.185,-0.456l-0.184,-0.457l-0.184,-0.457l-0.183,-0.457l-0.183,-0.458l-0.182,-0.458l-0.181,-0.458l-0.18,-0.458l-0.18,-0.459l-0.179,-0.46l-0.178,-0.459l-0.178,-0.46l-0.176,-0.46l-0.177,-0.461l-0.175,-0.461l-0.175,-0.461l-0.174,-0.462l-0.173,-0.461l-0.173,-0.463l-0.172,-0.462l-0.171,-0.463l-0.17,-0.463l-0.17,-0.464l-0.169,-0.464l-0.169,-0.464l-0.167,-0.464l-0.167,-0.465l-0.166,-0.465l-0.166,-0.466l-0.165,-0.466l-0.164,-0.466l-0.163,-0.466l-0.163,-0.467l-0.162,-0.467l-0.161,-0.467l-0.16,-0.468l-0.16,-0.468l-0.159,-0.468l-0.158,-0.469l-0.158,-0.469l-0.157,-0.469l-0.156,-0.47l-0.155,-0.47l-0.155,-0.47l-0.154,-0.471l-0.153,-0.47l-0.153,-0.472l-0.152,-0.471l-0.151,-0.472l-0.15,-0.472l-0.15,-0.472l-0.149,-0.473l-0.148,-0.473l-0.147,-0.473l-0.147,-0.474l-0.146,-0.474l-0.145,-0.474l-0.144,-0.475l-0.144,-0.474l-0.143,-0.476l-0.143,-0.475l-0.141,-0.476l-0.141,-0.476l-0.14,-0.476l-0.139,-0.477l-0.139,-0.477l-0.138,-0.477l-0.137,-0.478l-0.136,-0.477l-0.136,-0.479l-0.135,-0.478l-0.134,-0.479l-0.133,-0.479l-0.133,-0.479l-0.132,-0.48l-0.131,-0.48l-0.131,-0.48l-0.129,-0.48l-0.129,-0.481l-0.129,-0.481l-0.127,-0.481l-0.127,-0.482l-0.126,-0.482l-0.125,-0.482l-0.124,-0.483l-0.124,-0.483l-0.123,-0.483l-0.122,-0.483l-0.122,-0.484l-0.12,-0.484l-0.12,-0.484l-0.119,-0.484l-0.119,-0.485l-0.117,-0.485l-0.117,-0.486l-0.117,-0.485l-0.115,-0.486l-0.115,-0.486l-0.113,-0.487l-0.114,-0.487l-0.112,-0.487l-0.112,-0.487l-0.11,-0.487l-0.11,-0.488l-0.11,-0.488l-0.108,-0.489l-0.108,-0.489l-0.107,-0.489l-0.106,-0.489l-0.106,-0.489l-0.105,-0.49l-0.104,-0.49l-0.103,-0.49l-0.102,-0.491l-0.102,-0.491l-0.101,-0.491l-0.1,-0.491l-0.099,-0.492l-0.099,-0.492l-0.097,-0.492l-0.097,-0.492l-0.097,-0.493l-0.095,-0.493l-0.095,-0.493l-0.094,-0.494l-0.093,-0.494l-0.092,-0.494l-0.092,-0.494l-0.091,-0.495l-0.09,-0.494l-0.089,-0.495l-0.088,-0.496l-0.088,-0.495l-0.087,-0.496l-0.086,-0.496l-0.085,-0.497l-0.085,-0.496l-0.084,-0.497l-0.083,-0.497l-0.082,-0.498l-0.081,-0.497l-0.081,-0.498l-0.08,-0.498l-0.079,-0.499l-0.078,-0.498l-0.078,-0.499l-0.076,-0.499l-0.076,-0.5l-0.075,-0.499l-0.075,-0.5l-0.073,-0.5l-0.073,-0.501l-0.072,-0.5l-0.071,-0.501l-0.07,-0.501l-0.07,-0.501l-0.068,-0.502l-0.068,-0.502l-0.068,-0.502l-0.066,-0.502l-0.065,-0.503l-0.065,-0.503l-0.064,-0.503l-0.063,-0.503l-0.063,-0.503l-0.061,-0.504l-0.061,-0.504l-0.06,-0.504l-0.059,-0.505l-0.058,-0.504l-0.058,-0.505l-0.057,-0.505l-0.056,-0.506l-0.055,-0.505l-0.054,-0.506l-0.053,-0.506l-0.053,-0.507l-0.052,-0.506l-0.051,-0.507l-0.05,-0.507l-0.05,-0.507l-0.048,-0.508l-0.048,-0.507l-0.047,-0.508l-0.046,-0.508l-0.046,-0.509l-0.044,-0.508l-0.044,-0.509l-0.043,-0.509l-0.042,-0.509l-0.041,-0.51l-0.041,-0.51l-0.04,-0.51l-0.038,-0.51l-0.038,-0.51l-0.038,-0.511l-0.036,-0.51l-0.035,-0.511l-0.035,-0.512l-0.034,-0.511l-0.033,-0.512l-0.032,-0.512l-0.032,-0.512l-0.03,-0.512l-0.03,-0.512l-0.029,-0.513l-0.028,-0.513l-0.028,-0.513l-0.026,-0.514l-0.026,-0.513l-0.024,-0.514l-0.024,-0.514l-0.024,-0.514l-0.022,-0.515l-0.021,-0.514l-0.021,-0.515l-0.02,-0.515l-0.019,-0.515l-0.018,-0.516l-0.017,-0.515l-0.017,-0.516l-0.015,-0.516l-0.015,-0.516l-0.014,-0.517l-0.013,-0.517l-0.012,-0.516l-0.012,-0.517l-0.01,-0.518l-0.01,-0.517l-0.009,-0.518l-0.008,-0.518l-0.007,-0.518l-0.006,-0.518l-0.006,-0.518l-0.005,-0.519l-0.003,-0.519l-0.003,-0.519l-0.003,-0.519l-0.001,-0.519l0,-0.52l0,-0.52l0.001,-0.519l0.003,-0.519l0.003,-0.519l0.003,-0.519l0.005,-0.519l0.006,-0.518l0.006,-0.518l0.007,-0.518l0.008,-0.518l0.009,-0.518l0.01,-0.517l0.01,-0.517l0.012,-0.517l0.012,-0.517l0.013,-0.517l0.014,-0.516l0.015,-0.517l0.015,-0.516l0.017,-0.516l0.017,-0.515l0.018,-0.516l0.019,-0.515l0.02,-0.515l0.021,-0.515l0.021,-0.514l0.022,-0.515l0.024,-0.514l0.024,-0.514l0.024,-0.514l0.026,-0.513l0.026,-0.514l0.028,-0.513l0.028,-0.513l0.029,-0.512l0.03,-0.513l0.03,-0.512l0.032,-0.512l0.032,-0.512l0.033,-0.512l0.034,-0.511l0.035,-0.512l0.035,-0.511l0.036,-0.51l0.038,-0.511l0.038,-0.51l0.038,-0.51l0.04,-0.51l0.041,-0.51l0.041,-0.509l0.042,-0.51l0.043,-0.509l0.044,-0.509l0.044,-0.508l0.046,-0.508l0.046,-0.509l0.047,-0.507l0.048,-0.508l0.048,-0.508l0.05,-0.507l0.05,-0.507l0.051,-0.507l0.052,-0.506l0.053,-0.506l0.053,-0.507l0.054,-0.505l0.055,-0.506l0.056,-0.505l0.057,-0.506l0.058,-0.504l0.058,-0.505l0.059,-0.505l0.06,-0.504l0.061,-0.504l0.061,-0.504l0.063,-0.503l0.063,-0.503l0.064,-0.503l0.065,-0.503l0.065,-0.503l0.066,-0.502l0.068,-0.502l0.068,-0.502l0.068,-0.501l0.07,-0.502l0.07,-0.501l0.071,-0.501l0.072,-0.5l0.073,-0.501l0.073,-0.5l0.075,-0.5l0.075,-0.499l0.076,-0.5l0.076,-0.499l0.078,-0.499l0.078,-0.498l0.079,-0.499l0.08,-0.498l0.081,-0.498l0.081,-0.497l0.082,-0.498l0.083,-0.497l0.084,-0.497l0.085,-0.496l0.085,-0.497l0.086,-0.496l0.087,-0.496l0.088,-0.495l0.088,-0.495l0.089,-0.496l0.09,-0.494l0.091,-0.495l0.092,-0.494l0.092,-0.494l0.093,-0.494l0.094,-0.493l0.095,-0.494l0.095,-0.493l0.097,-0.492l0.097,-0.493l0.097,-0.492l0.099,-0.492l0.099,-0.492l0.1,-0.491l0.101,-0.491l0.102,-0.491l0.102,-0.49l0.103,-0.491l0.104,-0.49l0.105,-0.49l0.106,-0.489l0.106,-0.489l0.107,-0.489l0.108,-0.489l0.108,-0.488l0.11,-0.489l0.11,-0.487l0.11,-0.488l0.112,-0.487l0.112,-0.487l0.114,-0.487l0.113,-0.487l0.115,-0.486l0.115,-0.486l0.117,-0.485l0.117,-0.486l0.117,-0.485l0.119,-0.484l0.119,-0.485l0.12,-0.484l0.12,-0.484l0.122,-0.484l0.122,-0.483l0.123,-0.483l0.124,-0.483l0.124,-0.483l0.125,-0.482l0.126,-0.482l0.127,-0.481l0.127,-0.482l0.129,-0.481l0.129,-0.481l0.129,-0.48l0.131,-0.48l0.131,-0.48l0.132,-0.48l0.133,-0.479l0.133,-0.479l0.134,-0.479l0.135,-0.478l0.136,-0.478l0.136,-0.478l0.137,-0.478l0.138,-0.477l0.139,-0.477l0.139,-0.477l0.14,-0.476l0.141,-0.476l0.141,-0.476l0.143,-0.475l0.143,-0.475l0.144,-0.475l0.144,-0.475l0.145,-0.474l0.146,-0.474l0.147,-0.474l0.147,-0.473l0.148,-0.473l0.149,-0.473l0.15,-0.472l0.15,-0.472l0.151,-0.472l0.152,-0.471l0.153,-0.471l0.153,-0.471l0.154,-0.471l0.155,-0.47l0.155,-0.47l0.156,-0.47l0.157,-0.469l0.158,-0.469l0.158,-0.469l0.159,-0.468l0.16,-0.468l0.16,-0.468l0.161,-0.467l0.162,-0.467l0.163,-0.467l0.163,-0.466l0.164,-0.466l0.165,-0.466l0.166,-0.466l0.166,-0.465l0.167,-0.465l0.167,-0.464l0.169,-0.464l0.169,-0.464l0.17,-0.464l0.17,-0.463l0.171,-0.463l0.172,-0.462l0.173,-0.462l0.173,-0.462l0.174,-0.462l0.175,-0.461l0.175,-0.461l0.177,-0.461l0.176,-0.46l0.178,-0.46l0.178,-0.459l0.179,-0.46l0.18,-0.458l0.18,-0.459l0.181,-0.458l0.182,-0.458l0.183,-0.458l0.183,-0.457l0.184,-0.457l0.184,-0.456l0.185,-0.457l0.186,-0.456l0.187,-0.455l0.187,-0.455l0.188,-0.455l0.189,-0.455l0.19,-0.454l0.19,-0.454l0.191,-0.453l0.191,-0.453l0.192,-0.453l0.193,-0.453l0.194,-0.452l0.194,-0.451l0.195,-0.452l0.196,-0.451l0.196,-0.451l0.197,-0.45l0.198,-0.45l0.198,-0.45l0.199,-0.449l0.2,-0.449l0.201,-0.448l0.201,-0.449l0.201,-0.448l0.203,-0.447l0.203,-0.447l0.204,-0.447l0.205,-0.447l0.205,-0.446l0.206,-0.446l0.206,-0.445l0.208,-0.445l0.207,-0.445l0.209,-0.444l0.209,-0.444l0.21,-0.444l0.211,-0.443l0.211,-0.443l0.212,-0.442l0.213,-0.443l0.213,-0.441l0.214,-0.442l0.215,-0.441l0.215,-0.441l0.216,-0.44l0.217,-0.44l0.217,-0.439l0.218,-0.44l0.219,-0.439l0.219,-0.438l0.22,-0.438l0.221,-0.438l0.221,-0.437l0.222,-0.437l0.223,-0.437l0.223,-0.436l0.224,-0.436l0.225,-0.436l0.225,-0.435l0.226,-0.434l0.227,-0.435l0.227,-0.434l0.228,-0.433l0.228,-0.434l0.23,-0.433l0.229,-0.432l0.231,-0.432l0.231,-0.432l0.232,-0.431l0.233,-0.431l0.233,-0.431l0.234,-0.43l0.234,-0.43l0.235,-0.429l0.236,-0.429l0.236,-0.429l0.237,-0.428l0.238,-0.428l0.238,-0.428l0.239,-0.427l0.24,-0.427l0.24,-0.426l0.241,-0.426l0.242,-0.425l0.242,-0.426l0.243,-0.424l0.244,-0.425l0.244,-0.424l0.244,-0.423l0.246,-0.424l0.246,-0.422l0.247,-0.423l0.247,-0.422l0.248,-0.421l0.249,-0.422l0.249,-0.42l0.5,-0.841l0.503,-0.839l0.506,-0.837l0.508,-0.836l0.51,-0.834l0.513,-0.832l0.516,-0.831l0.518,-0.829l0.521,-0.827l0.523,-0.826l0.525,-0.825l0.528,-0.822l0.531,-0.821l0.533,-0.819l0.535,-0.818l0.538,-0.816l0.541,-0.814l0.543,-0.813l0.545,-0.811l0.548,-0.809l0.55,-0.807l0.553,-0.806l0.555,-0.804l0.557,-0.803l0.56,-0.8l0.563,-0.799l0.564,-0.798l0.567,-0.795l0.57,-0.794l0.572,-0.792l0.574,-0.79l0.577,-0.789l0.579,-0.787l0.582,-0.785l0.583,-0.783l0.587,-0.781l0.588,-0.78l0.591,-0.778l0.593,-0.776l0.596,-0.775l0.598,-0.772l0.6,-0.771l0.603,-0.769l0.605,-0.767l0.607,-0.766l0.61,-0.763l0.612,-0.762l0.614,-0.76l0.616,-0.758l0.619,-0.756l0.621,-0.755l0.623,-0.752l0.626,-0.751l0.628,-0.749l0.63,-0.747l0.632,-0.745l0.635,-0.743l0.637,-0.741l0.639,-0.74l0.642,-0.738l0.643,-0.735l0.646,-0.734l0.648,-0.732l0.651,-0.73l0.652,-0.728l0.655,-0.726l0.657,-0.725l0.659,-0.722l0.661,-0.72l0.664,-0.719l0.666,-0.716l0.668,-0.715l0.67,-0.712l0.672,-0.711l0.674,-0.709l0.677,-0.707l0.679,-0.704l0.681,-0.703l0.683,-0.701l0.685,-0.699l0.687,-0.697l0.69,-0.694l0.691,-0.693l0.694,-0.691l0.696,-0.689l0.698,-0.687l0.7,-0.685l0.702,-0.682l0.704,-0.681l0.706,-0.679l0.709,-0.676l0.71,-0.675l0.713,-0.673l0.714,-0.67l0.717,-0.669l0.719,-0.666l0.72,-0.664l0.723,-0.663l0.725,-0.66l0.727,-0.658l0.729,-0.656l0.731,-0.654l0.733,-0.652l0.735,-0.649l0.737,-0.648l0.739,-0.645l0.741,-0.644l0.743,-0.641l0.745,-0.639l0.747,-0.637l0.749,-0.635l0.751,-0.632l0.753,-0.631l0.755,-0.628l0.757,-0.627l0.758,-0.624l0.761,-0.622l0.763,-0.619l0.764,-0.618l0.767,-0.615l0.769,-0.613l0.77,-0.611l0.772,-0.609l0.775,-0.607l0.776,-0.604l0.778,-0.602l0.78,-0.6l0.782,-0.598l0.784,-0.595l0.785,-0.594l0.788,-0.591l0.789,-0.588l0.791,-0.587l0.794,-0.584l0.795,-0.582l0.796,-0.58l0.799,-0.577l0.801,-0.576l0.802,-0.573l0.804,-0.57l0.806,-0.569l0.808,-0.566l0.81,-0.563l0.811,-0.562l0.814,-0.559l0.815,-0.557l0.817,-0.554l0.819,-0.553l0.82,-0.55l0.822,-0.547l0.824,-0.545l0.826,-0.543l0.828,-0.541l0.829,-0.538l0.831,-0.536l0.833,-0.533l0.835,-0.531l0.836,-0.529l0.838,-0.526l0.84,-0.524l0.842,-0.522l0.843,-0.519l0.845,-0.517l0.847,-0.514l0.848,-0.512l0.85,-0.51l0.852,-0.507l0.853,-0.505l0.856,-0.502l0.856,-0.5l0.859,-0.497l0.86,-0.495l0.862,-0.493l0.864,-0.49l0.865,-0.488l0.867,-0.485l0.868,-0.483l0.87,-0.48l0.872,-0.478l0.873,-0.475l0.875,-0.473l0.877,-0.47l0.878,-0.468l0.88,-0.465l0.881,-0.463l0.884,-0.461l0.884,-0.457l0.886,-0.456l0.888,-0.452l0.89,-0.451l0.891,-0.447l0.892,-0.445l0.894,-0.443l0.896,-0.44l0.897,-0.438l0.899,-0.435l0.9,-0.432l0.902,-0.43l0.903,-0.427l0.905,-0.425l0.907,-0.422l0.908,-0.419l0.909,-0.417l0.911,-0.414l0.913,-0.412l0.914,-0.409l0.915,-0.407l0.917,-0.404l0.918,-0.401l0.46,-0.199l0.46,-0.199l0.461,-0.199l0.461,-0.197l0.461,-0.197l0.461,-0.197l0.462,-0.195l0.463,-0.195l0.462,-0.195l0.463,-0.193l0.464,-0.193l0.464,-0.193l0.464,-0.192l0.464,-0.191l0.465,-0.19l0.465,-0.19l0.466,-0.189l0.466,-0.188l0.466,-0.188l0.467,-0.187l0.467,-0.186l0.467,-0.186l0.468,-0.185l0.468,-0.184l0.469,-0.184l0.468,-0.183l0.469,-0.182l0.47,-0.182l0.47,-0.181l0.47,-0.18l0.471,-0.18l0.47,-0.179l0.472,-0.178l0.471,-0.178l0.472,-0.176l0.472,-0.177l0.473,-0.175l0.473,-0.175l0.473,-0.174l0.474,-0.174l0.474,-0.173l0.474,-0.172l0.475,-0.171l0.475,-0.171l0.475,-0.17l0.476,-0.17l0.476,-0.168l0.477,-0.168l0.476,-0.168l0.477,-0.166l0.478,-0.166l0.478,-0.166l0.478,-0.164l0.478,-0.164l0.479,-0.164l0.479,-0.162l0.479,-0.162l0.48,-0.161l0.48,-0.161l0.481,-0.159l0.48,-0.159l0.481,-0.159l0.482,-0.157l0.482,-0.157l0.482,-0.157l0.482,-0.155l0.483,-0.155l0.483,-0.154l0.483,-0.154l0.484,-0.153l0.484,-0.152l0.484,-0.151l0.485,-0.151l0.485,-0.15l0.485,-0.149l0.486,-0.149l0.486,-0.148l0.486,-0.147l0.487,-0.146l0.486,-0.146l0.488,-0.145l0.487,-0.144l0.488,-0.144l0.488,-0.143l0.489,-0.142l0.489,-0.142l0.489,-0.14l0.489,-0.141l0.49,-0.139l0.49,-0.139l0.49,-0.138l0.491,-0.137l0.491,-0.136l0.491,-0.136l0.492,-0.135l0.492,-0.135l0.492,-0.133l0.493,-0.133l0.492,-0.133l0.494,-0.131l0.493,-0.131l0.494,-0.13l0.494,-0.129l0.494,-0.129l0.495,-0.128l0.495,-0.127l0.495,-0.126l0.496,-0.126l0.496,-0.125l0.496,-0.125l0.496,-0.123l0.497,-0.123l0.497,-0.122l0.498,-0.121l0.497,-0.121l0.498,-0.12l0.498,-0.119l0.499,-0.119l0.499,-0.118l0.499,-0.117l0.499,-0.116l0.5,-0.115l0.5,-0.115l0.5,-0.114l0.501,-0.114l0.501,-0.112l0.501,-0.112l0.501,-0.111l0.502,-0.111l0.502,-0.109l0.503,-0.109l0.502,-0.109l0.503,-0.107l0.503,-0.107l0.504,-0.106l0.503,-0.105l0.504,-0.104l0.505,-0.104l0.504,-0.103l0.505,-0.102l0.505,-0.102l0.506,-0.101l0.506,-0.1l0.505,-0.099l0.507,-0.099l0.506,-0.098l0.507,-0.097l0.507,-0.096l0.508,-0.095l0.507,-0.095l0.508,-0.094l0.508,-0.094l0.509,-0.092l0.508,-0.092l0.509,-0.091l0.51,-0.09l0.509,-0.09l0.51,-0.089l0.51,-0.088l0.51,-0.087l0.511,-0.087l0.511,-0.085l0.511,-0.085l0.512,-0.085l0.511,-0.083l0.512,-0.083l0.512,-0.082l0.513,-0.081l0.513,-0.08l0.513,-0.08l0.513,-0.079l0.513,-0.078l0.514,-0.078l0.514,-0.076l0.514,-0.076l0.515,-0.075l0.515,-0.075l0.515,-0.073l0.515,-0.073l0.516,-0.072l0.515,-0.071l0.516,-0.071l0.517,-0.07l0.516,-0.069l0.517,-0.068l0.517,-0.067l0.518,-0.067l0.517,-0.066l0.518,-0.065l0.518,-0.064l0.518,-0.064l0.519,-0.062l0.519,-0.062l0.519,-0.062l0.519,-0.06l0.52,-0.06l0.52,-0.059l0.52,-0.058l0.52,-0.057l0.52,-0.057l0.521,-0.056l0.521,-0.055l0.521,-0.054l0.522,-0.053l0.522,-0.053l0.522,-0.052l0.522,-0.051l0.522,-0.05l0.523,-0.05l0.523,-0.048l0.523,-0.048l0.523,-0.047l0.524,-0.047l0.524,-0.045l0.524,-0.045l0.524,-0.044l0.525,-0.043l0.525,-0.043l0.525,-0.041l0.525,-0.041l0.525,-0.04l0.526,-0.039l0.526,-0.039l0.526,-0.038l0.526,-0.036l0.527,-0.036l0.527,-0.036l0.527,-0.034l0.527,-0.034l0.528,-0.033l0.527,-0.032l0.528,-0.031l0.529,-0.031l0.528,-0.029l0.529,-0.029l0.528,-0.028l0.529,-0.027l0.53,-0.027l0.529,-0.025l0.53,-0.025l0.53,-0.024l0.53,-0.024l0.53,-0.022l0.531,-0.022l0.531,-0.02l0.531,-0.02l0.531,-0.02l0.531,-0.018l0.532,-0.018l0.532,-0.016l0.532,-0.016l0.532,-0.015l0.532,-0.015l0.533,-0.013l0.533,-0.013l0.533,-0.012l0.533,-0.011l0.534,-0.01l0.533,-0.01l0.534,-0.008l0.534,-0.008l0.535,-0.007l0.534,-0.006l0.535,-0.006l0.535,-0.004l0.535,-0.004l0.535,-0.003l0.536,-0.002l0.535,-0.001l0.536,0l0.536,0Zm-1.05,14l-0.514,0.001l-0.514,0.002l-0.514,0.003l-0.514,0.004l-0.513,0.004l-0.513,0.005l-0.513,0.006l-0.513,0.007l-0.512,0.007l-0.513,0.008l-0.512,0.009l-0.512,0.01l-0.512,0.011l-0.511,0.011l-0.512,0.012l-0.511,0.013l-0.511,0.014l-0.511,0.015l-0.51,0.015l-0.51,0.016l-0.511,0.017l-0.509,0.018l-0.51,0.018l-0.51,0.019l-0.509,0.02l-0.509,0.021l-0.509,0.021l-0.508,0.023l-0.509,0.023l-0.508,0.024l-0.508,0.024l-0.508,0.026l-0.507,0.026l-0.508,0.027l-0.507,0.027l-0.507,0.029l-0.507,0.029l-0.506,0.03l-0.506,0.031l-0.506,0.031l-0.506,0.033l-0.506,0.033l-0.505,0.034l-0.505,0.034l-0.505,0.036l-0.505,0.036l-0.505,0.037l-0.504,0.037l-0.504,0.039l-0.504,0.039l-0.503,0.04l-0.504,0.04l-0.503,0.042l-0.503,0.042l-0.502,0.043l-0.503,0.044l-0.502,0.044l-0.502,0.045l-0.502,0.046l-0.502,0.047l-0.501,0.048l-0.501,0.048l-0.501,0.049l-0.5,0.049l-0.501,0.051l-0.5,0.051l-0.5,0.052l-0.499,0.053l-0.5,0.053l-0.499,0.055l-0.499,0.055l-0.499,0.055l-0.498,0.057l-0.499,0.057l-0.498,0.058l-0.497,0.059l-0.498,0.059l-0.497,0.061l-0.497,0.06l-0.497,0.062l-0.497,0.063l-0.496,0.063l-0.496,0.064l-0.496,0.064l-0.495,0.066l-0.496,0.066l-0.495,0.067l-0.495,0.067l-0.494,0.069l-0.495,0.069l-0.494,0.07l-0.494,0.07l-0.493,0.071l-0.494,0.072l-0.493,0.073l-0.493,0.074l-0.492,0.074l-0.493,0.075l-0.492,0.076l-0.492,0.076l-0.491,0.077l-0.492,0.078l-0.491,0.079l-0.491,0.079l-0.49,0.08l-0.49,0.081l-0.491,0.081l-0.489,0.082l-0.49,0.083l-0.489,0.084l-0.489,0.085l-0.489,0.085l-0.488,0.086l-0.489,0.086l-0.488,0.087l-0.487,0.088l-0.488,0.089l-0.487,0.09l-0.487,0.09l-0.487,0.091l-0.486,0.091l-0.486,0.093l-0.486,0.093l-0.486,0.093l-0.485,0.095l-0.485,0.095l-0.485,0.096l-0.484,0.097l-0.485,0.097l-0.484,0.098l-0.483,0.099l-0.484,0.099l-0.483,0.1l-0.483,0.101l-0.482,0.102l-0.483,0.102l-0.482,0.103l-0.482,0.104l-0.481,0.104l-0.481,0.105l-0.481,0.106l-0.481,0.107l-0.48,0.107l-0.48,0.108l-0.48,0.109l-0.48,0.109l-0.479,0.11l-0.479,0.111l-0.479,0.111l-0.478,0.112l-0.478,0.113l-0.478,0.114l-0.478,0.114l-0.477,0.115l-0.477,0.116l-0.477,0.116l-0.476,0.117l-0.477,0.118l-0.476,0.118l-0.475,0.12l-0.475,0.119l-0.475,0.121l-0.475,0.121l-0.474,0.122l-0.475,0.123l-0.473,0.123l-0.474,0.124l-0.473,0.125l-0.473,0.125l-0.473,0.126l-0.472,0.127l-0.472,0.127l-0.472,0.128l-0.472,0.129l-0.471,0.13l-0.471,0.13l-0.47,0.131l-0.47,0.131l-0.47,0.132l-0.47,0.133l-0.469,0.134l-0.469,0.134l-0.469,0.135l-0.469,0.136l-0.468,0.136l-0.468,0.137l-0.467,0.138l-0.468,0.138l-0.467,0.139l-0.466,0.14l-0.467,0.14l-0.466,0.141l-0.465,0.142l-0.466,0.142l-0.465,0.143l-0.465,0.144l-0.464,0.144l-0.464,0.146l-0.464,0.145l-0.464,0.147l-0.463,0.147l-0.463,0.148l-0.462,0.148l-0.463,0.149l-0.462,0.15l-0.461,0.15l-0.462,0.152l-0.461,0.151l-0.461,0.153l-0.46,0.153l-0.46,0.154l-0.46,0.154l-0.459,0.155l-0.459,0.156l-0.459,0.156l-0.459,0.157l-0.458,0.158l-0.458,0.159l-0.457,0.159l-0.457,0.159l-0.457,0.161l-0.457,0.161l-0.456,0.161l-0.456,0.163l-0.455,0.163l-0.455,0.163l-0.455,0.165l-0.455,0.165l-0.454,0.165l-0.454,0.167l-0.454,0.167l-0.453,0.167l-0.453,0.168l-0.452,0.169l-0.453,0.17l-0.451,0.17l-0.452,0.171l-0.451,0.171l-0.451,0.172l-0.451,0.173l-0.45,0.174l-0.45,0.174l-0.449,0.175l-0.45,0.175l-0.449,0.176l-0.448,0.177l-0.448,0.177l-0.448,0.178l-0.448,0.178l-0.447,0.18l-0.447,0.179l-0.446,0.181l-0.446,0.181l-0.446,0.182l-0.445,0.182l-0.446,0.183l-0.444,0.184l-0.445,0.184l-0.444,0.185l-0.444,0.186l-0.443,0.186l-0.443,0.187l-0.443,0.187l-0.442,0.189l-0.442,0.188l-0.441,0.19l-0.442,0.19l-0.441,0.19l-0.435,0.19l-0.885,0.386l-0.879,0.387l-0.877,0.39l-0.876,0.392l-0.874,0.394l-0.873,0.397l-0.871,0.4l-0.87,0.402l-0.869,0.404l-0.867,0.407l-0.866,0.409l-0.864,0.412l-0.862,0.414l-0.861,0.417l-0.86,0.419l-0.858,0.422l-0.857,0.424l-0.855,0.427l-0.854,0.429l-0.852,0.431l-0.851,0.434l-0.849,0.436l-0.847,0.439l-0.847,0.441l-0.844,0.443l-0.843,0.446l-0.842,0.448l-0.839,0.451l-0.839,0.453l-0.837,0.455l-0.835,0.458l-0.834,0.46l-0.832,0.463l-0.83,0.465l-0.829,0.467l-0.827,0.469l-0.826,0.472l-0.824,0.475l-0.823,0.476l-0.821,0.479l-0.819,0.481l-0.818,0.484l-0.816,0.486l-0.814,0.488l-0.813,0.49l-0.811,0.493l-0.81,0.495l-0.808,0.498l-0.806,0.499l-0.805,0.502l-0.802,0.505l-0.802,0.506l-0.799,0.509l-0.798,0.511l-0.796,0.513l-0.795,0.516l-0.793,0.518l-0.791,0.52l-0.789,0.522l-0.788,0.525l-0.786,0.527l-0.784,0.529l-0.783,0.531l-0.781,0.533l-0.779,0.536l-0.777,0.538l-0.776,0.54l-0.774,0.542l-0.772,0.545l-0.77,0.546l-0.769,0.549l-0.767,0.551l-0.765,0.553l-0.763,0.555l-0.762,0.558l-0.759,0.56l-0.758,0.561l-0.757,0.564l-0.754,0.566l-0.752,0.569l-0.751,0.57l-0.749,0.573l-0.747,0.574l-0.745,0.577l-0.744,0.579l-0.741,0.581l-0.74,0.583l-0.738,0.585l-0.736,0.587l-0.734,0.59l-0.733,0.591l-0.73,0.594l-0.729,0.595l-0.727,0.598l-0.725,0.6l-0.722,0.602l-0.722,0.604l-0.719,0.605l-0.717,0.608l-0.715,0.61l-0.714,0.612l-0.711,0.615l-0.71,0.616l-0.708,0.618l-0.706,0.62l-0.704,0.622l-0.701,0.624l-0.7,0.626l-0.698,0.629l-0.696,0.63l-0.695,0.632l-0.692,0.634l-0.69,0.636l-0.688,0.638l-0.686,0.64l-0.685,0.642l-0.682,0.644l-0.68,0.646l-0.678,0.648l-0.677,0.65l-0.674,0.652l-0.672,0.654l-0.67,0.655l-0.669,0.658l-0.666,0.659l-0.664,0.662l-0.662,0.663l-0.66,0.665l-0.658,0.668l-0.656,0.669l-0.654,0.67l-0.652,0.673l-0.65,0.675l-0.647,0.677l-0.646,0.678l-0.643,0.68l-0.642,0.682l-0.639,0.684l-0.638,0.686l-0.635,0.688l-0.633,0.69l-0.631,0.691l-0.628,0.693l-0.627,0.695l-0.625,0.697l-0.622,0.699l-0.621,0.701l-0.618,0.702l-0.616,0.704l-0.614,0.706l-0.611,0.708l-0.61,0.709l-0.607,0.712l-0.606,0.713l-0.603,0.714l-0.601,0.717l-0.598,0.719l-0.597,0.72l-0.594,0.722l-0.592,0.723l-0.59,0.726l-0.588,0.727l-0.585,0.729l-0.584,0.73l-0.581,0.733l-0.579,0.734l-0.576,0.736l-0.575,0.737l-0.572,0.739l-0.569,0.741l-0.568,0.743l-0.565,0.744l-0.564,0.746l-0.56,0.748l-0.559,0.749l-0.556,0.751l-0.554,0.753l-0.552,0.754l-0.549,0.756l-0.547,0.758l-0.545,0.759l-0.543,0.761l-0.54,0.763l-0.538,0.764l-0.536,0.766l-0.533,0.768l-0.531,0.769l-0.528,0.77l-0.527,0.773l-0.523,0.774l-0.522,0.775l-0.519,0.777l-0.517,0.779l-0.515,0.781l-0.512,0.781l-0.509,0.784l-0.508,0.785l-0.505,0.787l-0.502,0.788l-0.501,0.79l-0.497,0.791l-0.496,0.793l-0.493,0.794l-0.49,0.796l-0.489,0.797l-0.485,0.8l-0.484,0.8l-0.481,0.802l-0.481,0.808l-0.235,0.398l-0.238,0.403l-0.237,0.403l-0.237,0.403l-0.236,0.404l-0.235,0.404l-0.234,0.405l-0.234,0.405l-0.234,0.405l-0.233,0.406l-0.232,0.406l-0.231,0.407l-0.231,0.406l-0.231,0.407l-0.229,0.408l-0.23,0.408l-0.228,0.408l-0.228,0.409l-0.227,0.409l-0.227,0.409l-0.226,0.41l-0.225,0.41l-0.225,0.411l-0.224,0.411l-0.223,0.411l-0.223,0.412l-0.223,0.412l-0.221,0.412l-0.221,0.412l-0.221,0.413l-0.219,0.414l-0.219,0.414l-0.219,0.414l-0.218,0.414l-0.217,0.415l-0.217,0.415l-0.216,0.416l-0.215,0.416l-0.215,0.416l-0.214,0.417l-0.213,0.417l-0.213,0.417l-0.212,0.418l-0.212,0.418l-0.21,0.418l-0.211,0.419l-0.209,0.419l-0.209,0.419l-0.209,0.42l-0.207,0.42l-0.207,0.421l-0.207,0.42l-0.206,0.421l-0.205,0.422l-0.204,0.422l-0.204,0.422l-0.203,0.423l-0.203,0.422l-0.202,0.424l-0.201,0.423l-0.201,0.424l-0.2,0.424l-0.199,0.425l-0.199,0.425l-0.198,0.425l-0.197,0.426l-0.197,0.426l-0.196,0.426l-0.195,0.427l-0.195,0.427l-0.194,0.427l-0.194,0.428l-0.193,0.428l-0.192,0.428l-0.191,0.429l-0.191,0.429l-0.191,0.429l-0.189,0.43l-0.189,0.429l-0.188,0.431l-0.188,0.43l-0.187,0.431l-0.186,0.432l-0.186,0.431l-0.185,0.432l-0.184,0.432l-0.184,0.433l-0.183,0.433l-0.182,0.433l-0.182,0.434l-0.18,0.434l-0.181,0.434l-0.18,0.435l-0.178,0.434l-0.179,0.436l-0.177,0.435l-0.177,0.436l-0.177,0.436l-0.175,0.437l-0.175,0.436l-0.175,0.438l-0.173,0.437l-0.173,0.438l-0.173,0.438l-0.171,0.438l-0.171,0.439l-0.171,0.439l-0.169,0.439l-0.169,0.44l-0.168,0.44l-0.168,0.44l-0.167,0.441l-0.166,0.441l-0.166,0.441l-0.165,0.441l-0.164,0.442l-0.163,0.442l-0.163,0.443l-0.162,0.443l-0.162,0.443l-0.161,0.443l-0.16,0.444l-0.159,0.444l-0.159,0.444l-0.158,0.445l-0.157,0.444l-0.157,0.446l-0.156,0.445l-0.156,0.446l-0.154,0.446l-0.154,0.447l-0.153,0.446l-0.153,0.447l-0.152,0.448l-0.151,0.447l-0.151,0.448l-0.149,0.448l-0.15,0.449l-0.148,0.449l-0.148,0.449l-0.147,0.449l-0.146,0.45l-0.146,0.45l-0.145,0.45l-0.144,0.451l-0.144,0.451l-0.143,0.451l-0.142,0.451l-0.141,0.452l-0.141,0.452l-0.14,0.452l-0.14,0.453l-0.138,0.453l-0.138,0.453l-0.138,0.454l-0.136,0.453l-0.136,0.454l-0.135,0.455l-0.135,0.454l-0.134,0.455l-0.133,0.456l-0.132,0.455l-0.132,0.456l-0.131,0.456l-0.13,0.456l-0.129,0.457l-0.129,0.457l-0.128,0.457l-0.128,0.457l-0.126,0.458l-0.126,0.458l-0.126,0.459l-0.124,0.458l-0.124,0.459l-0.123,0.459l-0.123,0.459l-0.121,0.46l-0.121,0.46l-0.121,0.46l-0.119,0.461l-0.119,0.461l-0.118,0.461l-0.118,0.461l-0.116,0.462l-0.116,0.462l-0.116,0.462l-0.114,0.462l-0.114,0.463l-0.113,0.463l-0.112,0.463l-0.112,0.463l-0.111,0.464l-0.11,0.464l-0.11,0.465l-0.108,0.464l-0.108,0.465l-0.108,0.465l-0.106,0.465l-0.106,0.466l-0.105,0.466l-0.105,0.466l-0.103,0.466l-0.103,0.467l-0.102,0.467l-0.102,0.467l-0.101,0.468l-0.1,0.467l-0.099,0.468l-0.098,0.468l-0.098,0.469l-0.097,0.469l-0.097,0.469l-0.095,0.469l-0.095,0.469l-0.094,0.47l-0.094,0.47l-0.092,0.471l-0.092,0.47l-0.091,0.471l-0.091,0.471l-0.089,0.471l-0.089,0.472l-0.089,0.472l-0.087,0.472l-0.087,0.472l-0.086,0.472l-0.085,0.473l-0.084,0.473l-0.084,0.473l-0.083,0.474l-0.082,0.474l-0.082,0.474l-0.081,0.474l-0.08,0.474l-0.079,0.475l-0.078,0.475l-0.078,0.476l-0.077,0.475l-0.076,0.476l-0.076,0.476l-0.075,0.476l-0.074,0.476l-0.073,0.477l-0.072,0.477l-0.072,0.477l-0.071,0.478l-0.07,0.477l-0.07,0.478l-0.068,0.478l-0.068,0.478l-0.067,0.479l-0.067,0.479l-0.066,0.479l-0.064,0.479l-0.065,0.48l-0.063,0.48l-0.063,0.48l-0.061,0.48l-0.062,0.48l-0.06,0.481l-0.059,0.481l-0.059,0.481l-0.058,0.481l-0.057,0.482l-0.057,0.482l-0.056,0.482l-0.055,0.482l-0.054,0.483l-0.053,0.482l-0.053,0.483l-0.052,0.483l-0.051,0.484l-0.05,0.483l-0.05,0.484l-0.048,0.484l-0.048,0.485l-0.048,0.484l-0.046,0.485l-0.046,0.485l-0.045,0.485l-0.044,0.486l-0.043,0.485l-0.043,0.486l-0.042,0.486l-0.041,0.486l-0.04,0.487l-0.039,0.487l-0.039,0.487l-0.038,0.487l-0.037,0.487l-0.036,0.488l-0.036,0.487l-0.034,0.488l-0.034,0.489l-0.034,0.488l-0.032,0.489l-0.032,0.489l-0.03,0.489l-0.03,0.489l-0.03,0.489l-0.028,0.49l-0.028,0.49l-0.027,0.49l-0.026,0.49l-0.025,0.491l-0.024,0.491l-0.024,0.491l-0.023,0.491l-0.022,0.491l-0.021,0.492l-0.021,0.491l-0.02,0.492l-0.019,0.492l-0.018,0.493l-0.017,0.492l-0.017,0.493l-0.015,0.493l-0.015,0.493l-0.014,0.494l-0.014,0.493l-0.012,0.494l-0.012,0.494l-0.011,0.494l-0.01,0.494l-0.009,0.495l-0.009,0.495l-0.007,0.495l-0.007,0.495l-0.006,0.495l-0.006,0.496l-0.004,0.496l-0.004,0.495l-0.003,0.497l-0.002,0.496l-0.001,0.496l0,0.497l0,0.497l0.001,0.496l0.002,0.497l0.003,0.496l0.004,0.496l0.004,0.495l0.006,0.496l0.006,0.495l0.007,0.495l0.007,0.495l0.009,0.495l0.009,0.495l0.01,0.494l0.011,0.494l0.012,0.494l0.012,0.494l0.014,0.493l0.014,0.494l0.015,0.493l0.015,0.493l0.017,0.493l0.017,0.492l0.018,0.493l0.019,0.492l0.02,0.492l0.021,0.492l0.021,0.491l0.022,0.491l0.023,0.492l0.024,0.49l0.024,0.491l0.025,0.491l0.026,0.49l0.027,0.49l0.028,0.49l0.028,0.49l0.03,0.489l0.03,0.49l0.03,0.489l0.032,0.488l0.032,0.489l0.034,0.489l0.034,0.488l0.034,0.488l0.036,0.488l0.036,0.487l0.037,0.487l0.038,0.488l0.039,0.487l0.039,0.486l0.04,0.487l0.041,0.486l0.042,0.486l0.043,0.486l0.043,0.486l0.044,0.485l0.045,0.485l0.046,0.485l0.046,0.485l0.048,0.484l0.048,0.485l0.048,0.484l0.05,0.484l0.05,0.483l0.051,0.484l0.052,0.483l0.053,0.483l0.053,0.483l0.054,0.482l0.055,0.482l0.056,0.482l0.057,0.482l0.057,0.482l0.058,0.481l0.059,0.481l0.059,0.481l0.06,0.481l0.062,0.48l0.061,0.481l0.063,0.48l0.063,0.479l0.065,0.48l0.064,0.479l0.066,0.479l0.067,0.479l0.067,0.479l0.068,0.478l0.068,0.478l0.07,0.478l0.07,0.478l0.071,0.477l0.072,0.477l0.072,0.477l0.073,0.477l0.074,0.476l0.075,0.476l0.076,0.476l0.076,0.476l0.077,0.476l0.078,0.475l0.078,0.475l0.079,0.475l0.08,0.474l0.081,0.474l0.082,0.474l0.082,0.474l0.083,0.474l0.084,0.473l0.084,0.473l0.085,0.473l0.086,0.472l0.087,0.473l0.087,0.472l0.089,0.471l0.089,0.472l0.089,0.471l0.091,0.471l0.091,0.471l0.092,0.471l0.092,0.47l0.094,0.47l0.094,0.47l0.095,0.469l0.095,0.469l0.097,0.469l0.097,0.469l0.098,0.469l0.098,0.468l0.099,0.468l0.1,0.468l0.101,0.467l0.102,0.467l0.102,0.467l0.103,0.467l0.103,0.466l0.105,0.466l0.105,0.466l0.106,0.466l0.106,0.465l0.108,0.465l0.108,0.465l0.108,0.465l0.11,0.464l0.11,0.464l0.111,0.464l0.112,0.463l0.112,0.463l0.113,0.463l0.114,0.463l0.114,0.463l0.116,0.462l0.116,0.462l0.116,0.461l0.118,0.461l0.118,0.461l0.119,0.461l0.119,0.461l0.121,0.46l0.121,0.46l0.121,0.46l0.123,0.459l0.123,0.459l0.124,0.459l0.124,0.459l0.126,0.458l0.126,0.458l0.126,0.458l0.128,0.457l0.128,0.457l0.129,0.457l0.129,0.457l0.13,0.456l0.131,0.456l0.132,0.456l0.132,0.456l0.133,0.455l0.134,0.455l0.135,0.454l0.135,0.455l0.136,0.454l0.136,0.454l0.138,0.453l0.138,0.453l0.138,0.453l0.14,0.453l0.14,0.452l0.141,0.452l0.141,0.452l0.142,0.451l0.143,0.452l0.144,0.45l0.144,0.451l0.145,0.45l0.146,0.45l0.146,0.45l0.147,0.449l0.148,0.45l0.148,0.448l0.149,0.449l0.15,0.448l0.151,0.448l0.151,0.448l0.152,0.447l0.153,0.447l0.153,0.447l0.154,0.446l0.154,0.446l0.156,0.446l0.156,0.445l0.156,0.446l0.158,0.445l0.158,0.444l0.159,0.444l0.159,0.444l0.16,0.444l0.161,0.444l0.162,0.443l0.162,0.442l0.163,0.443l0.163,0.442l0.164,0.442l0.165,0.441l0.166,0.441l0.166,0.441l0.167,0.441l0.168,0.44l0.168,0.44l0.169,0.44l0.169,0.439l0.171,0.439l0.171,0.439l0.171,0.438l0.173,0.438l0.173,0.438l0.173,0.438l0.175,0.437l0.175,0.437l0.175,0.436l0.177,0.436l0.176,0.436l0.178,0.436l0.179,0.435l0.179,0.435l0.179,0.434l0.181,0.434l0.181,0.434l0.181,0.434l0.182,0.433l0.183,0.433l0.184,0.433l0.184,0.432l0.185,0.432l0.186,0.432l0.186,0.431l0.187,0.431l0.188,0.43l0.188,0.431l0.189,0.43l0.189,0.429l0.191,0.43l0.191,0.429l0.191,0.428l0.192,0.429l0.193,0.428l0.194,0.427l0.194,0.427l0.195,0.428l0.195,0.426l0.196,0.426l0.197,0.426l0.197,0.426l0.198,0.425l0.199,0.425l0.199,0.425l0.2,0.424l0.201,0.424l0.201,0.423l0.202,0.424l0.203,0.422l0.203,0.423l0.204,0.422l0.204,0.422l0.205,0.422l0.206,0.421l0.207,0.421l0.207,0.42l0.207,0.42l0.209,0.42l0.209,0.419l0.209,0.42l0.211,0.418l0.21,0.419l0.212,0.418l0.212,0.417l0.213,0.418l0.213,0.416l0.214,0.417l0.215,0.416l0.215,0.416l0.216,0.416l0.217,0.415l0.217,0.415l0.218,0.414l0.219,0.414l0.219,0.414l0.219,0.414l0.221,0.413l0.221,0.412l0.221,0.412l0.223,0.413l0.223,0.411l0.223,0.411l0.224,0.411l0.225,0.411l0.225,0.41l0.226,0.41l0.227,0.409l0.227,0.409l0.228,0.409l0.229,0.408l0.229,0.408l0.229,0.408l0.231,0.407l0.231,0.407l0.231,0.406l0.232,0.406l0.233,0.406l0.234,0.405l0.234,0.405l0.234,0.405l0.235,0.404l0.236,0.404l0.237,0.403l0.237,0.403l0.238,0.403l0.235,0.398l0.481,0.808l0.481,0.802l0.484,0.801l0.485,0.799l0.489,0.797l0.49,0.796l0.493,0.794l0.496,0.793l0.497,0.792l0.501,0.789l0.502,0.788l0.505,0.787l0.508,0.785l0.509,0.784l0.512,0.782l0.515,0.78l0.517,0.779l0.519,0.777l0.522,0.775l0.523,0.774l0.527,0.773l0.528,0.77l0.531,0.77l0.533,0.767l0.536,0.766l0.538,0.764l0.54,0.763l0.543,0.761l0.544,0.759l0.548,0.758l0.549,0.756l0.552,0.754l0.554,0.753l0.556,0.751l0.559,0.749l0.56,0.748l0.563,0.746l0.566,0.744l0.568,0.743l0.569,0.741l0.572,0.739l0.575,0.737l0.576,0.736l0.579,0.734l0.581,0.733l0.584,0.73l0.585,0.729l0.588,0.727l0.59,0.726l0.592,0.723l0.594,0.722l0.597,0.721l0.598,0.718l0.601,0.717l0.603,0.714l0.606,0.714l0.607,0.711l0.61,0.709l0.611,0.708l0.614,0.706l0.616,0.704l0.618,0.703l0.621,0.7l0.622,0.699l0.625,0.697l0.627,0.695l0.628,0.693l0.631,0.691l0.633,0.69l0.636,0.688l0.637,0.686l0.639,0.684l0.642,0.682l0.643,0.68l0.646,0.679l0.647,0.676l0.65,0.675l0.652,0.673l0.654,0.671l0.656,0.669l0.658,0.667l0.66,0.665l0.662,0.663l0.664,0.662l0.667,0.659l0.668,0.658l0.67,0.655l0.672,0.654l0.674,0.652l0.677,0.65l0.678,0.648l0.68,0.646l0.682,0.644l0.685,0.642l0.686,0.64l0.688,0.638l0.69,0.636l0.693,0.634l0.693,0.632l0.697,0.63l0.698,0.629l0.699,0.626l0.703,0.624l0.703,0.622l0.706,0.62l0.708,0.618l0.71,0.617l0.711,0.614l0.714,0.612l0.715,0.61l0.717,0.608l0.719,0.606l0.722,0.603l0.722,0.602l0.725,0.6l0.727,0.598l0.729,0.595l0.73,0.594l0.733,0.591l0.734,0.59l0.736,0.587l0.738,0.585l0.739,0.583l0.742,0.581l0.744,0.579l0.745,0.577l0.747,0.574l0.749,0.573l0.751,0.57l0.752,0.569l0.755,0.566l0.756,0.564l0.757,0.561l0.76,0.56l0.762,0.558l0.763,0.555l0.765,0.553l0.767,0.551l0.769,0.549l0.77,0.547l0.772,0.544l0.774,0.542l0.776,0.54l0.777,0.538l0.779,0.536l0.781,0.533l0.783,0.532l0.784,0.528l0.786,0.527l0.788,0.525l0.789,0.522l0.791,0.52l0.793,0.518l0.795,0.516l0.796,0.513l0.797,0.511l0.8,0.509l0.802,0.507l0.802,0.504l0.805,0.502l0.806,0.499l0.808,0.498l0.81,0.495l0.811,0.493l0.813,0.49l0.814,0.488l0.816,0.486l0.818,0.484l0.819,0.481l0.821,0.479l0.823,0.477l0.824,0.474l0.826,0.472l0.827,0.469l0.829,0.468l0.83,0.464l0.833,0.463l0.833,0.46l0.835,0.458l0.837,0.455l0.838,0.453l0.84,0.451l0.842,0.448l0.843,0.446l0.844,0.443l0.847,0.442l0.847,0.438l0.849,0.436l0.851,0.434l0.852,0.432l0.854,0.428l0.855,0.427l0.857,0.424l0.858,0.422l0.86,0.419l0.861,0.417l0.862,0.414l0.864,0.412l0.866,0.409l0.867,0.407l0.869,0.405l0.869,0.402l0.872,0.399l0.873,0.397l0.874,0.395l0.876,0.392l0.877,0.389l0.879,0.387l0.885,0.387l0.436,0.189l0.44,0.19l0.441,0.19l0.442,0.19l0.443,0.189l0.442,0.188l0.442,0.187l0.443,0.187l0.443,0.186l0.444,0.186l0.445,0.185l0.443,0.184l0.445,0.184l0.446,0.183l0.445,0.182l0.446,0.182l0.446,0.181l0.447,0.181l0.447,0.18l0.446,0.179l0.447,0.178l0.449,0.178l0.448,0.178l0.448,0.176l0.45,0.176l0.449,0.176l0.449,0.174l0.45,0.174l0.45,0.174l0.451,0.173l0.451,0.172l0.451,0.171l0.452,0.171l0.452,0.17l0.452,0.17l0.452,0.169l0.453,0.168l0.453,0.167l0.454,0.167l0.454,0.167l0.454,0.165l0.455,0.165l0.455,0.165l0.455,0.163l0.456,0.163l0.455,0.163l0.457,0.161l0.456,0.162l0.456,0.16l0.458,0.159l0.458,0.16l0.457,0.158l0.459,0.158l0.458,0.157l0.459,0.156l0.459,0.156l0.459,0.155l0.46,0.154l0.46,0.154l0.461,0.153l0.46,0.153l0.461,0.152l0.461,0.151l0.463,0.15l0.461,0.15l0.463,0.149l0.462,0.149l0.463,0.147l0.463,0.147l0.464,0.147l0.464,0.146l0.464,0.145l0.464,0.144l0.465,0.144l0.465,0.143l0.466,0.142l0.466,0.142l0.465,0.141l0.466,0.14l0.468,0.14l0.467,0.139l0.467,0.139l0.467,0.137l0.468,0.137l0.468,0.137l0.468,0.135l0.469,0.135l0.47,0.134l0.469,0.134l0.47,0.133l0.47,0.132l0.47,0.132l0.47,0.13l0.471,0.13l0.471,0.13l0.472,0.129l0.472,0.128l0.472,0.128l0.472,0.126l0.473,0.126l0.473,0.126l0.473,0.124l0.474,0.124l0.474,0.124l0.473,0.122l0.475,0.122l0.475,0.121l0.474,0.121l0.476,0.12l0.475,0.119l0.476,0.118l0.477,0.118l0.476,0.117l0.477,0.116l0.477,0.116l0.477,0.115l0.477,0.114l0.478,0.114l0.478,0.113l0.48,0.112l0.478,0.111l0.478,0.111l0.48,0.11l0.48,0.11l0.48,0.108l0.479,0.108l0.481,0.107l0.481,0.107l0.481,0.106l0.481,0.105l0.482,0.104l0.481,0.104l0.482,0.103l0.483,0.102l0.482,0.102l0.484,0.101l0.483,0.1l0.482,0.099l0.484,0.099l0.485,0.098l0.484,0.098l0.484,0.096l0.485,0.096l0.485,0.095l0.485,0.095l0.486,0.094l0.486,0.093l0.486,0.092l0.486,0.092l0.487,0.09l0.487,0.091l0.487,0.089l0.487,0.089l0.488,0.088l0.489,0.087l0.488,0.087l0.488,0.085l0.489,0.086l0.488,0.084l0.49,0.084l0.49,0.083l0.489,0.082l0.49,0.081l0.49,0.081l0.492,0.08l0.49,0.08l0.492,0.078l0.491,0.078l0.491,0.077l0.492,0.077l0.492,0.075l0.493,0.075l0.492,0.074l0.493,0.074l0.493,0.073l0.494,0.072l0.493,0.071l0.494,0.07l0.494,0.07l0.494,0.069l0.495,0.069l0.495,0.067l0.495,0.067l0.495,0.066l0.496,0.066l0.496,0.064l0.496,0.064l0.496,0.064l0.497,0.062l0.497,0.062l0.497,0.061l0.497,0.06l0.497,0.059l0.499,0.059l0.498,0.058l0.498,0.057l0.498,0.057l0.498,0.055l0.5,0.055l0.499,0.055l0.5,0.053l0.499,0.053l0.5,0.052l0.5,0.051l0.501,0.051l0.5,0.049l0.501,0.049l0.501,0.049l0.501,0.047l0.502,0.047l0.502,0.046l0.502,0.045l0.502,0.045l0.502,0.043l0.504,0.043l0.502,0.042l0.504,0.042l0.502,0.04l0.504,0.04l0.504,0.04l0.504,0.038l0.505,0.038l0.504,0.037l0.505,0.036l0.505,0.035l0.504,0.035l0.506,0.033l0.506,0.033l0.506,0.033l0.506,0.031l0.506,0.031l0.507,0.03l0.506,0.029l0.507,0.029l0.507,0.027l0.507,0.027l0.508,0.026l0.508,0.026l0.508,0.024l0.508,0.024l0.508,0.023l0.509,0.023l0.509,0.021l0.509,0.021l0.51,0.02l0.509,0.019l0.51,0.019l0.51,0.017l0.509,0.017l0.511,0.016l0.511,0.015l0.51,0.015l0.511,0.014l0.512,0.013l0.51,0.012l0.512,0.011l0.513,0.011l0.51,0.01l0.513,0.009l0.513,0.008l0.512,0.008l0.513,0.006l0.512,0.006l0.514,0.005l0.514,0.005l0.513,0.003l0.514,0.003l0.514,0.002l0.514,0.001l0.514,0l0.515,0l0.514,-0.001l0.514,-0.002l0.514,-0.003l0.513,-0.003l0.514,-0.005l0.513,-0.005l0.512,-0.006l0.514,-0.006l0.512,-0.008l0.512,-0.008l0.513,-0.009l0.511,-0.01l0.512,-0.011l0.513,-0.011l0.51,-0.012l0.512,-0.013l0.511,-0.014l0.51,-0.015l0.511,-0.015l0.511,-0.016l0.509,-0.017l0.51,-0.017l0.51,-0.019l0.509,-0.019l0.51,-0.02l0.508,-0.021l0.51,-0.021l0.509,-0.023l0.508,-0.023l0.508,-0.024l0.508,-0.024l0.508,-0.026l0.507,-0.026l0.507,-0.027l0.508,-0.027l0.507,-0.029l0.506,-0.029l0.506,-0.03l0.507,-0.031l0.506,-0.031l0.506,-0.033l0.506,-0.033l0.505,-0.033l0.505,-0.035l0.505,-0.035l0.505,-0.036l0.504,-0.037l0.504,-0.038l0.504,-0.038l0.505,-0.04l0.504,-0.04l0.502,-0.04l0.503,-0.042l0.503,-0.042l0.503,-0.043l0.503,-0.043l0.502,-0.045l0.502,-0.045l0.501,-0.046l0.503,-0.047l0.501,-0.047l0.501,-0.049l0.5,-0.049l0.501,-0.049l0.5,-0.051l0.501,-0.051l0.5,-0.052l0.499,-0.053l0.499,-0.053l0.5,-0.055l0.499,-0.055l0.499,-0.055l0.498,-0.057l0.498,-0.057l0.498,-0.058l0.498,-0.059l0.498,-0.059l0.497,-0.06l0.496,-0.061l0.498,-0.062l0.496,-0.062l0.497,-0.064l0.496,-0.064l0.496,-0.064l0.495,-0.066l0.495,-0.066l0.495,-0.067l0.496,-0.067l0.494,-0.069l0.495,-0.069l0.494,-0.07l0.493,-0.07l0.494,-0.071l0.494,-0.072l0.493,-0.073l0.492,-0.074l0.493,-0.074l0.492,-0.075l0.492,-0.075l0.492,-0.077l0.492,-0.077l0.491,-0.078l0.491,-0.078l0.491,-0.08l0.491,-0.08l0.49,-0.081l0.49,-0.081l0.49,-0.082l0.489,-0.083l0.49,-0.084l0.489,-0.084l0.489,-0.086l0.488,-0.085l0.488,-0.087l0.488,-0.087l0.489,-0.088l0.487,-0.089l0.487,-0.089l0.487,-0.091l0.486,-0.09l0.486,-0.092l0.487,-0.092l0.485,-0.093l0.486,-0.094l0.486,-0.095l0.485,-0.095l0.485,-0.096l0.484,-0.096l0.484,-0.098l0.485,-0.098l0.484,-0.099l0.482,-0.099l0.483,-0.1l0.484,-0.101l0.482,-0.102l0.483,-0.102l0.482,-0.103l0.481,-0.104l0.482,-0.104l0.481,-0.105l0.481,-0.106l0.481,-0.107l0.48,-0.107l0.48,-0.108l0.48,-0.108l0.48,-0.11l0.479,-0.11l0.478,-0.111l0.479,-0.111l0.479,-0.112l0.478,-0.113l0.478,-0.114l0.478,-0.114l0.477,-0.115l0.477,-0.116l0.476,-0.116l0.477,-0.117l0.477,-0.118l0.475,-0.118l0.476,-0.119l0.475,-0.12l0.474,-0.121l0.476,-0.121l0.475,-0.122l0.473,-0.122l0.474,-0.124l0.474,-0.124l0.473,-0.124l0.473,-0.126l0.473,-0.126l0.472,-0.126l0.471,-0.128l0.473,-0.128l0.471,-0.129l0.472,-0.13l0.47,-0.13l0.47,-0.13l0.471,-0.132l0.47,-0.132l0.469,-0.133l0.47,-0.134l0.469,-0.134l0.469,-0.135l0.468,-0.135l0.469,-0.137l0.468,-0.137l0.467,-0.137l0.467,-0.139l0.467,-0.139l0.468,-0.14l0.465,-0.14l0.466,-0.141l0.466,-0.142l0.466,-0.142l0.465,-0.143l0.465,-0.144l0.463,-0.144l0.464,-0.145l0.465,-0.146l0.464,-0.147l0.463,-0.147l0.463,-0.147l0.462,-0.149l0.462,-0.149l0.462,-0.15l0.462,-0.15l0.462,-0.151l0.461,-0.152l0.46,-0.152l0.46,-0.154l0.461,-0.154l0.459,-0.154l0.46,-0.155l0.459,-0.156l0.459,-0.156l0.458,-0.157l0.458,-0.158l0.458,-0.158l0.458,-0.16l0.457,-0.159l0.456,-0.16l0.457,-0.162l0.457,-0.161l0.455,-0.163l0.456,-0.163l0.455,-0.163l0.455,-0.165l0.455,-0.165l0.454,-0.165l0.454,-0.167l0.454,-0.167l0.452,-0.167l0.453,-0.168l0.453,-0.169l0.452,-0.17l0.452,-0.17l0.451,-0.171l0.452,-0.171l0.451,-0.172l0.451,-0.173l0.45,-0.174l0.45,-0.174l0.449,-0.174l0.449,-0.176l0.45,-0.176l0.447,-0.176l0.449,-0.178l0.448,-0.178l0.448,-0.178l0.446,-0.179l0.447,-0.18l0.447,-0.181l0.446,-0.181l0.446,-0.182l0.445,-0.182l0.446,-0.183l0.444,-0.184l0.444,-0.184l0.444,-0.185l0.445,-0.186l0.443,-0.186l0.443,-0.187l0.442,-0.187l0.442,-0.188l0.442,-0.189l0.442,-0.19l0.442,-0.19l0.44,-0.19l0.436,-0.189l0.885,-0.387l0.879,-0.387l0.876,-0.389l0.876,-0.392l0.875,-0.395l0.873,-0.397l0.871,-0.4l0.87,-0.401l0.869,-0.405l0.866,-0.407l0.866,-0.409l0.864,-0.412l0.863,-0.414l0.861,-0.417l0.86,-0.419l0.858,-0.422l0.857,-0.424l0.855,-0.427l0.854,-0.428l0.852,-0.432l0.851,-0.434l0.849,-0.436l0.847,-0.438l0.846,-0.442l0.845,-0.443l0.843,-0.446l0.841,-0.448l0.84,-0.451l0.839,-0.453l0.836,-0.455l0.835,-0.458l0.834,-0.46l0.832,-0.463l0.831,-0.465l0.829,-0.467l0.827,-0.469l0.826,-0.472l0.824,-0.474l0.823,-0.477l0.82,-0.479l0.82,-0.481l0.818,-0.484l0.816,-0.486l0.814,-0.488l0.813,-0.49l0.811,-0.493l0.809,-0.495l0.808,-0.498l0.807,-0.499l0.804,-0.502l0.803,-0.504l0.801,-0.507l0.8,-0.509l0.798,-0.511l0.796,-0.513l0.795,-0.516l0.793,-0.518l0.791,-0.52l0.789,-0.522l0.788,-0.525l0.786,-0.527l0.784,-0.528l0.783,-0.532l0.78,-0.533l0.78,-0.536l0.777,-0.538l0.776,-0.54l0.774,-0.542l0.772,-0.544l0.77,-0.547l0.769,-0.549l0.766,-0.551l0.766,-0.553l0.763,-0.555l0.761,-0.558l0.76,-0.56l0.758,-0.561l0.756,-0.564l0.755,-0.566l0.752,-0.569l0.751,-0.57l0.749,-0.573l0.747,-0.574l0.745,-0.577l0.744,-0.579l0.741,-0.581l0.74,-0.583l0.738,-0.585l0.736,-0.587l0.734,-0.59l0.732,-0.591l0.731,-0.594l0.729,-0.595l0.726,-0.598l0.725,-0.6l0.723,-0.602l0.721,-0.603l0.719,-0.606l0.718,-0.608l0.715,-0.61l0.714,-0.612l0.711,-0.614l0.71,-0.617l0.708,-0.618l0.705,-0.62l0.704,-0.622l0.702,-0.624l0.7,-0.626l0.698,-0.628l0.696,-0.631l0.694,-0.632l0.692,-0.634l0.691,-0.636l0.688,-0.638l0.686,-0.64l0.684,-0.642l0.683,-0.644l0.68,-0.646l0.678,-0.648l0.676,-0.65l0.675,-0.652l0.672,-0.653l0.67,-0.656l0.668,-0.658l0.666,-0.659l0.665,-0.662l0.662,-0.663l0.66,-0.665l0.658,-0.667l0.656,-0.669l0.653,-0.671l0.652,-0.673l0.65,-0.675l0.648,-0.676l0.645,-0.679l0.644,-0.68l0.642,-0.682l0.639,-0.684l0.637,-0.686l0.635,-0.688l0.633,-0.69l0.631,-0.691l0.629,-0.693l0.627,-0.695l0.624,-0.697l0.623,-0.699l0.62,-0.7l0.618,-0.703l0.617,-0.704l0.613,-0.706l0.612,-0.707l0.61,-0.71l0.607,-0.711l0.605,-0.714l0.603,-0.714l0.601,-0.717l0.599,-0.718l0.597,-0.721l0.594,-0.722l0.592,-0.723l0.59,-0.726l0.588,-0.727l0.585,-0.729l0.583,-0.73l0.581,-0.733l0.579,-0.734l0.577,-0.735l0.574,-0.738l0.572,-0.739l0.57,-0.741l0.568,-0.743l0.565,-0.744l0.563,-0.746l0.561,-0.748l0.559,-0.749l0.556,-0.751l0.554,-0.753l0.552,-0.754l0.549,-0.756l0.547,-0.758l0.545,-0.759l0.542,-0.761l0.541,-0.763l0.538,-0.764l0.535,-0.766l0.534,-0.768l0.53,-0.769l0.529,-0.77l0.526,-0.773l0.524,-0.773l0.522,-0.776l0.519,-0.777l0.517,-0.779l0.514,-0.78l0.512,-0.782l0.51,-0.784l0.507,-0.785l0.505,-0.787l0.503,-0.788l0.5,-0.789l0.498,-0.791l0.496,-0.794l0.493,-0.794l0.49,-0.796l0.488,-0.797l0.486,-0.799l0.483,-0.801l0.481,-0.802l0.481,-0.808l0.236,-0.398l0.238,-0.402l0.237,-0.404l0.236,-0.403l0.236,-0.404l0.235,-0.404l0.235,-0.405l0.234,-0.405l0.234,-0.405l0.232,-0.406l0.232,-0.405l0.232,-0.407l0.231,-0.407l0.231,-0.408l0.229,-0.407l0.229,-0.408l0.229,-0.409l0.228,-0.408l0.226,-0.408l0.227,-0.411l0.226,-0.409l0.226,-0.41l0.225,-0.411l0.224,-0.41l0.223,-0.412l0.223,-0.412l0.222,-0.411l0.222,-0.412l0.221,-0.414l0.22,-0.412l0.22,-0.414l0.219,-0.414l0.219,-0.414l0.217,-0.414l0.217,-0.415l0.217,-0.415l0.216,-0.416l0.216,-0.416l0.214,-0.416l0.214,-0.416l0.214,-0.418l0.213,-0.417l0.212,-0.417l0.211,-0.418l0.211,-0.419l0.21,-0.419l0.21,-0.418l0.209,-0.42l0.208,-0.42l0.208,-0.42l0.207,-0.42l0.207,-0.421l0.205,-0.421l0.205,-0.422l0.205,-0.422l0.204,-0.422l0.203,-0.423l0.203,-0.422l0.201,-0.424l0.202,-0.423l0.2,-0.424l0.2,-0.425l0.2,-0.424l0.198,-0.424l0.198,-0.426l0.198,-0.426l0.197,-0.426l0.195,-0.426l0.196,-0.426l0.195,-0.428l0.194,-0.427l0.194,-0.428l0.192,-0.427l0.192,-0.428l0.192,-0.429l0.191,-0.429l0.19,-0.43l0.19,-0.429l0.188,-0.43l0.189,-0.431l0.188,-0.431l0.186,-0.43l0.187,-0.431l0.185,-0.432l0.185,-0.432l0.185,-0.433l0.183,-0.432l0.183,-0.433l0.183,-0.433l0.181,-0.434l0.181,-0.433l0.18,-0.435l0.18,-0.435l0.179,-0.434l0.178,-0.435l0.178,-0.437l0.177,-0.435l0.176,-0.436l0.176,-0.436l0.175,-0.437l0.174,-0.437l0.174,-0.438l0.173,-0.438l0.172,-0.438l0.172,-0.438l0.171,-0.439l0.17,-0.439l0.17,-0.439l0.169,-0.44l0.168,-0.44l0.168,-0.44l0.167,-0.44l0.166,-0.441l0.165,-0.442l0.165,-0.441l0.165,-0.442l0.163,-0.442l0.163,-0.442l0.162,-0.443l0.162,-0.444l0.16,-0.443l0.16,-0.443l0.16,-0.444l0.159,-0.445l0.158,-0.445l0.157,-0.444l0.157,-0.445l0.156,-0.446l0.155,-0.446l0.155,-0.445l0.154,-0.448l0.153,-0.446l0.153,-0.447l0.152,-0.448l0.151,-0.447l0.15,-0.448l0.15,-0.448l0.149,-0.449l0.149,-0.448l0.147,-0.449l0.148,-0.45l0.146,-0.45l0.146,-0.45l0.145,-0.45l0.144,-0.45l0.143,-0.451l0.143,-0.451l0.143,-0.452l0.141,-0.452l0.141,-0.452l0.14,-0.452l0.139,-0.452l0.139,-0.454l0.138,-0.453l0.137,-0.453l0.137,-0.455l0.136,-0.454l0.135,-0.453l0.134,-0.455l0.134,-0.455l0.133,-0.455l0.133,-0.456l0.131,-0.455l0.131,-0.457l0.131,-0.456l0.129,-0.456l0.129,-0.457l0.128,-0.458l0.127,-0.458l0.127,-0.458l0.126,-0.457l0.125,-0.458l0.125,-0.459l0.124,-0.459l0.123,-0.459l0.122,-0.459l0.122,-0.46l0.121,-0.46l0.12,-0.46l0.12,-0.46l0.119,-0.462l0.118,-0.46l0.117,-0.462l0.117,-0.462l0.116,-0.461l0.115,-0.463l0.115,-0.461l0.114,-0.464l0.113,-0.463l0.112,-0.462l0.112,-0.464l0.111,-0.464l0.11,-0.464l0.109,-0.464l0.109,-0.466l0.108,-0.464l0.107,-0.465l0.107,-0.466l0.106,-0.465l0.105,-0.465l0.104,-0.467l0.104,-0.467l0.103,-0.466l0.102,-0.467l0.102,-0.467l0.1,-0.467l0.1,-0.468l0.099,-0.468l0.099,-0.468l0.098,-0.469l0.097,-0.469l0.096,-0.469l0.096,-0.469l0.095,-0.469l0.094,-0.47l0.093,-0.47l0.093,-0.47l0.092,-0.471l0.091,-0.471l0.09,-0.471l0.09,-0.47l0.089,-0.472l0.088,-0.473l0.088,-0.472l0.086,-0.472l0.086,-0.472l0.086,-0.472l0.084,-0.474l0.084,-0.474l0.083,-0.472l0.082,-0.474l0.082,-0.475l0.08,-0.473l0.08,-0.475l0.08,-0.476l0.078,-0.474l0.078,-0.475l0.077,-0.476l0.076,-0.476l0.076,-0.475l0.074,-0.476l0.074,-0.477l0.074,-0.477l0.072,-0.477l0.072,-0.477l0.071,-0.477l0.07,-0.478l0.069,-0.478l0.069,-0.478l0.068,-0.479l0.067,-0.477l0.067,-0.48l0.065,-0.479l0.065,-0.479l0.064,-0.479l0.064,-0.48l0.062,-0.48l0.062,-0.481l0.061,-0.48l0.06,-0.48l0.06,-0.482l0.059,-0.481l0.058,-0.481l0.057,-0.482l0.057,-0.482l0.055,-0.481l0.055,-0.483l0.055,-0.483l0.053,-0.482l0.053,-0.483l0.051,-0.483l0.051,-0.483l0.051,-0.484l0.049,-0.485l0.049,-0.483l0.048,-0.484l0.047,-0.485l0.047,-0.485l0.045,-0.484l0.045,-0.486l0.045,-0.486l0.043,-0.485l0.042,-0.485l0.042,-0.487l0.041,-0.487l0.04,-0.485l0.04,-0.487l0.039,-0.488l0.037,-0.487l0.038,-0.487l0.036,-0.487l0.035,-0.488l0.035,-0.488l0.034,-0.488l0.033,-0.489l0.033,-0.489l0.031,-0.488l0.031,-0.489l0.03,-0.49l0.029,-0.489l0.029,-0.49l0.027,-0.49l0.027,-0.49l0.026,-0.49l0.026,-0.49l0.024,-0.491l0.024,-0.492l0.023,-0.491l0.022,-0.491l0.021,-0.491l0.021,-0.492l0.019,-0.492l0.019,-0.492l0.018,-0.493l0.018,-0.492l0.016,-0.493l0.016,-0.494l0.015,-0.492l0.014,-0.493l0.013,-0.494l0.013,-0.494l0.012,-0.494l0.01,-0.494l0.011,-0.494l0.009,-0.495l0.008,-0.495l0.008,-0.495l0.007,-0.495l0.006,-0.495l0.005,-0.496l0.005,-0.495l0.003,-0.496l0.003,-0.497l0.002,-0.495l0.001,-0.497l0.001,-0.497l-0.001,-0.497l-0.001,-0.497l-0.002,-0.495l-0.003,-0.497l-0.003,-0.495l-0.005,-0.496l-0.005,-0.496l-0.006,-0.495l-0.007,-0.495l-0.008,-0.495l-0.008,-0.495l-0.009,-0.495l-0.011,-0.494l-0.01,-0.494l-0.012,-0.493l-0.013,-0.495l-0.013,-0.494l-0.014,-0.493l-0.015,-0.492l-0.016,-0.494l-0.016,-0.493l-0.018,-0.492l-0.018,-0.493l-0.019,-0.492l-0.019,-0.491l-0.021,-0.492l-0.021,-0.492l-0.022,-0.491l-0.023,-0.491l-0.024,-0.491l-0.024,-0.491l-0.026,-0.491l-0.026,-0.49l-0.027,-0.49l-0.027,-0.49l-0.029,-0.49l-0.029,-0.489l-0.03,-0.49l-0.031,-0.489l-0.031,-0.488l-0.033,-0.488l-0.033,-0.49l-0.034,-0.488l-0.035,-0.488l-0.035,-0.487l-0.036,-0.488l-0.038,-0.487l-0.037,-0.487l-0.039,-0.488l-0.04,-0.486l-0.04,-0.486l-0.041,-0.487l-0.042,-0.487l-0.042,-0.484l-0.043,-0.486l-0.045,-0.486l-0.045,-0.485l-0.045,-0.485l-0.047,-0.485l-0.047,-0.485l-0.048,-0.484l-0.049,-0.483l-0.049,-0.485l-0.051,-0.484l-0.051,-0.483l-0.051,-0.482l-0.053,-0.484l-0.053,-0.482l-0.055,-0.483l-0.055,-0.483l-0.055,-0.481l-0.057,-0.482l-0.057,-0.482l-0.058,-0.481l-0.059,-0.481l-0.06,-0.481l-0.06,-0.48l-0.061,-0.481l-0.062,-0.48l-0.062,-0.481l-0.064,-0.48l-0.064,-0.479l-0.065,-0.479l-0.065,-0.479l-0.067,-0.48l-0.067,-0.477l-0.068,-0.479l-0.069,-0.478l-0.069,-0.478l-0.07,-0.477l-0.071,-0.478l-0.072,-0.477l-0.072,-0.477l-0.074,-0.477l-0.074,-0.477l-0.074,-0.476l-0.076,-0.475l-0.076,-0.476l-0.077,-0.476l-0.078,-0.474l-0.078,-0.475l-0.08,-0.476l-0.08,-0.475l-0.08,-0.473l-0.082,-0.474l-0.082,-0.475l-0.083,-0.472l-0.084,-0.474l-0.084,-0.473l-0.086,-0.473l-0.086,-0.472l-0.086,-0.472l-0.088,-0.472l-0.088,-0.472l-0.089,-0.472l-0.09,-0.471l-0.09,-0.471l-0.091,-0.471l-0.092,-0.471l-0.093,-0.47l-0.093,-0.47l-0.094,-0.47l-0.095,-0.469l-0.096,-0.469l-0.096,-0.469l-0.097,-0.468l-0.098,-0.47l-0.099,-0.468l-0.099,-0.468l-0.1,-0.467l-0.1,-0.468l-0.102,-0.467l-0.102,-0.467l-0.103,-0.466l-0.104,-0.467l-0.104,-0.466l-0.105,-0.466l-0.106,-0.465l-0.107,-0.466l-0.107,-0.465l-0.108,-0.464l-0.109,-0.466l-0.109,-0.464l-0.11,-0.464l-0.111,-0.464l-0.112,-0.463l-0.112,-0.463l-0.113,-0.463l-0.114,-0.464l-0.115,-0.461l-0.115,-0.463l-0.116,-0.461l-0.117,-0.462l-0.117,-0.462l-0.118,-0.46l-0.119,-0.461l-0.12,-0.461l-0.12,-0.46l-0.121,-0.46l-0.122,-0.46l-0.122,-0.459l-0.123,-0.459l-0.124,-0.459l-0.125,-0.459l-0.125,-0.458l-0.126,-0.457l-0.127,-0.458l-0.127,-0.458l-0.128,-0.458l-0.129,-0.457l-0.129,-0.456l-0.131,-0.456l-0.131,-0.457l-0.131,-0.455l-0.133,-0.455l-0.133,-0.456l-0.134,-0.455l-0.134,-0.455l-0.135,-0.453l-0.136,-0.454l-0.137,-0.455l-0.137,-0.453l-0.138,-0.453l-0.139,-0.454l-0.139,-0.451l-0.14,-0.453l-0.141,-0.452l-0.141,-0.451l-0.143,-0.453l-0.143,-0.451l-0.143,-0.45l-0.144,-0.451l-0.145,-0.45l-0.146,-0.45l-0.146,-0.45l-0.148,-0.449l-0.147,-0.449l-0.149,-0.449l-0.149,-0.449l-0.15,-0.448l-0.15,-0.448l-0.151,-0.447l-0.152,-0.448l-0.153,-0.447l-0.153,-0.446l-0.154,-0.448l-0.155,-0.445l-0.155,-0.446l-0.156,-0.446l-0.157,-0.444l-0.157,-0.445l-0.158,-0.445l-0.159,-0.444l-0.16,-0.445l-0.16,-0.443l-0.16,-0.443l-0.162,-0.444l-0.162,-0.443l-0.163,-0.442l-0.163,-0.441l-0.165,-0.442l-0.165,-0.442l-0.165,-0.442l-0.166,-0.44l-0.167,-0.441l-0.168,-0.44l-0.168,-0.44l-0.169,-0.44l-0.17,-0.439l-0.17,-0.439l-0.171,-0.439l-0.172,-0.438l-0.172,-0.438l-0.173,-0.438l-0.174,-0.437l-0.174,-0.438l-0.175,-0.437l-0.176,-0.436l-0.176,-0.436l-0.177,-0.435l-0.178,-0.437l-0.178,-0.435l-0.179,-0.434l-0.18,-0.435l-0.18,-0.434l-0.181,-0.434l-0.181,-0.433l-0.183,-0.434l-0.183,-0.433l-0.183,-0.432l-0.185,-0.433l-0.185,-0.432l-0.185,-0.432l-0.187,-0.431l-0.186,-0.43l-0.188,-0.431l-0.189,-0.431l-0.188,-0.429l-0.19,-0.43l-0.19,-0.429l-0.191,-0.43l-0.192,-0.429l-0.192,-0.427l-0.192,-0.428l-0.194,-0.428l-0.194,-0.427l-0.195,-0.427l-0.196,-0.427l-0.195,-0.426l-0.197,-0.426l-0.198,-0.426l-0.198,-0.425l-0.198,-0.425l-0.2,-0.424l-0.2,-0.425l-0.2,-0.424l-0.202,-0.423l-0.201,-0.423l-0.203,-0.423l-0.203,-0.423l-0.204,-0.422l-0.205,-0.422l-0.205,-0.422l-0.205,-0.421l-0.207,-0.421l-0.207,-0.42l-0.207,-0.42l-0.209,-0.419l-0.209,-0.42l-0.21,-0.419l-0.21,-0.419l-0.211,-0.419l-0.211,-0.418l-0.212,-0.417l-0.213,-0.417l-0.214,-0.418l-0.214,-0.416l-0.214,-0.416l-0.216,-0.416l-0.216,-0.416l-0.216,-0.415l-0.218,-0.415l-0.217,-0.414l-0.219,-0.414l-0.219,-0.414l-0.22,-0.413l-0.22,-0.413l-0.221,-0.414l-0.222,-0.412l-0.222,-0.411l-0.223,-0.412l-0.224,-0.411l-0.223,-0.411l-0.225,-0.41l-0.226,-0.411l-0.225,-0.409l-0.228,-0.41l-0.226,-0.409l-0.228,-0.408l-0.229,-0.409l-0.229,-0.408l-0.229,-0.407l-0.231,-0.407l-0.231,-0.408l-0.232,-0.407l-0.232,-0.405l-0.232,-0.406l-0.234,-0.405l-0.234,-0.405l-0.235,-0.405l-0.235,-0.404l-0.236,-0.404l-0.236,-0.403l-0.238,-0.404l-0.237,-0.402l-0.236,-0.398l-0.481,-0.808l-0.481,-0.802l-0.483,-0.801l-0.486,-0.799l-0.488,-0.797l-0.49,-0.796l-0.493,-0.794l-0.496,-0.793l-0.498,-0.792l-0.5,-0.789l-0.503,-0.788l-0.505,-0.787l-0.507,-0.785l-0.51,-0.784l-0.512,-0.782l-0.514,-0.78l-0.517,-0.779l-0.519,-0.777l-0.522,-0.775l-0.524,-0.774l-0.526,-0.773l-0.529,-0.77l-0.53,-0.769l-0.534,-0.768l-0.535,-0.766l-0.538,-0.764l-0.541,-0.763l-0.542,-0.761l-0.545,-0.759l-0.547,-0.758l-0.549,-0.756l-0.552,-0.754l-0.554,-0.753l-0.557,-0.751l-0.558,-0.749l-0.561,-0.748l-0.563,-0.746l-0.565,-0.744l-0.568,-0.743l-0.57,-0.741l-0.572,-0.739l-0.574,-0.737l-0.577,-0.736l-0.579,-0.734l-0.581,-0.733l-0.583,-0.73l-0.585,-0.729l-0.588,-0.727l-0.59,-0.726l-0.592,-0.723l-0.594,-0.722l-0.597,-0.72l-0.599,-0.719l-0.601,-0.716l-0.603,-0.715l-0.605,-0.713l-0.607,-0.712l-0.61,-0.71l-0.612,-0.707l-0.613,-0.706l-0.617,-0.704l-0.618,-0.702l-0.62,-0.701l-0.623,-0.699l-0.624,-0.697l-0.627,-0.695l-0.629,-0.693l-0.631,-0.692l-0.633,-0.689l-0.635,-0.688l-0.637,-0.685l-0.639,-0.684l-0.642,-0.683l-0.644,-0.68l-0.645,-0.679l-0.648,-0.676l-0.65,-0.675l-0.652,-0.673l-0.653,-0.67l-0.656,-0.669l-0.658,-0.668l-0.66,-0.665l-0.662,-0.663l-0.665,-0.662l-0.666,-0.659l-0.668,-0.658l-0.67,-0.655l-0.672,-0.654l-0.675,-0.652l-0.676,-0.65l-0.678,-0.648l-0.681,-0.646l-0.682,-0.644l-0.684,-0.642l-0.686,-0.639l-0.688,-0.639l-0.691,-0.636l-0.692,-0.634l-0.694,-0.632l-0.696,-0.63l-0.698,-0.628l-0.7,-0.627l-0.702,-0.624l-0.704,-0.622l-0.706,-0.62l-0.707,-0.618l-0.71,-0.616l-0.711,-0.615l-0.714,-0.612l-0.715,-0.61l-0.718,-0.608l-0.719,-0.605l-0.721,-0.604l-0.723,-0.602l-0.725,-0.6l-0.726,-0.598l-0.729,-0.595l-0.731,-0.594l-0.732,-0.591l-0.734,-0.59l-0.736,-0.587l-0.738,-0.585l-0.74,-0.583l-0.741,-0.581l-0.744,-0.579l-0.745,-0.577l-0.747,-0.574l-0.749,-0.573l-0.751,-0.57l-0.752,-0.568l-0.755,-0.567l-0.756,-0.564l-0.758,-0.561l-0.76,-0.56l-0.761,-0.558l-0.763,-0.555l-0.766,-0.553l-0.767,-0.551l-0.768,-0.549l-0.77,-0.546l-0.773,-0.545l-0.773,-0.542l-0.776,-0.54l-0.777,-0.538l-0.78,-0.536l-0.78,-0.533l-0.783,-0.531l-0.784,-0.529l-0.786,-0.527l-0.788,-0.525l-0.79,-0.522l-0.79,-0.52l-0.793,-0.518l-0.795,-0.516l-0.796,-0.513l-0.798,-0.511l-0.8,-0.509l-0.801,-0.506l-0.803,-0.505l-0.804,-0.501l-0.807,-0.5l-0.808,-0.498l-0.809,-0.495l-0.811,-0.492l-0.813,-0.491l-0.814,-0.488l-0.816,-0.486l-0.818,-0.484l-0.82,-0.481l-0.821,-0.479l-0.822,-0.477l-0.824,-0.474l-0.826,-0.472l-0.827,-0.469l-0.829,-0.467l-0.831,-0.465l-0.832,-0.463l-0.833,-0.46l-0.836,-0.458l-0.837,-0.455l-0.838,-0.453l-0.84,-0.451l-0.841,-0.448l-0.843,-0.446l-0.845,-0.443l-0.846,-0.441l-0.848,-0.439l-0.849,-0.436l-0.85,-0.434l-0.852,-0.431l-0.854,-0.429l-0.855,-0.427l-0.857,-0.424l-0.858,-0.422l-0.86,-0.419l-0.861,-0.417l-0.863,-0.414l-0.864,-0.412l-0.865,-0.409l-0.867,-0.407l-0.869,-0.404l-0.87,-0.402l-0.871,-0.4l-0.873,-0.397l-0.875,-0.394l-0.875,-0.392l-0.878,-0.39l-0.878,-0.387l-0.885,-0.386l-0.436,-0.19l-0.441,-0.19l-0.441,-0.19l-0.442,-0.19l-0.441,-0.188l-0.443,-0.189l-0.442,-0.187l-0.443,-0.187l-0.444,-0.186l-0.444,-0.186l-0.444,-0.185l-0.444,-0.184l-0.445,-0.184l-0.445,-0.183l-0.445,-0.182l-0.446,-0.182l-0.446,-0.181l-0.447,-0.181l-0.447,-0.179l-0.447,-0.18l-0.447,-0.178l-0.448,-0.178l-0.448,-0.178l-0.449,-0.176l-0.449,-0.176l-0.449,-0.175l-0.449,-0.175l-0.45,-0.174l-0.451,-0.174l-0.45,-0.172l-0.451,-0.173l-0.451,-0.171l-0.452,-0.171l-0.452,-0.17l-0.452,-0.17l-0.453,-0.169l-0.452,-0.168l-0.454,-0.167l-0.453,-0.167l-0.454,-0.167l-0.455,-0.165l-0.454,-0.165l-0.455,-0.164l-0.455,-0.164l-0.456,-0.163l-0.455,-0.163l-0.457,-0.161l-0.456,-0.161l-0.457,-0.161l-0.457,-0.159l-0.458,-0.159l-0.458,-0.159l-0.458,-0.158l-0.458,-0.157l-0.459,-0.156l-0.459,-0.156l-0.46,-0.155l-0.459,-0.154l-0.46,-0.154l-0.461,-0.153l-0.461,-0.153l-0.461,-0.152l-0.461,-0.151l-0.462,-0.15l-0.462,-0.15l-0.462,-0.149l-0.462,-0.148l-0.463,-0.148l-0.464,-0.147l-0.463,-0.147l-0.464,-0.145l-0.464,-0.146l-0.465,-0.144l-0.464,-0.144l-0.466,-0.143l-0.465,-0.142l-0.466,-0.142l-0.466,-0.141l-0.466,-0.14l-0.467,-0.14l-0.467,-0.139l-0.467,-0.138l-0.468,-0.138l-0.467,-0.137l-0.469,-0.136l-0.468,-0.136l-0.469,-0.135l-0.469,-0.134l-0.469,-0.134l-0.47,-0.133l-0.47,-0.132l-0.47,-0.131l-0.471,-0.131l-0.471,-0.13l-0.471,-0.13l-0.471,-0.129l-0.472,-0.128l-0.472,-0.127l-0.473,-0.127l-0.472,-0.126l-0.473,-0.125l-0.473,-0.125l-0.474,-0.124l-0.474,-0.123l-0.474,-0.123l-0.474,-0.122l-0.475,-0.121l-0.475,-0.121l-0.475,-0.119l-0.476,-0.12l-0.476,-0.118l-0.476,-0.118l-0.476,-0.117l-0.477,-0.116l-0.477,-0.116l-0.477,-0.115l-0.478,-0.114l-0.478,-0.114l-0.478,-0.113l-0.478,-0.112l-0.479,-0.111l-0.479,-0.111l-0.479,-0.11l-0.48,-0.109l-0.48,-0.109l-0.48,-0.108l-0.48,-0.107l-0.481,-0.107l-0.481,-0.106l-0.481,-0.105l-0.482,-0.104l-0.482,-0.104l-0.482,-0.103l-0.482,-0.102l-0.483,-0.102l-0.482,-0.101l-0.484,-0.1l-0.483,-0.099l-0.484,-0.099l-0.484,-0.098l-0.484,-0.097l-0.484,-0.097l-0.485,-0.096l-0.485,-0.095l-0.486,-0.095l-0.485,-0.093l-0.486,-0.093l-0.486,-0.093l-0.487,-0.091l-0.486,-0.091l-0.487,-0.09l-0.487,-0.09l-0.488,-0.089l-0.488,-0.088l-0.488,-0.087l-0.488,-0.086l-0.488,-0.086l-0.489,-0.085l-0.489,-0.085l-0.489,-0.084l-0.49,-0.083l-0.49,-0.082l-0.49,-0.081l-0.49,-0.081l-0.491,-0.08l-0.491,-0.079l-0.491,-0.079l-0.491,-0.078l-0.492,-0.077l-0.492,-0.076l-0.492,-0.076l-0.492,-0.075l-0.493,-0.074l-0.492,-0.074l-0.494,-0.073l-0.493,-0.072l-0.494,-0.071l-0.493,-0.07l-0.495,-0.07l-0.494,-0.069l-0.494,-0.069l-0.495,-0.067l-0.495,-0.067l-0.496,-0.066l-0.495,-0.066l-0.496,-0.064l-0.496,-0.064l-0.497,-0.063l-0.496,-0.063l-0.497,-0.062l-0.497,-0.06l-0.497,-0.061l-0.498,-0.059l-0.498,-0.059l-0.498,-0.058l-0.498,-0.057l-0.499,-0.057l-0.498,-0.055l-0.499,-0.055l-0.499,-0.055l-0.5,-0.053l-0.5,-0.053l-0.499,-0.052l-0.501,-0.051l-0.5,-0.051l-0.501,-0.049l-0.5,-0.049l-0.502,-0.048l-0.501,-0.048l-0.501,-0.047l-0.502,-0.046l-0.502,-0.045l-0.502,-0.044l-0.503,-0.044l-0.503,-0.043l-0.502,-0.042l-0.504,-0.042l-0.503,-0.04l-0.504,-0.04l-0.503,-0.039l-0.504,-0.039l-0.505,-0.037l-0.504,-0.037l-0.505,-0.036l-0.505,-0.036l-0.505,-0.034l-0.505,-0.034l-0.506,-0.033l-0.506,-0.033l-0.506,-0.031l-0.506,-0.031l-0.507,-0.03l-0.506,-0.029l-0.507,-0.029l-0.508,-0.027l-0.507,-0.027l-0.507,-0.026l-0.508,-0.026l-0.508,-0.024l-0.508,-0.024l-0.509,-0.023l-0.509,-0.023l-0.508,-0.021l-0.509,-0.021l-0.51,-0.02l-0.509,-0.019l-0.51,-0.018l-0.51,-0.018l-0.51,-0.017l-0.51,-0.016l-0.511,-0.015l-0.511,-0.015l-0.51,-0.014l-0.512,-0.013l-0.511,-0.012l-0.512,-0.011l-0.511,-0.011l-0.512,-0.01l-0.512,-0.009l-0.513,-0.008l-0.512,-0.007l-0.513,-0.007l-0.513,-0.006l-0.513,-0.005l-0.514,-0.004l-0.513,-0.004l-0.514,-0.003l-0.514,-0.002l-0.514,-0.001l-0.515,0l-0.514,0Z" style="fill:#fff0cc;"/></svg>