<?xml version="1.0" encoding="UTF-8" standalone="no"?><!DOCTYPE svg PUBLIC "-//W3C//DTD SVG 1.1//EN" "http://www.w3.org/Graphics/SVG/1.1/DTD/svg11.dtd"><svg viewBox="0 0 256 256" version="1.1" xmlns="http://www.w3.org/2000/svg" xmlns:xlink="http://www.w3.org/1999/xlink" xml:space="preserve" style="fill-rule:evenodd;clip-rule:evenodd;stroke-linejoin:round;stroke-miterlimit:1.41421;"><clipPath id="_clip1"><path d="M79.466,72.325l-35.681,7.612l22.872,16.25l-29.97,55.85l52.035,-39.164l42.383,31.943l-3.234,-11.526l-1.232,-4.831c0,0 -3.466,-8.791 4.679,-11.688c4.775,-1.693 11.101,-1.145 18.099,-0.595c4.944,0.388 10.224,0.776 15.531,0.373c7.722,-0.565 19.489,-4.566 33.496,-14.713c-3.221,1.107 -6.714,2.188 -10.525,3.198c-10.774,2.831 -20.652,0.459 -29.881,-1.914c-6.408,-1.647 -12.504,-3.295 -18.369,-3.201c-23.128,0.364 -23.95,15.971 -23.677,19.293c-5.751,-4.211 -3.887,-7.182 -3.887,-7.182c0,0 1.035,-15.969 31.118,-17.861c6.608,-0.403 12.59,0.468 18.569,1.339c8.095,1.18 16.184,2.36 25.817,0.371c20.975,-4.302 38.873,-20.494 41.205,-23.466l-0.128,0.233c0.336,-0.397 0.681,-0.814 1.016,-1.224c-7.924,4.692 -21.516,11.507 -35.227,12.579c-12.272,0.939 -21.404,-0.486 -30.035,-1.914c-8.35,-1.379 -16.233,-2.759 -26.035,-1.998c-9.775,0.736 -27.262,8.517 -28.019,20.384c-0.747,11.865 -2.77,-10.238 -2.77,-10.238c0,0 15.333,-17.452 42.5,-17.721c8.644,-0.087 15.585,0.328 21.755,0.745c10.125,0.684 18.173,1.369 28.271,-0.18c18.799,-2.87 38.82,-17.549 45.739,-23.956c0.001,-0.003 0.004,-0.007 0.005,-0.009c-0.985,0.621 -24.969,15.534 -49.848,11.736c-22.694,-3.492 -23.356,-4.989 -33.775,-4.707c-14.77,0.398 -38.271,6.948 -50.992,10.286l-2.119,0.375l-9.081,-32.937l-20.605,38.458Zm166.42,-23.211c0.021,-0.013 0.031,-0.019 0.031,-0.019c0,0 -0.02,0.006 -0.031,0.019Z"/></clipPath><g clip-path="url(#_clip1)"><path d="M11.153,137.583l94.906,-167.658l139.858,79.17l-94.905,167.657l-139.859,-79.169Z" style="fill:url(#_Linear2);fill-rule:nonzero;"/></g><path d="M135.049,89.441l-2.861,-1.791l4.178,-0.832l2.017,-4.424l0.517,3.863l4.323,-1.015l-3.773,3.23l1.355,3.609l-3.795,-1.629l-4.436,3.45l2.475,-4.461Z" style="fill:#fff;fill-rule:nonzero;"/><path d="M151.07,88.343l-2.367,-2.497l4.225,0.102l2.872,-4.06l-0.324,4.079l4.398,-0.033l-4.347,2.447l0.507,3.996l-3.317,-2.539l-5.012,2.516l3.365,-4.011Z" style="fill:#fff;fill-rule:nonzero;"/><path d="M166.142,90.356l-2.035,-2.366l3.885,0.31l2.947,-3.508l-0.547,3.657l4.072,0.19l-4.174,1.983l0.232,3.636l-2.917,-2.472l-4.808,1.994l3.345,-3.424Z" style="fill:#fff;fill-rule:nonzero;"/><path d="M138.404,80.088c19.938,-1.547 31.927,5.759 56.071,3.912c13.711,-1.071 27.304,-7.886 35.227,-12.578c5.305,-6.551 10.726,-13.935 16.18,-22.299c-6.921,6.407 -26.941,21.085 -45.74,23.956c-16.25,2.49 -27.19,-0.798 -50.026,-0.566c-10.788,0.117 -19.716,2.931 -26.545,6.305l12.813,-9.589l6.66,-4.889l-38.979,8.598l-5.962,-24.203l-14.335,27.637l-25.266,5.71l16.693,10.876l-18.532,35.766l33.553,-25.031l26.582,19.02c0,0 -0.874,-3.557 -0.806,-3.5c-0.273,-3.322 0.55,-18.93 23.677,-19.294c14.311,-0.231 29.996,9.912 48.249,5.114c3.813,-1.01 7.305,-2.09 10.526,-3.197c9.281,-6.758 19.535,-16.214 30.242,-29.19l0.128,-0.234c-2.332,2.973 -20.23,19.165 -41.204,23.469c-16.749,3.453 -28.829,-2.663 -44.387,-1.711c-21.23,1.346 -27.982,9.692 -30.121,14.479l-1.407,-5.541l-0.911,-3.671l-0.17,-0.628c2.177,-10.922 18.471,-18.017 27.79,-18.721" style="fill:#fff;fill-rule:nonzero;"/><g id="Capa1"><g><path d="M65.771,166.574l-7.375,0l-2.235,4.113l-3.935,0l10.524,-18.611l4.253,0l3.021,18.611l-3.63,0l-0.623,-4.113Zm-0.469,-3.097l-1.079,-7.491l-4.494,7.491l5.573,0Z" style="fill:#4c9fd7;fill-rule:nonzero;"/><path d="M72.31,170.687l3.897,-18.611l3.631,0l-3.885,18.611l-3.643,0Z" style="fill:#4c9fd7;fill-rule:nonzero;"/><path d="M88.699,165.609l3.542,0.572c-0.584,1.574 -1.447,2.771 -2.59,3.592c-1.142,0.821 -2.467,1.232 -3.973,1.232c-1.718,0 -3.081,-0.512 -4.088,-1.536c-1.007,-1.024 -1.511,-2.434 -1.511,-4.228c0,-1.464 0.305,-2.848 0.914,-4.151c0.61,-1.304 1.528,-2.33 2.755,-3.079c1.227,-0.749 2.573,-1.123 4.037,-1.123c1.591,0 2.861,0.414 3.809,1.244c0.948,0.829 1.481,1.921 1.599,3.275l-3.465,0.368c-0.085,-0.753 -0.316,-1.307 -0.692,-1.663c-0.377,-0.355 -0.87,-0.533 -1.479,-0.533c-0.703,0 -1.359,0.262 -1.968,0.787c-0.61,0.525 -1.077,1.31 -1.403,2.355c-0.326,1.045 -0.489,2.025 -0.489,2.939c0,0.796 0.195,1.409 0.584,1.841c0.39,0.432 0.876,0.647 1.46,0.647c0.584,0 1.147,-0.211 1.689,-0.634c0.541,-0.424 0.965,-1.058 1.269,-1.905Z" style="fill:#4c9fd7;fill-rule:nonzero;"/><path d="M99.16,161.026l-3.555,-0.304c0.407,-1.202 1.116,-2.142 2.127,-2.819c1.011,-0.677 2.351,-1.015 4.018,-1.015c1.735,0 3.017,0.349 3.847,1.047c0.829,0.698 1.244,1.551 1.244,2.558c0,0.406 -0.036,0.838 -0.108,1.295c-0.072,0.457 -0.324,1.659 -0.755,3.606c-0.356,1.608 -0.534,2.733 -0.534,3.377c0,0.575 0.102,1.214 0.305,1.916l-3.542,0c-0.144,-0.49 -0.233,-0.998 -0.267,-1.523c-0.533,0.593 -1.146,1.047 -1.84,1.365c-0.694,0.317 -1.393,0.476 -2.095,0.476c-1.117,0 -2.04,-0.366 -2.768,-1.098c-0.728,-0.732 -1.091,-1.674 -1.091,-2.825c0,-1.286 0.399,-2.315 1.199,-3.085c0.8,-0.77 2.228,-1.236 4.285,-1.396c1.735,-0.144 2.894,-0.318 3.478,-0.521c0.153,-0.508 0.229,-0.914 0.229,-1.219c0,-0.389 -0.157,-0.715 -0.47,-0.977c-0.313,-0.263 -0.778,-0.394 -1.396,-0.394c-0.652,0 -1.166,0.134 -1.543,0.4c-0.376,0.267 -0.632,0.645 -0.768,1.136Zm3.466,3.377c-0.22,0.06 -0.512,0.115 -0.876,0.165c-1.828,0.22 -3.021,0.542 -3.58,0.965c-0.398,0.305 -0.597,0.715 -0.597,1.232c0,0.423 0.153,0.78 0.457,1.072c0.305,0.292 0.707,0.438 1.206,0.438c0.55,0 1.069,-0.133 1.556,-0.4c0.486,-0.266 0.85,-0.609 1.091,-1.028c0.242,-0.419 0.455,-1.073 0.641,-1.961l0.102,-0.483Z" style="fill:#4c9fd7;fill-rule:nonzero;"/><path d="M108.453,170.687l3.898,-18.611l3.63,0l-3.884,18.611l-3.644,0Z" style="fill:#4c9fd7;fill-rule:nonzero;"/><path d="M128.156,170.687l-3.453,0l0.305,-1.459c-0.66,0.634 -1.31,1.089 -1.949,1.364c-0.639,0.275 -1.36,0.413 -2.164,0.413c-1.397,0 -2.529,-0.476 -3.396,-1.428c-0.868,-0.952 -1.302,-2.36 -1.302,-4.222c0,-2.158 0.61,-4.109 1.828,-5.852c1.219,-1.744 2.831,-2.615 4.837,-2.615c1.811,0 3.17,0.719 4.075,2.158l1.46,-6.97l3.644,0l-3.885,18.611Zm-8.417,-5.484c0,0.965 0.244,1.718 0.73,2.26c0.487,0.542 1.086,0.812 1.797,0.812c0.66,0 1.276,-0.226 1.847,-0.679c0.571,-0.453 1.028,-1.145 1.371,-2.075c0.343,-0.931 0.514,-1.824 0.514,-2.679c0,-0.974 -0.262,-1.761 -0.787,-2.362c-0.525,-0.6 -1.13,-0.901 -1.815,-0.901c-1.067,0 -1.943,0.593 -2.628,1.777c-0.686,1.185 -1.029,2.468 -1.029,3.847Z" style="fill:#4c9fd7;fill-rule:nonzero;"/><path d="M134.402,157.205l3.644,0l-2.818,13.482l-3.644,0l2.818,-13.482Zm2.996,-5.51l3.885,0l-4.113,3.809l-2.425,0l2.653,-3.809Z" style="fill:#4c9fd7;fill-rule:nonzero;"/><path d="M143.949,161.026l-3.554,-0.304c0.406,-1.202 1.115,-2.142 2.126,-2.819c1.011,-0.677 2.351,-1.015 4.018,-1.015c1.735,0 3.017,0.349 3.847,1.047c0.829,0.698 1.244,1.551 1.244,2.558c0,0.406 -0.036,0.838 -0.108,1.295c-0.072,0.457 -0.324,1.659 -0.755,3.606c-0.356,1.608 -0.534,2.733 -0.534,3.377c0,0.575 0.102,1.214 0.305,1.916l-3.542,0c-0.144,-0.49 -0.233,-0.998 -0.267,-1.523c-0.533,0.593 -1.146,1.047 -1.84,1.365c-0.694,0.317 -1.393,0.476 -2.095,0.476c-1.117,0 -2.04,-0.366 -2.768,-1.098c-0.728,-0.732 -1.091,-1.674 -1.091,-2.825c0,-1.286 0.399,-2.315 1.199,-3.085c0.8,-0.77 2.228,-1.236 4.285,-1.396c1.735,-0.144 2.894,-0.318 3.478,-0.521c0.153,-0.508 0.229,-0.914 0.229,-1.219c0,-0.389 -0.157,-0.715 -0.47,-0.977c-0.313,-0.263 -0.778,-0.394 -1.396,-0.394c-0.652,0 -1.166,0.134 -1.543,0.4c-0.376,0.267 -0.632,0.645 -0.768,1.136Zm3.466,3.377c-0.22,0.06 -0.512,0.115 -0.876,0.165c-1.828,0.22 -3.021,0.542 -3.58,0.965c-0.398,0.305 -0.597,0.715 -0.597,1.232c0,0.423 0.153,0.78 0.457,1.072c0.305,0.292 0.707,0.438 1.206,0.438c0.551,0 1.069,-0.133 1.556,-0.4c0.486,-0.266 0.85,-0.609 1.091,-1.028c0.242,-0.419 0.455,-1.073 0.641,-1.961l0.102,-0.483Z" style="fill:#4c9fd7;fill-rule:nonzero;"/><path d="M172.945,170.687l-3.453,0l0.305,-1.459c-0.66,0.634 -1.31,1.089 -1.949,1.364c-0.639,0.275 -1.36,0.413 -2.164,0.413c-1.397,0 -2.529,-0.476 -3.396,-1.428c-0.868,-0.952 -1.302,-2.36 -1.302,-4.222c0,-2.158 0.61,-4.109 1.828,-5.852c1.219,-1.744 2.832,-2.615 4.837,-2.615c1.812,0 3.17,0.719 4.076,2.158l1.46,-6.97l3.643,0l-3.885,18.611Zm-8.417,-5.484c0,0.965 0.244,1.718 0.73,2.26c0.487,0.542 1.086,0.812 1.797,0.812c0.66,0 1.276,-0.226 1.847,-0.679c0.571,-0.453 1.028,-1.145 1.371,-2.075c0.343,-0.931 0.514,-1.824 0.514,-2.679c0,-0.974 -0.262,-1.761 -0.787,-2.362c-0.525,-0.6 -1.13,-0.901 -1.815,-0.901c-1.067,0 -1.943,0.593 -2.628,1.777c-0.686,1.185 -1.029,2.468 -1.029,3.847Z" style="fill:#4c9fd7;fill-rule:nonzero;"/><path d="M189.5,165.076l-9.141,0c-0.008,0.144 -0.012,0.254 -0.012,0.33c0,0.897 0.256,1.621 0.768,2.171c0.512,0.55 1.136,0.825 1.872,0.825c1.211,0 2.154,-0.626 2.831,-1.879l3.263,0.546c-0.635,1.312 -1.483,2.296 -2.545,2.952c-1.063,0.656 -2.254,0.984 -3.574,0.984c-1.811,0 -3.284,-0.574 -4.418,-1.72c-1.134,-1.147 -1.701,-2.664 -1.701,-4.552c0,-1.845 0.512,-3.487 1.536,-4.925c1.396,-1.947 3.39,-2.92 5.979,-2.92c1.651,0 2.963,0.51 3.936,1.529c0.973,1.02 1.46,2.449 1.46,4.285c0,0.88 -0.085,1.672 -0.254,2.374Zm-3.072,-2.222c0.008,-0.16 0.012,-0.283 0.012,-0.368c0,-0.998 -0.224,-1.747 -0.672,-2.247c-0.449,-0.499 -1.05,-0.749 -1.803,-0.749c-0.753,0 -1.428,0.284 -2.025,0.851c-0.597,0.567 -1.001,1.405 -1.212,2.513l5.7,0Z" style="fill:#4c9fd7;fill-rule:nonzero;"/></g><g><path d="M58.756,186.081l9.609,0l-1.933,9.214c-1.133,0.732 -2.522,1.352 -4.168,1.86c-1.645,0.508 -3.323,0.762 -5.032,0.762c-2.656,0 -4.692,-0.601 -6.108,-1.802c-1.934,-1.64 -2.9,-4.018 -2.9,-7.134c0,-2.089 0.415,-4.091 1.245,-6.005c0.996,-2.305 2.412,-4.092 4.248,-5.362c1.836,-1.269 3.994,-1.904 6.474,-1.904c2.481,0 4.471,0.576 5.97,1.728c1.499,1.153 2.492,2.833 2.981,5.04l-4.117,0.468c-0.361,-1.211 -0.944,-2.124 -1.75,-2.739c-0.806,-0.615 -1.819,-0.923 -3.04,-0.923c-1.425,0 -2.734,0.371 -3.925,1.113c-1.192,0.743 -2.124,1.89 -2.798,3.443c-0.674,1.553 -1.011,3.247 -1.011,5.083c0,1.806 0.41,3.142 1.23,4.006c0.821,0.864 2.022,1.297 3.604,1.297c0.947,0 1.919,-0.135 2.915,-0.403c0.996,-0.269 1.855,-0.589 2.578,-0.96l0.659,-3.193l-5.478,0l0.747,-3.589Z" style="fill:#2e448f;fill-rule:nonzero;"/><path d="M73.331,181.994l4.204,0l-1.919,9.214c-0.234,1.104 -0.351,1.792 -0.351,2.065c0,0.45 0.166,0.835 0.498,1.158c0.332,0.322 0.757,0.483 1.274,0.483c0.371,0 0.737,-0.071 1.099,-0.212c0.361,-0.142 0.732,-0.357 1.113,-0.645c0.381,-0.288 0.723,-0.618 1.025,-0.989c0.303,-0.371 0.586,-0.859 0.85,-1.464c0.186,-0.45 0.386,-1.182 0.601,-2.198l1.552,-7.412l4.204,0l-3.252,15.557l-3.925,0l0.439,-2.11c-1.719,1.651 -3.589,2.476 -5.61,2.476c-1.279,0 -2.285,-0.366 -3.018,-1.099c-0.732,-0.732 -1.098,-1.714 -1.098,-2.944c0,-0.537 0.166,-1.606 0.498,-3.208l1.816,-8.672Z" style="fill:#2e448f;fill-rule:nonzero;"/><path d="M94.366,186.403l-4.101,-0.351c0.468,-1.387 1.286,-2.471 2.453,-3.252c1.167,-0.781 2.713,-1.172 4.636,-1.172c2.002,0 3.482,0.403 4.439,1.208c0.957,0.806 1.436,1.79 1.436,2.952c0,0.469 -0.042,0.967 -0.125,1.494c-0.083,0.528 -0.374,1.914 -0.872,4.16c-0.41,1.856 -0.615,3.155 -0.615,3.897c0,0.664 0.117,1.401 0.352,2.212l-4.087,0c-0.166,-0.567 -0.269,-1.153 -0.308,-1.758c-0.615,0.684 -1.323,1.208 -2.124,1.575c-0.801,0.366 -1.606,0.549 -2.417,0.549c-1.289,0 -2.353,-0.422 -3.193,-1.267c-0.84,-0.845 -1.26,-1.931 -1.26,-3.259c0,-1.485 0.462,-2.671 1.384,-3.56c0.923,-0.889 2.571,-1.426 4.944,-1.611c2.002,-0.166 3.34,-0.366 4.014,-0.601c0.176,-0.586 0.264,-1.055 0.264,-1.406c0,-0.449 -0.181,-0.825 -0.542,-1.128c-0.362,-0.303 -0.899,-0.454 -1.612,-0.454c-0.752,0 -1.345,0.154 -1.78,0.461c-0.434,0.308 -0.73,0.745 -0.886,1.311Zm3.999,3.897c-0.254,0.068 -0.591,0.132 -1.011,0.19c-2.109,0.254 -3.486,0.625 -4.13,1.114c-0.459,0.351 -0.689,0.825 -0.689,1.42c0,0.489 0.176,0.901 0.527,1.238c0.352,0.337 0.816,0.506 1.392,0.506c0.635,0 1.233,-0.154 1.795,-0.462c0.561,-0.307 0.981,-0.703 1.259,-1.186c0.279,-0.484 0.525,-1.238 0.74,-2.264l0.117,-0.556Z" style="fill:#2e448f;fill-rule:nonzero;"/><path d="M106.422,181.994l4.189,0l1.055,7.749c0.264,1.992 0.41,3.389 0.439,4.19c0.547,-1.592 1.299,-3.272 2.256,-5.039l3.721,-6.9l4.453,0l-9.609,17.08c-0.791,1.416 -1.414,2.407 -1.868,2.974c-0.454,0.566 -1.001,1.011 -1.641,1.333c-0.639,0.322 -1.408,0.483 -2.307,0.483c-0.888,0 -1.889,-0.156 -3.003,-0.468l0.367,-3.135c0.507,0.146 1.001,0.219 1.479,0.219c1.289,0 2.349,-0.976 3.179,-2.929l-2.71,-15.557Z" style="fill:#2e448f;fill-rule:nonzero;"/><path d="M127.735,186.403l-4.101,-0.351c0.469,-1.387 1.286,-2.471 2.453,-3.252c1.167,-0.781 2.713,-1.172 4.637,-1.172c2.002,0 3.481,0.403 4.438,1.208c0.957,0.806 1.436,1.79 1.436,2.952c0,0.469 -0.042,0.967 -0.125,1.494c-0.083,0.528 -0.373,1.914 -0.871,4.16c-0.411,1.856 -0.616,3.155 -0.616,3.897c0,0.664 0.118,1.401 0.352,2.212l-4.087,0c-0.166,-0.567 -0.269,-1.153 -0.308,-1.758c-0.615,0.684 -1.323,1.208 -2.124,1.575c-0.8,0.366 -1.606,0.549 -2.417,0.549c-1.289,0 -2.353,-0.422 -3.193,-1.267c-0.84,-0.845 -1.26,-1.931 -1.26,-3.259c0,-1.485 0.462,-2.671 1.384,-3.56c0.923,-0.889 2.571,-1.426 4.944,-1.611c2.002,-0.166 3.34,-0.366 4.014,-0.601c0.176,-0.586 0.264,-1.055 0.264,-1.406c0,-0.449 -0.181,-0.825 -0.542,-1.128c-0.362,-0.303 -0.899,-0.454 -1.612,-0.454c-0.752,0 -1.345,0.154 -1.779,0.461c-0.435,0.308 -0.73,0.745 -0.887,1.311Zm3.999,3.897c-0.254,0.068 -0.59,0.132 -1.01,0.19c-2.11,0.254 -3.487,0.625 -4.131,1.114c-0.459,0.351 -0.689,0.825 -0.689,1.42c0,0.489 0.176,0.901 0.528,1.238c0.351,0.337 0.815,0.506 1.391,0.506c0.635,0 1.233,-0.154 1.795,-0.462c0.561,-0.307 0.981,-0.703 1.259,-1.186c0.279,-0.484 0.525,-1.238 0.74,-2.264l0.117,-0.556Z" style="fill:#2e448f;fill-rule:nonzero;"/><path d="M152.169,181.994l3.867,0l-4.482,21.489l-4.204,0l1.508,-7.251c-0.742,0.606 -1.44,1.038 -2.094,1.297c-0.655,0.259 -1.397,0.388 -2.227,0.388c-1.65,0 -2.974,-0.552 -3.97,-1.655c-0.996,-1.104 -1.494,-2.71 -1.494,-4.82c0,-1.67 0.337,-3.296 1.011,-4.878c0.674,-1.582 1.609,-2.8 2.805,-3.654c1.196,-0.855 2.493,-1.282 3.889,-1.282c2.246,0 3.872,0.937 4.878,2.812l0.513,-2.446Zm-9.038,9.375c0,1.045 0.283,1.875 0.849,2.49c0.567,0.616 1.25,0.923 2.051,0.923c0.713,0 1.402,-0.241 2.066,-0.725c0.664,-0.483 1.203,-1.282 1.618,-2.395c0.415,-1.113 0.623,-2.183 0.623,-3.208c0,-1.162 -0.298,-2.073 -0.894,-2.732c-0.595,-0.659 -1.284,-0.989 -2.065,-0.989c-0.645,0 -1.301,0.254 -1.97,0.762c-0.669,0.508 -1.216,1.345 -1.641,2.512c-0.425,1.167 -0.637,2.288 -0.637,3.362Z" style="fill:#2e448f;fill-rule:nonzero;"/><path d="M160.035,181.994l4.204,0l-1.919,9.214c-0.234,1.104 -0.351,1.792 -0.351,2.065c0,0.45 0.166,0.835 0.498,1.158c0.332,0.322 0.757,0.483 1.274,0.483c0.371,0 0.738,-0.071 1.099,-0.212c0.361,-0.142 0.732,-0.357 1.113,-0.645c0.381,-0.288 0.723,-0.618 1.026,-0.989c0.302,-0.371 0.585,-0.859 0.849,-1.464c0.186,-0.45 0.386,-1.182 0.601,-2.198l1.552,-7.412l4.205,0l-3.252,15.557l-3.926,0l0.439,-2.11c-1.718,1.651 -3.589,2.476 -5.61,2.476c-1.279,0 -2.285,-0.366 -3.018,-1.099c-0.732,-0.732 -1.098,-1.714 -1.098,-2.944c0,-0.537 0.166,-1.606 0.498,-3.208l1.816,-8.672Z" style="fill:#2e448f;fill-rule:nonzero;"/><path d="M179.62,176.076l4.204,0l-0.791,3.809l-4.204,0l0.791,-3.809Zm-1.23,5.918l4.204,0l-3.252,15.557l-4.204,0l3.252,-15.557Z" style="fill:#2e448f;fill-rule:nonzero;"/><path d="M183.443,197.551l4.497,-21.475l4.19,0l-4.483,21.475l-4.204,0Z" style="fill:#2e448f;fill-rule:nonzero;"/></g></g><defs><linearGradient id="_Linear2" x1="0" y1="0" x2="1" y2="0" gradientUnits="userSpaceOnUse" gradientTransform="matrix(26.7823,-47.3128,47.3128,26.7823,110.883,124.523)"><stop offset="0" style="stop-color:#343b88;stop-opacity:1"/><stop offset="1" style="stop-color:#377cb7;stop-opacity:1"/></linearGradient></defs></svg>