<?xml version="1.0" encoding="UTF-8" standalone="no"?><!DOCTYPE svg PUBLIC "-//W3C//DTD SVG 1.1//EN" "http://www.w3.org/Graphics/SVG/1.1/DTD/svg11.dtd"><svg width="100%" height="100%" viewBox="0 0 256 256" version="1.1" xmlns="http://www.w3.org/2000/svg" xmlns:xlink="http://www.w3.org/1999/xlink" xml:space="preserve" xmlns:serif="http://www.serif.com/" style="fill-rule:evenodd;clip-rule:evenodd;stroke-linejoin:round;stroke-miterlimit:1.41421;"><path d="M47.368,191.167l-0.159,-3.492c-0.035,-0.855 -0.012,-1.826 0,-2.647l-0.035,0c-0.408,0.821 -0.861,1.81 -1.317,2.647l-1.92,3.492l3.431,0Zm-4.326,1.955l-2.181,4.01l-2.511,0l7.9,-14.163l3.11,0l0.724,14.163l-2.62,0l-0.183,-4.01l-4.239,0Z" style="fill:#fff;fill-rule:nonzero;"/><path d="M55.166,182.216l2.454,0l-3.814,14.917l-2.461,0l3.821,-14.917Z" style="fill:#fff;fill-rule:nonzero;"/><path d="M63.226,196.822c-0.58,0.246 -1.667,0.542 -2.879,0.542c-3.012,0 -4.448,-2.059 -3.636,-5.23c0.785,-3.067 3.381,-5.463 6.768,-5.463c0.89,0 1.749,0.212 2.233,0.484l-0.927,1.927c-0.354,-0.185 -0.871,-0.396 -1.743,-0.396c-1.86,0 -3.343,1.451 -3.806,3.322c-0.53,2.101 0.449,3.297 2.117,3.297c0.85,0 1.486,-0.183 2.019,-0.395l-0.146,1.912Z" style="fill:#fff;fill-rule:nonzero;"/><path d="M70.942,192.135c-1.714,-0.041 -3.465,0.355 -3.859,1.909c-0.259,1.013 0.235,1.467 1.011,1.467c0.971,0 1.86,-0.668 2.264,-1.401c0.106,-0.187 0.178,-0.403 0.227,-0.568l0.357,-1.407Zm1.727,2.541c-0.241,0.925 -0.424,1.832 -0.489,2.457l-2.204,0l0.137,-1.131l-0.059,0c-0.804,0.795 -1.956,1.361 -3.204,1.361c-1.946,0 -2.651,-1.487 -2.26,-3.046c0.665,-2.58 3.157,-3.886 6.72,-3.868l0.049,-0.161c0.171,-0.678 0.195,-1.79 -1.509,-1.79c-0.95,0 -2.025,0.317 -2.794,0.759l-0.042,-1.682c0.833,-0.462 2.197,-0.903 3.719,-0.903c3.094,0 3.453,2.083 2.884,4.305l-0.948,3.699Z" style="fill:#fff;fill-rule:nonzero;"/><path d="M78.034,182.216l2.457,0l-3.812,14.917l-2.459,0l3.814,-14.917Z" style="fill:#fff;fill-rule:nonzero;"/><path d="M86.902,191.167c0.057,-0.213 0.104,-0.462 0.114,-0.671c0.04,-1.013 -0.52,-1.828 -1.633,-1.828c-1.565,0 -2.813,1.469 -3.307,3.382c-0.474,1.872 0.051,3.237 1.595,3.237c0.993,0 2.046,-0.716 2.568,-1.83c0.121,-0.233 0.202,-0.486 0.278,-0.753l0.385,-1.537Zm4.729,-8.951l-3.077,12.04c-0.269,1.049 -0.521,2.183 -0.661,2.876l-2.176,0l0.313,-1.62l-0.038,0c-0.863,1.138 -2.216,1.853 -3.626,1.853c-2.297,0 -3.589,-2.078 -2.788,-5.231c0.859,-3.426 3.405,-5.463 5.721,-5.463c1.332,0 2.129,0.588 2.369,1.343l0.047,0l1.479,-5.798l2.437,0Z" style="fill:#fff;fill-rule:nonzero;"/><path d="M97.988,182.467l-3.233,3.109l-1.687,0l2.523,-3.109l2.397,0Zm-7.953,14.665l2.619,-10.23l2.459,0l-2.618,10.23l-2.46,0Z" style="fill:#fff;fill-rule:nonzero;"/><path d="M101.107,192.135c-1.709,-0.041 -3.467,0.355 -3.857,1.909c-0.264,1.013 0.235,1.467 1.009,1.467c0.971,0 1.858,-0.668 2.261,-1.401c0.112,-0.187 0.186,-0.403 0.221,-0.568l0.366,-1.407Zm1.728,2.541c-0.236,0.925 -0.427,1.832 -0.489,2.457l-2.203,0l0.129,-1.131l-0.051,0c-0.802,0.795 -1.962,1.361 -3.208,1.361c-1.944,0 -2.651,-1.487 -2.257,-3.046c0.662,-2.58 3.154,-3.886 6.719,-3.868l0.043,-0.161c0.175,-0.678 0.201,-1.79 -1.505,-1.79c-0.954,0 -2.025,0.317 -2.787,0.759l-0.05,-1.682c0.831,-0.462 2.191,-0.903 3.719,-0.903c3.093,0 3.454,2.083 2.884,4.305l-0.944,3.699Z" style="fill:#fff;fill-rule:nonzero;"/><path d="M116.078,191.167c0.057,-0.213 0.097,-0.462 0.114,-0.671c0.037,-1.013 -0.522,-1.828 -1.633,-1.828c-1.567,0 -2.813,1.469 -3.304,3.382c-0.48,1.872 0.045,3.237 1.593,3.237c0.989,0 2.043,-0.716 2.56,-1.83c0.117,-0.233 0.209,-0.486 0.278,-0.753l0.392,-1.537Zm4.725,-8.951l-3.073,12.04c-0.266,1.049 -0.523,2.183 -0.658,2.876l-2.181,0l0.311,-1.62l-0.035,0c-0.865,1.138 -2.22,1.853 -3.623,1.853c-2.302,0 -3.592,-2.078 -2.793,-5.231c0.866,-3.426 3.404,-5.463 5.72,-5.463c1.332,0 2.133,0.588 2.373,1.343l0.039,0l1.478,-5.798l2.442,0Z" style="fill:#fff;fill-rule:nonzero;"/><path d="M126.758,190.938c0.266,-0.947 0.266,-2.504 -1.359,-2.504c-1.505,0 -2.512,1.451 -2.877,2.504l4.236,0Zm-4.701,1.804c-0.416,1.847 0.752,2.644 2.297,2.644c1.133,0 1.985,-0.163 2.794,-0.458l-0.1,1.788c-0.925,0.352 -2.148,0.649 -3.534,0.649c-3.138,0 -4.455,-2.06 -3.65,-5.194c0.728,-2.831 3.035,-5.5 6.119,-5.5c3.159,0 3.469,2.732 2.893,4.981c-0.122,0.482 -0.261,0.856 -0.356,1.09l-6.463,0Z" style="fill:#fff;fill-rule:nonzero;"/><path d="M143.717,196.484c-0.942,0.339 -2.726,0.799 -4.509,0.799c-2.259,0 -3.807,-0.61 -4.746,-1.898c-0.884,-1.195 -1.1,-3.063 -0.532,-5.207c1.139,-4.468 4.898,-7.35 9.32,-7.35c1.64,0 2.836,0.354 3.37,0.671l-1.068,2.077c-0.648,-0.335 -1.469,-0.612 -2.877,-0.612c-2.854,0 -5.311,1.796 -6.159,5.09c-0.818,3.215 0.558,5.128 3.33,5.128c0.871,0 1.555,-0.125 1.911,-0.297l0.914,-3.525l-2.366,0l0.527,-2.043l4.717,0l-1.832,7.167Z" style="fill:#fff;fill-rule:nonzero;"/><path d="M155.034,194.067c-0.309,1.22 -0.527,2.23 -0.703,3.065l-2.145,0l0.28,-1.555l-0.036,0c-0.604,0.738 -1.827,1.788 -3.55,1.788c-1.773,0 -3.085,-1.112 -2.234,-4.452l1.538,-6.011l2.441,0l-1.424,5.569c-0.44,1.702 -0.2,2.798 1.087,2.798c0.968,0 1.794,-0.738 2.214,-1.389c0.144,-0.229 0.268,-0.505 0.349,-0.802l1.575,-6.176l2.441,0l-1.833,7.165Z" style="fill:#fff;fill-rule:nonzero;"/><path d="M162.885,192.135c-1.718,-0.041 -3.462,0.355 -3.863,1.909c-0.26,1.013 0.235,1.467 1.015,1.467c0.968,0 1.858,-0.668 2.259,-1.401c0.114,-0.187 0.183,-0.403 0.226,-0.568l0.363,-1.407Zm1.723,2.541c-0.228,0.925 -0.427,1.832 -0.488,2.457l-2.193,0l0.13,-1.131l-0.066,0c-0.795,0.795 -1.954,1.361 -3.202,1.361c-1.942,0 -2.646,-1.487 -2.252,-3.046c0.659,-2.58 3.151,-3.886 6.713,-3.868l0.048,-0.161c0.171,-0.678 0.197,-1.79 -1.509,-1.79c-0.955,0 -2.023,0.317 -2.791,0.759l-0.045,-1.682c0.832,-0.462 2.195,-0.903 3.723,-0.903c3.093,0 3.453,2.083 2.884,4.305l-0.952,3.699Z" style="fill:#fff;fill-rule:nonzero;"/><path d="M170.108,186.903l0.334,5.479c0.05,0.632 0.05,1.411 0.027,1.999l0.064,0c0.304,-0.588 0.686,-1.343 1.023,-2.013l2.91,-5.465l2.617,0l-4.2,6.978c-2.308,3.823 -3.63,5.52 -5.051,6.573c-1.187,0.905 -2.264,1.239 -2.898,1.319l0.003,-2.185c0.445,-0.096 1.023,-0.33 1.613,-0.709c0.53,-0.312 1.223,-0.922 1.738,-1.616c0.147,-0.194 0.242,-0.341 0.278,-0.466c0.03,-0.108 0.049,-0.251 -0.006,-0.502l-1.131,-9.392l2.679,0Z" style="fill:#fff;fill-rule:nonzero;"/><path d="M181.748,192.135c-1.71,-0.041 -3.46,0.355 -3.854,1.909c-0.258,1.013 0.238,1.467 1.012,1.467c0.965,0 1.853,-0.668 2.261,-1.401c0.107,-0.187 0.183,-0.403 0.221,-0.568l0.36,-1.407Zm1.735,2.541c-0.241,0.925 -0.434,1.832 -0.495,2.457l-2.196,0l0.126,-1.131l-0.054,0c-0.805,0.795 -1.958,1.361 -3.207,1.361c-1.942,0 -2.654,-1.487 -2.253,-3.046c0.661,-2.58 3.15,-3.886 6.717,-3.868l0.045,-0.161c0.176,-0.678 0.197,-1.79 -1.509,-1.79c-0.949,0 -2.022,0.317 -2.787,0.759l-0.049,-1.682c0.835,-0.462 2.197,-0.903 3.716,-0.903c3.097,0 3.456,2.083 2.886,4.305l-0.94,3.699Z" style="fill:#fff;fill-rule:nonzero;"/><path d="M193.029,191.122c0.049,-0.209 0.092,-0.434 0.101,-0.626c0.031,-0.968 -0.534,-1.787 -1.62,-1.787c-1.571,0 -2.825,1.407 -3.313,3.34c-0.48,1.873 0.009,3.274 1.551,3.274c0.993,0 1.98,-0.667 2.519,-1.696c0.144,-0.253 0.261,-0.55 0.329,-0.799l0.433,-1.706Zm-1.178,4.6l-0.038,0c-0.833,0.995 -2.001,1.642 -3.415,1.642c-2.16,0 -3.534,-1.995 -2.713,-5.194c0.954,-3.737 3.665,-5.5 5.725,-5.5c1.355,0 2.15,0.612 2.416,1.576l0.031,0.024l0.415,-1.367l2.354,0c-0.277,0.922 -0.567,1.887 -0.84,2.962l-2.921,11.43l-2.442,0l1.428,-5.573Z" style="fill:#fff;fill-rule:nonzero;"/><path d="M205.574,194.067c-0.31,1.22 -0.528,2.23 -0.707,3.065l-2.138,0l0.277,-1.555l-0.04,0c-0.603,0.738 -1.827,1.788 -3.548,1.788c-1.763,0 -3.081,-1.112 -2.229,-4.452l1.532,-6.011l2.444,0l-1.424,5.569c-0.439,1.702 -0.2,2.798 1.087,2.798c0.971,0 1.796,-0.738 2.219,-1.389c0.135,-0.229 0.266,-0.505 0.34,-0.802l1.587,-6.176l2.433,0l-1.833,7.165Z" style="fill:#fff;fill-rule:nonzero;"/><path d="M212.969,184.045c-0.19,0.778 -0.888,1.386 -1.735,1.386c-0.814,0 -1.193,-0.608 -1.003,-1.386c0.21,-0.801 0.922,-1.407 1.739,-1.407c0.828,0 1.187,0.606 0.999,1.407m-5.94,13.088l2.617,-10.23l2.455,0l-2.614,10.23l-2.458,0Z" style="fill:#fff;fill-rule:nonzero;"/><path d="M215.522,182.216l2.456,0l-3.811,14.917l-2.457,0l3.812,-14.917Z" style="fill:#fff;fill-rule:nonzero;"/><path d="M236.514,78.08c0.712,0.286 1.333,-0.141 1.369,-0.947l0.717,-14.4c0.042,-0.808 -0.283,-0.927 -0.724,-0.264l-7.65,11.567c-0.436,0.658 -0.213,1.435 0.499,1.721l5.789,2.323Z" style="fill:#00b6ed;fill-rule:nonzero;"/><path d="M241.089,82.733c-0.724,-0.253 -1.361,0.2 -1.417,1.006l-0.228,3.261c-0.059,0.804 0.508,1.37 1.262,1.255l9.98,-1.508c0.751,-0.112 0.779,-0.412 0.053,-0.665l-9.65,-3.349Z" style="fill:#7acaf1;fill-rule:nonzero;"/><path d="M223.236,77.782c0.266,-0.757 -0.093,-1.618 -0.8,-1.918l-12.877,-5.449c-0.71,-0.3 -0.834,-0.088 -0.288,0.469l11.081,11.209c0.549,0.557 1.22,0.393 1.486,-0.361l1.398,-3.95Z" style="fill:#7acaf1;fill-rule:nonzero;"/><path d="M220.657,90.315c-0.473,-0.632 -1.284,-0.667 -1.799,-0.071l-12.71,14.575c-0.52,0.594 -0.382,0.788 0.302,0.436l17.06,-8.793c0.683,-0.35 0.856,-1.158 0.384,-1.792l-3.237,-4.355Z" style="fill:#fff;fill-rule:nonzero;"/><path d="M232.271,96.628c-0.67,0.387 -0.986,1.317 -0.705,2.07l5.541,14.926c0.278,0.753 0.499,0.709 0.494,-0.101l-0.171,-18.408c-0.01,-0.81 -0.565,-1.153 -1.234,-0.764l-3.925,2.277Z" style="fill:#00b6ed;fill-rule:nonzero;"/><path d="M153.786,169.723c-0.057,-3.627 0.218,-7 0.823,-10.109c0.454,-2.332 1.28,-5.284 2.475,-8.863c4.138,-13.178 9.819,-27.972 17.051,-44.379l0.802,-1.852c0.093,-0.112 0.086,-0.222 -0.023,-0.328c-0.115,-0.105 -0.178,-0.268 -0.193,-0.49l-3.997,0.849c-0.308,0.014 -0.873,0.15 -1.689,0.406c-0.618,0.03 -1.204,-0.133 -1.75,-0.498c-0.546,-0.357 -0.894,-0.808 -1.034,-1.354l-0.205,-0.652c-0.08,-1.094 0.378,-1.94 1.375,-2.539c0.693,-0.471 1.915,-0.858 3.662,-1.16c1.115,-0.381 2.91,-0.738 5.383,-1.075c1.426,-0.394 2.363,-1.099 2.812,-2.109c1.132,-3.025 2.454,-5.562 3.971,-7.616c0.94,-1.365 1.559,-2.161 1.853,-2.396c0.885,-0.703 1.74,-1.07 2.571,-1.108c0.724,-0.035 1.309,0.102 1.749,0.414c1.507,0.701 2.335,2.037 2.478,4.012c-0.115,1.326 -0.25,2.323 -0.407,2.99c-0.344,1.005 -0.626,2.123 -0.847,3.343c0.326,0.207 0.67,0.297 1.031,0.28c0.363,-0.016 0.597,-0.027 0.7,-0.033c2.888,-0.351 5.152,-0.676 6.797,-0.974c0.937,-0.042 1.614,0.038 2.045,0.236c1.254,0.053 1.93,0.795 2.035,2.221l0.024,0.326c0.066,0.879 -0.454,1.619 -1.557,2.218c-0.397,0.242 -1.114,0.383 -2.149,0.431c-3.185,0.588 -6.377,1.066 -9.573,1.432c-1.125,0.275 -1.866,0.805 -2.225,1.587c-2.981,7.627 -5.27,13.348 -6.865,17.161c-0.703,1.795 -2.151,5.464 -4.344,11.015c-2.2,5.552 -4.108,10.732 -5.738,15.54c-0.857,2.46 -2.039,6.258 -3.535,11.389l-2.226,5.881c-1.571,4.144 -2.791,7.008 -3.666,8.589c-0.874,1.581 -1.93,2.403 -3.174,2.46c-0.417,0.02 -0.947,-0.124 -1.592,-0.421c-1.946,-1.011 -2.896,-2.622 -2.848,-4.824" style="fill:#fff;fill-rule:nonzero;"/><path d="M200.559,160.793l-0.048,-0.66c-0.082,-1.095 0.013,-2.641 0.285,-4.635c1.187,-6.549 3.162,-13.685 5.929,-21.407l0.754,-2.512c-0.502,0.244 -0.98,0.817 -1.433,1.717c-2.831,3.986 -5.777,8.521 -8.841,13.617c-1.58,2.606 -3.09,4.659 -4.545,6.154c-1.246,1.49 -2.413,2.589 -3.505,3.3c-1.196,0.714 -2.312,1.099 -3.351,1.147c-1.553,0.071 -2.943,-0.416 -4.161,-1.461c-1.224,-1.04 -2.057,-2.489 -2.503,-4.343c-0.304,-1.305 -0.482,-2.342 -0.537,-3.109c-0.105,-1.427 -0.052,-2.807 0.164,-4.139c0.945,-9.836 4.018,-19.06 9.22,-27.667c1.301,-2.151 2.784,-3.869 4.464,-5.159c1.073,-0.931 2.234,-1.425 3.478,-1.482c1.468,0.154 2.56,0.819 3.268,1.995c0.344,0.425 0.538,0.967 0.586,1.623c0.049,0.658 -0.161,1.385 -0.622,2.175c-2.807,4.314 -5.043,8.96 -6.707,13.932c-1.668,4.978 -3.104,10.626 -4.308,16.956c-0.244,0.896 -0.252,1.5 -0.019,1.819c0.603,-0.247 1.28,-0.938 2.03,-2.076c3.818,-4.688 8.271,-10.726 13.349,-18.117c2.438,-3.636 4.323,-6.311 5.657,-8.022l9.426,-14.142c1.019,-1.696 2.279,-2.249 3.783,-1.657c1.593,0.476 2.362,1.762 2.308,3.854c-0.046,0.773 -0.307,2.219 -0.777,4.329c-2.323,9.574 -4.685,18.487 -7.105,26.746c-1.838,6.139 -3.387,12.044 -4.633,17.714l-1.114,4.015c-0.344,1.006 -0.906,1.858 -1.687,2.554c-0.966,1.035 -2.07,1.581 -3.311,1.64c-0.833,0.037 -1.46,-0.042 -1.893,-0.244c-1.932,-0.791 -3.133,-2.279 -3.601,-4.455" style="fill:#fff;fill-rule:nonzero;"/><path d="M48.7,117.391l0,4.159l13.649,-0.002c0.517,0 0.977,0.213 1.379,0.64c0.405,0.43 0.609,0.967 0.609,1.615l0,4.465c0,0.583 -0.204,1.105 -0.605,1.566c-0.403,0.462 -0.866,0.693 -1.379,0.693l-13.653,0.002l0,4.567l14.328,-0.002c0.55,0 1.027,0.214 1.428,0.643c0.404,0.427 0.608,0.982 0.608,1.665l0,4.416c0,0.615 -0.2,1.154 -0.605,1.616c-0.404,0.463 -0.881,0.694 -1.427,0.694l-22.851,0.004c-0.548,0 -1.023,-0.233 -1.429,-0.695c-0.401,-0.461 -0.604,-1 -0.604,-1.616l0,-0.155l0,-4.26l0,-22.274l0,-4.462c0,-0.651 0.199,-1.189 0.604,-1.618c0.404,-0.427 0.876,-0.641 1.425,-0.641l22.848,-0.002c0.551,0 1.028,0.212 1.431,0.641c0.404,0.427 0.605,0.967 0.605,1.616l0,4.466c0,0.583 -0.209,1.101 -0.628,1.563c-0.42,0.464 -0.89,0.696 -1.405,0.696l-14.328,0Z" style="fill:#00b6ed;fill-rule:nonzero;"/><path d="M80.668,124.981c1.486,0 2.848,-0.281 4.092,-0.845c1.242,-0.566 1.861,-1.872 1.861,-3.926c0,-1.436 -0.41,-2.53 -1.232,-3.283c-0.823,-0.753 -2.012,-1.13 -3.557,-1.13l-3.971,0l0,9.187l0.337,-0.003l2.47,0Zm7.216,16.065c-0.356,-2.327 -1.088,-3.943 -2.203,-4.852c-1.115,-0.905 -2.494,-1.445 -4.139,-1.615c-0.225,-0.033 -0.501,-0.05 -0.824,-0.05c-0.323,0 -0.598,0.033 -0.823,0.105l-0.048,0.049l0,6.57c0,0.648 -0.057,1.17 -0.17,1.564c-0.114,0.394 -0.418,0.718 -0.917,0.975c-0.501,0.255 -1.283,0.385 -2.347,0.385l-4.504,0.001c-0.999,0.033 -1.792,-0.161 -2.372,-0.591c-0.581,-0.425 -0.871,-1.017 -0.871,-1.772l0.045,-13.854l0,-17.86c0,-0.511 0.243,-0.966 0.724,-1.359c0.484,-0.392 1.068,-0.59 1.745,-0.59l10.989,-0.002c4.843,-0.035 8.423,0.83 10.746,2.592c2.324,1.759 3.584,4.523 3.778,8.286c0.031,0.341 0.039,0.609 0.02,0.795c-0.015,0.189 -0.02,0.35 -0.02,0.488l0,1.077c-0.161,1.986 -0.654,3.56 -1.478,4.721c-0.824,1.165 -1.911,2.243 -3.264,3.236l0.048,0.049c1.58,0.823 2.839,2.002 3.776,3.541c0.933,1.541 1.573,3.15 1.911,4.826c0.339,1.676 0.476,3.18 0.41,4.514c0,0.583 -0.19,1.046 -0.581,1.387c-0.385,0.341 -0.936,0.513 -1.642,0.513l-5.906,0.002c-0.84,0 -1.379,-0.226 -1.623,-0.669c-0.244,-0.443 -0.372,-0.912 -0.387,-1.413c-0.019,-0.492 -0.043,-0.846 -0.073,-1.049" style="fill:#00b6ed;fill-rule:nonzero;"/><path d="M111.442,117.384l0,4.159l13.652,0c0.515,-0.004 0.976,0.211 1.379,0.639c0.404,0.427 0.605,0.966 0.605,1.614l0,4.465c0,0.584 -0.201,1.105 -0.605,1.566c-0.403,0.462 -0.861,0.693 -1.379,0.693l-13.649,0.003l0,4.568l14.325,-0.002c0.551,0 1.028,0.212 1.431,0.641c0.404,0.427 0.604,0.984 0.604,1.669l0,4.413c0,0.616 -0.2,1.155 -0.604,1.616c-0.403,0.46 -0.88,0.693 -1.428,0.693l-22.848,0.002c-0.549,0 -1.024,-0.231 -1.431,-0.693c-0.402,-0.462 -0.603,-1 -0.603,-1.618l0,-0.154l0,-4.257l-0.001,-22.274l0,-4.465c0,-0.65 0.198,-1.189 0.603,-1.617c0.404,-0.427 0.879,-0.641 1.429,-0.641l22.848,0c0.547,0 1.024,0.214 1.427,0.639c0.404,0.429 0.608,0.969 0.608,1.616l0,4.464c0,0.583 -0.212,1.105 -0.63,1.565c-0.42,0.465 -0.887,0.694 -1.405,0.694l-14.328,0.002Z" style="fill:#00b6ed;fill-rule:nonzero;"/><path d="M129.582,137.706c0,-0.615 0.29,-1.337 0.871,-2.156l1.792,-2.464c0.515,-0.786 0.925,-1.345 1.234,-1.667c0.308,-0.326 0.636,-0.489 0.992,-0.489c0.29,0 0.643,0.102 1.065,0.308c0.419,0.207 1,0.547 1.741,1.025c0.101,0.07 0.922,0.669 2.473,1.798c1.545,1.128 3.481,1.623 5.807,1.487c0.771,-0.035 1.379,-0.265 1.816,-0.692c0.434,-0.429 0.654,-0.951 0.654,-1.567c0,-0.82 -0.388,-1.575 -1.162,-2.26c-0.774,-0.682 -1.873,-1.074 -3.29,-1.176l0.046,0c-2.842,-0.618 -5.054,-1.395 -6.634,-2.336c-1.583,-0.94 -2.71,-2.061 -3.389,-3.36c-0.675,-1.299 -1.08,-2.908 -1.209,-4.826c-0.128,-2.257 0.321,-4.318 1.354,-6.183c1.034,-1.863 2.517,-3.336 4.454,-4.413c1.935,-1.077 4.163,-1.618 6.683,-1.618c1.869,0 3.743,0.29 5.614,0.872c1.547,0.444 2.959,1.035 4.234,1.768c1.274,0.737 2.283,1.585 3.026,2.543c0.45,0.48 0.678,0.921 0.678,1.334c0,0.342 -0.123,0.71 -0.365,1.104c-0.238,0.392 -0.653,0.933 -1.232,1.616l-1.403,1.59c-0.457,0.513 -0.801,0.867 -1.042,1.054c-0.242,0.187 -0.476,0.28 -0.704,0.28c-0.224,0 -0.515,-0.102 -0.871,-0.308c-0.356,-0.205 -0.7,-0.417 -1.04,-0.641c-0.339,-0.222 -0.636,-0.419 -0.895,-0.588c-2.226,-1.508 -4.181,-2.261 -5.857,-2.259c-1.033,0 -1.847,0.266 -2.445,0.795c-0.597,0.532 -0.895,1.173 -0.895,1.926c0,0.754 0.29,1.427 0.87,2.026c0.581,0.599 1.405,0.984 2.47,1.156c4.614,0.749 8.06,2.204 10.336,4.362c2.274,2.153 3.415,4.617 3.415,7.389c0,2.051 -0.608,4.026 -1.816,5.926c-1.208,1.898 -2.888,3.439 -5.033,4.619c-2.148,1.179 -4.545,1.771 -7.191,1.771c-4.322,0 -8.664,-1.605 -13.021,-4.823c-1.422,-1.025 -2.131,-2.001 -2.131,-2.923" style="fill:#00b6ed;fill-rule:nonzero;"/><path d="M43.784,94.955l-0.027,-0.328c-0.037,-0.546 0.001,-1.303 0.126,-2.283c0.532,-3.219 1.432,-6.709 2.689,-10.479l0.344,-1.228c-0.23,0.116 -0.451,0.387 -0.661,0.825c-1.296,1.923 -2.651,4.12 -4.054,6.584c-0.724,1.262 -1.419,2.253 -2.089,2.97c-0.574,0.712 -1.108,1.24 -1.611,1.575c-0.553,0.33 -1.066,0.499 -1.545,0.508c-0.722,0.011 -1.365,-0.248 -1.927,-0.786c-0.57,-0.535 -0.959,-1.261 -1.171,-2.182c-0.142,-0.652 -0.227,-1.169 -0.254,-1.546c-0.054,-0.708 -0.03,-1.387 0.065,-2.043c0.419,-4.84 1.817,-9.353 4.202,-13.517c0.596,-1.04 1.275,-1.87 2.051,-2.479c0.492,-0.443 1.028,-0.668 1.602,-0.672c0.679,0.101 1.189,0.442 1.514,1.033c0.162,0.22 0.255,0.486 0.278,0.81c0.021,0.334 -0.071,0.685 -0.284,1.065c-1.287,2.086 -2.308,4.347 -3.07,6.778c-0.756,2.427 -1.405,5.201 -1.946,8.305c-0.111,0.439 -0.121,0.734 -0.011,0.899c0.28,-0.112 0.593,-0.445 0.937,-0.993c1.754,-2.257 3.798,-5.166 6.128,-8.737c1.12,-1.755 1.987,-3.048 2.597,-3.873l4.328,-6.835c0.466,-0.821 1.045,-1.075 1.743,-0.762c0.738,0.266 1.096,0.914 1.075,1.946c-0.022,0.379 -0.135,1.09 -0.344,2.127c-1.054,4.693 -2.129,9.053 -3.226,13.095c-0.838,3.003 -1.542,5.892 -2.103,8.671l-0.505,1.969c-0.157,0.489 -0.415,0.903 -0.774,1.231c-0.444,0.499 -0.952,0.755 -1.528,0.755c-0.383,0.013 -0.677,-0.042 -0.876,-0.148c-0.893,-0.42 -1.452,-1.171 -1.673,-2.255" style="fill:#fff;fill-rule:nonzero;"/><path d="M57.451,87.326c1.443,-1.215 2.782,-2.594 4.012,-4.135c1.231,-1.541 2.631,-3.441 4.193,-5.694c0.131,-0.159 0.168,-0.352 0.102,-0.566c-0.175,-0.434 -0.273,-0.989 -0.299,-1.673c-0.028,-0.676 -0.052,-1.203 -0.081,-1.584c-0.066,-0.927 -0.218,-1.658 -0.446,-2.195c-0.773,0.661 -2.229,3.197 -4.378,7.606c-2.148,4.408 -3.276,7.211 -3.38,8.409l0.277,-0.168Zm6.128,7.126c-0.268,-0.401 -0.424,-0.905 -0.467,-1.498c-0.123,-1.686 0.028,-3.212 0.458,-4.578l1.664,-4.835l0.418,-1.151c-0.096,0.008 -0.15,-0.045 -0.155,-0.155l-0.916,1.233c-2.176,3.081 -4.685,5.889 -7.519,8.438c-0.951,0.828 -1.633,1.326 -2.05,1.491c-0.37,0.224 -0.791,0.343 -1.273,0.348c-0.624,0.008 -1.163,-0.212 -1.632,-0.67c-0.463,-0.455 -0.77,-1.087 -0.928,-1.902c-0.058,-0.163 -0.103,-0.405 -0.124,-0.733c-0.023,-0.269 -0.009,-0.595 0.034,-0.976c0.047,-0.383 0.063,-0.656 0.049,-0.817c0.155,-1.198 0.513,-2.563 1.071,-4.091c1.462,-4.267 3.6,-8.537 6.41,-12.823c0.731,-1.15 1.609,-2.193 2.647,-3.136c0.585,-0.551 1.321,-0.971 2.211,-1.257c0.19,-0.057 0.421,-0.086 0.715,-0.091c1.338,-0.021 2.347,0.643 3.023,1.993c0.392,0.81 0.629,1.705 0.7,2.678c0.032,0.489 0.039,0.872 0.01,1.143c0.007,0.11 0.007,0.257 -0.004,0.446c-0.008,0.194 0.02,0.423 0.085,0.692c0.138,-0.11 0.472,-0.482 1.001,-1.112c0.529,-0.634 0.964,-1.279 1.296,-1.934c0.672,-1.316 1.206,-2.274 1.588,-2.882c0.434,-0.66 0.876,-1.151 1.332,-1.488c0.32,-0.223 0.674,-0.339 1.056,-0.341c0.336,-0.007 0.679,0.099 1.032,0.308c0.657,0.484 0.971,1.182 0.944,2.109c0.05,0.65 -0.07,1.363 -0.348,2.127c-0.643,1.751 -1.146,3.059 -1.514,3.933c-2.419,6.288 -4.282,11.375 -5.587,15.255c-0.269,0.874 -0.637,1.735 -1.102,2.587c-0.469,0.85 -0.768,1.382 -0.894,1.6c-0.259,0.384 -0.586,0.661 -0.983,0.829c-0.396,0.167 -0.786,0.2 -1.18,0.101c-0.443,-0.155 -0.799,-0.436 -1.068,-0.841" style="fill:#fff;fill-rule:nonzero;"/><path d="M78.261,109.299c1.018,-1.153 1.989,-2.637 2.917,-4.443c1.521,-2.798 3.014,-6.352 4.476,-10.672c-0.005,-0.051 0.026,-0.146 0.085,-0.289c0.062,-0.128 0.062,-0.255 0.015,-0.359l-0.297,-0.083c-0.143,0.006 -0.356,0.063 -0.636,0.176c-1.739,0.515 -3.235,1.356 -4.495,2.512c-2.971,2.655 -5.347,6.009 -7.115,10.054c-0.499,1.044 -0.739,2.327 -0.724,3.845c0.052,0.763 0.161,1.276 0.33,1.549c0.159,0.271 0.434,0.397 0.818,0.395c0.383,-0.007 0.715,-0.068 0.993,-0.176c1.314,-0.403 2.525,-1.238 3.633,-2.509m-6.89,5.202c-0.778,-0.829 -1.244,-1.973 -1.4,-3.446c-0.199,-2.004 0.078,-3.885 0.811,-5.637c2.148,-4.763 4.799,-8.526 7.958,-11.29c2.208,-1.933 4.647,-3.032 7.317,-3.291c0.478,-0.005 0.796,-0.256 0.955,-0.749c1.143,-3.442 2.304,-7.508 3.5,-12.203c0.043,-0.051 0.059,-0.189 0.043,-0.407l-0.802,0.912c-1.127,1.596 -1.671,2.358 -1.63,2.303c-2.621,3.521 -4.591,6.083 -5.918,7.675c-0.616,0.718 -1.549,1.738 -2.798,3.061c-0.586,0.55 -1.155,0.964 -1.708,1.246c-0.418,0.17 -0.821,0.256 -1.204,0.265c-0.956,0.013 -1.789,-0.492 -2.485,-1.515c-0.593,-0.857 -0.984,-1.997 -1.182,-3.404c-0.192,-1.306 -0.102,-2.989 0.28,-5.063c1.024,-4.362 2.659,-8.571 4.904,-12.63c0.265,-0.381 0.437,-0.632 0.527,-0.742c0.123,-0.273 0.278,-0.438 0.469,-0.499c0.452,-0.331 0.824,-0.502 1.111,-0.503c0.337,-0.004 0.634,0.099 0.883,0.313c0.656,0.368 1.014,1.019 1.083,1.938c0.033,0.44 -0.031,0.98 -0.171,1.636c-0.328,1.416 -0.774,2.86 -1.339,4.34c-1.339,4.045 -2.241,7.101 -2.713,9.175c-0.22,0.984 -0.327,1.77 -0.334,2.369c0.24,-0.004 0.441,-0.086 0.596,-0.251c0.156,-0.165 0.256,-0.275 0.299,-0.332c1.35,-1.214 2.574,-2.513 3.674,-3.891c1.996,-2.255 4.782,-5.804 8.365,-10.644l1.838,-2.391c0.626,-0.712 1.103,-1.372 1.44,-1.98l0.188,-0.411c0.648,-0.987 1.345,-1.326 2.084,-1.005c0.445,0.153 0.79,0.461 1.041,0.919c0.249,0.458 0.368,0.986 0.368,1.585c0.038,0.54 -0.054,1.577 -0.278,3.102c-0.325,1.473 -1.022,4.422 -2.093,8.839c-0.818,3.276 -1.613,6.17 -2.394,8.686c-0.115,0.322 -0.171,0.544 -0.164,0.652c0.009,0.161 0.239,0.317 0.686,0.478c0.98,0.363 1.777,0.757 2.387,1.184c1.156,0.749 1.937,1.929 2.345,3.552c0.116,0.271 0.138,0.57 0.064,0.896c0.033,0.491 -0.18,0.793 -0.657,0.912l-0.143,0c-0.287,0.006 -0.565,-0.183 -0.832,-0.561l-0.264,-0.729c-0.283,-1.192 -0.995,-2.052 -2.132,-2.575l-0.225,-0.081c-0.894,-0.42 -1.414,-0.628 -1.555,-0.628c-0.239,0.007 -0.446,0.17 -0.614,0.5c-0.166,0.326 -0.325,0.765 -0.475,1.311c-1.108,3.278 -2.148,6.119 -3.128,8.527c-1.199,2.629 -2.57,4.878 -4.11,6.752c-1.55,1.818 -3.129,3.142 -4.749,3.981c-1.577,0.792 -3.108,1.16 -4.596,1.129c-1.305,-0.088 -2.345,-0.55 -3.123,-1.38" style="fill:#fff;fill-rule:nonzero;"/><path d="M101.726,85.714c1.445,-1.217 2.787,-2.594 4.014,-4.139c1.231,-1.539 2.632,-3.431 4.193,-5.686c0.131,-0.167 0.166,-0.358 0.102,-0.574c-0.173,-0.432 -0.277,-0.991 -0.303,-1.671c-0.02,-0.674 -0.053,-1.205 -0.077,-1.588c-0.066,-0.92 -0.218,-1.651 -0.45,-2.191c-0.767,0.661 -2.225,3.199 -4.374,7.608c-2.149,4.406 -3.276,7.211 -3.383,8.411l0.278,-0.17Zm6.131,7.128c-0.273,-0.405 -0.425,-0.907 -0.471,-1.506c-0.121,-1.682 0.031,-3.208 0.461,-4.569l1.661,-4.838l0.425,-1.149c-0.097,0 -0.149,-0.049 -0.159,-0.159l-0.914,1.235c-2.179,3.077 -4.683,5.886 -7.525,8.429c-0.947,0.831 -1.633,1.332 -2.044,1.502c-0.372,0.222 -0.797,0.333 -1.275,0.346c-0.622,0.004 -1.163,-0.218 -1.635,-0.668c-0.46,-0.455 -0.771,-1.092 -0.926,-1.902c-0.057,-0.169 -0.102,-0.409 -0.127,-0.737c-0.017,-0.267 -0.005,-0.595 0.038,-0.978c0.047,-0.379 0.061,-0.65 0.051,-0.815c0.152,-1.202 0.508,-2.56 1.069,-4.097c1.462,-4.257 3.6,-8.533 6.406,-12.815c0.731,-1.156 1.613,-2.2 2.651,-3.14c0.585,-0.546 1.321,-0.967 2.211,-1.253c0.19,-0.057 0.428,-0.088 0.712,-0.095c1.344,-0.018 2.35,0.649 3.026,1.995c0.399,0.808 0.629,1.702 0.698,2.682c0.033,0.487 0.038,0.867 0.012,1.143c0.007,0.103 0.007,0.257 -0.005,0.447c-0.007,0.193 0.015,0.42 0.088,0.689c0.133,-0.112 0.47,-0.48 0.999,-1.112c0.532,-0.636 0.961,-1.28 1.298,-1.936c0.672,-1.318 1.201,-2.278 1.586,-2.882c0.43,-0.66 0.878,-1.154 1.336,-1.488c0.316,-0.22 0.67,-0.333 1.052,-0.339c0.339,-0.009 0.683,0.097 1.032,0.31c0.657,0.476 0.973,1.178 0.944,2.109c0.05,0.646 -0.073,1.361 -0.349,2.123c-0.642,1.75 -1.141,3.059 -1.509,3.935c-2.428,6.291 -4.286,11.375 -5.587,15.254c-0.275,0.872 -0.643,1.738 -1.106,2.585c-0.469,0.851 -0.768,1.379 -0.895,1.601c-0.254,0.388 -0.588,0.657 -0.982,0.835c-0.392,0.167 -0.79,0.198 -1.179,0.099c-0.444,-0.156 -0.8,-0.443 -1.068,-0.841" style="fill:#fff;fill-rule:nonzero;"/><path d="M140.617,66.173c-0.05,-0.71 -0.376,-1.22 -0.978,-1.538c-0.29,-0.103 -0.539,-0.154 -0.727,-0.153c-0.339,0.004 -0.614,0.121 -0.838,0.338l-0.46,0.584c-0.43,0.703 -1.127,1.724 -2.082,3.043c-1.215,1.759 -2.102,3.133 -2.655,4.124c-1.878,3.178 -4.101,6.28 -6.66,9.308c-0.935,1.046 -1.671,1.796 -2.212,2.235c-0.052,0 -0.126,0.074 -0.239,0.211c-0.11,0.136 -0.24,0.152 -0.394,0.046l-0.015,-0.244c-0.011,-0.165 0.012,-0.516 0.067,-1.064c0.74,-4.305 1.873,-8.211 3.394,-11.709c0.232,-0.765 0.569,-1.423 1.008,-1.975c0.072,-0.327 0.257,-0.437 0.548,-0.333l-0.054,2.2c0.062,0.816 0.15,1.413 0.275,1.79c0.294,0.707 0.653,1.054 1.083,1.044l0.144,0c0.527,-0.007 0.836,-0.421 0.917,-1.238c0.023,-0.379 0.073,-0.828 0.158,-1.35c0.079,-0.513 0.131,-0.966 0.152,-1.345c0.135,-0.768 0.181,-1.416 0.143,-1.958l-0.024,-0.407c-0.128,-1.035 -0.487,-1.828 -1.077,-2.391c-0.591,-0.564 -1.296,-0.835 -2.111,-0.824c-0.337,0.005 -0.6,0.036 -0.787,0.093c-0.565,0.172 -1.09,0.478 -1.588,0.924c-0.544,0.439 -1.077,0.991 -1.605,1.652c-2.947,4.34 -4.729,9.178 -5.351,14.511c-0.093,0.711 -0.107,1.446 -0.053,2.208c0.02,0.322 0.11,0.867 0.259,1.621c0.27,1.032 0.709,1.843 1.332,2.43c0.616,0.588 1.335,0.877 2.148,0.864c0.671,-0.011 1.302,-0.212 1.901,-0.599c0.638,-0.443 1.176,-0.945 1.614,-1.491l1.777,-2.314c1.046,-1.48 1.586,-2.246 1.633,-2.306c0.515,-0.821 0.795,-1.263 0.84,-1.316c0.045,-0.053 0.098,-0.137 0.162,-0.245c0.066,-0.114 0.165,-0.196 0.308,-0.251c0.005,0.159 -0.002,0.311 -0.043,0.449c-0.038,0.133 -0.08,0.234 -0.121,0.285c-1.49,3.939 -2.736,8.05 -3.743,12.328c-1.162,4.939 -2.589,9.941 -2.907,15.07c-0.119,1.858 -0.209,4.179 0.906,5.791c3.031,4.39 4.379,-4.56 4.667,-6.214c1.092,-6.309 1.327,-8.621 3.043,-14.771c0.6,-2.296 1.312,-4.736 2.126,-7.33c0.821,-2.595 1.346,-4.273 1.58,-5.038l1.412,-4.342l2.837,-8.444c0.23,-0.766 0.337,-1.336 0.309,-1.717l-0.019,-0.242Z" style="fill:#fff;fill-rule:nonzero;"/><path d="M148.794,90.093l-0.021,-0.326c-0.041,-0.547 0,-1.31 0.121,-2.286c0.534,-3.215 1.433,-6.709 2.693,-10.479l0.34,-1.23c-0.23,0.116 -0.447,0.391 -0.66,0.825c-1.299,1.925 -2.649,4.122 -4.056,6.588c-0.724,1.264 -1.417,2.251 -2.084,2.97c-0.572,0.71 -1.111,1.236 -1.614,1.571c-0.553,0.338 -1.068,0.504 -1.547,0.51c-0.713,0.013 -1.356,-0.249 -1.928,-0.784c-0.567,-0.543 -0.956,-1.261 -1.165,-2.184c-0.144,-0.651 -0.23,-1.167 -0.258,-1.546c-0.05,-0.708 -0.026,-1.389 0.07,-2.043c0.416,-4.844 1.809,-9.349 4.197,-13.517c0.6,-1.038 1.281,-1.868 2.053,-2.48c0.498,-0.442 1.032,-0.667 1.604,-0.671c0.676,0.097 1.185,0.44 1.514,1.035c0.16,0.216 0.254,0.484 0.273,0.808c0.029,0.332 -0.071,0.689 -0.28,1.066c-1.289,2.083 -2.312,4.35 -3.066,6.773c-0.759,2.435 -1.412,5.2 -1.951,8.31c-0.111,0.437 -0.119,0.731 -0.012,0.896c0.28,-0.115 0.596,-0.441 0.94,-0.993c1.751,-2.255 3.793,-5.166 6.128,-8.737c1.116,-1.755 1.984,-3.046 2.596,-3.872l4.324,-6.836c0.466,-0.819 1.047,-1.071 1.745,-0.755c0.741,0.262 1.097,0.906 1.077,1.939c-0.018,0.383 -0.132,1.09 -0.349,2.129c-1.055,4.69 -2.126,9.055 -3.218,13.093c-0.84,3.005 -1.54,5.894 -2.109,8.675l-0.502,1.969c-0.159,0.487 -0.417,0.9 -0.773,1.229c-0.446,0.502 -0.954,0.752 -1.531,0.759c-0.38,0.007 -0.671,-0.046 -0.875,-0.147c-0.891,-0.423 -1.453,-1.18 -1.676,-2.259" style="fill:#fff;fill-rule:nonzero;"/><path d="M166.364,59.112l-0.116,-0.568c-0.02,-0.332 0,-0.678 0.069,-1.064c0.07,-0.378 0.12,-0.653 0.154,-0.819c0.145,-0.653 0.396,-1.131 0.761,-1.437c0.363,-0.302 0.784,-0.406 1.275,-0.307c0.482,0.049 0.883,0.304 1.205,0.762c0.324,0.458 0.509,1.035 0.561,1.744c-0.022,1.033 -0.224,1.905 -0.605,2.618c-0.518,0.771 -1.125,1.053 -1.807,0.841c-0.788,-0.206 -1.281,-0.799 -1.497,-1.77m-6.911,23.673l-0.122,-0.656c-0.037,-1.789 0.1,-3.176 0.418,-4.162c0.994,-3.492 1.814,-6.064 2.461,-7.702c0.646,-1.645 1.298,-2.982 1.94,-4.025c0.341,-0.553 0.657,-0.907 0.925,-1.077c0.221,-0.216 0.531,-0.332 0.912,-0.337c0.384,-0.007 0.733,0.154 1.046,0.474c0.306,0.325 0.508,0.722 0.591,1.213l0.028,0.411c0.039,0.542 0.045,0.923 0.012,1.137c-0.066,0.438 -0.147,0.979 -0.247,1.634c-0.089,0.656 -0.197,1.173 -0.313,1.556l-2.397,9.578c-0.232,0.819 -0.826,1.887 -1.785,3.204c-0.351,0.443 -0.792,0.663 -1.319,0.676c-0.187,0 -0.434,-0.05 -0.729,-0.154c-0.738,-0.26 -1.212,-0.852 -1.421,-1.77" style="fill:#fff;fill-rule:nonzero;"/><path d="M167.289,94.509c-0.425,-0.535 -0.743,-1.114 -0.954,-1.735c-0.213,-0.621 -0.339,-1.174 -0.375,-1.671c-0.116,-1.572 -0.021,-3.231 0.285,-4.976c0.401,-1.744 0.854,-3.462 1.353,-5.159c2.121,-7.152 4.849,-15.427 8.195,-24.831l1.552,-4.426c2.459,-7.05 4.262,-11.97 5.4,-14.762c0.159,-0.435 0.45,-1.092 0.868,-1.966c0.294,-0.55 0.627,-0.936 0.992,-1.158c0.278,-0.17 0.556,-0.255 0.847,-0.262c0.328,0 0.643,0.119 0.924,0.355c0.28,0.242 0.484,0.581 0.615,1.012c0.059,0.163 0.102,0.408 0.125,0.734c0.019,0.328 0.019,0.572 -0.016,0.728c-0.043,1.421 -0.344,3.219 -0.907,5.402c-0.29,1.307 -0.819,3.221 -1.597,5.733l-0.527,1.636c-3.415,9.84 -5.948,17.213 -7.602,22.134c-2.357,7.209 -4.052,12.89 -5.095,17.034l-0.668,2.704c-0.109,0.493 -0.144,0.981 -0.113,1.472c0.026,0.324 0.069,0.591 0.135,0.811c0.195,0.704 0.085,1.29 -0.337,1.755c-0.421,0.469 -0.955,0.629 -1.586,0.473c-0.439,-0.099 -0.946,-0.447 -1.514,-1.037" style="fill:#fff;fill-rule:nonzero;"/><path d="M35.908,50.119c-0.185,-1.861 -0.774,-3.265 -1.754,-4.164c-0.809,-0.749 -1.854,-1.149 -3.111,-1.187c-0.271,-0.009 -0.554,0.003 -0.876,0.027l-0.859,0.18c-0.776,0.176 -1.832,0.612 -3.148,1.297c-3.566,2.075 -6.495,4.836 -8.714,8.213c-5.419,8.502 -8.829,17.565 -10.111,26.936c-0.574,4.631 -0.696,8.686 -0.351,12.071c0.418,3.355 1.505,7.068 4.378,9.003c4.795,3.228 10.966,0.383 14.507,-3.269c1.001,-1.033 1.922,-2.229 2.679,-3.477c0.753,-1.244 1.391,-2.662 1.82,-4.078c0.897,-2.993 1.123,-6.703 0.024,-9.728c-0.097,-0.251 -0.652,-2.605 -0.743,-2.605c0.269,-0.013 0.936,-0.158 1.23,-0.2c0.508,-0.047 0.923,-0.3 1.203,-0.733c0.332,-0.509 0.425,-1.223 0.247,-1.908c-0.47,-1.842 -2.293,-1.906 -2.921,-1.926c-0.209,-0.004 -0.418,0 -0.615,0.004c-0.344,0.014 -0.793,0.014 -1.301,0.016c-1.901,0.008 -4.495,0.009 -5.673,0.574c-0.961,0.454 -1.551,1.506 -1.38,2.44c0.075,0.399 0.4,1.335 1.879,1.48c3.486,0.339 5.051,5.058 4.999,7.715c-0.062,3.36 -1.462,7.115 -3.862,9.268c-1.685,1.513 -4.386,3.215 -6.717,2.966c-5.008,-0.546 -4.25,-8.101 -3.982,-11.648l0.047,-0.659c0.449,-6.246 1.733,-12.057 3.831,-17.26c2.117,-5.467 4.391,-10.039 6.755,-13.581c1.521,-2.37 3.339,-4.294 5.399,-5.71c1.163,-0.801 3.403,-2.235 3.913,0.064c0.067,0.315 0.121,0.766 0.164,1.341c0.074,1.046 -0.016,2.056 -0.27,3.003c-0.364,1.405 -2.699,4.58 -0.935,5.813c0.075,0.038 1.62,0.802 2.572,-1.241c0.219,-0.417 0.428,-0.839 0.624,-1.28c1.043,-2.396 1.399,-5.007 1.052,-7.757" style="fill:#fff;fill-rule:nonzero;"/><path d="M47.575,57.162c-0.139,0 -0.254,-0.053 -0.356,-0.16c-0.101,-0.106 -0.151,-0.238 -0.151,-0.401l0,-7.769c0,-0.163 0.05,-0.297 0.151,-0.409c0.102,-0.108 0.217,-0.165 0.356,-0.165l1.616,0c0.134,0 0.25,0.057 0.354,0.165c0.097,0.112 0.148,0.246 0.148,0.409l0,5.688l3.294,0c0.154,0 0.282,0.05 0.389,0.154c0.107,0.099 0.161,0.227 0.161,0.379l0,1.6c0,0.144 -0.054,0.267 -0.161,0.368c-0.107,0.102 -0.235,0.154 -0.389,0.154l-5.101,0l-0.311,-0.013Z" style="fill:#00b6ed;fill-rule:nonzero;"/><path d="M62.924,52.666c0,-0.365 -0.087,-0.7 -0.263,-1.004c-0.175,-0.304 -0.408,-0.548 -0.702,-0.729c-0.29,-0.183 -0.603,-0.273 -0.938,-0.273c-0.351,0 -0.672,0.09 -0.963,0.273c-0.29,0.181 -0.521,0.425 -0.689,0.729c-0.169,0.304 -0.251,0.639 -0.251,1.004c0,0.363 0.082,0.702 0.251,1.009c0.168,0.31 0.399,0.555 0.689,0.737c0.291,0.183 0.612,0.275 0.963,0.275c0.335,0 0.648,-0.092 0.938,-0.275c0.294,-0.182 0.527,-0.427 0.702,-0.737c0.176,-0.307 0.263,-0.646 0.263,-1.009m-6.251,0.113c0,-0.839 0.197,-1.61 0.595,-2.323c0.394,-0.712 0.926,-1.276 1.595,-1.694c0.674,-0.42 1.405,-0.632 2.194,-0.632c0.79,0 1.523,0.212 2.199,0.632c0.673,0.418 1.209,0.982 1.603,1.694c0.396,0.713 0.593,1.484 0.593,2.323c0,0.838 -0.197,1.615 -0.593,2.325c-0.394,0.713 -0.93,1.275 -1.603,1.695c-0.676,0.419 -1.409,0.63 -2.199,0.63c-0.789,0 -1.52,-0.211 -2.194,-0.63c-0.669,-0.42 -1.201,-0.982 -1.595,-1.695c-0.398,-0.71 -0.595,-1.487 -0.595,-2.325" style="fill:#00b6ed;fill-rule:nonzero;"/><path d="M75.036,56.716l0,-7.987c0,-0.118 0.041,-0.22 0.126,-0.31c0.083,-0.088 0.187,-0.137 0.304,-0.137l1.858,0c0.079,0 0.162,0.022 0.252,0.06c0.088,0.037 0.147,0.079 0.177,0.119l2.229,2.593l2.338,-2.58c0.095,-0.092 0.199,-0.147 0.315,-0.163c0.119,-0.018 0.255,-0.029 0.414,-0.029l1.618,0c0.112,0 0.209,0.049 0.294,0.137c0.084,0.09 0.124,0.192 0.124,0.31l0,7.987c0,0.127 -0.038,0.237 -0.117,0.325c-0.082,0.089 -0.18,0.133 -0.301,0.133l-1.606,0c-0.121,0 -0.224,-0.044 -0.318,-0.133c-0.093,-0.088 -0.136,-0.198 -0.136,-0.325l0,-4.673l-1.927,2.59c-0.162,0.229 -0.365,0.345 -0.615,0.345c-0.116,0 -0.234,-0.028 -0.341,-0.085c-0.107,-0.053 -0.193,-0.126 -0.257,-0.219l-1.977,-2.631l0.015,4.673c0,0.127 -0.043,0.237 -0.121,0.325c-0.081,0.089 -0.178,0.133 -0.297,0.133l-1.621,0c-0.117,0 -0.221,-0.047 -0.304,-0.141c-0.085,-0.093 -0.126,-0.198 -0.126,-0.317" style="fill:#00b6ed;fill-rule:nonzero;"/><path d="M91.792,50.557l0,1.03l3.377,0c0.13,0 0.244,0.051 0.342,0.158c0.099,0.108 0.149,0.238 0.149,0.401l0,1.105c0,0.141 -0.05,0.272 -0.149,0.386c-0.098,0.114 -0.212,0.17 -0.342,0.17l-3.377,0l0,1.133l3.548,0c0.135,0 0.251,0.051 0.351,0.157c0.1,0.108 0.151,0.242 0.151,0.412l0,1.092c0,0.152 -0.051,0.286 -0.151,0.401c-0.1,0.116 -0.216,0.173 -0.351,0.173l-5.654,0c-0.138,0 -0.254,-0.057 -0.354,-0.173c-0.101,-0.115 -0.149,-0.249 -0.149,-0.401l0,-0.036l0,-1.056l0,-5.51l0,-1.105c0,-0.161 0.048,-0.295 0.149,-0.398c0.1,-0.106 0.216,-0.161 0.354,-0.161l5.654,0c0.135,0 0.251,0.055 0.351,0.161c0.1,0.103 0.151,0.237 0.151,0.398l0,1.105c0,0.144 -0.052,0.273 -0.158,0.388c-0.102,0.112 -0.217,0.17 -0.344,0.17l-3.548,0Z" style="fill:#00b6ed;fill-rule:nonzero;"/><path d="M97.552,59.842l0,-0.891c0,-0.185 0.056,-0.377 0.175,-0.577c0.116,-0.199 0.275,-0.298 0.472,-0.298c0.553,0 0.964,-0.13 1.235,-0.389c0.268,-0.256 0.438,-0.551 0.5,-0.874c0.065,-0.328 0.102,-0.71 0.11,-1.15l0.012,-0.304l0,-6.528c0,-0.176 0.04,-0.311 0.121,-0.401c0.076,-0.088 0.17,-0.135 0.275,-0.135l1.901,0c0.097,0 0.187,0.053 0.265,0.148c0.081,0.099 0.119,0.231 0.119,0.401l-0.047,7.26c0,0.011 -0.003,0.017 -0.003,0.017c0,1.658 -0.4,2.825 -1.207,3.497c-0.803,0.674 -1.752,1.023 -2.839,1.048c-0.34,0.007 -0.608,-0.058 -0.797,-0.203c-0.184,-0.143 -0.283,-0.354 -0.292,-0.621" style="fill:#00b6ed;fill-rule:nonzero;"/><path d="M112.863,52.666c0,-0.365 -0.087,-0.7 -0.263,-1.004c-0.175,-0.304 -0.408,-0.548 -0.702,-0.729c-0.29,-0.183 -0.603,-0.273 -0.94,-0.273c-0.352,0 -0.672,0.09 -0.964,0.273c-0.29,0.181 -0.519,0.425 -0.686,0.729c-0.169,0.304 -0.254,0.639 -0.254,1.004c0,0.363 0.085,0.702 0.254,1.009c0.167,0.31 0.396,0.555 0.686,0.737c0.292,0.183 0.612,0.275 0.964,0.275c0.337,0 0.65,-0.092 0.94,-0.275c0.294,-0.182 0.527,-0.427 0.702,-0.737c0.176,-0.307 0.263,-0.646 0.263,-1.009m-6.251,0.113c0,-0.839 0.197,-1.61 0.593,-2.323c0.394,-0.712 0.928,-1.276 1.597,-1.694c0.673,-0.42 1.405,-0.632 2.194,-0.632c0.79,0 1.523,0.212 2.195,0.632c0.677,0.418 1.213,0.982 1.607,1.694c0.396,0.713 0.593,1.484 0.593,2.323c0,0.838 -0.197,1.615 -0.593,2.325c-0.394,0.713 -0.93,1.275 -1.607,1.695c-0.672,0.419 -1.405,0.63 -2.195,0.63c-0.789,0 -1.521,-0.211 -2.194,-0.63c-0.669,-0.42 -1.203,-0.982 -1.597,-1.695c-0.396,-0.71 -0.593,-1.487 -0.593,-2.325" style="fill:#00b6ed;fill-rule:nonzero;"/><path d="M122.106,52.438c0.364,0 0.701,-0.07 1.011,-0.211c0.307,-0.139 0.461,-0.464 0.461,-0.971c0,-0.355 -0.102,-0.628 -0.306,-0.812c-0.204,-0.186 -0.496,-0.28 -0.879,-0.28l-0.985,0l0,2.274l0.698,0Zm1.782,3.973c-0.087,-0.575 -0.268,-0.976 -0.543,-1.202c-0.277,-0.221 -0.619,-0.353 -1.025,-0.397c-0.055,-0.007 -0.124,-0.011 -0.202,-0.011c-0.081,0 -0.15,0.005 -0.204,0.022l-0.016,0.015l0,1.626c0,0.16 -0.012,0.288 -0.039,0.387c-0.03,0.095 -0.104,0.174 -0.227,0.24c-0.126,0.064 -0.319,0.095 -0.582,0.095l-1.115,0c-0.247,0.008 -0.442,-0.04 -0.586,-0.146c-0.143,-0.105 -0.216,-0.251 -0.216,-0.438l0.012,-3.428l0,-4.419c0,-0.128 0.061,-0.24 0.18,-0.337c0.119,-0.099 0.263,-0.145 0.432,-0.145l2.719,0c1.197,-0.011 2.082,0.204 2.657,0.642c0.578,0.434 0.889,1.119 0.937,2.05c0.005,0.084 0.009,0.15 0.002,0.194c-0.002,0.049 -0.002,0.09 -0.002,0.123l0,0.265c-0.041,0.493 -0.162,0.881 -0.368,1.169c-0.2,0.29 -0.47,0.555 -0.809,0.799l0.012,0.015c0.393,0.203 0.704,0.496 0.937,0.877c0.23,0.381 0.389,0.779 0.474,1.191c0.082,0.418 0.115,0.788 0.1,1.117c0,0.147 -0.047,0.261 -0.144,0.343c-0.095,0.088 -0.233,0.128 -0.406,0.128l-1.464,0c-0.205,0 -0.34,-0.053 -0.399,-0.165c-0.062,-0.11 -0.093,-0.227 -0.096,-0.348c-0.007,-0.122 -0.009,-0.209 -0.019,-0.262" style="fill:#00b6ed;fill-rule:nonzero;"/><path d="M139.941,54.443c0.262,0 0.51,-0.08 0.736,-0.241c0.228,-0.16 0.409,-0.383 0.551,-0.667c0.137,-0.282 0.209,-0.596 0.209,-0.931c0,-0.332 -0.069,-0.638 -0.204,-0.916c-0.134,-0.28 -0.318,-0.502 -0.544,-0.667c-0.226,-0.165 -0.474,-0.245 -0.736,-0.245l-1.117,0c-0.057,0 -0.1,0.018 -0.138,0.06c-0.034,0.042 -0.053,0.097 -0.053,0.167l0,3.211c0,0.07 0.019,0.123 0.053,0.167c0.038,0.042 0.081,0.062 0.138,0.062l1.105,0Zm-3.787,2.173l0,-7.771c0,-0.154 0.054,-0.284 0.154,-0.394c0.106,-0.114 0.228,-0.169 0.373,-0.169l3.236,0c0.758,0 1.47,0.204 2.137,0.607c0.666,0.401 1.2,0.941 1.592,1.625c0.397,0.681 0.594,1.419 0.594,2.215c0,0.798 -0.2,1.535 -0.598,2.216c-0.401,0.682 -0.936,1.224 -1.607,1.627c-0.67,0.401 -1.386,0.603 -2.144,0.603l-3.21,0c-0.145,0 -0.267,-0.057 -0.373,-0.167c-0.1,-0.11 -0.154,-0.242 -0.154,-0.392" style="fill:#00b6ed;fill-rule:nonzero;"/><path d="M150.489,50.557l0,1.03l3.38,0c0.126,0 0.24,0.051 0.34,0.158c0.101,0.108 0.151,0.238 0.151,0.401l0,1.105c0,0.141 -0.05,0.272 -0.151,0.386c-0.1,0.114 -0.214,0.17 -0.34,0.17l-3.38,0l0,1.133l3.549,0c0.133,0 0.251,0.051 0.353,0.157c0.097,0.108 0.148,0.242 0.148,0.412l0,1.092c0,0.152 -0.051,0.286 -0.148,0.401c-0.102,0.116 -0.22,0.173 -0.353,0.173l-5.656,0c-0.135,0 -0.254,-0.057 -0.354,-0.173c-0.097,-0.115 -0.149,-0.249 -0.149,-0.401l0,-0.036l0,-1.056l0,-5.51l0,-1.105c0,-0.161 0.052,-0.295 0.149,-0.398c0.1,-0.106 0.219,-0.161 0.354,-0.161l5.656,0c0.133,0 0.251,0.055 0.353,0.161c0.097,0.103 0.148,0.237 0.148,0.398l0,1.105c0,0.144 -0.053,0.273 -0.155,0.388c-0.106,0.112 -0.221,0.17 -0.346,0.17l-3.549,0Z" style="fill:#00b6ed;fill-rule:nonzero;"/></svg>