<?xml version="1.0" encoding="UTF-8" standalone="no"?><!DOCTYPE svg PUBLIC "-//W3C//DTD SVG 1.1//EN" "http://www.w3.org/Graphics/SVG/1.1/DTD/svg11.dtd"><svg width="100%" height="100%" viewBox="0 0 600 600" version="1.1" xmlns="http://www.w3.org/2000/svg" xmlns:xlink="http://www.w3.org/1999/xlink" xml:space="preserve" xmlns:serif="http://www.serif.com/" style="fill-rule:evenodd;clip-rule:evenodd;stroke-linejoin:round;stroke-miterlimit:1.41421;"><g id="one"><path d="M47.932,441.499l0,-30.199l7.959,0c2.965,0 4.904,0.145 5.815,0.434c1.458,0.466 2.658,1.462 3.603,2.986c0.946,1.525 1.418,3.489 1.418,5.892c0,2.184 -0.408,4.012 -1.224,5.489c-0.815,1.476 -1.837,2.512 -3.061,3.11c-1.226,0.598 -3.333,0.898 -6.326,0.898l-3.246,0l0,11.39l-4.938,0Zm4.938,-25.09l0,8.569l2.735,0c1.838,0 3.085,-0.129 3.746,-0.391c0.658,-0.26 1.2,-0.732 1.622,-1.411c0.422,-0.68 0.632,-1.514 0.632,-2.503c0,-1.001 -0.217,-1.847 -0.653,-2.534c-0.436,-0.687 -0.973,-1.146 -1.613,-1.38c-0.637,-0.232 -1.992,-0.35 -4.059,-0.35l-2.41,0Z" style="fill:#fff;fill-rule:nonzero;"/><path d="M75.279,441.499l-4.716,0l0,-21.876l4.369,0l0,3.11c0.748,-1.456 1.418,-2.421 2.009,-2.895c0.593,-0.473 1.277,-0.71 2.053,-0.71c1.073,0 2.1,0.363 3.079,1.092l-1.469,5.046c-0.774,-0.63 -1.509,-0.946 -2.203,-0.946c-0.654,0 -1.228,0.243 -1.725,0.731c-0.497,0.487 -0.853,1.369 -1.071,2.646c-0.218,1.277 -0.326,3.626 -0.326,7.045l0,6.757Z" style="fill:#fff;fill-rule:nonzero;"/><path d="M82.992,430.252c0,-2.143 0.422,-4.093 1.266,-5.85c0.844,-1.758 1.945,-3.075 3.307,-3.954c1.359,-0.879 2.89,-1.32 4.591,-1.32c2.857,0 5.103,1.13 6.734,3.389c1.633,2.26 2.449,4.899 2.449,7.92c0,2.252 -0.424,4.284 -1.275,6.098c-0.851,1.812 -1.966,3.176 -3.347,4.09c-1.38,0.912 -2.894,1.369 -4.542,1.369c-2.639,0 -4.828,-1.017 -6.57,-3.049c-1.741,-2.032 -2.613,-4.929 -2.613,-8.693Zm4.817,0.309c0,2.21 0.428,3.884 1.286,5.016c0.856,1.134 1.892,1.699 3.101,1.699c1.184,0 2.199,-0.57 3.042,-1.709c0.842,-1.141 1.264,-2.822 1.264,-5.048c0,-2.168 -0.427,-3.823 -1.285,-4.964c-0.858,-1.139 -1.884,-1.709 -3.082,-1.709c-1.183,0 -2.201,0.57 -3.051,1.709c-0.851,1.141 -1.275,2.81 -1.275,5.006Z" style="fill:#fff;fill-rule:nonzero;"/><path d="M104.585,442.941l5.386,0.804c0.082,0.796 0.331,1.364 0.745,1.699c0.415,0.337 1.071,0.504 1.969,0.504c1.034,0 1.87,-0.171 2.51,-0.514c0.45,-0.248 0.797,-0.658 1.041,-1.237c0.246,-0.577 0.368,-1.592 0.368,-3.047l0,-3.195c-0.708,1.182 -1.502,2.068 -2.388,2.658c-0.884,0.591 -1.864,0.886 -2.937,0.886c-1.974,0 -3.633,-0.9 -4.981,-2.697c-1.551,-2.061 -2.327,-4.85 -2.327,-8.365c0,-3.734 0.731,-6.553 2.194,-8.457c1.462,-1.9 3.234,-2.852 5.318,-2.852c1.101,0 2.104,0.295 3.009,0.886c0.905,0.591 1.711,1.484 2.419,2.679l0,-3.07l4.409,0l0,19.631c0,3.145 -0.286,5.423 -0.858,6.839c-0.572,1.416 -1.453,2.482 -2.644,3.204c-1.191,0.719 -2.841,1.08 -4.948,1.08c-1.945,0 -3.504,-0.26 -4.673,-0.782c-1.172,-0.523 -2.065,-1.301 -2.684,-2.337c-0.618,-1.038 -0.928,-2.236 -0.928,-3.596l0,-0.721Zm4.202,-12.832c0,2.334 0.371,4.036 1.114,5.107c0.74,1.071 1.636,1.607 2.683,1.607c1.13,0 2.096,-0.543 2.897,-1.626c0.804,-1.085 1.205,-2.733 1.205,-4.945c0,-2.279 -0.384,-3.966 -1.153,-5.056c-0.769,-1.092 -1.718,-1.638 -2.848,-1.638c-1.115,0 -2.044,0.534 -2.784,1.605c-0.743,1.071 -1.114,2.719 -1.114,4.946Z" style="fill:#fff;fill-rule:nonzero;"/><path d="M130.481,441.499l-4.713,0l0,-21.876l4.366,0l0,3.11c0.748,-1.456 1.418,-2.421 2.011,-2.895c0.591,-0.473 1.275,-0.71 2.051,-0.71c1.074,0 2.102,0.363 3.082,1.092l-1.469,5.046c-0.776,-0.63 -1.512,-0.946 -2.206,-0.946c-0.651,0 -1.228,0.243 -1.723,0.731c-0.496,0.487 -0.855,1.369 -1.073,2.646c-0.216,1.277 -0.326,3.626 -0.326,7.045l0,6.757Z" style="fill:#fff;fill-rule:nonzero;"/><path d="M142.807,426.298l-4.263,-0.95c0.515,-2.21 1.368,-3.799 2.559,-4.767c1.191,-0.968 2.902,-1.453 5.133,-1.453c1.987,0 3.504,0.281 4.551,0.844c1.048,0.565 1.796,1.329 2.246,2.297c0.447,0.97 0.672,2.73 0.672,5.285l-0.039,6.757c0,1.894 0.075,3.305 0.222,4.233c0.15,0.926 0.429,1.912 0.837,2.955l-4.652,0l-0.612,-2.388c-0.804,0.961 -1.664,1.68 -2.583,2.161c-0.916,0.48 -1.894,0.722 -2.927,0.722c-1.728,0 -3.143,-0.589 -4.245,-1.76c-1.101,-1.175 -1.652,-2.738 -1.652,-4.688c0,-1.235 0.223,-2.313 0.673,-3.234c0.447,-0.919 1.08,-1.655 1.898,-2.203c0.816,-0.551 2.121,-1.039 3.916,-1.463c2.178,-0.509 3.694,-0.982 4.552,-1.423c0,-1.207 -0.084,-2.001 -0.256,-2.378c-0.168,-0.378 -0.482,-0.687 -0.937,-0.926c-0.457,-0.242 -1.099,-0.361 -1.929,-0.361c-0.844,0 -1.507,0.192 -1.99,0.576c-0.483,0.385 -0.874,1.107 -1.174,2.164Zm6.286,4.697c-0.598,0.246 -1.531,0.534 -2.796,0.864c-1.456,0.385 -2.407,0.809 -2.857,1.278c-0.448,0.466 -0.673,1.071 -0.673,1.811c0,0.839 0.249,1.543 0.745,2.112c0.497,0.57 1.118,0.856 1.866,0.856c0.668,0 1.327,-0.23 1.981,-0.692c0.653,-0.459 1.106,-1.005 1.357,-1.636c0.253,-0.633 0.377,-1.779 0.377,-3.44l0,-1.153Z" style="fill:#fff;fill-rule:nonzero;"/><path d="M157.992,419.623l4.327,0l0,2.986c0.773,-1.168 1.624,-2.039 2.55,-2.616c0.926,-0.577 1.924,-0.865 3,-0.865c1.143,0 2.133,0.288 2.969,0.865c0.837,0.577 1.521,1.448 2.051,2.616c0.79,-1.168 1.636,-2.039 2.541,-2.616c0.904,-0.577 1.868,-0.865 2.887,-0.865c1.212,0 2.255,0.293 3.134,0.877c0.876,0.583 1.544,1.418 1.999,2.503c0.455,1.083 0.684,2.751 0.684,5.004l0,13.987l-4.715,0l0,-12.504c0,-2.184 -0.19,-3.635 -0.572,-4.357c-0.38,-0.719 -1.02,-1.08 -1.917,-1.08c-1.048,0 -1.892,0.504 -2.532,1.514c-0.639,1.008 -0.958,2.983 -0.958,5.923l0,10.504l-4.713,0l0,-11.988c0,-2.377 -0.129,-3.907 -0.389,-4.594c-0.34,-0.907 -1.027,-1.359 -2.061,-1.359c-0.693,0 -1.333,0.232 -1.919,0.701c-0.584,0.466 -1.006,1.148 -1.266,2.048c-0.258,0.9 -0.387,2.421 -0.387,4.563l0,10.629l-4.713,0l0,-21.876Z" style="fill:#fff;fill-rule:nonzero;"/><path d="M192.337,426.298l-4.265,-0.95c0.518,-2.21 1.371,-3.799 2.562,-4.767c1.19,-0.968 2.901,-1.453 5.132,-1.453c1.986,0 3.504,0.281 4.552,0.844c1.048,0.565 1.795,1.329 2.243,2.297c0.45,0.97 0.675,2.73 0.675,5.285l-0.042,6.757c0,1.894 0.075,3.305 0.225,4.233c0.15,0.926 0.429,1.912 0.836,2.955l-4.652,0l-0.612,-2.388c-0.804,0.961 -1.664,1.68 -2.582,2.161c-0.919,0.48 -1.894,0.722 -2.928,0.722c-1.729,0 -3.143,-0.589 -4.244,-1.76c-1.104,-1.175 -1.655,-2.738 -1.655,-4.688c0,-1.235 0.225,-2.313 0.675,-3.234c0.448,-0.919 1.08,-1.655 1.896,-2.203c0.818,-0.551 2.124,-1.039 3.919,-1.463c2.177,-0.509 3.694,-0.982 4.551,-1.423c0,-1.207 -0.084,-2.001 -0.255,-2.378c-0.171,-0.378 -0.483,-0.687 -0.938,-0.926c-0.457,-0.242 -1.099,-0.361 -1.928,-0.361c-0.844,0 -1.507,0.192 -1.99,0.576c-0.483,0.385 -0.875,1.107 -1.175,2.164Zm6.286,4.697c-0.6,0.246 -1.53,0.534 -2.796,0.864c-1.455,0.385 -2.407,0.809 -2.857,1.278c-0.45,0.466 -0.672,1.071 -0.672,1.811c0,0.839 0.248,1.543 0.743,2.112c0.496,0.57 1.12,0.856 1.868,0.856c0.668,0 1.326,-0.23 1.98,-0.692c0.652,-0.459 1.104,-1.005 1.357,-1.636c0.251,-0.633 0.377,-1.779 0.377,-3.44l0,-1.153Z" style="fill:#fff;fill-rule:nonzero;"/><path d="M217.378,441.499l0,-30.199l7.409,0l4.448,20.599l4.409,-20.599l7.427,0l0,30.199l-4.591,0l0,-23.772l-4.878,23.772l-4.776,0l-4.835,-23.772l0,23.772l-4.613,0Z" style="fill:#fff;fill-rule:nonzero;"/><path d="M257.641,441.499l0,-3.274c-0.651,1.179 -1.509,2.105 -2.571,2.77c-1.059,0.666 -2.17,0.999 -3.325,0.999c-1.17,0 -2.218,-0.31 -3.143,-0.928c-0.926,-0.617 -1.615,-1.496 -2.072,-2.637c-0.455,-1.139 -0.682,-2.794 -0.682,-4.964l0,-13.842l4.713,0l0,10.052c0,2.871 0.073,4.695 0.213,5.47c0.143,0.776 0.46,1.376 0.949,1.803c0.49,0.424 1.083,0.637 1.777,0.637c0.79,0 1.516,-0.279 2.184,-0.834c0.666,-0.556 1.104,-1.271 1.315,-2.142c0.211,-0.872 0.317,-2.792 0.317,-5.757l0,-9.229l4.694,0l0,21.876l-4.369,0Z" style="fill:#fff;fill-rule:nonzero;"/><path d="M265.254,435.258l4.716,-0.886c0.407,2.294 1.673,3.441 3.794,3.441c1.13,0 1.974,-0.221 2.531,-0.659c0.558,-0.441 0.837,-1.01 0.837,-1.711c0,-0.48 -0.122,-0.858 -0.368,-1.132c-0.258,-0.277 -0.769,-0.516 -1.53,-0.722c-3.863,-1.029 -6.319,-2.011 -7.367,-2.946c-1.305,-1.167 -1.959,-2.766 -1.959,-4.8c0,-2.032 0.64,-3.659 1.917,-4.882c1.28,-1.221 3.136,-1.833 5.573,-1.833c2.325,0 4.095,0.457 5.304,1.371c1.212,0.912 2.063,2.386 2.553,4.418l-4.43,1.01c-0.394,-1.757 -1.509,-2.636 -3.347,-2.636c-1.155,0 -1.978,0.166 -2.468,0.504c-0.49,0.335 -0.736,0.771 -0.736,1.307c0,0.481 0.225,0.879 0.675,1.196c0.448,0.328 1.842,0.822 4.184,1.483c2.625,0.741 4.406,1.641 5.346,2.698c0.926,1.057 1.387,2.466 1.387,4.223c0,2.114 -0.717,3.858 -2.153,5.232c-1.435,1.373 -3.418,2.06 -5.949,2.06c-2.299,0 -4.176,-0.574 -5.632,-1.721c-1.455,-1.146 -2.414,-2.819 -2.878,-5.015Z" style="fill:#fff;fill-rule:nonzero;"/><path d="M296.273,434.536l4.674,0.968c-0.626,2.198 -1.599,3.83 -2.918,4.894c-1.32,1.064 -2.925,1.596 -4.817,1.596c-2.625,0 -4.652,-0.886 -6.079,-2.658c-1.688,-2.06 -2.531,-4.943 -2.531,-8.651c0,-3.654 0.85,-6.579 2.55,-8.775c1.443,-1.854 3.307,-2.782 5.592,-2.782c2.545,0 4.537,0.947 5.979,2.843c1.661,2.17 2.491,5.37 2.491,9.6l-0.021,0.659l-11.775,0c0.026,1.729 0.41,3.07 1.153,4.017c0.741,0.947 1.636,1.42 2.684,1.42c1.509,0 2.517,-1.043 3.018,-3.131Zm0.268,-5.85c-0.043,-1.702 -0.403,-2.984 -1.083,-3.841c-0.68,-0.858 -1.488,-1.287 -2.428,-1.287c-0.994,0 -1.831,0.445 -2.51,1.338c-0.694,0.907 -1.034,2.17 -1.02,3.79l7.041,0Z" style="fill:#fff;fill-rule:nonzero;"/><path d="M303.928,430.252c0,-2.143 0.422,-4.093 1.266,-5.85c0.841,-1.758 1.945,-3.075 3.304,-3.954c1.362,-0.879 2.893,-1.32 4.592,-1.32c2.857,0 5.102,1.13 6.736,3.389c1.631,2.26 2.449,4.899 2.449,7.92c0,2.252 -0.427,4.284 -1.277,6.098c-0.849,1.812 -1.964,3.176 -3.347,4.09c-1.381,0.912 -2.895,1.369 -4.54,1.369c-2.639,0 -4.831,-1.017 -6.572,-3.049c-1.741,-2.032 -2.611,-4.929 -2.611,-8.693Zm4.817,0.309c0,2.21 0.426,3.884 1.284,5.016c0.858,1.134 1.891,1.699 3.103,1.699c1.184,0 2.196,-0.57 3.04,-1.709c0.844,-1.141 1.265,-2.822 1.265,-5.048c0,-2.168 -0.428,-3.823 -1.286,-4.964c-0.856,-1.139 -1.885,-1.709 -3.08,-1.709c-1.184,0 -2.201,0.57 -3.051,1.709c-0.851,1.141 -1.275,2.81 -1.275,5.006Z" style="fill:#fff;fill-rule:nonzero;"/><path d="M356.395,441.499l-5.386,0l-2.144,-6.86l-9.795,0l-2.02,6.86l-5.266,0l9.55,-30.199l5.246,0l9.815,30.199Zm-9.122,-11.948l-3.368,-11.206l-3.325,11.206l6.693,0Z" style="fill:#fff;fill-rule:nonzero;"/><path d="M363.497,441.499l-4.713,0l0,-21.876l4.366,0l0,3.11c0.75,-1.456 1.42,-2.421 2.011,-2.895c0.593,-0.473 1.275,-0.71 2.051,-0.71c1.076,0 2.102,0.363 3.082,1.092l-1.47,5.046c-0.776,-0.63 -1.509,-0.946 -2.203,-0.946c-0.654,0 -1.228,0.243 -1.725,0.731c-0.497,0.487 -0.853,1.369 -1.071,2.646c-0.218,1.277 -0.328,3.626 -0.328,7.045l0,6.757Z" style="fill:#fff;fill-rule:nonzero;"/><path d="M380.435,419.623l0,4.614l-3.204,0l0,8.818c0,1.907 0.049,3.014 0.143,3.316c0.192,0.549 0.579,0.823 1.165,0.823c0.434,0 1.059,-0.185 1.877,-0.556l0.408,4.491c-1.087,0.576 -2.32,0.865 -3.694,0.865c-1.197,0 -2.156,-0.289 -2.878,-0.865c-0.719,-0.577 -1.204,-1.409 -1.448,-2.494c-0.19,-0.794 -0.286,-2.416 -0.286,-4.861l0,-9.536l-2.163,0l0,-4.615l2.163,0l0,-4.346l4.713,-3.379l0,7.725l3.204,0Z" style="fill:#fff;fill-rule:nonzero;"/><path d="M394.029,434.536l4.673,0.968c-0.625,2.198 -1.6,3.83 -2.92,4.894c-1.32,1.064 -2.925,1.596 -4.816,1.596c-2.625,0 -4.653,-0.886 -6.08,-2.658c-1.688,-2.06 -2.531,-4.943 -2.531,-8.651c0,-3.654 0.85,-6.579 2.55,-8.775c1.443,-1.854 3.307,-2.782 5.592,-2.782c2.545,0 4.537,0.947 5.979,2.843c1.661,2.17 2.491,5.37 2.491,9.6l-0.021,0.659l-11.775,0c0.028,1.729 0.413,3.07 1.153,4.017c0.741,0.947 1.636,1.42 2.684,1.42c1.509,0 2.517,-1.043 3.021,-3.131Zm0.265,-5.85c-0.042,-1.702 -0.401,-2.984 -1.083,-3.841c-0.68,-0.858 -1.488,-1.287 -2.428,-1.287c-0.994,0 -1.831,0.445 -2.51,1.338c-0.694,0.907 -1.034,2.17 -1.02,3.79l7.041,0Z" style="fill:#fff;fill-rule:nonzero;"/><path d="M410.07,419.623l5.02,0l4.223,15.532l4.163,-15.532l4.858,0l-6.267,21.051l-1.202,4.102c-0.532,1.537 -1.06,2.662 -1.582,3.377c-0.525,0.715 -1.191,1.263 -1.999,1.648c-0.811,0.384 -1.807,0.576 -2.991,0.576c-0.912,0 -1.802,-0.117 -2.674,-0.349l-0.408,-4.533c0.736,0.178 1.394,0.268 1.98,0.268c0.898,0 1.636,-0.303 2.215,-0.905c0.577,-0.605 1.05,-1.704 1.418,-3.298l-6.754,-21.937Z" style="fill:#fff;fill-rule:nonzero;"/><path d="M456.64,430.397l4.795,1.875c-0.748,3.377 -1.994,5.845 -3.736,7.404c-1.741,1.558 -3.883,2.339 -6.426,2.339c-3.2,0 -5.789,-1.245 -7.777,-3.729c-2.285,-2.871 -3.429,-6.743 -3.429,-11.618c0,-5.149 1.151,-9.181 3.45,-12.091c1.999,-2.527 4.688,-3.79 8.06,-3.79c2.75,0 5.049,0.947 6.898,2.84c1.32,1.348 2.287,3.345 2.899,5.996l-4.898,1.441c-0.314,-1.634 -0.935,-2.887 -1.868,-3.759c-0.931,-0.872 -2.03,-1.308 -3.296,-1.308c-1.809,0 -3.285,0.797 -4.427,2.391c-1.144,1.591 -1.715,4.221 -1.715,7.889c0,3.803 0.557,6.508 1.673,8.116c1.116,1.605 2.564,2.409 4.348,2.409c1.305,0 2.435,-0.511 3.386,-1.535c0.954,-1.022 1.641,-2.646 2.063,-4.87Z" style="fill:#fff;fill-rule:nonzero;"/><path d="M465.64,416.655l0,-5.355l4.713,0l0,5.355l-4.713,0Zm0,24.844l0,-21.876l4.713,0l0,21.876l-4.713,0Z" style="fill:#fff;fill-rule:nonzero;"/><path d="M486.844,441.499l0,-3.274c-0.654,1.179 -1.512,2.105 -2.574,2.77c-1.059,0.666 -2.168,0.999 -3.325,0.999c-1.17,0 -2.218,-0.31 -3.143,-0.928c-0.926,-0.617 -1.615,-1.496 -2.072,-2.637c-0.455,-1.139 -0.682,-2.794 -0.682,-4.964l0,-13.842l4.713,0l0,10.052c0,2.871 0.073,4.695 0.213,5.47c0.143,0.776 0.46,1.376 0.949,1.803c0.49,0.424 1.083,0.637 1.777,0.637c0.79,0 1.516,-0.279 2.184,-0.834c0.666,-0.556 1.104,-1.271 1.315,-2.142c0.211,-0.872 0.317,-2.792 0.317,-5.757l0,-9.229l4.694,0l0,21.876l-4.366,0Z" style="fill:#fff;fill-rule:nonzero;"/><path d="M512.414,441.499l-4.387,0l0,-3.213c-0.722,1.235 -1.573,2.163 -2.553,2.78c-0.979,0.618 -1.985,0.928 -3.019,0.928c-1.987,0 -3.719,-0.999 -5.193,-2.998c-1.477,-1.997 -2.215,-4.851 -2.215,-8.559c0,-3.734 0.722,-6.553 2.163,-8.457c1.442,-1.9 3.218,-2.852 5.325,-2.852c0.994,0 1.922,0.256 2.787,0.762c0.865,0.508 1.657,1.27 2.376,2.287l0,-10.877l4.716,0l0,30.199Zm-12.551,-11.411c0,1.978 0.167,3.45 0.5,4.417c0.332,0.968 0.81,1.697 1.429,2.185c0.619,0.487 1.315,0.731 2.091,0.731c1.033,0 1.931,-0.562 2.693,-1.69c0.764,-1.125 1.144,-2.822 1.144,-5.088c0,-2.513 -0.371,-4.322 -1.111,-5.428c-0.743,-1.104 -1.686,-1.657 -2.827,-1.657c-1.09,0 -2.016,0.541 -2.777,1.626c-0.762,1.086 -1.142,2.719 -1.142,4.904Z" style="fill:#fff;fill-rule:nonzero;"/><path d="M520.556,426.298l-4.265,-0.95c0.518,-2.21 1.371,-3.799 2.561,-4.767c1.191,-0.968 2.902,-1.453 5.133,-1.453c1.985,0 3.504,0.281 4.552,0.844c1.047,0.565 1.795,1.329 2.243,2.297c0.45,0.97 0.675,2.73 0.675,5.285l-0.043,6.757c0,1.894 0.075,3.305 0.225,4.233c0.15,0.926 0.429,1.912 0.837,2.955l-4.652,0l-0.612,-2.388c-0.804,0.961 -1.664,1.68 -2.583,2.161c-0.918,0.48 -1.893,0.722 -2.927,0.722c-1.73,0 -3.143,-0.589 -4.245,-1.76c-1.103,-1.175 -1.654,-2.738 -1.654,-4.688c0,-1.235 0.225,-2.313 0.675,-3.234c0.447,-0.919 1.08,-1.655 1.896,-2.203c0.818,-0.551 2.123,-1.039 3.919,-1.463c2.177,-0.509 3.693,-0.982 4.551,-1.423c0,-1.207 -0.084,-2.001 -0.255,-2.378c-0.171,-0.378 -0.483,-0.687 -0.94,-0.926c-0.455,-0.242 -1.097,-0.361 -1.927,-0.361c-0.843,0 -1.507,0.192 -1.99,0.576c-0.482,0.385 -0.874,1.107 -1.174,2.164Zm6.286,4.697c-0.6,0.246 -1.53,0.534 -2.796,0.864c-1.455,0.385 -2.407,0.809 -2.857,1.278c-0.45,0.466 -0.673,1.071 -0.673,1.811c0,0.839 0.249,1.543 0.743,2.112c0.497,0.57 1.121,0.856 1.868,0.856c0.668,0 1.327,-0.23 1.981,-0.692c0.651,-0.459 1.104,-1.005 1.357,-1.636c0.251,-0.633 0.377,-1.779 0.377,-3.44l0,-1.153Z" style="fill:#fff;fill-rule:nonzero;"/><path d="M552.413,441.499l-4.388,0l0,-3.213c-0.722,1.235 -1.57,2.163 -2.55,2.78c-0.98,0.618 -1.988,0.928 -3.021,0.928c-1.988,0 -3.717,-0.999 -5.194,-2.998c-1.476,-1.997 -2.215,-4.851 -2.215,-8.559c0,-3.734 0.722,-6.553 2.164,-8.457c1.443,-1.9 3.218,-2.852 5.327,-2.852c0.994,0 1.922,0.256 2.784,0.762c0.865,0.508 1.657,1.27 2.379,2.287l0,-10.877l4.713,0l0,30.199Zm-12.55,-11.411c0,1.978 0.166,3.45 0.499,4.417c0.335,0.968 0.811,1.697 1.43,2.185c0.618,0.487 1.317,0.731 2.09,0.731c1.036,0 1.934,-0.562 2.696,-1.69c0.761,-1.125 1.141,-2.822 1.141,-5.088c0,-2.513 -0.37,-4.322 -1.111,-5.428c-0.741,-1.104 -1.683,-1.657 -2.827,-1.657c-1.087,0 -2.013,0.541 -2.775,1.626c-0.761,1.086 -1.143,2.719 -1.143,4.904Z" style="fill:#fff;fill-rule:nonzero;"/></g><g><path d="M457.214,268.186l0,-8.327l20.095,0l0,19.692c-1.954,2.022 -4.783,3.806 -8.489,5.346c-3.705,1.54 -7.46,2.308 -11.259,2.308c-4.831,0 -9.04,-1.085 -12.631,-3.253c-3.59,-2.17 -6.29,-5.273 -8.095,-9.307c-1.807,-4.036 -2.709,-8.425 -2.709,-13.169c0,-5.147 1.008,-9.722 3.023,-13.725c2.016,-4.001 4.967,-7.069 8.853,-9.206c2.96,-1.641 6.644,-2.461 11.055,-2.461c5.731,0 10.209,1.286 13.432,3.862c3.223,2.574 5.297,6.131 6.22,10.671l-9.26,1.856c-0.649,-2.428 -1.872,-4.345 -3.668,-5.749c-1.795,-1.406 -4.038,-2.109 -6.724,-2.109c-4.076,0 -7.312,1.383 -9.717,4.148c-2.405,2.766 -3.607,6.867 -3.607,12.31c0,5.866 1.219,10.268 3.654,13.2c2.435,2.934 5.627,4.401 9.574,4.401c1.952,0 3.912,-0.41 5.876,-1.23c1.961,-0.821 3.647,-1.817 5.055,-2.984l0,-6.274l-10.678,0Z" style="fill:#fff;fill-opacity:0.662745;"/><path d="M481.655,250.552l9.417,0l8.001,25.425l7.812,-25.425l9.164,0l-11.81,34.462l-2.112,6.239c-0.775,2.091 -1.516,3.687 -2.219,4.788c-0.703,1.102 -1.512,1.995 -2.426,2.682c-0.912,0.684 -2.037,1.218 -3.37,1.6c-1.334,0.382 -2.839,0.575 -4.519,0.575c-1.702,0 -3.37,-0.193 -5.009,-0.575l-0.787,-7.418c1.385,0.291 2.634,0.439 3.748,0.439c2.057,0 3.581,-0.647 4.567,-1.941c0.987,-1.291 1.744,-2.939 2.269,-4.938l-12.726,-35.913Z" style="fill:#fff;fill-opacity:0.537255;"/><path d="M541.09,274.964l8.819,1.587c-1.134,3.462 -2.922,6.096 -5.369,7.908c-2.447,1.809 -5.508,2.714 -9.183,2.714c-5.815,0 -10.12,-2.035 -12.914,-6.103c-2.203,-3.261 -3.307,-7.376 -3.307,-12.343c0,-5.936 1.451,-10.584 4.348,-13.945c2.896,-3.361 6.562,-5.041 10.992,-5.041c4.976,0 8.904,1.76 11.779,5.278c2.879,3.518 4.252,8.908 4.128,16.169l-22.174,0c0.063,2.81 0.775,4.997 2.142,6.558c1.364,1.563 3.065,2.344 5.102,2.344c1.385,0 2.55,-0.403 3.495,-1.214c0.947,-0.809 1.659,-2.112 2.142,-3.912Zm0.504,-9.577c-0.064,-2.742 -0.724,-4.828 -1.983,-6.255c-1.261,-1.427 -2.794,-2.14 -4.599,-2.14c-1.933,0 -3.529,0.753 -4.788,2.26c-1.261,1.504 -1.879,3.55 -1.858,6.135l13.228,0Z" style="fill:#fff;fill-opacity:0.584314;"/></g><rect x="47.51" y="398.466" width="504.954" height="5.988" style="fill:#fff;fill-opacity:0.509804;"/><path id="Capa2" d="M394.758,199.603c5.803,-9.841 12.63,-18.133 20.48,-24.876c10.851,-9.326 22.898,-16.072 36.14,-20.241c13.24,-4.17 26.264,-6.253 39.073,-6.253c14.109,0 25.992,0.876 35.653,2.632c9.659,1.755 17.637,3.839 23.93,6.253l-9.441,40.814c-5.428,-2.414 -11.777,-4.169 -19.048,-5.266c-7.272,-1.097 -16.443,-1.646 -27.513,-1.646c-9.769,0 -18.614,1.589 -26.536,4.772c-7.924,3.181 -14.707,7.955 -20.351,14.318c-5.643,6.363 -10.04,14.372 -13.186,24.026c-3.147,9.654 -4.722,20.955 -4.722,33.9c0,11.409 1.411,21.832 4.233,31.268c2.821,9.436 7.054,17.555 12.698,24.356c5.644,6.802 12.806,12.068 21.49,15.797c8.683,3.731 18.776,5.597 30.281,5.597c10.636,0 19.589,-0.987 26.862,-2.963c7.272,-1.975 13.729,-4.497 19.373,-7.57l9.443,38.838c-7.165,5.046 -16.605,8.721 -28.329,11.025c-11.721,2.304 -23.768,3.457 -36.14,3.457c-13.071,0 -25.662,-1.774 -37.77,-5.318l1.948,6.289l-55.892,0l-50.24,-176.154l-46.613,176.137l-54.996,0l0.01,-0.03l-9.115,0l0,-182.393l-47.956,182.393l-46.966,0l-47.789,-182.393l0,182.393l-45.319,0l0,-231.706l73.003,0l43.835,158.053l43.343,-158.053l73.167,0l0,105.846l30.432,-105.782l69.377,0l13.151,42.48Z" style="fill:#fff;fill-opacity:0.788235;"/></svg>