<svg viewBox="0 0 2000 440" version="1.1" xmlns="http://www.w3.org/2000/svg" xmlns:xlink="http://www.w3.org/1999/xlink" xml:space="preserve" style="fill-rule:evenodd;clip-rule:evenodd;stroke-linejoin:round;stroke-miterlimit:1.41421;"><g><path d="M684.682,216.833l0,208.699l-33.997,0l0,-140.894l-13.58,140.894l-24.112,0l-14.319,-137.672l0,137.672l-33.997,0l0,-208.699l50.348,0c1.479,12.547 3.049,27.328 4.712,44.344l5.358,53.109l8.869,-97.453l50.718,0Z" style="fill-rule:nonzero;"/><path d="M700.295,216.833l64.852,0l0,41.766l-25.959,0l0,39.574l24.297,0l0,39.703l-24.297,0l0,45.891l28.546,0l0,41.765l-67.439,0l0,-208.699Z" style="fill-rule:nonzero;"/><path d="M865.752,216.833l0,208.699l-34.089,0l-20.232,-94.875l0,94.875l-32.518,0l0,-208.699l32.518,0l21.803,93.973l0,-93.973l32.518,0Z" style="fill-rule:nonzero;"/><path d="M972.177,307.841l-38.893,0l0,-36.352c0,-10.57 -0.416,-17.166 -1.247,-19.787c-0.831,-2.621 -2.664,-3.931 -5.497,-3.931c-3.202,0 -5.235,1.589 -6.097,4.769c-0.862,3.18 -1.293,10.055 -1.293,20.625l0,96.938c0,10.14 0.431,16.757 1.293,19.851c0.862,3.094 2.802,4.641 5.82,4.641c2.895,0 4.789,-1.547 5.682,-4.641c0.893,-3.094 1.339,-10.355 1.339,-21.785l0,-26.168l38.893,0l0,8.121c0,21.57 -1.093,36.867 -3.279,45.891c-2.187,9.023 -7.021,16.929 -14.504,23.718c-7.483,6.79 -16.706,10.184 -27.669,10.184c-11.394,0 -20.786,-2.879 -28.177,-8.637c-7.39,-5.757 -12.287,-13.728 -14.689,-23.912c-2.402,-10.183 -3.603,-25.502 -3.603,-45.955l0,-60.972c0,-15.04 0.37,-26.319 1.109,-33.838c0.739,-7.52 2.941,-14.76 6.605,-21.721c3.665,-6.961 8.746,-12.44 15.244,-16.436c6.497,-3.996 13.965,-5.994 22.402,-5.994c11.456,0 20.91,3.094 28.362,9.281c7.452,6.188 12.348,13.901 14.689,23.139c2.34,9.238 3.51,23.611 3.51,43.119l0,19.852Z" style="fill-rule:nonzero;"/><rect x="986.127" y="216.833" width="38.893" height="208.699" style="fill-rule:nonzero;"/><path d="M1129.51,339.036c0,20.969 -0.354,35.815 -1.062,44.537c-0.708,8.723 -2.926,16.694 -6.652,23.912c-3.726,7.219 -8.761,12.762 -15.104,16.629c-6.344,3.867 -13.735,5.801 -22.172,5.801c-8.007,0 -15.197,-1.826 -21.572,-5.478c-6.374,-3.653 -11.501,-9.131 -15.381,-16.436c-3.88,-7.305 -6.19,-15.254 -6.929,-23.848c-0.739,-8.593 -1.109,-23.632 -1.109,-45.117l0,-35.707c0,-20.969 0.355,-35.814 1.063,-44.537c0.708,-8.723 2.925,-16.693 6.651,-23.912c3.727,-7.219 8.761,-12.762 15.105,-16.629c6.344,-3.867 13.734,-5.801 22.172,-5.801c8.006,0 15.197,1.826 21.571,5.479c6.375,3.652 11.502,9.131 15.382,16.435c3.88,7.305 6.19,15.254 6.929,23.848c0.739,8.594 1.108,23.633 1.108,45.117l0,35.707Zm-38.893,-68.578c0,-9.711 -0.385,-15.92 -1.155,-18.627c-0.77,-2.707 -2.355,-4.06 -4.757,-4.06c-2.033,0 -3.588,1.095 -4.666,3.287c-1.078,2.191 -1.616,8.658 -1.616,19.4l0,97.453c0,12.117 0.354,19.594 1.062,22.43c0.708,2.836 2.356,4.254 4.942,4.254c2.649,0 4.342,-1.633 5.082,-4.899c0.739,-3.265 1.108,-11.043 1.108,-23.332l0,-95.906Z" style="fill-rule:nonzero;"/><path d="M1230.85,216.833l0,208.699l-34.089,0l-20.232,-94.875l0,94.875l-32.519,0l0,-208.699l32.519,0l21.802,93.973l0,-93.973l32.519,0Z" style="fill:#4d4d4d;fill-rule:nonzero;"/><path d="M1246.46,216.833l64.853,0l0,41.766l-25.96,0l0,39.574l24.297,0l0,39.703l-24.297,0l0,45.891l28.546,0l0,41.765l-67.439,0l0,-208.699Z" style="fill-rule:nonzero;"/><path d="M1407.49,279.997l-36.122,0l0,-15.469c0,-7.218 -0.461,-11.816 -1.385,-13.793c-0.924,-1.976 -2.464,-2.964 -4.619,-2.964c-2.341,0 -4.111,1.332 -5.312,3.996c-1.201,2.664 -1.802,6.703 -1.802,12.117c0,6.961 0.678,12.203 2.033,15.726c1.293,3.524 4.957,7.778 10.993,12.762c17.306,14.352 28.208,26.125 32.704,35.32c4.496,9.196 6.744,24.02 6.744,44.473c0,14.867 -1.248,25.824 -3.742,32.871c-2.494,7.047 -7.314,12.955 -14.458,17.725c-7.144,4.769 -15.459,7.154 -24.943,7.154c-10.409,0 -19.293,-2.75 -26.653,-8.25c-7.359,-5.5 -12.179,-12.504 -14.458,-21.012c-2.278,-8.507 -3.418,-20.582 -3.418,-36.222l0,-13.664l36.122,0l0,25.394c0,7.82 0.508,12.848 1.524,15.082c1.016,2.235 2.818,3.352 5.405,3.352c2.586,0 4.511,-1.418 5.774,-4.254c1.262,-2.836 1.893,-7.047 1.893,-12.633c0,-12.289 -1.201,-20.324 -3.602,-24.105c-2.464,-3.782 -8.53,-10.098 -18.2,-18.95c-9.669,-8.937 -16.075,-15.425 -19.216,-19.464c-3.141,-4.04 -5.743,-9.625 -7.806,-16.758c-2.063,-7.133 -3.095,-16.242 -3.095,-27.328c0,-15.985 1.463,-27.672 4.388,-35.063c2.926,-7.391 7.653,-13.17 14.181,-17.338c6.529,-4.168 14.412,-6.252 23.65,-6.252c10.101,0 18.708,2.278 25.821,6.832c7.114,4.555 11.825,10.291 14.135,17.209c2.309,6.918 3.464,18.67 3.464,35.256l0,8.25Z" style="fill-rule:nonzero;"/></g><g><path d="M641.13,87.519l-34.822,0l0,-16.265c0,-10.253 -0.331,-16.67 -0.993,-19.252c-0.662,-2.582 -2.233,-3.873 -4.715,-3.873c-2.15,0 -3.612,1.107 -4.384,3.32c-0.772,2.212 -1.158,7.892 -1.158,17.039l0,85.971c0,8.04 0.386,13.332 1.158,15.877c0.772,2.545 2.316,3.817 4.632,3.817c2.537,0 4.26,-1.438 5.17,-4.315c0.91,-2.877 1.365,-8.483 1.365,-16.818l0,-21.243l-7.031,0l0,-27.219l40.778,0l0,96.15l-21.919,0l-3.226,-12.835c-2.371,5.533 -5.363,9.682 -8.974,12.448c-3.612,2.766 -7.872,4.149 -12.78,4.149c-5.845,0 -11.318,-1.899 -16.419,-5.698c-5.1,-3.799 -8.974,-8.501 -11.621,-14.107c-2.647,-5.606 -4.301,-11.489 -4.963,-17.648c-0.662,-6.159 -0.993,-15.398 -0.993,-27.717l0,-53.22c0,-17.113 0.69,-29.542 2.068,-37.287c1.379,-7.745 5.335,-14.845 11.87,-21.299c6.534,-6.454 14.985,-9.681 25.352,-9.681c10.201,0 18.666,2.803 25.393,8.409c6.728,5.606 11.112,12.263 13.152,19.971c2.04,7.708 3.06,18.902 3.06,33.581l0,7.745Z" style="fill-rule:nonzero;"/><path d="M714.747,21.575l19.934,179.133l-35.65,0l-1.737,-32.198l-12.49,0l-2.068,32.198l-36.064,0l17.701,-179.133l50.374,0Zm-18.446,115.181c-1.764,-20.285 -3.529,-45.328 -5.293,-75.128c-3.53,34.226 -5.735,59.268 -6.618,75.128l11.911,0Z" style="fill-rule:nonzero;"/><path d="M818.388,21.575l0,179.133l-30.521,0l-18.115,-81.434l0,81.434l-29.116,0l0,-179.133l29.116,0l19.521,80.659l0,-80.659l29.115,0Z" style="fill-rule:nonzero;"/><path d="M892.501,21.575l19.934,179.133l-35.65,0l-1.737,-32.198l-12.49,0l-2.068,32.198l-36.063,0l17.701,-179.133l50.373,0Zm-18.446,115.181c-1.764,-20.285 -3.529,-45.328 -5.293,-75.128c-3.529,34.226 -5.735,59.268 -6.617,75.128l11.91,0Z" style="fill:#4d4d4d;fill-rule:nonzero;"/><path d="M918.391,21.575l26.055,0c16.819,0 28.192,1.032 34.12,3.098c5.928,2.065 10.436,5.458 13.524,10.179c3.088,4.721 5.018,9.976 5.79,15.767c0.772,5.79 1.158,17.168 1.158,34.134l0,62.735c0,16.08 -0.566,26.831 -1.696,32.253c-1.13,5.421 -3.102,9.663 -5.914,12.724c-2.812,3.061 -6.286,5.2 -10.422,6.417c-4.136,1.218 -10.367,1.826 -18.694,1.826l-43.921,0l0,-179.133Zm34.823,30.648l0,117.837c5.018,0 8.106,-1.347 9.264,-4.039c1.158,-2.692 1.737,-10.013 1.737,-21.963l0,-69.595c0,-8.114 -0.193,-13.315 -0.579,-15.601c-0.386,-2.287 -1.269,-3.965 -2.647,-5.035c-1.379,-1.069 -3.971,-1.604 -7.775,-1.604Z" style="fill-rule:nonzero;"/><path d="M1091.6,126.466c0,17.998 -0.318,30.74 -0.952,38.227c-0.634,7.487 -2.619,14.329 -5.955,20.525c-3.336,6.196 -7.844,10.954 -13.524,14.273c-5.68,3.319 -12.297,4.979 -19.852,4.979c-7.168,0 -13.606,-1.567 -19.314,-4.702c-5.707,-3.135 -10.298,-7.838 -13.772,-14.108c-3.474,-6.269 -5.541,-13.093 -6.203,-20.469c-0.662,-7.376 -0.993,-20.285 -0.993,-38.725l0,-30.649c0,-17.998 0.317,-30.741 0.951,-38.228c0.635,-7.487 2.62,-14.328 5.956,-20.524c3.336,-6.196 7.844,-10.954 13.524,-14.273c5.68,-3.32 12.297,-4.979 19.851,-4.979c7.169,0 13.607,1.567 19.314,4.702c5.708,3.135 10.298,7.837 13.772,14.107c3.474,6.27 5.542,13.093 6.204,20.469c0.662,7.377 0.993,20.285 0.993,38.726l0,30.649Zm-34.823,-58.863c0,-8.336 -0.345,-13.665 -1.034,-15.988c-0.69,-2.324 -2.11,-3.486 -4.26,-3.486c-1.82,0 -3.212,0.941 -4.177,2.822c-0.965,1.881 -1.448,7.431 -1.448,16.652l0,83.647c0,10.401 0.317,16.818 0.951,19.252c0.635,2.434 2.11,3.651 4.426,3.651c2.371,0 3.887,-1.401 4.549,-4.204c0.662,-2.803 0.993,-9.479 0.993,-20.027l0,-82.319Z" style="fill-rule:nonzero;"/><path d="M1104.58,21.575l24.649,0c16.432,0 27.558,0.848 33.375,2.544c5.818,1.697 10.56,6.031 14.227,13.001c3.667,6.971 5.501,18.09 5.501,33.359c0,13.942 -1.296,23.31 -3.888,28.104c-2.592,4.795 -7.692,7.672 -15.302,8.63c6.893,2.287 11.525,5.348 13.896,9.184c2.371,3.836 3.846,7.358 4.425,10.566c0.579,3.209 0.869,12.042 0.869,26.5l0,47.245l-32.342,0l0,-59.527c0,-9.589 -0.565,-15.527 -1.695,-17.813c-1.131,-2.287 -4.095,-3.43 -8.892,-3.43l0,80.77l-34.823,0l0,-179.133Zm34.823,30.648l0,39.832c3.915,0 6.658,-0.719 8.23,-2.157c1.571,-1.439 2.357,-6.104 2.357,-13.997l0,-9.847c0,-5.68 -0.758,-9.405 -2.274,-11.175c-1.517,-1.771 -4.288,-2.656 -8.313,-2.656Z" style="fill:#0d0d0d;fill-rule:nonzero;"/><path d="M1195.82,21.575l58.066,0l0,35.848l-23.243,0l0,33.968l21.754,0l0,34.079l-21.754,0l0,39.389l25.559,0l0,35.849l-60.382,0l0,-179.133Z" style="fill-rule:nonzero;"/><path d="M1339.99,75.79l-32.341,0l0,-13.277c0,-6.196 -0.414,-10.142 -1.241,-11.839c-0.827,-1.696 -2.206,-2.545 -4.136,-2.545c-2.095,0 -3.681,1.144 -4.756,3.43c-1.075,2.287 -1.613,5.754 -1.613,10.401c0,5.975 0.607,10.474 1.82,13.498c1.158,3.025 4.439,6.676 9.843,10.954c15.495,12.319 25.256,22.424 29.281,30.317c4.025,7.892 6.038,20.617 6.038,38.172c0,12.761 -1.116,22.166 -3.35,28.215c-2.233,6.048 -6.548,11.119 -12.945,15.213c-6.396,4.094 -13.841,6.141 -22.333,6.141c-9.319,0 -17.273,-2.36 -23.863,-7.081c-6.589,-4.721 -10.904,-10.733 -12.945,-18.035c-2.04,-7.303 -3.06,-17.667 -3.06,-31.091l0,-11.729l32.341,0l0,21.797c0,6.713 0.455,11.028 1.365,12.946c0.91,1.917 2.523,2.876 4.839,2.876c2.316,0 4.039,-1.217 5.17,-3.651c1.13,-2.434 1.695,-6.048 1.695,-10.843c0,-10.548 -1.075,-17.445 -3.226,-20.691c-2.205,-3.245 -7.637,-8.667 -16.294,-16.264c-8.658,-7.672 -14.393,-13.241 -17.205,-16.708c-2.812,-3.467 -5.142,-8.261 -6.99,-14.383c-1.847,-6.123 -2.77,-13.942 -2.77,-23.457c0,-13.72 1.309,-23.752 3.928,-30.095c2.62,-6.344 6.852,-11.305 12.697,-14.882c5.845,-3.578 12.904,-5.366 21.175,-5.366c9.044,0 16.75,1.954 23.119,5.864c6.369,3.909 10.588,8.833 12.655,14.771c2.068,5.938 3.102,16.025 3.102,30.261l0,7.081Z" style="fill-rule:nonzero;"/></g><ellipse cx="761.067" cy="209.72" rx="54.201" ry="56.93" style="fill:#ebebeb;"/><path d="M782.796,173.278l-14.391,48.422l0,27.469l-18.281,0l0,-27.469l-13.875,-48.422l18.14,0c2.844,14.782 4.438,24.735 4.782,29.86c1.093,-8.094 2.921,-18.047 5.484,-29.86l18.141,0Z" style="fill:#b40000;fill-rule:nonzero;"/></svg>