<?xml version="1.0" encoding="UTF-8" standalone="no"?><!DOCTYPE svg PUBLIC "-//W3C//DTD SVG 1.1//EN" "http://www.w3.org/Graphics/SVG/1.1/DTD/svg11.dtd"><svg width="100%" height="100%" viewBox="0 0 256 256" version="1.1" xmlns="http://www.w3.org/2000/svg" xmlns:xlink="http://www.w3.org/1999/xlink" xml:space="preserve" style="fill-rule:evenodd;clip-rule:evenodd;stroke-linejoin:round;stroke-miterlimit:1.41421;"><path d="M25.851,204.803l45.438,-4.983l-3.122,-5.865l-7.843,1.568l6.274,-3.124l-3.13,-5.075l-37.617,17.479Z" style="fill:#d6d7dc;fill-opacity:0.25;fill-rule:nonzero;"/><path d="M89.3,223.247c0,0 137.321,-43.099 138.232,-45.467c0.917,-2.368 2.722,-5.404 -5.747,-3.4c-8.46,2.024 -88.894,12.034 -88.894,12.034l-4.538,5.75l64.102,-8.358l-81.067,27.292l14.848,-17.918l31.508,-34.154c0,0 -7.562,-2.05 -10.892,0.325c-3.34,2.357 -44.766,15.487 -44.766,15.487l-0.316,5.085l30.86,-10.445l-16.967,18.94l-14.518,1.664l-0.307,5.072l8.768,-0.663l-8.785,10.153l-0.015,8.47l-11.506,10.133Z" style="fill:#d6d7dc;fill-opacity:0.25;fill-rule:nonzero;"/><path d="M92.122,180.88l10.363,-7.336l-1.366,40.875l-10.593,8.775l1.596,-42.314Z" style="fill:#ccc4c1;fill-rule:nonzero;"/><path d="M92.332,181.018l-1.566,41.674l10.14,-8.403l1.345,-40.303l-9.919,7.032Zm-2.034,42.67l0.018,-0.509l1.595,-42.433l0.095,-0.068l10.711,-7.597l-0.014,0.463l-1.371,41.002l-0.086,0.072l-10.948,9.07Z" style="fill:#ccc4c1;fill-rule:nonzero;"/><path d="M62.09,172.446l10.516,-7.279l11.308,16.981l-0.663,21.455l-21.161,-31.157Z" style="fill:#ccc4c1;fill-rule:nonzero;"/><path d="M62.404,172.509l20.652,30.403l0.641,-20.682l-11.143,-16.742l-10.15,7.021Zm21.043,31.786l-21.678,-31.918l10.889,-7.541l11.476,17.231l-0.687,22.228Z" style="fill:#ccc4c1;fill-rule:nonzero;"/><path d="M29.778,163.577l10.717,-6.8l-0.241,21.616l-10.126,10.304l-0.35,-25.12Z" style="fill:#ccc4c1;fill-rule:nonzero;"/><path d="M30,163.721l0.337,24.435l9.703,-9.88l0.234,-21.071l-10.274,6.516Zm-0.076,25.519l-0.366,-25.813l11.159,-7.064l-0.245,22.133l-0.074,0.076l-10.474,10.668Z" style="fill:#ccc4c1;fill-rule:nonzero;"/><path d="M58.146,181.093l-1.834,-3.023l-28.031,25.856l13.094,-6.288l16.771,-16.545Z" style="fill:#ccc4c1;fill-rule:nonzero;"/><path d="M56.269,178.422l-26.669,24.601l11.654,-5.587l16.596,-16.373l-1.581,-2.641Zm-27.899,25.729l-0.227,-0.417l28.217,-26.031l2.076,3.434l-16.98,16.731l-13.086,6.283Z" style="fill:#ccc4c1;fill-rule:nonzero;"/><path d="M21.388,160.874l0.449,38.641c0,0 2.003,6.722 6.443,4.411l27.735,-25.614l30.621,45.13c0,0 5.657,1.871 4.859,-4.373l1.279,-38.378l-9.089,-2.567l-0.442,25.424l-21.152,-31.248l-11.923,-3.715l-20.038,19.612l-0.352,-24.741l-8.39,-2.582Z" style="fill:#95847a;fill-rule:nonzero;"/><path d="M86.762,223.225c0.205,0.066 0.865,0.234 1.608,0.236c1.072,0.002 1.87,-0.332 2.368,-0.978c0.554,-0.721 0.737,-1.863 0.54,-3.382l1.275,-38.223l-8.657,-2.435l-0.448,25.813l-0.372,-0.554l-21.112,-31.182l-11.741,-3.669l-20.299,19.875l-0.358,-25.079l-7.959,-2.449l0.449,38.278c0.137,0.432 1.571,4.677 4.423,4.682c0.537,0.001 1.106,-0.145 1.689,-0.446l27.88,-25.752l30.714,45.265Zm1.607,0.73c-0.964,-0.002 -1.761,-0.258 -1.795,-0.273l-0.067,-0.021l-0.043,-0.067l-30.483,-44.937l-27.606,25.494c-0.646,0.328 -1.288,0.507 -1.897,0.506c-3.297,-0.006 -4.781,-4.85 -4.845,-5.059l-0.011,-0.076l-0.458,-38.974l8.831,2.729l0.006,0.179l0.337,24.212l19.775,-19.346l12.104,3.768l0.04,0.057l20.782,30.698l0.439,-25.026l9.524,2.675l-1.295,38.586c0.216,1.617 -0.005,2.877 -0.64,3.722c-0.579,0.75 -1.509,1.155 -2.698,1.153" style="fill:#95847a;fill-rule:nonzero;"/><path d="M25.822,117.62l14.596,0.264l24.515,37.389l-8.606,8.799l-30.505,-46.452Z" style="fill:#a1a3a9;fill-rule:nonzero;"/><path d="M26.258,117.884l30.102,45.826l8.285,-8.469l-24.334,-37.117l-14.053,-0.24Zm30.036,46.549l-0.141,-0.215l-30.769,-46.843l15.147,0.268l0.06,0.093l24.632,37.573l-0.142,0.146l-8.787,8.978Z" style="fill:#a1a3a9;fill-rule:nonzero;"/><path d="M87.857,133.486l10.971,-5.686c0,0 4.477,0.52 5.087,5.222l-1.618,40.708l-9.585,7.022l0.859,-42.889c0,0 -2.931,-4.54 -5.714,-4.377" style="fill:#a1a3a9;fill-rule:nonzero;"/><path d="M88.702,133.32c2.561,0.598 4.932,4.224 5.038,4.393l0.049,0.066l0,0.084l-0.851,42.426l9.144,-6.704l1.622,-40.568c-0.542,-4.142 -4.337,-4.874 -4.838,-4.96l-10.164,5.263Zm3.786,47.879l0.001,-0.452l0.86,-42.81c-0.369,-0.552 -3.022,-4.371 -5.478,-4.203l-0.106,-0.468l11.029,-5.707l0.054,0.005c0.051,0.004 4.657,0.591 5.283,5.424l-1.623,40.878l-10.02,7.333Z" style="fill:#a1a3a9;fill-rule:nonzero;"/><path d="M28.836,163.918l12.303,-6.941l0.003,-2.067l-11.904,-15.831l-0.402,24.839Z" style="fill:#a1a3a9;fill-rule:nonzero;"/><path d="M29.444,139.73l-0.392,23.793l11.863,-6.698l0.003,-1.825l-11.474,-15.27Zm-0.836,24.589l0.007,-0.401l0.412,-25.49l12.324,16.39l-0.004,2.313l-12.739,7.188Z" style="fill:#a1a3a9;fill-rule:nonzero;"/><path d="M62.345,172.398l9.142,-6.151l13.019,-13.839l-22.161,19.99Z" style="fill:#acaeb4;fill-rule:nonzero;"/><path d="M80.473,156.369l-15.505,13.988l6.41,-4.323l9.095,-9.665Zm-18.017,16.246l-0.24,-0.404l22.163,-19.991l0.281,0.372l-13.028,13.838l-9.176,6.185Z" style="fill:#acaeb4;fill-rule:nonzero;"/><path d="M21.434,162.244l-0.533,-40.127c0,0 -0.299,-3.111 4.915,-4.48l29.809,45.53l32.179,-29.595c0,0 6.064,0.698 6.053,7.09l-1.286,40.121l-9.083,-1.843l0.848,-26.671l-22.45,20.476l-12.126,-3.208l-20.339,-30.585l0.374,24.769l-8.361,-1.477Z" style="fill:#713e11;fill-rule:nonzero;"/><path d="M83.707,178.739l8.657,1.762l1.271,-39.855c0.01,-5.68 -5.038,-6.699 -5.764,-6.82l-32.285,29.69l-0.13,-0.209l-29.73,-45.392c-4.799,1.314 -4.617,4.062 -4.61,4.176l0.535,39.939l7.925,1.408l-0.389,-25.231l20.701,31.106l11.94,3.169l22.742,-20.743l-0.863,27Zm9.072,2.34l-9.514,-1.933l0.845,-26.347l-22.175,20.213l-0.1,-0.018l-12.2,-3.237l-0.05,-0.077l-19.939,-29.981l0.367,24.319l-8.79,-1.566l0.001,-0.208l-0.536,-40.121c-0.013,-0.117 -0.26,-3.318 5.077,-4.728l0.135,-0.038l29.765,45.446l32.075,-29.485l0.086,0.005c0.067,0.012 6.255,0.803 6.243,7.34l-1.29,40.416Z" style="fill:#713e11;fill-rule:nonzero;"/></svg>